<svg width="50" height="50" viewBox="0 0 50 50" fill="none" xmlns="http://www.w3.org/2000/svg">
<g clip-path="url(#clip0_7180_125)">
<path d="M28.7463 11.6005H21.1719V7.94755H28.7463V11.6005ZM38.2777 32.106C39.1296 32.106 39.8202 31.4153 39.8202 30.5558V14.4399C39.8202 11.0249 37.0498 8.24684 33.6425 8.24684H31.8314V6.39736C31.8314 5.53785 31.1407 4.84717 30.2889 4.84717H19.6217C18.7699 4.84717 18.0792 5.53785 18.0792 6.39736V8.25452H16.2757C12.8607 8.24684 10.0903 11.0326 10.0903 14.4476V38.2991C10.0903 41.7141 12.8607 44.4922 16.2681 44.4922H33.6502C37.0575 44.4922 39.8279 41.7141 39.8279 38.3067C39.8279 37.4472 39.1372 36.7565 38.2854 36.7565C37.4336 36.7565 36.7429 37.4472 36.7429 38.3067C36.7429 40.0104 35.3538 41.4071 33.6578 41.4071H16.2681C14.5644 41.4071 13.183 40.0181 13.183 38.3067V14.4476C13.183 12.7363 14.5644 11.3472 16.2681 11.3472H18.0792V13.1507C18.0792 14.0102 18.7699 14.7009 19.6217 14.7009H30.2889C31.1407 14.7009 31.8314 14.0102 31.8314 13.1507V11.3472H33.6425C35.3462 11.3472 36.7275 12.7363 36.7275 14.4476V30.5635C36.7352 31.4076 37.4259 32.106 38.2777 32.106Z" fill="#413E43"/>
<path d="M24.955 17.0337C23.9573 17.0337 23.1516 17.8088 23.1516 18.7757V19.8501H22.0388C21.0411 19.8501 20.2354 20.6252 20.2354 21.5922C20.2354 22.5591 21.0411 23.3342 22.0388 23.3342H23.1516V24.4086C23.1516 25.3756 23.9573 26.1507 24.955 26.1507C25.9526 26.1507 26.7584 25.3756 26.7584 24.4086V23.3342H27.8712C28.8688 23.3342 29.6746 22.5591 29.6746 21.5922C29.6746 20.6252 28.8688 19.8501 27.8712 19.8501H26.7584V18.7757C26.7584 17.8165 25.9526 17.0337 24.955 17.0337Z" fill="#D31D16"/>
<path d="M31.1789 29.4661H18.739C17.7413 29.4661 16.9355 30.2412 16.9355 31.2081C16.9355 32.1751 17.7413 32.9502 18.739 32.9502H31.1789C32.1765 32.9502 32.9823 32.1751 32.9823 31.2081C32.9823 30.2412 32.1765 29.4661 31.1789 29.4661Z" fill="#413E43"/>
<path d="M31.1789 36.1655H18.739C17.7413 36.1655 16.9355 36.9406 16.9355 37.9076C16.9355 38.8745 17.7413 39.6496 18.739 39.6496H31.1789C32.1765 39.6496 32.9823 38.8745 32.9823 37.9076C32.9823 36.9483 32.1765 36.1655 31.1789 36.1655Z" fill="#413E43"/>
</g>
<defs>
<clipPath id="clip0_7180_125">
<rect width="29.7376" height="39.6373" fill="white" transform="translate(10.0903 4.84717)"/>
</clipPath>
</defs>
</svg>
