<svg width="75" height="73" viewBox="0 0 75 73" fill="none" xmlns="http://www.w3.org/2000/svg">
<g clip-path="url(#clip0_7180_1301)">
<path d="M37.4473 28.529H25.6278C24.3133 28.529 23.2502 29.574 23.2502 30.8662C23.2502 32.1584 24.3133 33.2034 25.6278 33.2034H37.4473C38.7618 33.2034 39.8249 32.1584 39.8249 30.8662C39.8249 29.574 38.7618 28.529 37.4473 28.529Z" fill="white"/>
<path d="M25.6278 22.8545H35.767C37.0815 22.8545 38.1446 21.8095 38.1446 20.5173C38.1446 19.2251 37.0815 18.1801 35.767 18.1801H25.6278C24.3133 18.1801 23.2502 19.2251 23.2502 20.5173C23.2502 21.8095 24.3133 22.8545 25.6278 22.8545Z" fill="white"/>
<path d="M38.1446 49.238H25.6278C24.3133 49.238 23.2502 50.283 23.2502 51.5752C23.2502 52.8674 24.3133 53.9124 25.6278 53.9124H38.1446C39.4591 53.9124 40.5222 52.8674 40.5222 51.5752C40.5222 50.283 39.4591 49.238 38.1446 49.238Z" fill="white"/>
<path d="M25.6278 43.5635H35.9841C37.2987 43.5635 38.3618 42.5185 38.3618 41.2263C38.3618 39.9341 37.2987 38.8891 35.9841 38.8891H25.6278C24.3133 38.8891 23.2502 39.9341 23.2502 41.2263C23.2502 42.5185 24.3133 43.5635 25.6278 43.5635Z" fill="white"/>
<path d="M61.3606 18.9105C61.3491 18.8993 61.3491 18.8993 61.3491 18.8993L49.0382 6.79749C49.0382 6.79749 49.0267 6.78625 49.0153 6.77502C48.5695 6.34803 47.9637 6.11206 47.335 6.11206H21.2842C16.3232 6.11206 12.311 10.0561 12.311 14.9328V57.1598C12.311 62.0364 16.3232 65.9805 21.2842 65.9805H26.0623H31.389H42.4655C43.8029 65.9805 44.8888 64.8905 44.8431 63.5534C44.7973 62.2836 43.7 61.2948 42.4083 61.2948H26.6224C26.6224 61.306 26.6224 61.3285 26.6224 61.3398C23.5589 61.306 21.2842 61.2948 21.2842 61.2948C18.9523 61.2948 17.0662 59.4408 17.0662 57.1485V14.9328C17.0662 12.6405 18.9523 10.7865 21.2842 10.7865H44.9802V14.0563C44.9802 18.933 48.9924 22.877 53.9534 22.877H57.2798V40.0802C57.2798 41.3949 58.3886 42.4623 59.7488 42.4174C61.0405 42.3724 62.0464 41.2937 62.0464 40.024V20.5623C62.035 19.9443 61.7949 19.3487 61.3606 18.9105ZM49.7355 14.1013L53.9191 18.2138C51.6215 18.1914 49.7583 16.3598 49.7355 14.1013Z" fill="white"/>
<path d="M55.748 66.576C58.6286 65.8119 60.3318 62.8904 59.5545 60.0588L53.3704 37.5407C52.3874 33.9675 50.0441 30.9786 46.7863 29.1358C46.3519 28.8886 45.8604 28.8436 45.4146 28.956C44.9688 29.0796 44.5687 29.3605 44.3172 29.7875C42.4426 33.0012 41.9511 36.7317 42.9227 40.3162L49.1067 62.8342C49.9069 65.6546 52.8789 67.3401 55.748 66.576ZM54.8107 63.1601C53.8505 63.4185 52.856 62.8567 52.6046 61.9128L52.1359 60.2049L55.6109 59.2835L56.0795 60.9914C56.3424 61.9241 55.7709 62.9016 54.8107 63.1601ZM46.6262 33.3383C48.2037 34.6754 49.3468 36.4395 49.8955 38.4621L54.6735 55.8563L51.1986 56.7777L46.4205 39.3835C45.8604 37.3609 45.9404 35.2709 46.6262 33.3383Z" fill="white"/>
</g>
<defs>
<clipPath id="clip0_7180_1301">
<rect width="49.7239" height="60.6437" fill="white" transform="translate(12.311 6.11206)"/>
</clipPath>
</defs>
</svg>
