<svg width="74" height="73" viewBox="0 0 74 73" fill="none" xmlns="http://www.w3.org/2000/svg">
<g clip-path="url(#clip0_7180_1277)">
<path d="M32.5185 65.2838H16.5039C11.4172 65.2838 7.2793 61.2161 7.2793 56.2159V16.3036C7.2793 11.3034 11.4172 7.23572 16.5039 7.23572H43.2634C48.3501 7.23572 52.4881 11.3034 52.4881 16.3036V22.3601C52.4881 23.6074 51.4593 24.6299 50.1791 24.6299C48.9102 24.6299 47.87 23.6186 47.87 22.3601V16.3036C47.87 13.7979 45.8011 11.7641 43.252 11.7641H16.5039C13.9549 11.7641 11.8859 13.7979 11.8859 16.3036V56.2159C11.8859 58.7216 13.9549 60.7555 16.5039 60.7555H32.5185C33.7873 60.7555 34.8275 61.7667 34.8275 63.0252C34.8275 64.2837 33.7987 65.2838 32.5185 65.2838Z" fill="white"/>
<path d="M23.4308 56.2159C19.6129 56.2159 16.5151 53.1595 16.5151 49.4177C16.5151 45.6647 19.6243 42.6196 23.4308 42.6196C27.2372 42.6196 30.3464 45.676 30.3464 49.4177C30.3464 53.1595 27.2372 56.2159 23.4308 56.2159ZM23.4308 47.148C22.1619 47.148 21.1217 48.1705 21.1217 49.4177C21.1217 50.665 22.1619 51.6875 23.4308 51.6875C24.6996 51.6875 25.7398 50.665 25.7398 49.4177C25.7284 48.1593 24.6996 47.148 23.4308 47.148Z" fill="white"/>
<path d="M59.4036 65.2838H45.5724C41.7545 65.2838 38.6567 62.2274 38.6567 58.4856C38.6567 54.8562 41.5602 51.8786 45.218 51.6875L43.3777 39.406C43.3091 38.9677 43.2748 38.5183 43.2748 38.0688C43.2748 33.0685 47.4127 29.0009 52.4994 29.0009C57.5861 29.0009 61.7241 33.0685 61.7241 38.0688C61.7241 38.5183 61.6898 38.9677 61.6212 39.406L59.7808 51.6875C63.4273 51.8786 66.3421 54.845 66.3421 58.4856C66.3307 62.2274 63.2215 65.2838 59.4036 65.2838ZM45.5724 56.2159C44.3035 56.2159 43.2633 57.2384 43.2633 58.4856C43.2633 59.7329 44.3035 60.7554 45.5724 60.7554H59.4036C60.6724 60.7554 61.7126 59.7329 61.7126 58.4856C61.7126 57.2384 60.6724 56.2159 59.4036 56.2159H57.0946C56.4202 56.2159 55.7915 55.9237 55.3457 55.4293C54.9113 54.9349 54.717 54.2719 54.8084 53.6202L57.0375 38.7542C57.0717 38.5295 57.0832 38.3048 57.0832 38.0801C57.0832 35.5743 55.0142 33.5405 52.4651 33.5405C49.9161 33.5405 47.8471 35.5743 47.8471 38.0801C47.8471 38.3048 47.8585 38.5295 47.8928 38.7542L50.1218 53.6202C50.2247 54.2719 50.0189 54.9349 49.5846 55.4293C49.1502 55.9237 48.5101 56.2159 47.8357 56.2159H45.5724Z" fill="white"/>
<path d="M40.9545 20.8432H32.6557C31.3869 20.8432 30.3467 19.8319 30.3467 18.5734C30.3467 17.3149 31.3755 16.3036 32.6557 16.3036H40.9545C42.2233 16.3036 43.2635 17.3149 43.2635 18.5734C43.2635 19.8319 42.2347 20.8432 40.9545 20.8432Z" fill="white"/>
<path d="M40.9544 29.4616H18.8129C17.5441 29.4616 16.5039 28.4503 16.5039 27.1918C16.5039 25.9446 17.5327 24.9221 18.8129 24.9221H40.9544C42.2232 24.9221 43.2634 25.9333 43.2634 27.1918C43.2634 28.4391 42.2346 29.4616 40.9544 29.4616Z" fill="white"/>
<path d="M36.3478 38.0689H18.8129C17.5441 38.0689 16.5039 37.0576 16.5039 35.7991C16.5039 34.5518 17.5327 33.5293 18.8129 33.5293H36.3478C37.6166 33.5293 38.6568 34.5406 38.6568 35.7991C38.6568 37.0576 37.6166 38.0689 36.3478 38.0689Z" fill="white"/>
</g>
<defs>
<clipPath id="clip0_7180_1277">
<rect width="59.0515" height="58.0481" fill="white" transform="translate(7.2793 7.23572)"/>
</clipPath>
</defs>
</svg>
