<svg width="50" height="50" viewBox="0 0 50 50" fill="none" xmlns="http://www.w3.org/2000/svg">
<g clip-path="url(#clip0_7132_440)">
<path d="M22.3202 44.5224H11.5686C8.15355 44.5224 5.37549 41.7444 5.37549 38.3293V11.0705C5.37549 7.65551 8.15355 4.87744 11.5686 4.87744H29.5339C32.9489 4.87744 35.727 7.65551 35.727 11.0705V15.2069C35.727 16.0588 35.0363 16.7571 34.1768 16.7571C33.325 16.7571 32.6266 16.0664 32.6266 15.2069V11.0705C32.6266 9.35918 31.2376 7.97015 29.5262 7.97015H11.5686C9.85723 7.97015 8.4682 9.35918 8.4682 11.0705V38.3293C8.4682 40.0407 9.85723 41.4297 11.5686 41.4297H22.3202C23.172 41.4297 23.8703 42.1204 23.8703 42.9799C23.8703 43.8394 23.1797 44.5224 22.3202 44.5224Z" fill="#413E43"/>
<path d="M16.2191 38.3293C13.6559 38.3293 11.5762 36.2419 11.5762 33.6864C11.5762 31.1232 13.6636 29.0435 16.2191 29.0435C18.7746 29.0435 20.862 31.1308 20.862 33.6864C20.862 36.2419 18.7746 38.3293 16.2191 38.3293ZM16.2191 32.1362C15.3672 32.1362 14.6689 32.8345 14.6689 33.6864C14.6689 34.5382 15.3672 35.2365 16.2191 35.2365C17.0709 35.2365 17.7693 34.5382 17.7693 33.6864C17.7616 32.8268 17.0709 32.1362 16.2191 32.1362Z" fill="#413E43"/>
<path d="M40.3696 44.5225H31.0838C28.5206 44.5225 26.4409 42.4351 26.4409 39.8796C26.4409 37.4008 28.3902 35.3671 30.8459 35.2367L29.6104 26.8488C29.5643 26.5495 29.5413 26.2425 29.5413 25.9355C29.5413 22.5205 32.3194 19.7424 35.7344 19.7424C39.1494 19.7424 41.9275 22.5205 41.9275 25.9355C41.9275 26.2425 41.9045 26.5495 41.8584 26.8488L40.6229 35.2367C43.0709 35.3671 45.0279 37.3931 45.0279 39.8796C45.0202 42.4351 42.9328 44.5225 40.3696 44.5225ZM31.0838 38.3294C30.232 38.3294 29.5336 39.0277 29.5336 39.8796C29.5336 40.7314 30.232 41.4298 31.0838 41.4298H40.3696C41.2215 41.4298 41.9198 40.7314 41.9198 39.8796C41.9198 39.0277 41.2215 38.3294 40.3696 38.3294H38.8194C38.3666 38.3294 37.9446 38.1298 37.6453 37.7922C37.3536 37.4545 37.2232 37.0017 37.2846 36.5566L38.7811 26.4036C38.8041 26.2502 38.8118 26.0967 38.8118 25.9432C38.8118 24.2318 37.4227 22.8428 35.7114 22.8428C34 22.8428 32.611 24.2318 32.611 25.9432C32.611 26.0967 32.6187 26.2502 32.6417 26.4036L34.1382 36.5566C34.2072 37.0017 34.0691 37.4545 33.7775 37.7922C33.4858 38.1298 33.0561 38.3294 32.6033 38.3294H31.0838Z" fill="#413E43"/>
<path d="M27.984 14.1709H22.4125C21.5607 14.1709 20.8623 13.4803 20.8623 12.6207C20.8623 11.7612 21.553 11.0706 22.4125 11.0706H27.984C28.8358 11.0706 29.5342 11.7612 29.5342 12.6207C29.5342 13.4803 28.8435 14.1709 27.984 14.1709Z" fill="#D31D16"/>
<path d="M27.9835 20.0569H13.1186C12.2667 20.0569 11.5684 19.3662 11.5684 18.5067C11.5684 17.6549 12.259 16.9565 13.1186 16.9565H27.9835C28.8353 16.9565 29.5337 17.6472 29.5337 18.5067C29.5337 19.3586 28.843 20.0569 27.9835 20.0569Z" fill="#D31D16"/>
<path d="M24.8908 25.9355H13.1186C12.2667 25.9355 11.5684 25.2448 11.5684 24.3853C11.5684 23.5334 12.259 22.8351 13.1186 22.8351H24.8908C25.7426 22.8351 26.441 23.5258 26.441 24.3853C26.441 25.2448 25.7426 25.9355 24.8908 25.9355Z" fill="#D31D16"/>
</g>
<defs>
<clipPath id="clip0_7132_440">
<rect width="39.645" height="39.645" fill="white" transform="translate(5.37549 4.87744)"/>
</clipPath>
</defs>
</svg>
