<svg width="74" height="73" viewBox="0 0 74 73" fill="none" xmlns="http://www.w3.org/2000/svg">
<g clip-path="url(#clip0_7180_22878)">
<path d="M27.961 12.4777C28.5788 11.8113 29.3312 11.279 30.1702 10.9148C31.0092 10.5505 31.9163 10.3624 32.8334 10.3624C33.7506 10.3624 34.6576 10.5505 35.4966 10.9148C36.3356 11.279 37.088 11.8113 37.7058 12.4777C38.3711 13.2081 39.0329 13.9414 39.6913 14.6778C43.1926 14.6924 46.695 14.6711 50.1962 14.6879C51.5149 14.7369 52.7885 15.1722 53.8537 15.9378C54.9189 16.7034 55.7271 17.7645 56.1745 18.9848C56.7655 20.4938 56.4957 22.131 56.5735 23.7041C58.0719 24.2295 59.3267 25.2694 60.1067 26.6324C60.3083 27.0069 60.3932 27.4315 60.3508 27.8531C60.3085 28.2748 60.1406 28.6748 59.8683 29.0032C59.596 29.3317 59.2313 29.574 58.8198 29.6999C58.4082 29.8258 57.968 29.8297 57.5542 29.7112C57.0036 29.5505 56.5365 29.1886 56.2488 28.6999C56.0433 28.3653 55.7508 28.0907 55.4014 27.9042C55.052 27.7178 54.6584 27.6263 54.261 27.6392H15.8112C15.0258 27.6443 14.245 27.5205 13.5011 27.2729C13.5011 36.5385 13.5011 45.8053 13.5011 55.0732C13.4608 55.5404 13.5065 56.0109 13.636 56.4621C13.7662 56.8042 13.9819 57.1086 14.2631 57.3474C14.5443 57.5862 14.8821 57.7516 15.2454 57.8284C15.6124 57.8771 15.9831 57.8933 16.3531 57.8768C29.0237 57.8768 41.6944 57.8768 54.365 57.8768C54.9271 57.8741 55.467 57.6605 55.8741 57.2795C56.2812 56.8985 56.5249 56.379 56.5552 55.8272C56.5746 54.3507 56.5552 52.872 56.5632 51.3933C54.9846 51.3933 53.406 51.4056 51.8285 51.3854C49.6451 51.3011 47.5719 50.4201 46.0134 48.9144C44.455 47.4087 43.5232 45.3862 43.3997 43.2416C43.2762 41.097 43.9699 38.9841 45.3455 37.3151C46.7211 35.6462 48.6799 34.5408 50.8398 34.2148C51.646 34.1195 52.4585 34.0865 53.27 34.1159H58.7567C59.6753 34.1163 60.5836 34.3053 61.4236 34.6708C62.2635 35.0363 63.0165 35.5703 63.6343 36.2385C64.6469 37.3442 65.2509 38.753 65.3489 40.2376V45.2525C65.2558 46.7179 64.669 48.1111 63.6811 49.2122C62.9421 50.029 62.0062 50.6502 60.9594 51.0191C60.9469 52.6203 60.9594 54.2226 60.9514 55.825C60.9175 57.5397 60.195 59.1716 58.9415 60.3645C57.6881 61.5575 56.0055 62.2147 54.261 62.1927C41.4021 62.1927 28.544 62.1927 15.6867 62.1927C14.8111 62.1881 13.9451 62.013 13.1388 61.6777C12.3324 61.3423 11.6016 60.8532 10.9886 60.2387C9.87886 59.1141 9.21268 57.6379 9.10938 56.0744V20.8062C9.20491 19.3201 9.80922 17.9094 10.824 16.8038C11.4288 16.1494 12.1634 15.6235 12.9825 15.2583C13.8016 14.8931 14.6879 14.6963 15.5872 14.6801C19.0519 14.6699 22.5166 14.6879 25.9892 14.6722C26.6419 13.9362 27.3049 13.2114 27.9656 12.4777M31.9275 14.8733C31.49 15.1014 31.1115 15.4251 30.821 15.8194L24.0517 23.3154C29.9104 23.3154 35.7687 23.3154 41.6266 23.3154C39.2558 20.6882 36.8839 18.0623 34.5109 15.4374C34.1994 15.0826 33.7796 14.8362 33.3141 14.7349C32.8486 14.6337 32.3622 14.683 31.9275 14.8756M13.8977 19.9208C13.6681 20.244 13.5329 20.6228 13.5068 21.0162C13.4806 21.4095 13.5646 21.8024 13.7495 22.1522C13.9344 22.502 14.2133 22.7953 14.5558 23.0004C14.8983 23.2054 15.2913 23.3144 15.6924 23.3154C16.5234 23.3154 17.3567 23.3277 18.1889 23.3075C19.4714 21.8625 20.7791 20.4365 22.0753 18.9971C19.9522 18.9971 17.8292 18.9971 15.7061 18.9971C15.3522 18.9968 15.0035 19.0804 14.6897 19.2411C14.3758 19.4017 14.1061 19.6345 13.9034 19.9197M43.6052 18.996C44.842 20.3702 46.0868 21.7366 47.3191 23.1142C47.4094 23.2097 47.4951 23.3524 47.6551 23.3154H52.1692C52.1635 22.558 52.1795 21.7995 52.1623 21.0422C52.1324 20.5098 51.9034 20.0071 51.5195 19.6304C51.1355 19.2538 50.6236 19.0299 50.0819 19.0016C47.9215 18.9882 45.7599 19.0016 43.5995 18.996M51.3484 38.5117C50.3584 38.6966 49.4632 39.2106 48.8129 39.9675C48.1627 40.7244 47.7971 41.678 47.7774 42.6685C47.7577 43.6589 48.0851 44.6259 48.7047 45.4072C49.3244 46.1885 50.1985 46.7365 51.1804 46.9593C51.8328 47.0698 52.4958 47.1075 53.1568 47.0717C55.0612 47.0717 56.9678 47.0807 58.8722 47.0649C59.4134 47.0361 59.9248 46.812 60.3083 46.4354C60.6918 46.0589 60.9204 45.5564 60.9503 45.0244C60.9617 43.5097 60.9617 41.9939 60.9503 40.4769C60.9205 39.9466 60.6929 39.4456 60.311 39.0697C59.9291 38.6939 59.4197 38.4696 58.8802 38.4398C56.937 38.424 54.9937 38.4398 53.0505 38.433C52.4834 38.4088 51.9153 38.4347 51.353 38.5105" fill="white"/>
<path d="M19.4862 32.0383C19.8124 31.9464 20.1559 31.9301 20.4896 31.9907C20.8233 32.0513 21.1382 32.1871 21.4096 32.3874C21.6809 32.5877 21.9013 32.8471 22.0535 33.1453C22.2057 33.4435 22.2856 33.7722 22.2867 34.1058C22.2913 35.5486 22.2913 36.9921 22.2867 38.4364C22.2867 39.0089 22.0554 39.5579 21.6436 39.9627C21.2318 40.3675 20.6733 40.5949 20.0909 40.5949C19.5085 40.5949 18.95 40.3675 18.5382 39.9627C18.1264 39.5579 17.895 39.0089 17.895 38.4364C17.895 36.9966 17.895 35.558 17.895 34.1204C17.8954 33.651 18.0507 33.1944 18.3376 32.8191C18.6246 32.4439 19.0276 32.1691 19.4862 32.0383Z" fill="white"/>
<path d="M19.4851 44.9974C19.7933 44.9125 20.1166 44.8946 20.4325 44.9449C20.7485 44.9951 21.0495 45.1123 21.3148 45.2884C21.5801 45.4645 21.8032 45.6952 21.9686 45.9645C22.1341 46.2339 22.238 46.5353 22.273 46.8481C22.3085 48.3616 22.281 49.8763 22.2879 51.3899C22.2858 51.9513 22.0613 52.4897 21.662 52.8911C21.2627 53.2925 20.7201 53.5251 20.1492 53.5397C19.5784 53.5544 19.0241 53.3498 18.6041 52.9694C18.1842 52.589 17.9314 52.0628 17.8996 51.5023C17.8882 50.0269 17.8996 48.5482 17.8996 47.0717C17.9017 46.6039 18.0577 46.1493 18.3443 45.7759C18.6308 45.4024 19.0326 45.1301 19.4896 44.9997" fill="white"/>
</g>
<defs>
<clipPath id="clip0_7180_22878">
<rect width="73.1571" height="71.914" fill="white" transform="translate(0.650635 0.318604)"/>
</clipPath>
</defs>
</svg>
