<svg width="64" height="55" viewBox="0 0 64 55" fill="none" xmlns="http://www.w3.org/2000/svg">
<rect width="64" height="47" fill="#413E43"/>
<path d="M11.3359 22.996C11.3359 23.0604 11.3683 23.1153 11.3715 23.1797C11.3688 23.3435 11.3775 23.5072 11.3975 23.6698C11.4419 23.8249 11.4971 23.9768 11.5627 24.1243C11.5924 24.2217 11.627 24.3174 11.6663 24.4112C11.8299 24.7894 12.0616 25.1347 12.3499 25.43L22.6779 35.7078C22.9993 36.0262 23.3801 36.2792 23.7988 36.4525C24.5376 36.7569 25.3595 36.7971 26.1247 36.5661C26.8898 36.3352 27.5508 35.8474 27.9951 35.1859C28.4394 34.5243 28.6396 33.73 28.5614 32.9381C28.4833 32.1462 28.1317 31.4058 27.5665 30.843L23.0893 26.423L49.2204 26.423C50.1337 26.423 51.0096 26.0619 51.6554 25.4192C52.3013 24.7765 52.6641 23.9049 52.6641 22.996C52.6641 22.0871 52.3013 21.2154 51.6554 20.5727C51.0096 19.93 50.1337 19.5689 49.2204 19.5689L23.1379 19.5689L27.5795 15.149C28.0641 14.6692 28.3945 14.057 28.5289 13.39C28.6633 12.723 28.5956 12.0314 28.3343 11.4028C28.1143 10.8818 27.7692 10.4223 27.3293 10.0648C26.8894 9.70732 26.3681 9.46267 25.8111 9.35226C25.2541 9.24184 24.6783 9.26904 24.1343 9.4315C23.5904 9.59397 23.0947 9.88673 22.6909 10.2841L12.3628 20.5651C12.3304 20.5974 12.3175 20.6425 12.2851 20.678C11.9994 20.9692 11.7699 21.3101 11.6081 21.6838C11.4557 22.0668 11.3755 22.4745 11.3715 22.8864C11.3586 22.925 11.3359 22.9573 11.3359 22.996Z" fill="white"/>
</svg>
