<svg width="31" height="21" viewBox="0 0 31 21" fill="none" xmlns="http://www.w3.org/2000/svg">
<path d="M0.260379 10.5874C0.260379 10.6344 0.283954 10.6743 0.286315 10.7213C0.284316 10.8406 0.290652 10.9599 0.305226 11.0784C0.337628 11.1914 0.377845 11.3021 0.425612 11.4097C0.447255 11.4806 0.472462 11.5503 0.501151 11.6187C0.620347 11.8943 0.789159 12.1459 0.999266 12.3611L8.52535 19.8506C8.75959 20.0826 9.03706 20.2669 9.34219 20.3933C9.88052 20.6151 10.4795 20.6444 11.037 20.4761C11.5946 20.3078 12.0763 19.9523 12.4 19.4703C12.7238 18.9882 12.8697 18.4093 12.8127 17.8323C12.7558 17.2552 12.4996 16.7157 12.0877 16.3056L8.82517 13.0847L27.867 13.0847C28.5326 13.0847 29.1708 12.8216 29.6415 12.3532C30.1121 11.8849 30.3765 11.2497 30.3765 10.5874C30.3765 9.92507 30.1121 9.28989 29.6415 8.82156C29.1708 8.35323 28.5326 8.0901 27.867 8.0901L8.86058 8.09009L12.0972 4.86922C12.4503 4.5196 12.6911 4.07349 12.789 3.58747C12.8869 3.10145 12.8376 2.59745 12.6472 2.13939C12.4869 1.75969 12.2354 1.42489 11.9149 1.16438C11.5943 0.903868 11.2144 0.725594 10.8085 0.645132C10.4026 0.564673 9.98308 0.584496 9.58668 0.702883C9.19027 0.821268 8.8291 1.03461 8.53479 1.32419L1.0087 8.81604C0.985097 8.83953 0.975684 8.87243 0.952077 8.89827C0.743865 9.11044 0.576621 9.35889 0.45868 9.63124C0.347686 9.91033 0.289235 10.2074 0.286315 10.5075C0.276872 10.5357 0.260379 10.5592 0.260379 10.5874Z" fill="white"/>
</svg>
