<svg width="64" height="64" viewBox="0 0 64 64" fill="none" xmlns="http://www.w3.org/2000/svg">
<rect width="64" height="64" fill="#413E43"/>
<path d="M11.3359 30.996C11.3359 31.0604 11.3683 31.1153 11.3715 31.1797C11.3688 31.3435 11.3775 31.5072 11.3975 31.6698C11.4419 31.8249 11.4971 31.9768 11.5627 32.1243C11.5924 32.2217 11.627 32.3174 11.6663 32.4112C11.8299 32.7894 12.0616 33.1347 12.3499 33.43L22.6779 43.7078C22.9993 44.0262 23.3801 44.2792 23.7988 44.4525C24.5376 44.7569 25.3595 44.7971 26.1247 44.5661C26.8898 44.3352 27.5508 43.8474 27.9951 43.1859C28.4394 42.5243 28.6396 41.73 28.5614 40.9381C28.4833 40.1462 28.1317 39.4058 27.5665 38.843L23.0893 34.423L49.2204 34.423C50.1337 34.423 51.0096 34.0619 51.6554 33.4192C52.3013 32.7765 52.6641 31.9049 52.6641 30.996C52.6641 30.0871 52.3013 29.2154 51.6554 28.5727C51.0096 27.93 50.1337 27.5689 49.2204 27.5689L23.1379 27.5689L27.5795 23.149C28.0641 22.6692 28.3945 22.057 28.5289 21.39C28.6633 20.723 28.5956 20.0314 28.3343 19.4028C28.1143 18.8818 27.7692 18.4223 27.3293 18.0648C26.8894 17.7073 26.3681 17.4627 25.8111 17.3523C25.2541 17.2418 24.6783 17.269 24.1343 17.4315C23.5904 17.594 23.0947 17.8867 22.6909 18.2841L12.3628 28.5651C12.3304 28.5974 12.3175 28.6425 12.2851 28.678C11.9994 28.9692 11.7699 29.3101 11.6081 29.6838C11.4557 30.0668 11.3755 30.4745 11.3715 30.8864C11.3586 30.925 11.3359 30.9573 11.3359 30.996Z" fill="white"/>
</svg>
