<svg width="64" height="64" viewBox="0 0 64 64" fill="none" xmlns="http://www.w3.org/2000/svg">
<g clip-path="url(#clip0_2600_11895)">
<path d="M48.7001 43.74C48.2387 43.0318 47.6837 42.3893 47.05 41.83C45.58 40.37 44.1201 38.91 42.6501 37.44C42.1296 36.8936 41.5047 36.4573 40.8124 36.157C40.12 35.8568 39.3745 35.6987 38.6199 35.6922C37.8653 35.6857 37.1171 35.8308 36.4197 36.119C35.7223 36.4073 35.0899 36.8327 34.5601 37.37C34.2109 37.6971 33.7494 37.8775 33.2711 37.8737C32.7927 37.87 32.334 37.6825 31.99 37.35C30.22 35.59 28.46 33.83 26.69 32.06C26.4234 31.7972 26.2403 31.4615 26.1638 31.095C26.0873 30.7285 26.1208 30.3475 26.26 30C26.4306 29.6615 26.661 29.3566 26.94 29.1C27.8671 28.0222 28.3523 26.6337 28.2986 25.2131C28.2448 23.7924 27.6559 22.4447 26.65 21.44C25.11 19.9 23.57 18.3567 22.03 16.81C21.578 16.3228 21.0826 15.8776 20.55 15.48C19.7147 14.9241 18.7465 14.6005 17.7448 14.5425C16.7431 14.4845 15.7439 14.6942 14.85 15.15C13.9484 15.6719 13.1433 16.345 12.47 17.14C11.8 17.82 11.11 18.47 10.46 19.17C9.01377 20.7767 8.163 22.8312 8.05005 24.99V25.78C8.15239 28.1173 9.11799 30.3336 10.76 32L22.565 43.805C22.7388 43.9786 22.945 44.1163 23.172 44.2102C23.3989 44.3041 23.6421 44.3524 23.8878 44.3523C24.1334 44.3522 24.3766 44.3037 24.6034 44.2097C24.8303 44.1156 25.0364 43.9777 25.21 43.804C25.3837 43.6303 25.5213 43.424 25.6152 43.1971C25.7092 42.9701 25.7574 42.7269 25.7573 42.4813C25.7573 42.2357 25.7088 41.9925 25.6147 41.7656C25.5206 41.5387 25.3828 41.3326 25.209 41.159L13.55 29.5C12.475 28.4849 11.8445 27.0863 11.7958 25.6085C11.7471 24.1308 12.2842 22.6936 13.29 21.61L16.05 18.85C16.2225 18.6703 16.4287 18.5265 16.6569 18.4267C16.8851 18.3269 17.1307 18.2732 17.3797 18.2685C17.6287 18.2639 17.8761 18.3085 18.1078 18.3997C18.3396 18.4909 18.551 18.6269 18.73 18.8C20.5 20.58 22.2767 22.36 24.06 24.14C24.396 24.5037 24.5766 24.9843 24.5636 25.4792C24.5505 25.9742 24.3447 26.4445 23.99 26.79C22.9686 27.8354 22.3942 29.2374 22.3886 30.6989C22.383 32.1605 22.9466 33.5668 23.96 34.62C25.73 36.4 27.51 38.17 29.2901 39.95C30.2559 40.919 31.541 41.5039 32.906 41.5959C34.271 41.6878 35.6229 41.2806 36.71 40.45C37.0449 40.1248 37.4137 39.8365 37.8101 39.59C38.1595 39.4366 38.5472 39.3927 38.9221 39.4641C39.297 39.5356 39.6415 39.7189 39.91 39.99C41.67 41.75 43.4401 43.51 45.2001 45.28C45.5339 45.6247 45.7231 46.0842 45.7286 46.564C45.7342 47.0439 45.5558 47.5076 45.23 47.86C44.6 48.51 43.96 49.14 43.32 49.78C42.7793 50.3944 42.1608 50.9356 41.48 51.39C40.6384 51.8973 39.6785 52.1753 38.696 52.1963C37.7136 52.2174 36.7427 51.9807 35.8801 51.51C35.3895 51.2405 34.9414 50.9001 34.55 50.5L31.75 47.695C31.3992 47.3436 30.9231 47.146 30.4265 47.1456C29.9299 47.1452 29.4535 47.3421 29.102 47.693C28.7506 48.0439 28.553 48.52 28.5526 49.0166C28.5523 49.5132 28.7492 49.9896 29.1 50.341L31.76 53C33.426 54.7531 35.6958 55.8076 38.1101 55.95H38.8801C40.8599 55.8719 42.7657 55.1761 44.3301 53.96C45.2301 53.25 45.98 52.38 46.8101 51.58C47.546 50.9363 48.1918 50.1963 48.73 49.38C49.2217 48.5204 49.4778 47.5462 49.4725 46.556C49.4673 45.5657 49.2008 44.5943 48.7001 43.74Z" fill="#413E43"/>
<path d="M35.171 8.055H35.685C40.0962 8.12896 44.3673 9.61635 47.8702 12.2984C51.3731 14.9805 53.923 18.7158 55.145 22.955C55.6416 24.696 55.9105 26.4939 55.945 28.304V28.76C55.9156 29.1563 55.7611 29.5329 55.5037 29.8356C55.2462 30.1383 54.8993 30.3513 54.5128 30.4439C54.1264 30.5365 53.7206 30.5039 53.3539 30.3507C52.9873 30.1976 52.6788 29.9319 52.473 29.592C52.2721 29.2429 52.1762 28.8432 52.197 28.441C52.1764 26.0929 51.6601 23.7757 50.682 21.641C49.4404 18.9372 47.5091 16.6079 45.082 14.887C42.3224 12.9235 39.0305 11.8465 35.644 11.799C35.2377 11.8252 34.8318 11.7427 34.468 11.56C34.1059 11.3607 33.8196 11.0474 33.6536 10.6688C33.4877 10.2902 33.4512 9.86741 33.55 9.466C33.6464 9.09491 33.8521 8.76137 34.1405 8.50868C34.4288 8.256 34.7865 8.09584 35.167 8.049" fill="#D31D16"/>
<path d="M34.938 15.587C35.3599 15.5285 35.7874 15.5214 36.211 15.566C39.5622 15.7864 42.7007 17.2854 44.9784 19.7534C47.256 22.2214 48.4988 25.47 48.45 28.828C48.4131 29.1788 48.2776 29.5119 48.0593 29.7889C47.8409 30.0659 47.5486 30.2755 47.2161 30.3933C46.8837 30.511 46.5246 30.5323 46.1806 30.4546C45.8365 30.3768 45.5215 30.2033 45.272 29.954C45.0871 29.7679 44.9424 29.5456 44.8471 29.3012C44.7518 29.0567 44.7079 28.7952 44.718 28.533C44.6913 26.202 43.7957 23.9649 42.2067 22.2593C40.6176 20.5537 38.4493 19.5023 36.126 19.311C35.6308 19.3272 35.1359 19.2689 34.658 19.138C34.2918 18.9874 33.9827 18.7245 33.7754 18.3871C33.5681 18.0497 33.4732 17.6553 33.5043 17.2605C33.5354 16.8657 33.691 16.491 33.9486 16.1903C34.2063 15.8895 34.5527 15.6783 34.938 15.587Z" fill="#D31D16"/>
<path d="M34.936 23.07C35.7555 22.9679 36.5875 23.0771 37.353 23.387C38.4797 23.8112 39.4382 24.5896 40.0847 25.6052C40.7312 26.6207 41.0306 27.8187 40.938 29.019C40.8541 29.416 40.6432 29.7749 40.3372 30.0415C40.0313 30.3081 39.6469 30.4679 39.2421 30.4967C38.8373 30.5255 38.4341 30.4218 38.0935 30.2012C37.7529 29.9806 37.4933 29.6551 37.354 29.274C37.192 28.888 37.284 28.455 37.149 28.064C37.058 27.7809 36.9012 27.5235 36.6913 27.3128C36.4815 27.1021 36.2247 26.9442 35.942 26.852C35.551 26.716 35.117 26.806 34.729 26.652C34.351 26.5143 34.0275 26.2583 33.8064 25.9222C33.5853 25.5861 33.4785 25.1876 33.5017 24.786C33.5249 24.3844 33.677 24.0009 33.9354 23.6925C34.1938 23.3841 34.5447 23.1672 34.936 23.074" fill="#D31D16"/>
</g>
<defs>
<clipPath id="clip0_2600_11895">
<rect width="64" height="64" fill="white"/>
</clipPath>
</defs>
</svg>
