<svg width="50" height="50" viewBox="0 0 50 50" fill="none" xmlns="http://www.w3.org/2000/svg">
<g clip-path="url(#clip0_7180_323)">
<path d="M12.4821 23.3189V25.7902H10.0824V39.7139H7.61108V24.5635C7.61108 24.4113 7.61108 24.2501 7.61108 24.0979C7.61108 23.9457 7.7633 23.8651 7.92448 23.7128C8.0767 23.5606 8.15729 23.3995 8.30951 23.3995C8.46173 23.3995 8.6229 23.3995 8.77512 23.3995H12.4105L12.4821 23.3189Z" fill="white"/>
<path d="M42.8545 24.5635V39.7139H39.6847V26.1842H37.2134V23.0144H41.2338C41.6188 23.0144 42.0844 23.2472 42.3172 23.48C42.7023 23.7128 42.7829 24.1785 42.7829 24.5635H42.8545Z" fill="white"/>
<path d="M24.8566 20.9729C23.8538 20.9729 23.0031 20.1222 23.0031 19.1194C23.0031 18.1165 23.8538 17.2658 24.8566 17.2658C25.8595 17.2658 26.7101 18.1165 26.7101 19.1194C26.7101 20.1222 25.8595 20.9729 24.8566 20.9729ZM24.8566 15.0184C22.6181 15.0184 20.7556 16.8719 20.7556 19.1194C20.7556 21.3579 22.6091 23.2204 24.8566 23.2204C27.0952 23.2204 28.9576 21.3669 28.9576 19.1194C28.9576 16.8808 27.1041 15.0184 24.8566 15.0184Z" fill="white"/>
<path d="M45.3349 39.7139H37.5269V34.9234C37.5269 34.5384 37.3746 34.0728 37.0612 33.84C36.4434 33.2222 35.4405 33.2222 34.8227 33.84C34.5093 34.1534 34.3571 34.5384 34.3571 34.9234V39.7139H29.3338V29.6315C29.3338 29.3987 29.3338 29.2465 29.1816 29.0137C29.1816 28.7809 28.9488 28.7003 28.8682 28.4765C28.716 28.3242 28.4832 28.2436 28.3309 28.1631C28.0981 28.1631 27.9459 28.0108 27.7131 28.0108H22.3048C22.072 28.0108 21.9198 28.0108 21.687 28.1631C21.4542 28.1631 21.3736 28.3959 21.1497 28.4765C20.9975 28.6287 20.9169 28.8615 20.8363 29.0137C20.8363 29.2465 20.6841 29.3987 20.6841 29.6315V39.7139H15.6608V14.8661L24.9373 10.2279L34.2138 14.8661V27.4825C34.2138 27.8676 34.366 28.3332 34.6794 28.566C35.2973 29.1838 36.3001 29.1838 36.918 28.566C37.2314 28.2526 37.3836 27.8676 37.3836 27.4825V13.7827C37.3836 13.5499 37.3836 13.1648 37.1508 12.932C36.9986 12.6992 36.7658 12.4664 36.533 12.3142L25.1433 7.03125L13.4044 12.3948C13.1716 12.547 12.9388 12.7798 12.7865 13.0126C12.6343 13.326 12.5537 13.5499 12.5537 13.8633V39.7139H4.67407C3.82342 39.7139 3.125 40.4034 3.125 41.254C3.125 42.1047 3.82342 42.8031 4.67407 42.8031H45.3349C46.1855 42.8031 46.884 42.1047 46.884 41.254C46.875 40.4034 46.1855 39.7139 45.3349 39.7139ZM26.0835 39.7139H23.8449V31.2612H26.0835V39.7139Z" fill="white"/>
</g>
<defs>
<clipPath id="clip0_7180_323">
<rect width="43.75" height="35.7719" fill="white" transform="translate(3.125 7.03125)"/>
</clipPath>
</defs>
</svg>
