<svg width="50" height="50" viewBox="0 0 50 50" fill="none" xmlns="http://www.w3.org/2000/svg">
<g clip-path="url(#clip0_7180_613)">
<path d="M12.7038 23.4773V25.9049H10.3465V39.5821H7.91895V24.6999C7.91895 24.5504 7.91895 24.392 7.91895 24.2425C7.91895 24.093 8.06847 24.0138 8.22679 23.8643C8.37632 23.7148 8.45548 23.5565 8.60501 23.5565C8.75453 23.5565 8.91285 23.5565 9.06238 23.5565H12.6334L12.7038 23.4773Z" fill="#D31D16"/>
<path d="M42.5383 24.6999V39.5821H39.4247V26.2919H36.9971V23.1782H40.9463C41.3245 23.1782 41.7819 23.4069 42.0106 23.6356C42.3888 23.8643 42.468 24.3217 42.468 24.6999H42.5383Z" fill="#D31D16"/>
<path d="M24.859 21.1728C23.8739 21.1728 23.0383 20.3373 23.0383 19.3521C23.0383 18.367 23.8739 17.5314 24.859 17.5314C25.8441 17.5314 26.6797 18.367 26.6797 19.3521C26.6797 20.3373 25.8441 21.1728 24.859 21.1728ZM24.859 15.3237C22.6601 15.3237 20.8306 17.1444 20.8306 19.3521C20.8306 21.5511 22.6513 23.3806 24.859 23.3806C27.0579 23.3806 28.8874 21.5599 28.8874 19.3521C28.8874 17.1532 27.0667 15.3237 24.859 15.3237Z" fill="#413E43"/>
<path d="M44.9749 39.5822H37.3051V34.8765C37.3051 34.4983 37.1556 34.0409 36.8478 33.8122C36.2409 33.2053 35.2557 33.2053 34.6488 33.8122C34.341 34.1201 34.1915 34.4983 34.1915 34.8765V39.5822H29.2571V29.6783C29.2571 29.4496 29.2571 29.3001 29.1076 29.0714C29.1076 28.8427 28.8789 28.7635 28.7997 28.5436C28.6502 28.3941 28.4215 28.3149 28.272 28.2358C28.0433 28.2358 27.8938 28.0863 27.6651 28.0863H22.3525C22.1238 28.0863 21.9743 28.0863 21.7456 28.2358C21.5169 28.2358 21.4378 28.4645 21.2179 28.5436C21.0683 28.6932 20.9892 28.9218 20.91 29.0714C20.91 29.3001 20.7605 29.4496 20.7605 29.6783V39.5822H15.8261V15.1742L24.9384 10.6181L34.0507 15.1742V27.5673C34.0507 27.9455 34.2003 28.4029 34.5081 28.6316C35.115 29.2385 36.1001 29.2385 36.707 28.6316C37.0149 28.3237 37.1644 27.9455 37.1644 27.5673V14.11C37.1644 13.8813 37.1644 13.5031 36.9357 13.2744C36.7862 13.0457 36.5575 12.817 36.3288 12.6675L25.1407 7.47803L13.6096 12.7466C13.3809 12.8962 13.1523 13.1248 13.0027 13.3535C12.8532 13.6614 12.774 13.8813 12.774 14.1891V39.5822H5.03386C4.19827 39.5822 3.51221 40.2595 3.51221 41.095C3.51221 41.9306 4.19827 42.6167 5.03386 42.6167H44.9749C45.8105 42.6167 46.4966 41.9306 46.4966 41.095C46.4878 40.2595 45.8105 39.5822 44.9749 39.5822ZM26.0643 39.5822H23.8654V31.2791H26.0643V39.5822Z" fill="#413E43"/>
</g>
<defs>
<clipPath id="clip0_7180_613">
<rect width="42.9756" height="35.1387" fill="white" transform="translate(3.51221 7.47803)"/>
</clipPath>
</defs>
</svg>
