<svg width="64" height="64" viewBox="0 0 64 64" fill="none" xmlns="http://www.w3.org/2000/svg">
<g clip-path="url(#clip0_2517_9111)">
<path d="M11.4457 59C7.89031 59 5 56.1097 5 52.5543V22.4755C5 19.7143 6.75663 17.2617 9.36913 16.3722C9.37474 16.3694 9.38036 16.3694 9.38597 16.3666C14.1704 14.7839 10.7357 15.9204 18.5957 13.1592C18.6097 13.1536 18.6209 13.1508 18.6349 13.1452C20.2316 12.612 21.8788 12.1883 23.5344 11.8824C24.7018 11.6663 25.8214 12.438 26.0375 13.6026C26.2536 14.7699 25.4819 15.8895 24.3173 16.1056C22.8638 16.375 21.4158 16.7482 20.0128 17.214C11.6786 20.1464 15.6633 18.8163 10.7441 20.4439C9.87704 20.7413 9.29617 21.5579 9.29617 22.4755V52.5543C9.29617 53.7385 10.2587 54.7038 11.4457 54.7038C11.6786 54.7038 11.9087 54.6673 12.1276 54.5944L19.0671 52.2821C22.7992 51.039 26.6829 50.4077 30.6171 50.4077H53.5571C54.7413 50.4077 55.7066 49.4452 55.7066 48.2582V18.1793C55.7066 16.9923 56.6691 16.0298 57.8561 16.0298C59.0431 16.0298 60 16.9923 60 18.1793V48.2582C60 51.8107 57.1097 54.7038 53.5543 54.7038H30.6143C27.1431 54.7038 23.714 55.2594 20.4224 56.3566L13.4829 58.6689C12.8263 58.8878 12.1416 59 11.4457 59Z" fill="#413E43"/>
<path d="M41.0951 33.2201C39.4563 33.2201 37.941 32.2717 37.2283 30.7957L31.4112 19.3972C31.4028 19.3776 31.3915 19.3607 31.3831 19.3411C30.6984 17.8959 30.3505 16.3497 30.3505 14.7418C30.3505 8.81811 35.1714 4 41.0951 4C47.0188 4 51.8369 8.81811 51.8369 14.7418C51.8369 16.3497 51.489 17.8987 50.8043 19.3411C50.7959 19.3607 50.7875 19.3776 50.7762 19.3972L44.9619 30.7957C44.2464 32.2689 42.7339 33.2201 41.0951 33.2201ZM35.2528 17.475L41.0642 28.865C41.0727 28.8847 41.0839 28.9015 41.0923 28.9212C41.1007 28.9015 41.1119 28.8847 41.1204 28.865L46.9318 17.475C47.3331 16.6191 47.538 15.6987 47.538 14.7418C47.538 11.1893 44.6477 8.29617 41.0923 8.29617C37.5369 8.29617 34.6466 11.1865 34.6466 14.7418C34.6494 15.6987 34.8515 16.6191 35.2528 17.475Z" fill="#D31D16"/>
<path d="M41.0952 16.8913C42.2823 16.8913 43.2447 15.929 43.2447 14.7418C43.2447 13.5547 42.2823 12.5923 41.0952 12.5923C39.908 12.5923 38.9457 13.5547 38.9457 14.7418C38.9457 15.929 39.908 16.8913 41.0952 16.8913Z" fill="#413E43"/>
<path d="M48.1694 45.4801L45.3914 42.702L42.6133 45.4801C41.7743 46.3191 40.4133 46.3191 39.5743 45.4801L36.7962 42.702L34.0182 45.4801C33.1791 46.3191 31.8182 46.3191 30.9791 45.4801C30.1401 44.6411 30.1401 43.2801 30.9791 42.4411L35.2753 38.1449C36.1143 37.3059 37.4753 37.3059 38.3143 38.1449L41.0924 40.923L43.8705 38.1449C44.7095 37.3059 46.0705 37.3059 46.9095 38.1449L51.2057 42.4411C52.0447 43.2801 52.0447 44.6411 51.2057 45.4801C50.3666 46.3191 49.0085 46.3191 48.1694 45.4801Z" fill="#413E43"/>
<path d="M23.9076 46.1087H19.6086C16.0561 46.1087 13.163 43.2184 13.163 39.663C13.163 36.1076 16.0533 33.2173 19.6086 33.2173H23.9048C25.089 33.2173 26.0543 32.2548 26.0543 31.0679C26.0543 29.8809 25.0918 28.9184 23.9048 28.9184H15.3125C14.1255 28.9184 13.163 27.9559 13.163 26.7689C13.163 25.5819 14.1255 24.6194 15.3125 24.6194H23.9076C27.4602 24.6194 30.3533 27.5097 30.3533 31.065C30.3533 34.6204 27.463 37.5107 23.9076 37.5107H19.6086C18.4244 37.5107 17.4591 38.4732 17.4591 39.6602C17.4591 40.8472 18.4216 41.8097 19.6086 41.8097H23.9048C25.0918 41.8097 26.0543 42.7722 26.0543 43.9592C26.0543 45.1462 25.0918 46.1087 23.9076 46.1087Z" fill="#413E43"/>
</g>
<defs>
<clipPath id="clip0_2517_9111">
<rect width="55" height="55" fill="white" transform="translate(5 4)"/>
</clipPath>
</defs>
</svg>
