<svg width="66" height="64" viewBox="0 0 66 64" fill="none" xmlns="http://www.w3.org/2000/svg">
<g clip-path="url(#clip0_7005_3190)">
<path d="M37.03 56.48H20.36C14.1 56.48 9 51.38 9 45.12V19.36C9 13.1 14.1 8 20.36 8H46.11C52.37 8 57.47 13.1 57.47 19.36V28.92C57.47 29.97 56.62 30.81 55.58 30.81C54.54 30.81 53.69 29.96 53.69 28.92V19.36C53.69 15.18 50.29 11.79 46.12 11.79H20.36C16.18 11.79 12.79 15.19 12.79 19.36V45.11C12.79 49.29 16.19 52.68 20.36 52.68H37.02C38.07 52.68 38.91 53.53 38.91 54.57C38.91 55.61 38.07 56.48 37.03 56.48Z" fill="#413E43"/>
<path d="M34.68 24.67L40.55 18.8C41.29 18.06 41.29 16.86 40.55 16.12C39.81 15.38 38.61 15.38 37.87 16.12L32 22C31.64 22.36 31.16 22.55 30.66 22.55C30.15 22.55 29.68 22.35 29.32 21.99L23.51 16.13C22.77 15.39 21.57 15.38 20.83 16.12C20.09 16.86 20.08 18.06 20.82 18.8L26.63 24.66C27.7 25.74 29.13 26.34 30.65 26.34H30.66C32.18 26.34 33.6 25.75 34.68 24.67Z" fill="#413E43"/>
<path d="M19.9099 39.44L23.9799 35.32C26.1599 33.11 26.1499 29.53 23.9699 27.33L19.9099 23.24C19.1699 22.5 17.9699 22.49 17.2299 23.23C16.4899 23.97 16.4799 25.17 17.2199 25.91L21.2799 30C22.0099 30.73 22.0099 31.93 21.2799 32.66L17.2099 36.78C16.4799 37.52 16.4799 38.72 17.2299 39.46C17.5999 39.82 18.0799 40 18.5599 40C19.0499 40 19.5399 39.81 19.9099 39.44Z" fill="#413E43"/>
<path d="M47.41 32.54C41.82 32.58 37.32 37.17 37.36 42.77C37.38 45.39 39.49 49.35 43.63 54.52C44.6 55.73 46.05 56.42 47.6 56.41C49.15 56.4 50.59 55.69 51.54 54.46C55.6 49.23 57.64 45.24 57.62 42.62C57.57 37.01 52.99 32.5 47.41 32.54ZM48.54 52.13C48.22 52.55 47.79 52.61 47.56 52.61C47.33 52.61 46.91 52.55 46.58 52.14C42.59 47.15 41.15 44.01 41.14 42.73C41.11 39.22 43.94 36.35 47.43 36.32C50.93 36.29 53.8 39.12 53.82 42.63C53.84 43.92 52.46 47.08 48.54 52.13Z" fill="#D31D16"/>
<path d="M20.55 49.04C20.07 49.04 19.58 48.86 19.21 48.5C18.46 47.77 18.46 46.57 19.19 45.82L46.52 18.05C47.25 17.3 48.45 17.3 49.2 18.03C49.95 18.76 49.95 19.96 49.22 20.71L21.89 48.48C21.52 48.85 21.04 49.04 20.55 49.04Z" fill="#413E43"/>
<path d="M47.49 44.85C48.7989 44.85 49.86 43.7889 49.86 42.48C49.86 41.1711 48.7989 40.11 47.49 40.11C46.1811 40.11 45.12 41.1711 45.12 42.48C45.12 43.7889 46.1811 44.85 47.49 44.85Z" fill="#D31D16"/>
<g clip-path="url(#clip1_7005_3190)">
<path d="M37.03 56.48H20.36C14.1 56.48 9 51.38 9 45.12V19.36C9 13.1 14.1 8 20.36 8H46.11C52.37 8 57.47 13.1 57.47 19.36V28.92C57.47 29.97 56.62 30.81 55.58 30.81C54.54 30.81 53.69 29.96 53.69 28.92V19.36C53.69 15.18 50.29 11.79 46.12 11.79H20.36C16.18 11.79 12.79 15.19 12.79 19.36V45.11C12.79 49.29 16.19 52.68 20.36 52.68H37.02C38.07 52.68 38.91 53.53 38.91 54.57C38.91 55.61 38.07 56.48 37.03 56.48Z" fill="#413E43"/>
<path d="M34.68 24.67L40.55 18.8C41.29 18.06 41.29 16.86 40.55 16.12C39.81 15.38 38.61 15.38 37.87 16.12L32 22C31.64 22.36 31.16 22.55 30.66 22.55C30.15 22.55 29.68 22.35 29.32 21.99L23.51 16.13C22.77 15.39 21.57 15.38 20.83 16.12C20.09 16.86 20.08 18.06 20.82 18.8L26.63 24.66C27.7 25.74 29.13 26.34 30.65 26.34H30.66C32.18 26.34 33.6 25.75 34.68 24.67Z" fill="#413E43"/>
<path d="M19.9099 39.44L23.9799 35.32C26.1599 33.11 26.1499 29.53 23.9699 27.33L19.9099 23.24C19.1699 22.5 17.9699 22.49 17.2299 23.23C16.4899 23.97 16.4799 25.17 17.2199 25.91L21.2799 30C22.0099 30.73 22.0099 31.93 21.2799 32.66L17.2099 36.78C16.4799 37.52 16.4799 38.72 17.2299 39.46C17.5999 39.82 18.0799 40 18.5599 40C19.0499 40 19.5399 39.81 19.9099 39.44Z" fill="#413E43"/>
<path d="M47.41 32.54C41.82 32.58 37.32 37.17 37.36 42.77C37.38 45.39 39.49 49.35 43.63 54.52C44.6 55.73 46.05 56.42 47.6 56.41C49.15 56.4 50.59 55.69 51.54 54.46C55.6 49.23 57.64 45.24 57.62 42.62C57.57 37.01 52.99 32.5 47.41 32.54ZM48.54 52.13C48.22 52.55 47.79 52.61 47.56 52.61C47.33 52.61 46.91 52.55 46.58 52.14C42.59 47.15 41.15 44.01 41.14 42.73C41.11 39.22 43.94 36.35 47.43 36.32C50.93 36.29 53.8 39.12 53.82 42.63C53.84 43.92 52.46 47.08 48.54 52.13Z" fill="#D31D16"/>
<path d="M20.55 49.04C20.07 49.04 19.58 48.86 19.21 48.5C18.46 47.77 18.46 46.57 19.19 45.82L46.52 18.05C47.25 17.3 48.45 17.3 49.2 18.03C49.95 18.76 49.95 19.96 49.22 20.71L21.89 48.48C21.52 48.85 21.04 49.04 20.55 49.04Z" fill="#413E43"/>
<path d="M47.49 44.85C48.7989 44.85 49.86 43.7889 49.86 42.48C49.86 41.1711 48.7989 40.11 47.49 40.11C46.1811 40.11 45.12 41.1711 45.12 42.48C45.12 43.7889 46.1811 44.85 47.49 44.85Z" fill="#D31D16"/>
</g>
</g>
<defs>
<clipPath id="clip0_7005_3190">
<rect width="48.62" height="48.48" fill="white" transform="translate(9 8)"/>
</clipPath>
<clipPath id="clip1_7005_3190">
<rect width="48.62" height="48.48" fill="white" transform="translate(9 8)"/>
</clipPath>
</defs>
</svg>
