<svg width="50" height="50" viewBox="0 0 50 50" fill="none" xmlns="http://www.w3.org/2000/svg">
<g clip-path="url(#clip0_7180_23)">
<path d="M21.6624 25.8814C22.2539 26.4746 22.9224 26.9857 23.65 27.4009C23.4582 27.3855 23.274 27.3702 23.0821 27.3625C22.9286 27.3472 22.7675 27.3395 22.6063 27.3395C22.4452 27.3395 22.284 27.3242 22.1229 27.3318C21.9617 27.3242 21.7929 27.3242 21.624 27.3242H21.601C21.3478 27.3165 21.0945 27.3242 20.8336 27.3318C20.3501 27.3395 19.8743 27.3625 19.3908 27.4086C19.1623 27.4176 18.9343 27.4381 18.7078 27.47C18.4316 27.5007 18.1476 27.539 17.8713 27.5851C16.7232 27.7427 15.5943 28.0179 14.5024 28.4062C12.6425 29.0282 10.9888 30.1483 9.72133 31.6447C9.63031 31.7495 9.54573 31.8597 9.46808 31.9747C9.46808 31.9824 9.4604 31.9824 9.45273 31.9901C8.84259 32.8024 8.38257 33.7172 8.09439 34.6914C7.94205 35.1562 7.84922 35.6384 7.81812 36.1265C7.80174 36.3067 7.8256 36.4883 7.88797 36.6582C7.95035 36.8281 8.04969 36.982 8.17881 37.1088C8.30768 37.2347 8.46209 37.3316 8.63159 37.3927C8.70907 37.4179 8.78871 37.4359 8.86949 37.4464C8.97565 37.4668 9.08418 37.472 9.19181 37.4618H12.5454C12.392 37.6843 12.2538 37.9069 12.1234 38.1295C11.6821 38.8781 11.3318 39.6768 11.0797 40.5085H7.92556C7.76424 40.5149 7.60267 40.5097 7.44209 40.4931C7.0769 40.4561 6.71822 40.3709 6.37537 40.2399C5.88095 40.0436 5.4318 39.7485 5.0554 39.3727C4.68039 38.9966 4.38567 38.5483 4.18911 38.0549C3.99256 37.5616 3.89826 37.0334 3.91195 36.5025C3.99473 35.0683 4.35436 33.6637 4.97099 32.3661C5.06308 32.1819 5.15517 31.9978 5.25493 31.8212C5.27028 31.7905 5.28563 31.7675 5.30098 31.7368C5.3547 31.6371 5.41609 31.5373 5.47749 31.4375C5.55423 31.3071 5.63097 31.1843 5.71539 31.0615C5.72845 31.0454 5.73881 31.0272 5.74608 31.0078C7.60324 28.2144 11.1027 25.4286 17.3495 24.5538C17.3677 24.555 17.386 24.5524 17.4032 24.5461L18.1476 24.454C18.2781 24.431 18.4085 24.4233 18.539 24.408C19.0225 24.3696 19.5136 24.3312 20.0278 24.3082C20.1429 24.3005 20.258 24.2928 20.3808 24.2928C20.6032 24.6351 20.8467 24.9631 21.1099 25.2751C21.2864 25.4823 21.4705 25.6895 21.6624 25.8814Z" fill="#D31D16"/>
<path d="M30.718 9.98043C30.6756 9.96413 30.632 9.9513 30.5875 9.94206C29.5206 9.68315 28.4159 9.61817 27.326 9.75021H27.3183C27.216 9.53064 27.0954 9.32013 26.9576 9.12092C26.2552 8.06394 25.2531 7.24087 24.0798 6.75726C22.908 6.26983 21.6178 6.14163 20.373 6.38894C19.1282 6.63626 17.985 7.24794 17.0886 8.14629C16.358 8.87549 15.814 9.77011 15.5028 10.7543C15.1915 11.7385 15.1222 12.7832 15.3007 13.7999C15.4792 14.8166 15.9002 15.7752 16.528 16.5946C17.1559 17.4139 17.9721 18.0697 18.9074 18.5065C18.892 18.729 18.8843 18.9439 18.8843 19.1665V19.32C18.8901 20.1888 19.0219 21.0522 19.2757 21.8831C18.8392 21.7726 18.4109 21.6315 17.9941 21.4611C16.6561 20.9059 15.4628 20.0522 14.5054 18.965C13.5481 17.8778 12.8521 16.5861 12.4707 15.1886C12.0893 13.7911 12.0326 12.3249 12.3049 10.9021C12.5772 9.47931 13.1714 8.13768 14.0419 6.97981C14.9576 5.77254 16.1463 4.79946 17.5107 4.14035C18.8747 3.4803 20.3779 3.15913 21.8926 3.2041C23.4061 3.25035 24.8869 3.6554 26.2132 4.38593C28.3863 5.59267 30.0026 7.59994 30.718 9.98043Z" fill="#D31D16"/>
<path d="M37.6248 17.0483C37.2359 15.3484 36.3852 13.789 35.1665 12.5418C33.9478 11.2947 32.4084 10.4083 30.718 9.9803C30.6756 9.964 30.632 9.95117 30.5875 9.94193C29.5206 9.68302 28.4159 9.61804 27.326 9.75008C27.3592 9.80253 27.3851 9.85935 27.4027 9.91891C27.3797 9.86519 27.349 9.81147 27.3183 9.75008C26.6818 9.81244 26.054 9.94367 25.4458 10.1415C24.0175 10.6004 22.7201 11.3951 21.6624 12.4591C20.7794 13.3398 20.078 14.3854 19.598 15.5364C19.208 16.4823 18.9747 17.4854 18.9074 18.5064C18.892 18.7289 18.8843 18.9438 18.8843 19.1663V19.3198C18.8901 20.1887 19.0219 21.052 19.2757 21.883C19.5267 22.735 19.8989 23.5466 20.3808 24.2927C20.6032 24.6349 20.8467 24.963 21.1099 25.275C21.2864 25.4822 21.4705 25.6894 21.6624 25.8813C22.2539 26.4745 22.9224 26.9856 23.65 27.4008C24.0007 27.6042 24.3648 27.7837 24.7398 27.938C25.8922 28.4181 27.1289 28.6634 28.3773 28.6593C28.7414 28.658 29.1052 28.6375 29.4671 28.5979C30.7919 28.4428 32.0692 28.0105 33.2158 27.329C34.3625 26.6476 35.3528 25.7323 36.1223 24.6428C36.8919 23.5533 37.4233 22.314 37.6822 21.0055C37.9411 19.697 37.9215 18.3487 37.6248 17.0483ZM34.5244 21.0312C34.0441 22.6172 32.9694 23.9562 31.525 24.7685C30.0806 25.5808 28.3782 25.8035 26.7734 25.3901C26.0427 25.2021 25.3514 24.885 24.7321 24.4539C24.7167 24.4462 24.7014 24.4308 24.686 24.4232C24.404 24.2293 24.1395 24.011 23.8956 23.7709C23.3984 23.291 22.9859 22.7306 22.6754 22.1132C22.4768 21.7428 22.3199 21.3516 22.2073 20.9468C22.0389 20.3683 21.9537 19.7688 21.954 19.1663V19.0973C21.9663 18.0517 22.2325 17.0248 22.7299 16.105C23.2272 15.1853 23.9407 14.4002 24.8088 13.8174C25.6886 13.2333 26.6974 12.8724 27.7481 12.766L28.0473 12.743C28.2008 12.7353 28.3466 12.7353 28.4925 12.7353H28.5001C29.3021 12.7481 30.0941 12.9148 30.8331 13.2265C32.307 13.8376 33.5011 14.9748 34.1833 16.4172C34.8655 17.8596 34.9871 19.5041 34.5244 21.0312Z" fill="#413E43"/>
<path d="M46.0894 42.9871C46.1046 43.5166 46.0133 44.0438 45.8208 44.5373C45.6245 45.0294 45.3293 45.476 44.9536 45.8496C44.5776 46.2246 44.1293 46.5193 43.6359 46.7159C43.1425 46.9124 42.6144 47.0067 42.0835 46.993H14.6712C14.1409 47.0094 13.613 46.9153 13.121 46.7168C12.6255 46.5262 12.1758 46.2333 11.801 45.8573C11.4243 45.4815 11.1291 45.0322 10.9339 44.5373C10.7353 44.0453 10.6412 43.5174 10.6576 42.9871C10.6634 42.376 10.7433 41.7679 10.8955 41.176C10.9466 40.9534 11.008 40.7309 11.0797 40.5083C11.3318 39.6767 11.6821 38.878 12.1234 38.1293C12.2538 37.9068 12.392 37.6842 12.5454 37.4617C14.6558 34.2999 18.8767 31.1611 26.8041 30.7928C27.3106 30.7697 27.8401 30.7544 28.3773 30.7544C29.5286 30.7467 30.6792 30.8082 31.8231 30.9386C33.9408 31.1483 36.0167 31.6653 37.9855 32.4734C38.2717 32.5965 38.5153 32.8011 38.6859 33.0618C38.8565 33.3225 38.9465 33.6277 38.9447 33.9392C38.9449 34.2223 38.8705 34.5004 38.7291 34.7456C38.5876 34.9908 38.3841 35.1944 38.1389 35.3359C37.9166 35.4651 37.6659 35.5375 37.4089 35.5469C37.152 35.5562 36.8967 35.5022 36.6655 35.3896C35.7147 34.9447 34.7191 34.6025 33.6956 34.369C32.2793 34.0461 30.8347 33.8636 29.3827 33.8241C29.0527 33.8164 28.7227 33.8087 28.3773 33.8087C22.4068 33.8087 19.0148 35.5354 17.1039 37.4617C16.8814 37.6842 16.6818 37.9068 16.4977 38.1293C15.9063 38.8414 15.4346 39.6449 15.101 40.5083C15.0165 40.7309 14.9398 40.9534 14.8707 41.176C14.7177 41.6406 14.6248 42.1229 14.5945 42.6111C14.5797 42.7908 14.6043 42.9716 14.6667 43.1409C14.7291 43.3101 14.8277 43.4637 14.9556 43.5909C15.0835 43.718 15.2376 43.8157 15.4072 43.8771C15.5768 43.9385 15.7578 43.9622 15.9374 43.9464H40.8172C40.9967 43.9618 41.1773 43.9383 41.3468 43.8773C41.5136 43.8117 41.6651 43.7124 41.7919 43.5857C41.9186 43.4589 42.0179 43.3074 42.0835 43.1406C42.1445 42.9711 42.168 42.7905 42.1526 42.6111C42.085 41.7715 41.8694 40.9504 41.5156 40.186C41.3196 39.7474 41.3008 39.2501 41.463 38.7979C41.6251 38.3458 41.9558 37.9738 42.3859 37.7598C42.8159 37.5457 43.312 37.5062 43.7706 37.6494C44.2291 37.7927 44.6145 38.1076 44.8462 38.5284C45.6047 39.8965 46.0306 41.4239 46.0894 42.9871Z" fill="#413E43"/>
</g>
<defs>
<clipPath id="clip0_7180_23">
<rect width="49.115" height="49.115" fill="white" transform="translate(0.442871 0.541016)"/>
</clipPath>
</defs>
</svg>
