<svg width="64" height="64" viewBox="0 0 64 64" fill="none" xmlns="http://www.w3.org/2000/svg">
<g clip-path="url(#clip0_7258_5002)">
<path d="M45.8399 24.36V13.06C45.8399 9.72 43.1199 7 39.7799 7H23.6299C20.2899 7 17.5699 9.72 17.5699 13.06V24.37C17.5699 32.16 23.9099 38.5 31.6999 38.5C39.4899 38.5 45.8399 32.16 45.8399 24.36ZM23.6299 11.04H39.7799C40.8899 11.04 41.7999 11.95 41.7999 13.06V18.31H37.4099C36.5799 15.96 34.3299 14.27 31.6999 14.27C29.0699 14.27 26.8199 15.96 25.9899 18.31H21.5999V13.06C21.6099 11.94 22.5099 11.04 23.6299 11.04ZM33.7199 20.33C33.7199 21.44 32.8099 22.35 31.6999 22.35C30.5899 22.35 29.6799 21.44 29.6799 20.33C29.6799 19.22 30.5899 18.31 31.6999 18.31C32.8099 18.31 33.7199 19.21 33.7199 20.33ZM31.6999 34.46C26.1299 34.46 21.5999 29.93 21.5999 24.36V22.34H25.9899C26.8199 24.69 29.0699 26.38 31.6999 26.38C34.3299 26.38 36.5799 24.69 37.4099 22.34H41.7999V24.36C41.7999 29.93 37.2699 34.46 31.6999 34.46Z" fill="#413E43"/>
<path d="M52.41 55.76C52.41 56.93 51.46 57.88 50.29 57.88C49.12 57.88 48.17 56.93 48.17 55.76C48.17 50.34 45.44 45.45 40.99 42.76C40.49 44.62 39.02 46.47 36.6 48.28C34.91 49.54 33.23 50.43 32.69 50.7C32.37 50.89 32 51 31.6 51H31.59C31.19 51 30.81 50.89 30.49 50.69C29.95 50.41 28.3 49.53 26.64 48.27C24.26 46.47 22.81 44.62 22.31 42.77C18.81 44.92 16.15 48.5 15.26 52.34C15.16 52.78 15.34 53.09 15.46 53.24C15.58 53.39 15.84 53.64 16.29 53.64H31.64C32.81 53.64 33.76 54.59 33.76 55.76C33.76 56.93 32.81 57.88 31.64 57.88H16.3C14.68 57.88 13.16 57.15 12.15 55.88C11.14 54.61 10.77 52.97 11.14 51.38C11.77 48.68 13.06 46.05 14.89 43.78C16.66 41.57 18.89 39.73 21.34 38.46C21.35 38.46 21.35 38.45 21.36 38.45C22.6 37.82 23.88 37.81 24.87 38.42C25.81 39 26.35 40.04 26.36 41.29C26.36 41.3 26.36 41.3 26.36 41.31C26.36 42.83 29.17 45.1 31.61 46.48C34.09 45.1 36.95 42.82 36.95 41.31C36.95 41.3 36.95 41.3 36.95 41.29C36.96 40.04 37.5 39 38.44 38.42C39.43 37.81 40.72 37.82 41.95 38.45C45.07 40.03 47.69 42.47 49.54 45.5C51.41 48.58 52.41 52.12 52.41 55.76Z" fill="#413E43"/>
<path d="M42.35 53.65H39.38C38.21 53.65 37.26 54.6 37.26 55.77C37.26 56.94 38.21 57.89 39.38 57.89H42.35C43.52 57.89 44.47 56.94 44.47 55.77C44.46 54.59 43.52 53.65 42.35 53.65Z" fill="#D31D16"/>
</g>
<defs>
<clipPath id="clip0_7258_5002">
<rect width="41.41" height="50.88" fill="white" transform="translate(11 7)"/>
</clipPath>
</defs>
</svg>

