<svg width="64" height="64" viewBox="0 0 64 64" fill="none" xmlns="http://www.w3.org/2000/svg">
<path d="M33.32 15.36C32.17 14.23 30.61 13.61 28.92 13.61C27.47 13.61 26.21 14.14 25.29 14.69C24.36 14.14 23.1 13.61 21.66 13.61C19.97 13.61 18.41 14.23 17.26 15.36C16.09 16.51 15.45 18.1 15.46 19.84C15.47 21.56 15.98 23.06 17.01 24.32C19.13 26.94 23.62 29.73 24.12 30.04C24.48 30.26 24.9 30.38 25.31 30.38C25.72 30.38 26.14 30.27 26.5 30.04C27 29.73 31.46 26.94 33.59 24.32C34.61 23.06 35.13 21.55 35.14 19.84C35.13 18.1 34.49 16.51 33.32 15.36ZM30.07 21.59C29.01 22.9 26.81 24.52 25.29 25.56C23.76 24.53 21.56 22.91 20.49 21.59C20.09 21.1 19.92 20.56 19.92 19.83C19.92 19.25 20.1 18.78 20.43 18.46C20.73 18.16 21.16 18 21.66 18C22.49 18 23.44 18.72 23.71 18.99C24.13 19.42 24.69 19.66 25.3 19.66C25.91 19.66 26.48 19.41 26.9 18.98C27.15 18.73 28.07 18.01 28.92 18.01C29.42 18.01 29.85 18.17 30.15 18.47C30.48 18.79 30.65 19.27 30.65 19.85C30.65 20.56 30.47 21.11 30.07 21.59Z" fill="#D31D16"/>
<path d="M50.09 45.38C49.58 41.55 46.25 38.58 42.25 38.58C37.89 38.58 34.34 42.1 34.34 46.42V50.69C34.34 52.62 32.75 54.2 30.8 54.2C28.85 54.2 27.26 52.63 27.26 50.69V38.75H29.23C34.74 38.75 39.63 35.08 41.11 29.83C41.4 28.79 40.79 27.71 39.74 27.42C38.69 27.13 37.6 27.74 37.31 28.78C36.3 32.35 32.98 34.84 29.23 34.84H21.35C16.72 34.84 12.96 31.11 12.96 26.53V11.92H16.13C17.22 11.92 18.11 11.04 18.11 9.96C18.11 8.88 17.21 8.01 16.12 8.01H10.98C9.89 8.01 9 8.88 9 9.96V26.52C9 33.26 14.54 38.75 21.34 38.75H23.31V50.69C23.31 54.78 26.67 58.11 30.8 58.11C34.93 58.11 38.29 54.78 38.29 50.69V46.42C38.29 44.26 40.07 42.5 42.25 42.5C44.1 42.5 45.65 43.76 46.09 45.45C43.49 46.32 41.62 48.76 41.62 51.61C41.62 55.2 44.56 58.11 48.18 58.11C51.8 58.11 54.74 55.19 54.74 51.61C54.75 48.67 52.78 46.19 50.09 45.38ZM48.18 54.2C46.74 54.2 45.57 53.04 45.57 51.61C45.57 50.18 46.74 49.02 48.18 49.02C49.62 49.02 50.79 50.18 50.79 51.61C50.79 53.03 49.62 54.2 48.18 54.2Z" fill="#413E43"/>
<path d="M34.78 9.39H38.36V17.9C38.36 19.11 39.36 20.09 40.6 20.09C41.83 20.09 42.84 19.11 42.84 17.9V7.19C42.84 5.98 41.84 5 40.6 5H34.78C33.55 5 32.54 5.98 32.54 7.19C32.54 8.4 33.55 9.39 34.78 9.39Z" fill="#413E43"/>
</svg>

