<svg width="38" height="38" viewBox="0 0 38 38" fill="none" xmlns="http://www.w3.org/2000/svg">
<g clip-path="url(#clip0_7180_313)">
<path d="M19.537 34.035L19.5486 34.0292C21.2714 33.3817 22.1501 31.4566 21.5026 29.7337L19.9417 25.5655C19.2942 23.8426 17.369 22.9639 15.6462 23.6114C15.0739 23.8253 14.4264 23.5362 14.2125 22.9581L12.8076 19.2061C12.5937 18.6337 12.8828 17.9862 13.4609 17.7723C15.1837 17.1248 16.0625 15.1997 15.415 13.4769L13.854 9.30859C13.2065 7.58578 11.2814 6.70703 9.55855 7.35453L9.52387 7.36609C5.45965 8.89234 3.50558 13.4537 5.1648 17.8822L9.33308 28.9822C10.975 33.3528 15.4092 35.5786 19.537 34.035ZM7.25183 17.0959C6.03199 13.8469 7.34433 10.5573 10.3101 9.44734L10.3217 9.44156C10.894 9.22765 11.5415 9.51671 11.7554 10.0948L13.3164 14.2631C13.5303 14.8355 13.2412 15.483 12.6631 15.6969C10.9403 16.3444 10.0615 18.2695 10.709 19.9923L12.1139 23.7444C12.7614 25.4672 14.6865 26.3459 16.4093 25.6984C16.9817 25.4845 17.6292 25.7736 17.8431 26.3517L19.404 30.52C19.6179 31.0923 19.3289 31.7398 18.7507 31.9537L18.7392 31.9595C15.7792 33.0695 12.6226 31.4566 11.4028 28.2075L7.25183 17.0959Z" fill="#413E43"/>
<path d="M25.7807 3.31927C21.4852 3.34818 18.0107 6.86318 18.0396 11.1586L18.0801 17.836C18.0859 18.4488 17.5887 18.9518 16.9759 18.9576C16.363 18.9633 15.8659 19.4605 15.8716 20.0791C15.8774 20.6919 16.3746 21.1891 16.9932 21.1833L25.8963 21.1313C30.1918 21.1024 33.6663 17.5874 33.6374 13.2919L33.6259 11.0661C33.5912 6.7649 30.0762 3.29036 25.7807 3.31927ZM31.4059 13.2977C31.4232 16.3676 28.943 18.8766 25.879 18.894L20.1266 18.9286C20.248 18.5818 20.3116 18.206 20.3116 17.8129L20.2712 11.1355C20.2538 8.06568 22.734 5.55661 25.798 5.53927C28.8621 5.52193 31.3769 8.00208 31.3943 11.0661L31.4059 13.2977Z" fill="#D31D16"/>
</g>
<defs>
<clipPath id="clip0_7180_313">
<rect width="29.0566" height="31.2072" fill="white" transform="translate(4.5752 3.31921)"/>
</clipPath>
</defs>
</svg>
