<svg width="38" height="38" viewBox="0 0 38 38" fill="none" xmlns="http://www.w3.org/2000/svg">
<g clip-path="url(#clip0_7180_246)">
<path d="M20.8019 33.0811H11.4566C7.94723 33.0811 5.08813 30.1326 5.08813 26.5136V11.6211C5.08813 8.00203 7.94723 5.05359 11.4566 5.05359H25.8922C29.4016 5.05359 32.2607 8.00203 32.2607 11.6211V17.148C32.2607 17.755 31.7842 18.2406 31.2012 18.2406C30.6181 18.2406 30.1416 17.7492 30.1416 17.148V11.6211C30.1416 9.20453 28.2356 7.24468 25.8978 7.24468H11.4566C9.11329 7.24468 7.21283 9.21031 7.21283 11.6211V26.5078C7.21283 28.9244 9.11889 30.8842 11.4566 30.8842H20.7963C21.385 30.8842 21.8559 31.3756 21.8559 31.9769C21.8559 32.5781 21.385 33.0811 20.8019 33.0811Z" fill="#413E43"/>
<path d="M19.4846 14.6908L22.7754 11.2972C23.1902 10.8694 23.1902 10.1757 22.7754 9.74786C22.3605 9.32005 21.6878 9.32005 21.2729 9.74786L17.9822 13.1472C17.7804 13.3554 17.5113 13.4652 17.231 13.4652C16.9451 13.4652 16.6816 13.3496 16.4797 13.1415L13.2226 9.75364C12.8078 9.32583 12.1351 9.32005 11.7202 9.74786C11.3054 10.1757 11.2997 10.8694 11.7146 11.2972L14.9717 14.685C15.5716 15.3094 16.3732 15.6563 17.2254 15.6563H17.231C18.0831 15.6563 18.8791 15.3152 19.4846 14.6908Z" fill="#413E43"/>
<path d="M11.2042 23.2298L13.4859 20.8479C14.708 19.5703 14.7024 17.5006 13.4803 16.2287L11.2042 13.8642C10.7893 13.4364 10.1166 13.4306 9.70177 13.8584C9.28692 14.2862 9.28131 14.98 9.69616 15.4078L11.9722 17.7723C12.3815 18.1943 12.3815 18.8881 11.9722 19.3101L9.69055 21.692C9.28131 22.1198 9.28131 22.8135 9.70177 23.2414C9.90919 23.4495 10.1783 23.5535 10.4474 23.5535C10.7221 23.5535 10.9968 23.4437 11.2042 23.2298Z" fill="#413E43"/>
<path d="M26.6211 19.2408C23.4873 19.2639 20.9645 21.9175 20.987 25.155C20.9982 26.6697 22.1811 28.959 24.502 31.9479C25.0458 32.6475 25.8586 33.0464 26.7276 33.0406C27.5965 33.0348 28.4038 32.6243 28.9364 31.9132C31.2124 28.8897 32.3561 26.5829 32.3448 25.0683C32.3168 21.825 29.7492 19.2176 26.6211 19.2408ZM27.2545 30.5662C27.0751 30.809 26.8341 30.8437 26.7051 30.8437C26.5762 30.8437 26.3408 30.809 26.1558 30.572C23.9189 27.6872 23.1117 25.8718 23.1061 25.1318C23.0892 23.1026 24.6758 21.4434 26.6323 21.4261C28.5944 21.4087 30.2033 23.0448 30.2145 25.074C30.2258 25.8198 29.4521 27.6467 27.2545 30.5662Z" fill="#D31D16"/>
<path d="M11.5631 28.7799C11.294 28.7799 11.0193 28.6758 10.8119 28.4677C10.3914 28.0456 10.3914 27.3519 10.8007 26.9183L26.122 10.8638C26.5313 10.4302 27.204 10.4302 27.6244 10.8522C28.0449 11.2742 28.0449 11.968 27.6357 12.4016L12.3143 28.4561C12.1069 28.67 11.8378 28.7799 11.5631 28.7799Z" fill="#413E43"/>
<path d="M26.6658 26.3575C27.3996 26.3575 27.9944 25.7441 27.9944 24.9873C27.9944 24.2306 27.3996 23.6172 26.6658 23.6172C25.932 23.6172 25.3372 24.2306 25.3372 24.9873C25.3372 25.7441 25.932 26.3575 26.6658 26.3575Z" fill="#D31D16"/>
<g clip-path="url(#clip1_7180_246)">
<path d="M20.8019 33.0811H11.4566C7.94723 33.0811 5.08813 30.1326 5.08813 26.5136V11.6211C5.08813 8.00203 7.94723 5.05359 11.4566 5.05359H25.8922C29.4016 5.05359 32.2607 8.00203 32.2607 11.6211V17.148C32.2607 17.755 31.7842 18.2406 31.2012 18.2406C30.6181 18.2406 30.1416 17.7492 30.1416 17.148V11.6211C30.1416 9.20453 28.2356 7.24468 25.8978 7.24468H11.4566C9.11329 7.24468 7.21283 9.21031 7.21283 11.6211V26.5078C7.21283 28.9244 9.11889 30.8842 11.4566 30.8842H20.7963C21.385 30.8842 21.8559 31.3756 21.8559 31.9769C21.8559 32.5781 21.385 33.0811 20.8019 33.0811Z" fill="#413E43"/>
<path d="M19.4846 14.6908L22.7754 11.2972C23.1902 10.8694 23.1902 10.1757 22.7754 9.74786C22.3605 9.32005 21.6878 9.32005 21.2729 9.74786L17.9822 13.1472C17.7804 13.3554 17.5113 13.4652 17.231 13.4652C16.9451 13.4652 16.6816 13.3496 16.4797 13.1415L13.2226 9.75364C12.8078 9.32583 12.1351 9.32005 11.7202 9.74786C11.3054 10.1757 11.2997 10.8694 11.7146 11.2972L14.9717 14.685C15.5716 15.3094 16.3732 15.6563 17.2254 15.6563H17.231C18.0831 15.6563 18.8791 15.3152 19.4846 14.6908Z" fill="#413E43"/>
<path d="M11.2042 23.2298L13.4859 20.8479C14.708 19.5703 14.7024 17.5006 13.4803 16.2287L11.2042 13.8642C10.7893 13.4364 10.1166 13.4306 9.70177 13.8584C9.28692 14.2862 9.28131 14.98 9.69616 15.4078L11.9722 17.7723C12.3815 18.1943 12.3815 18.8881 11.9722 19.3101L9.69055 21.692C9.28131 22.1198 9.28131 22.8135 9.70177 23.2414C9.90919 23.4495 10.1783 23.5535 10.4474 23.5535C10.7221 23.5535 10.9968 23.4437 11.2042 23.2298Z" fill="#413E43"/>
<path d="M26.6211 19.2408C23.4873 19.2639 20.9645 21.9175 20.987 25.155C20.9982 26.6697 22.1811 28.959 24.502 31.9479C25.0458 32.6475 25.8586 33.0464 26.7276 33.0406C27.5965 33.0348 28.4038 32.6243 28.9364 31.9132C31.2124 28.8897 32.3561 26.5829 32.3448 25.0683C32.3168 21.825 29.7492 19.2176 26.6211 19.2408ZM27.2545 30.5662C27.0751 30.809 26.8341 30.8437 26.7051 30.8437C26.5762 30.8437 26.3408 30.809 26.1558 30.572C23.9189 27.6872 23.1117 25.8718 23.1061 25.1318C23.0892 23.1026 24.6758 21.4434 26.6323 21.4261C28.5944 21.4087 30.2033 23.0448 30.2145 25.074C30.2258 25.8198 29.4521 27.6467 27.2545 30.5662Z" fill="#D31D16"/>
<path d="M11.5631 28.7799C11.294 28.7799 11.0193 28.6758 10.8119 28.4677C10.3914 28.0456 10.3914 27.3519 10.8007 26.9183L26.122 10.8638C26.5313 10.4302 27.204 10.4302 27.6244 10.8522C28.0449 11.2742 28.0449 11.968 27.6357 12.4016L12.3143 28.4561C12.1069 28.67 11.8378 28.7799 11.5631 28.7799Z" fill="#413E43"/>
<path d="M26.6658 26.3575C27.3996 26.3575 27.9944 25.7441 27.9944 24.9873C27.9944 24.2306 27.3996 23.6172 26.6658 23.6172C25.932 23.6172 25.3372 24.2306 25.3372 24.9873C25.3372 25.7441 25.932 26.3575 26.6658 26.3575Z" fill="#D31D16"/>
</g>
</g>
<defs>
<clipPath id="clip0_7180_246">
<rect width="27.2567" height="28.0275" fill="white" transform="translate(5.08813 5.05359)"/>
</clipPath>
<clipPath id="clip1_7180_246">
<rect width="27.2567" height="28.0275" fill="white" transform="translate(5.08813 5.05359)"/>
</clipPath>
</defs>
</svg>
