<svg width="38" height="38" viewBox="0 0 38 38" fill="none" xmlns="http://www.w3.org/2000/svg">
<path d="M25.9852 6.7475H24.8521V5.60859C24.8521 4.98421 24.3433 4.47546 23.7132 4.47546C23.083 4.47546 22.5801 4.98421 22.5801 5.60859V6.74171H13.4919V5.60859C13.4919 4.97843 12.9832 4.47546 12.3588 4.47546C11.7344 4.47546 11.2257 4.98421 11.2257 5.60859V6.74171H10.081C6.95334 6.7475 4.40381 9.29703 4.40381 12.4247V26.0569C4.40381 29.1903 6.95334 31.7341 10.081 31.7341H15.5732C16.2033 31.7341 16.7063 31.2253 16.7063 30.6009C16.7063 29.9766 16.1976 29.4678 15.5732 29.4678H10.081C8.20209 29.4678 6.67584 27.9416 6.67584 26.0627V15.8356H30.5293C31.1594 15.8356 31.6624 15.3269 31.6624 14.7025V12.4305C31.6682 9.29703 29.1187 6.7475 25.9852 6.7475ZM29.3962 13.5636H6.67584V12.4305C6.67584 10.5516 8.20209 9.02531 10.081 9.02531H11.2141V10.1584C11.2141 10.7886 11.7229 11.2916 12.3472 11.2916C12.9716 11.2916 13.4804 10.7828 13.4804 10.1584V9.01953H22.5685V10.1527C22.5685 10.7828 23.0772 11.2858 23.7016 11.2858C24.326 11.2858 24.8347 10.777 24.8347 10.1527V9.01953H25.9679C27.8468 9.01953 29.373 10.5458 29.373 12.4247V13.5636H29.3962Z" fill="#413E43"/>
<path d="M10.081 20.3739C10.7068 20.3739 11.2141 19.8666 11.2141 19.2408C11.2141 18.615 10.7068 18.1077 10.081 18.1077C9.45519 18.1077 8.94787 18.615 8.94787 19.2408C8.94787 19.8666 9.45519 20.3739 10.081 20.3739Z" fill="#413E43"/>
<path d="M14.6251 20.3739C15.2509 20.3739 15.7582 19.8666 15.7582 19.2408C15.7582 18.615 15.2509 18.1077 14.6251 18.1077C13.9993 18.1077 13.4919 18.615 13.4919 19.2408C13.4919 19.8666 13.9993 20.3739 14.6251 20.3739Z" fill="#413E43"/>
<path d="M10.081 24.918C10.7068 24.918 11.2141 24.4106 11.2141 23.7848C11.2141 23.159 10.7068 22.6517 10.081 22.6517C9.45519 22.6517 8.94787 23.159 8.94787 23.7848C8.94787 24.4106 9.45519 24.918 10.081 24.918Z" fill="#413E43"/>
<path d="M14.6251 24.918C15.2509 24.918 15.7582 24.4106 15.7582 23.7848C15.7582 23.159 15.2509 22.6517 14.6251 22.6517C13.9993 22.6517 13.4919 23.159 13.4919 23.7848C13.4919 24.4106 13.9993 24.918 14.6251 24.918Z" fill="#413E43"/>
<path d="M25.5347 17.6509C21.1525 17.6509 17.5854 21.2179 17.5854 25.6001C17.5854 29.9823 21.1467 33.5551 25.5347 33.5551C29.9226 33.5551 33.4839 29.9881 33.4839 25.6059C33.4839 21.2237 29.9169 17.6509 25.5347 17.6509ZM25.5347 31.2831C22.4012 31.2831 19.8575 28.7335 19.8575 25.6059C19.8575 22.4782 22.407 19.9287 25.5347 19.9287C28.6623 19.9287 31.2119 22.4782 31.2119 25.6059C31.2119 28.7335 28.6623 31.2831 25.5347 31.2831Z" fill="#D31D16"/>
<path d="M27.8067 24.467H26.6736V23.3338C26.6736 22.7037 26.1648 22.2007 25.5405 22.2007C24.9161 22.2007 24.4073 22.7095 24.4073 23.3338V25.6059C24.4073 26.236 24.9161 26.739 25.5405 26.739H27.8125C28.4426 26.739 28.9456 26.2303 28.9456 25.6059C28.9456 24.9815 28.4311 24.467 27.8067 24.467Z" fill="#D31D16"/>
</svg>
