<svg width="40" height="40" viewBox="0 0 40 40" fill="none" xmlns="http://www.w3.org/2000/svg">
<g clip-path="url(#clip0_7180_394)">
<g clip-path="url(#clip1_7180_394)">
<path d="M27.5579 3.75H10.1041C7.97673 3.75 6.25 5.47673 6.25 7.59716V8.59176V10.5119V10.4221C6.25 11.1542 6.82327 11.7413 7.53469 11.7413C8.2461 11.7413 8.81938 11.1473 8.81938 10.4221V9.77975C8.81938 9.77975 8.81938 9.77975 8.82628 9.77975V7.59716C8.82628 6.89265 9.39956 6.31247 10.111 6.31247H27.5648C29.6852 6.31247 31.4119 8.0392 31.4119 10.1596V30.1828C31.4119 32.3032 29.6852 34.03 27.5648 34.03H10.1041C9.39956 34.03 8.81938 33.4567 8.81938 32.7453V17.4741C8.81938 17.4741 8.81938 17.4741 8.81247 17.4741V17.405C8.81247 16.6729 8.23919 16.0858 7.52778 16.0858C6.87162 16.0858 6.33979 16.5969 6.26381 17.2461C6.25691 17.2461 6.25691 17.2461 6.25 17.2461V17.3912V17.3981V27.1921V32.7591C6.25 34.8795 7.97673 36.6063 10.0972 36.6063H27.551C31.0873 36.6063 33.9675 33.7261 33.9675 30.1897V10.1665C33.9744 6.63019 31.0942 3.75 27.5579 3.75Z" fill="#413E43"/>
<path d="M27.2608 16.5623C27.2608 12.5908 24.0284 9.3584 20.0569 9.3584C16.0854 9.3584 12.8599 12.5908 12.8599 16.5623C12.8599 20.5338 16.0923 23.7662 20.0638 23.7662C24.0353 23.7662 27.2608 20.5269 27.2608 16.5623ZM25.6791 15.7957H23.3929C23.317 14.1794 23.0061 12.6116 22.4743 11.4236C24.1803 12.2317 25.4167 13.8617 25.6791 15.7957ZM23.3929 17.3221H25.6791C25.4167 19.256 24.1803 20.8861 22.4743 21.6942C23.0061 20.5062 23.317 18.9383 23.3929 17.3221ZM20.0569 10.8848C20.6302 10.8848 21.7145 12.6116 21.8665 15.8026H18.2473C18.4061 12.6116 19.4836 10.8848 20.0569 10.8848ZM17.6464 11.4305C17.1145 12.6185 16.8037 14.1863 16.7277 15.8026H14.4415C14.704 13.8617 15.9404 12.2317 17.6464 11.4305ZM14.4415 17.3221H16.7277C16.8037 18.9383 17.1145 20.5062 17.6464 21.6942C15.9404 20.8861 14.704 19.256 14.4415 17.3221ZM18.2542 17.3221H21.8734C21.7215 20.5062 20.644 22.2398 20.0638 22.2398C19.4836 22.2398 18.4061 20.5062 18.2542 17.3221Z" fill="#D31D16"/>
<path d="M12.0518 27.2681C12.0518 27.6894 12.3902 28.0278 12.8115 28.0278H27.5095C27.9308 28.0278 28.2692 27.6894 28.2692 27.2681C28.2692 26.8467 27.9308 26.5083 27.5095 26.5083H12.8184C12.3971 26.5083 12.0518 26.8467 12.0518 27.2681Z" fill="#413E43"/>
<path d="M12.708 31.0738H20.1606C20.5819 31.0738 20.9203 30.7353 20.9203 30.314C20.9203 29.8927 20.5819 29.5543 20.1606 29.5543H12.708C12.2867 29.5543 11.9482 29.8927 11.9482 30.314C11.9482 30.7353 12.2936 31.0738 12.708 31.0738Z" fill="#413E43"/>
<path d="M27.5165 29.5474H22.654C22.2327 29.5474 21.8943 29.8858 21.8943 30.3071C21.8943 30.7284 22.2327 31.0669 22.654 31.0669H27.5165C27.9378 31.0669 28.2763 30.7284 28.2763 30.3071C28.2763 29.8858 27.9378 29.5474 27.5165 29.5474Z" fill="#413E43"/>
</g>
</g>
<defs>
<clipPath id="clip0_7180_394">
<rect width="40" height="40" fill="white"/>
</clipPath>
<clipPath id="clip1_7180_394">
<rect width="27.7244" height="32.8563" fill="white" transform="translate(6.25 3.75)"/>
</clipPath>
</defs>
</svg>
