<svg width="40" height="40" viewBox="0 0 40 40" fill="none" xmlns="http://www.w3.org/2000/svg">
<g clip-path="url(#clip0_7180_237)">
<path d="M27.0294 15.4096C27.0223 14.8683 26.5807 14.4339 26.0394 14.441C25.9753 14.441 24.5295 14.4624 22.9626 15.0179C23.041 14.0493 22.8558 13.0379 22.4071 11.9981C21.6664 10.2888 20.4556 9.07798 20.3986 9.02812C20.2134 8.84295 19.9642 8.74323 19.7006 8.75036C19.4442 8.75036 19.195 8.85719 19.0098 9.04237C18.9599 9.09222 17.7634 10.3172 17.0583 12.0479C16.631 13.0949 16.46 14.1134 16.5526 15.0749C14.9786 14.5478 13.5328 14.5478 13.4687 14.555C12.9274 14.5621 12.493 15.0037 12.5001 15.5449C12.5001 15.6162 12.5215 17.3255 13.2408 19.0491C13.3476 19.3126 13.4687 19.5619 13.5969 19.7969C13.0271 19.7613 12.5357 20.21 12.5428 20.7798C12.5428 20.851 12.5642 22.5603 13.2835 24.2839C13.4402 24.6614 14.6795 28.0231 18.6893 27.9874H18.8887L18.9101 30.1597C18.9671 31.456 20.8331 31.4417 20.8687 30.1455L20.8473 27.9732H21.0467C25.0565 27.9376 26.2388 24.5545 26.3884 24.1771C27.0792 22.4392 27.0721 20.7299 27.0721 20.6587C27.065 20.0818 26.5736 19.6402 26.0038 19.6901C26.132 19.4479 26.2459 19.1986 26.3528 18.9351C27.0365 17.1902 27.0294 15.4808 27.0294 15.4096ZM18.8745 26.0288H18.675C16.9871 26.0431 15.819 25.2383 15.1068 23.5717C14.8504 22.9663 14.7008 22.3467 14.6154 21.841C15.1211 21.9193 15.7407 22.0546 16.3532 22.3039C18.034 22.9877 18.8602 24.1343 18.8745 25.8294V26.0288ZM18.8317 20.7869H18.6323C16.9443 20.8011 15.7763 19.9963 15.0641 18.3297C14.8077 17.7243 14.6581 17.1047 14.5726 16.599C15.0783 16.6774 15.698 16.8127 16.3105 17.062C17.9913 17.7457 18.8175 18.8924 18.8317 20.5875V20.7869ZM19.9214 17.0905L19.779 17.2329L19.6365 17.0905C17.8346 15.431 18.4044 13.0735 19.7291 11.2574C21.0823 13.0522 21.6877 15.3954 19.9214 17.0905ZM24.5722 23.4435C23.8956 25.1528 22.7347 25.9932 21.0325 26.0075H20.8331V25.808C20.8188 24.1201 21.6236 22.952 23.2902 22.2398C23.8956 21.9834 24.5153 21.8339 25.0209 21.7484C24.9426 22.2469 24.8073 22.8523 24.5722 23.4435ZM24.5081 18.2514C23.8244 19.9322 22.6777 20.7584 20.9826 20.7726H20.7832V20.5732C20.769 18.8853 21.5738 17.7172 23.2404 17.005C23.8458 16.7486 24.4654 16.599 24.9711 16.5136C24.8999 17.0192 24.7574 17.6389 24.5081 18.2514Z" fill="#D31D16"/>
<path d="M19.7375 1.875C9.72367 1.875 1.875 9.72367 1.875 19.7375C1.875 29.7513 9.72367 37.6 19.7375 37.6C24.7658 37.6 29.3169 35.8123 32.5646 32.5646C33.113 32.0162 33.113 31.133 32.5646 30.5917L31.2897 29.3525L29.5377 27.6004C28.9893 27.0449 28.0847 27.0449 27.5292 27.5933C26.995 28.1275 27.0449 29.0249 27.5791 29.559L29.1887 31.1686L29.5448 31.5248C26.9238 33.6472 23.4909 34.8081 19.7304 34.8081C11.2763 34.8081 4.65978 28.1844 4.65978 19.7375C4.65978 16.0268 5.93466 12.6651 8.08557 10.0655L8.71232 10.6923C8.71232 10.6923 8.71232 10.6923 8.7052 10.6923L9.80914 11.7891L10.5855 12.5654L10.6709 12.6509C11.2265 13.1993 12.1239 13.1993 12.6794 12.6509C13.2136 12.1167 13.2136 11.1908 12.6794 10.6567C12.6794 10.6567 11.0698 9.08268 11.0626 9.09692L10.0655 8.09981C12.6651 5.9489 16.0268 4.67403 19.7375 4.67403C28.1916 4.67403 34.8081 11.2977 34.8081 19.7446C34.8081 22.0593 34.3024 24.2886 33.3124 26.3612C32.9777 27.0591 33.2768 27.8924 33.9677 28.2201C34.6657 28.5548 35.4989 28.2557 35.8266 27.5648C37.0017 25.1148 37.5929 22.4795 37.5929 19.7446C37.6 9.72367 29.7513 1.875 19.7375 1.875Z" fill="#413E43"/>
</g>
<defs>
<clipPath id="clip0_7180_237">
<rect width="35.725" height="35.725" fill="white" transform="translate(1.875 1.875)"/>
</clipPath>
</defs>
</svg>
