<svg width="29" height="29" viewBox="0 0 29 29" fill="none" xmlns="http://www.w3.org/2000/svg">
<path d="M14.6534 11.8814C14.8055 11.8814 14.9294 11.7575 14.9294 11.6053V11.0532C14.9294 10.901 14.8055 10.7771 14.6534 10.7771C14.5013 10.7771 14.3774 10.901 14.3774 11.0532V11.6053C14.3774 11.7575 14.5013 11.8814 14.6534 11.8814Z" fill="#6F7B7E"/>
<path d="M12.325 12.4581L12.1304 12.2635C12.0243 12.1573 11.8474 12.1573 11.7412 12.2635C11.6351 12.3697 11.6351 12.5466 11.7412 12.6528L11.9358 12.8475C12.0455 12.9536 12.2153 12.9536 12.325 12.8475C12.4311 12.7377 12.4311 12.5643 12.325 12.4581Z" fill="#6F7B7E"/>
<path d="M11.9358 17.5087L11.7412 17.7034C11.6351 17.8096 11.6351 17.9865 11.7412 18.0927C11.8509 18.1989 12.0207 18.1989 12.1304 18.0927L12.325 17.8981C12.4311 17.7919 12.4311 17.6149 12.325 17.5087C12.2153 17.399 12.042 17.399 11.9358 17.5087Z" fill="#6F7B7E"/>
<path d="M17.3736 17.5087C17.2674 17.4025 17.0905 17.4025 16.9844 17.5087C16.8783 17.6149 16.8783 17.7919 16.9844 17.898L17.179 18.0927C17.2887 18.1989 17.4585 18.1989 17.5682 18.0927C17.6743 17.9865 17.6743 17.8096 17.5682 17.7034L17.3736 17.5087Z" fill="#6F7B7E"/>
<path d="M17.5682 12.2635C17.462 12.1573 17.2851 12.1573 17.179 12.2635L16.9844 12.4581C16.8783 12.5643 16.8783 12.7413 16.9844 12.8475C17.0905 12.9536 17.2674 12.9536 17.3736 12.8475L17.5682 12.6528C17.6743 12.5431 17.6743 12.3697 17.5682 12.2635Z" fill="#6F7B7E"/>
<path d="M18.2369 15.3958H18.7888C18.941 15.3958 19.0648 15.2719 19.0648 15.1197C19.0648 14.9675 18.941 14.8436 18.7888 14.8436H18.2369C18.0848 14.8436 17.9609 14.9675 17.9609 15.1197C17.9609 15.2719 18.0848 15.3958 18.2369 15.3958Z" fill="#6F7B7E"/>
<path d="M10.5206 14.8436C10.3685 14.8436 10.2446 14.9675 10.2446 15.1197C10.2446 15.2719 10.3685 15.3958 10.5206 15.3958H11.0725C11.2246 15.3958 11.3485 15.2719 11.3485 15.1197C11.3485 14.9675 11.2246 14.8436 11.0725 14.8436H10.5206Z" fill="#6F7B7E"/>
<path d="M14.3774 18.7724V19.3245C14.3774 19.4767 14.5013 19.6006 14.6534 19.6006C14.8055 19.6006 14.9294 19.4767 14.9294 19.3245V18.7724C14.9294 18.6202 14.8055 18.4963 14.6534 18.4963C14.5013 18.4963 14.3774 18.6202 14.3774 18.7724Z" fill="#6F7B7E"/>
<path d="M16.1566 17.1619C16.2628 17.2716 16.4397 17.2716 16.5458 17.1619C16.6555 17.0557 16.6555 16.8788 16.5458 16.7726L15.3712 15.5869C15.5976 15.1941 15.4632 14.688 15.0669 14.4614C15.0245 14.4367 14.9749 14.4154 14.929 14.3977V12.7059C14.929 12.5537 14.8051 12.4299 14.653 12.4299C14.5009 12.4299 14.377 12.5537 14.377 12.7059V14.3977C13.9454 14.5499 13.719 15.0206 13.8711 15.4524C14.0232 15.8842 14.4938 16.1108 14.9254 15.9586C14.9325 15.955 14.9431 15.9515 14.9502 15.9479L16.1566 17.1619ZM14.653 15.4524C14.5009 15.4524 14.377 15.3286 14.377 15.1764C14.377 15.0242 14.5009 14.9003 14.653 14.9003C14.8051 14.9003 14.929 15.0242 14.929 15.1764C14.929 15.3286 14.8051 15.4524 14.653 15.4524Z" fill="#6F7B7E"/>
<path d="M19.9815 11.3327C20.1339 11.3327 20.2575 11.2091 20.2575 11.0566C20.2575 10.9042 20.1339 10.7806 19.9815 10.7806C19.8291 10.7806 19.7056 10.9042 19.7056 11.0566C19.7056 11.2091 19.8291 11.3327 19.9815 11.3327Z" fill="#6F7B7E"/>
<path d="M20.5367 12.221C20.6891 12.221 20.8127 12.0974 20.8127 11.945C20.8127 11.7925 20.6891 11.6689 20.5367 11.6689C20.3843 11.6689 20.2607 11.7925 20.2607 11.945C20.2607 12.0974 20.3843 12.221 20.5367 12.221Z" fill="#6F7B7E"/>
<path d="M20.9434 13.1837C21.0959 13.1837 21.2194 13.0601 21.2194 12.9076C21.2194 12.7551 21.0959 12.6315 20.9434 12.6315C20.791 12.6315 20.6675 12.7551 20.6675 12.9076C20.6675 13.0601 20.791 13.1837 20.9434 13.1837Z" fill="#6F7B7E"/>
<path d="M21.1915 14.203C21.3439 14.203 21.4675 14.0794 21.4675 13.9269C21.4675 13.7745 21.3439 13.6509 21.1915 13.6509C21.0391 13.6509 20.9155 13.7745 20.9155 13.9269C20.9155 14.0794 21.0391 14.203 21.1915 14.203Z" fill="#6F7B7E"/>
<path d="M21.0462 9.44269C20.9471 9.32589 20.7738 9.31174 20.657 9.41084C20.5403 9.50994 20.5261 9.68336 20.6252 9.80016C21.8422 11.2336 22.5074 13.0492 22.5074 14.9286C22.5074 19.2501 19.0472 22.7682 14.7946 22.7682C10.542 22.7682 7.08183 19.2501 7.08183 14.9286C7.08183 10.6071 10.542 7.08905 14.7981 7.08905C14.9786 7.08905 15.1696 7.03242 15.1696 6.81298V6.33163L17.0306 7.57393L15.1696 8.81623C15.1696 8.81623 15.1696 8.43753 15.1696 8.43399C15.1873 8.25702 15.0599 8.09775 14.8831 8.08005C14.8547 8.07652 14.8264 8.07651 14.7981 8.08359C11.0797 8.08359 8.05477 11.1557 8.05477 14.9286C8.05477 18.7015 11.0797 21.7737 14.7981 21.7737C18.4741 21.7737 21.4672 18.7759 21.538 15.0631C21.5415 14.9003 21.5274 14.7056 21.3363 14.6596C21.1912 14.6172 21.0391 14.7021 21.0002 14.8472C20.9931 14.8755 20.9896 14.9038 20.9896 14.9322C20.9896 18.4007 18.2123 21.2251 14.7981 21.2251C11.384 21.2251 8.60669 18.4007 8.60669 14.9322C8.60669 11.5238 11.2885 8.74191 14.6177 8.64281V9.03567C14.6212 9.27988 14.8229 9.47454 15.067 9.46746C15.1484 9.46746 15.2262 9.44269 15.2935 9.40022L17.6816 7.80399C17.809 7.7155 17.8408 7.54208 17.7523 7.4182C17.7347 7.38989 17.7099 7.36511 17.6816 7.34742L15.2899 5.75119C15.0847 5.62377 14.8123 5.68394 14.6849 5.88922C14.6425 5.95647 14.6177 6.03787 14.6177 6.11574V6.54045C10.1386 6.63955 6.52637 10.3629 6.52637 14.9286C6.52637 19.5545 10.2342 23.3203 14.7911 23.3203C19.348 23.3203 23.0558 19.558 23.0558 14.9286C23.0593 12.9183 22.3446 10.9752 21.0462 9.44269Z" fill="#6F7B7E"/>
</svg>
