<svg width="40" height="40" viewBox="0 0 40 40" fill="none" xmlns="http://www.w3.org/2000/svg">
<g clip-path="url(#clip0_7180_1081)">
<path d="M19.7 18.406C20.4146 18.406 20.9939 17.8267 20.9939 17.1121C20.9939 16.3974 20.4146 15.8181 19.7 15.8181C18.9853 15.8181 18.406 16.3974 18.406 17.1121C18.406 17.8267 18.9853 18.406 19.7 18.406Z" fill="#413E43"/>
<path d="M31.0992 3.125H8.30854C5.45105 3.125 3.125 5.45105 3.125 8.30854V25.9233C3.125 28.7808 5.45105 31.1069 8.30854 31.1069H18.406V33.6948H14.5242C13.8079 33.6948 13.2302 34.2724 13.2302 34.9887C13.2302 35.705 13.8079 36.2827 14.5242 36.2827H24.8835C25.5998 36.2827 26.1775 35.705 26.1775 34.9887C26.1775 34.2724 25.5998 33.6948 24.8835 33.6948H20.994V29.8129C20.994 29.0966 20.4163 28.5189 19.7 28.5189H8.30854C6.88364 28.5189 5.72062 27.3559 5.72062 25.931V8.30854C5.72062 6.88364 6.88364 5.72062 8.30854 5.72062H31.0992C32.5241 5.72062 33.6871 6.88364 33.6871 8.30854V25.9233C33.6871 27.3482 32.5241 28.5112 31.0992 28.5112H24.8835C24.1672 28.5112 23.5896 29.0889 23.5896 29.8052C23.5896 30.5215 24.1672 31.0992 24.8835 31.0992H31.0992C33.9567 31.0992 36.2827 28.7731 36.2827 25.9156V8.30854C36.275 5.45105 33.949 3.125 31.0992 3.125Z" fill="#413E43"/>
<path d="M19.6999 26.1775C20.4162 26.1775 20.9939 25.5998 20.9939 24.8835V23.4586C21.818 23.2892 22.5882 22.9657 23.266 22.5112L24.275 23.5202C24.7833 24.0286 25.5998 24.0286 26.1081 23.5202C26.6165 23.0119 26.6165 22.1955 26.1081 21.6871L25.0991 20.6781C25.5459 20.0004 25.8771 19.2301 26.0465 18.406H27.4714C28.1877 18.406 28.7654 17.8283 28.7654 17.112C28.7654 16.3957 28.1877 15.8181 27.4714 15.8181H26.0465C25.8771 14.994 25.5536 14.2237 25.0991 13.546L26.1081 12.537C26.6165 12.0286 26.6165 11.2122 26.1081 10.7039C25.5998 10.1955 24.7833 10.1955 24.275 10.7039L23.266 11.7128C22.5882 11.2661 21.818 10.9349 20.9939 10.7655V9.34059C20.9939 8.62429 20.4162 8.04663 19.6999 8.04663C18.9836 8.04663 18.406 8.62429 18.406 9.34059V10.7655C17.5819 10.9349 16.8116 11.2584 16.1338 11.7128L15.1249 10.7039C14.6165 10.1955 13.8001 10.1955 13.2918 10.7039C12.7834 11.2122 12.7834 12.0286 13.2918 12.537L14.3007 13.546C13.854 14.2237 13.5228 14.994 13.3534 15.8181H11.9285C11.2122 15.8181 10.6345 16.3957 10.6345 17.112C10.6345 17.8283 11.2122 18.406 11.9285 18.406H13.3534C13.5228 19.2301 13.8463 20.0004 14.3007 20.6781L13.2918 21.6871C12.7834 22.1955 12.7834 23.0119 13.2918 23.5202C13.8001 24.0286 14.6165 24.0286 15.1249 23.5202L16.1338 22.5112C16.8116 22.958 17.5819 23.2892 18.406 23.4586V24.8835C18.406 25.5921 18.9836 26.1775 19.6999 26.1775ZM15.8181 17.112C15.8181 14.9709 17.5587 13.2302 19.6999 13.2302C21.8411 13.2302 23.5818 14.9709 23.5818 17.112C23.5818 19.2532 21.8411 20.9939 19.6999 20.9939C17.5587 20.9939 15.8181 19.2532 15.8181 17.112Z" fill="#D31D16"/>
</g>
<defs>
<clipPath id="clip0_7180_1081">
<rect width="33.15" height="33.15" fill="white" transform="translate(3.125 3.125)"/>
</clipPath>
</defs>
</svg>
