<svg width="40" height="40" viewBox="0 0 40 40" fill="none" xmlns="http://www.w3.org/2000/svg">
<g clip-path="url(#clip0_7180_353)">
<path d="M13.9429 17.2535C13.9429 17.9584 14.5131 18.5286 15.218 18.5286H22.8607C23.5656 18.5286 24.1358 17.9584 24.1358 17.2535C24.1358 16.5486 23.5656 15.9784 22.8607 15.9784H15.218C14.5131 15.9784 13.9429 16.5486 13.9429 17.2535Z" fill="#413E43"/>
<path d="M15.2102 28.7135H18.0772C18.782 28.7135 19.3523 28.1433 19.3523 27.4384C19.3523 26.7336 18.782 26.1633 18.0772 26.1633H15.2102C14.5053 26.1633 13.9351 26.7336 13.9351 27.4384C13.9351 28.1433 14.5132 28.7135 15.2102 28.7135Z" fill="#413E43"/>
<path d="M15.2102 21.0708C14.5053 21.0708 13.9351 21.641 13.9351 22.3459C13.9351 23.0508 14.5053 23.621 15.2102 23.621H21.2135C21.9183 23.621 22.4886 23.0508 22.4886 22.3459C22.4886 21.641 21.9183 21.0708 21.2135 21.0708H15.2102Z" fill="#413E43"/>
<path d="M10.1176 18.5286C10.8219 18.5286 11.3927 17.9577 11.3927 17.2535C11.3927 16.5493 10.8219 15.9784 10.1176 15.9784C9.41341 15.9784 8.84253 16.5493 8.84253 17.2535C8.84253 17.9577 9.41341 18.5286 10.1176 18.5286Z" fill="#D31D16"/>
<path d="M10.1176 23.621C10.8219 23.621 11.3927 23.0501 11.3927 22.3459C11.3927 21.6417 10.8219 21.0708 10.1176 21.0708C9.41341 21.0708 8.84253 21.6417 8.84253 22.3459C8.84253 23.0501 9.41341 23.621 10.1176 23.621Z" fill="#D31D16"/>
<path d="M10.1176 28.7135C10.8219 28.7135 11.3927 28.1427 11.3927 27.4384C11.3927 26.7342 10.8219 26.1633 10.1176 26.1633C9.41341 26.1633 8.84253 26.7342 8.84253 27.4384C8.84253 28.1427 9.41341 28.7135 10.1176 28.7135Z" fill="#D31D16"/>
<path d="M20.3105 3.75H12.6678C11.9629 3.75 11.3927 4.32023 11.3927 5.0251V6.30021H8.8425C6.03885 6.30021 3.75 8.58114 3.75 11.3927V31.2638C3.75 34.0753 6.03885 36.3562 8.8425 36.3562H19.1225C19.8274 36.3562 20.3976 35.786 20.3976 35.0811C20.3976 34.3763 19.8274 33.806 19.1225 33.806H8.8425C7.44068 33.806 6.29229 32.6656 6.29229 31.2558V11.3927C6.29229 9.99088 7.43276 8.8425 8.8425 8.8425H11.6065C12.1293 10.3235 13.5469 11.3927 15.2101 11.3927H17.7603C19.4235 11.3927 20.8332 10.3314 21.3639 8.8425H24.1279C25.5297 8.8425 26.6781 9.98296 26.6781 11.3927V14.7032C26.6781 15.4081 27.2484 15.9783 27.9532 15.9783C28.6581 15.9783 29.2283 15.4081 29.2283 14.7032V11.3927C29.2283 8.58114 26.9395 6.30021 24.1358 6.30021H21.5856V5.0251C21.5856 4.32023 21.0154 3.75 20.3105 3.75ZM17.7603 8.8425H15.2101C14.5052 8.8425 13.935 8.27227 13.935 7.56739V6.30021H19.0275V7.57531C19.0354 8.27227 18.4652 8.8425 17.7603 8.8425Z" fill="#413E43"/>
<path d="M36.4989 31.0974C36.3325 30.8123 36.0712 30.6064 35.7544 30.5272C35.4376 30.4401 35.105 30.4876 34.8198 30.6539C34.5347 30.8202 34.3288 31.0816 34.2496 31.3984C33.9407 32.5309 33.323 33.41 32.6102 33.7427C32.1746 33.9486 31.7152 33.9407 31.2638 33.7347C30.0441 33.1408 28.6423 33.1408 27.4227 33.7347C27.2009 33.8377 26.9791 33.8931 26.7732 33.8931C25.0229 33.8219 24.2309 31.4538 24.2547 29.8619C24.2388 28.2859 25.0229 25.9178 26.7495 25.8465C26.9791 25.8465 27.2009 25.902 27.4227 26.0049C28.6423 26.5989 30.0441 26.5989 31.2717 26.0049C32.1508 25.5693 32.9824 26.1079 33.4814 26.7652C33.6794 27.0266 33.9724 27.1929 34.2971 27.2404C34.6298 27.28 34.9466 27.2008 35.2079 26.9949C35.4693 26.7969 35.6356 26.5039 35.6831 26.1792C35.7306 25.8544 35.6435 25.5297 35.4376 25.2605L35.3742 25.1813C34.0675 23.526 32.1271 22.9637 30.3768 23.7161C30.4401 23.3122 30.4718 22.9003 30.456 22.4806C31.9924 22.4251 33.8219 21.744 34.6614 19.0829C34.7406 18.8057 34.709 18.5048 34.5585 18.2593C34.4159 18.0137 34.1625 17.8316 33.8853 17.7761C32.7131 17.5306 31.8895 18.1009 31.1688 18.6077L30.8836 18.7978C30.456 19.075 30.0996 19.471 29.8303 19.867C29.5373 19.2888 29.165 18.5602 29.165 18.5523C29.0383 18.3068 28.8166 18.1246 28.5552 18.0454C28.2938 17.9662 28.0087 17.99 27.7711 18.1167C27.5335 18.2434 27.3435 18.4652 27.2643 18.7265C27.1851 18.9958 27.2088 19.273 27.3355 19.5106C27.6919 20.1996 28.5552 22.2667 28.3018 23.5735C28.2938 23.621 28.3018 23.6685 28.3018 23.7161C26.4247 22.9162 24.4052 23.5735 23.0984 25.4268C21.3481 27.7948 21.3481 31.9369 23.0905 34.2971C24.0329 35.6434 25.3476 36.3642 26.7178 36.3642C27.3039 36.3642 27.9058 36.2295 28.4839 35.9523C29.0225 35.691 29.6402 35.691 30.1788 35.9523C31.7865 36.7285 33.6081 36.38 34.9466 35.0495C35.7227 34.2812 36.3009 33.2437 36.6256 32.0399C36.7048 31.7152 36.6573 31.3825 36.4989 31.0974Z" fill="#D31D16"/>
</g>
<defs>
<clipPath id="clip0_7180_353">
<rect width="32.9151" height="32.6062" fill="white" transform="translate(3.75 3.75)"/>
</clipPath>
</defs>
</svg>
