<svg width="40" height="40" viewBox="0 0 40 40" fill="none" xmlns="http://www.w3.org/2000/svg">
<g clip-path="url(#clip0_7180_480)">
<path d="M24.9751 21.0188C24.2563 20.3125 23.2813 19.925 22.2251 19.925C21.3188 19.925 20.5313 20.2563 19.9563 20.6C19.3751 20.2563 18.5876 19.925 17.6876 19.925C16.6313 19.925 15.6563 20.3125 14.9376 21.0188C14.2063 21.7375 13.8063 22.7313 13.8126 23.8188C13.8188 24.8938 14.1376 25.8313 14.7813 26.6188C16.1063 28.2563 18.9126 30.0001 19.2251 30.1938C19.4501 30.3313 19.7126 30.4063 19.9688 30.4063C20.2251 30.4063 20.4876 30.3376 20.7126 30.1938C21.0251 30.0001 23.8126 28.2563 25.1438 26.6188C25.7813 25.8313 26.1063 24.8876 26.1126 23.8188C26.1063 22.7376 25.7063 21.7375 24.9751 21.0188ZM22.9501 24.9188C22.2876 25.7375 20.9126 26.7501 19.9626 27.4001C19.0063 26.7563 17.6313 25.7438 16.9626 24.9188C16.7126 24.6125 16.6063 24.2751 16.6063 23.8188C16.6063 23.4563 16.7188 23.1626 16.9251 22.9626C17.1126 22.7751 17.3813 22.675 17.6938 22.675C18.2126 22.675 18.8063 23.125 18.9751 23.2938C19.2376 23.5626 19.5876 23.7125 19.9688 23.7125C20.3501 23.7125 20.7063 23.5563 20.9688 23.2875C21.1251 23.1313 21.7001 22.6813 22.2313 22.6813C22.5438 22.6813 22.8126 22.7813 23.0001 22.9688C23.2063 23.1688 23.3126 23.4688 23.3126 23.8313C23.3063 24.2751 23.1938 24.6125 22.9501 24.9188Z" fill="#D31D16"/>
<path d="M36.1375 14.8875L34.25 13.6V3.7125C34.25 3.55625 34.2187 3.39375 34.1562 3.25C34.0937 3.1 34.0062 2.96875 33.8937 2.85625C33.7812 2.74375 33.65 2.65625 33.5 2.59375C33.3562 2.53125 33.1937 2.5 33.0375 2.5H28.1937C28.0375 2.5 27.875 2.53125 27.7312 2.59375C27.5812 2.65625 27.45 2.74375 27.3375 2.85625C27.225 2.96875 27.1375 3.1 27.075 3.25C27.0125 3.4 26.9812 3.55625 26.9812 3.7125V8.6625L21.9687 6.08125C21.375 5.68125 20.6687 5.46875 19.9562 5.46875C19.2375 5.46875 18.5375 5.68125 17.9437 6.08125L3.64372 14.8875C3.38122 15.0687 3.19997 15.35 3.14372 15.6625C3.08747 15.975 3.15622 16.3 3.33122 16.5625C3.51247 16.825 3.78747 17.0062 4.09997 17.0687C4.41247 17.1312 4.73747 17.0688 5.00622 16.8875L5.53747 16.525V33.2687C5.53747 34.5563 6.04997 35.7875 6.95622 36.6937C7.86247 37.6 9.09372 38.1125 10.3812 38.1188H29.4062C30.6937 38.1188 31.925 37.6063 32.8312 36.6937C33.7375 35.7875 34.25 34.55 34.25 33.2687V20.9375C34.25 20.6187 34.125 20.3062 33.8937 20.0812C33.6687 19.8562 33.3562 19.725 33.0375 19.725C32.7187 19.725 32.4062 19.85 32.1812 20.0812C31.9562 20.3062 31.825 20.6187 31.825 20.9375V33.2687C31.825 33.9125 31.5687 34.525 31.1187 34.9813C30.6625 35.4375 30.05 35.6937 29.4062 35.6937H10.3812C9.73746 35.6937 9.12497 35.4375 8.66872 34.9813C8.21247 34.525 7.95622 33.9125 7.95622 33.2687V14.8812L19.2875 8.09375C19.4875 7.9625 19.7187 7.89375 19.9562 7.89375C20.1937 7.89375 20.425 7.9625 20.625 8.09375L34.775 16.8938C35.0437 17.0688 35.3625 17.125 35.675 17.0625C35.9875 17 36.2625 16.8187 36.4375 16.5562C36.6125 16.2937 36.6812 15.975 36.625 15.6625C36.575 15.3438 36.3937 15.0687 36.1375 14.8875ZM29.4062 4.925H31.825V11.9563L29.4062 10.3062V4.925Z" fill="#413E43"/>
</g>
<defs>
<clipPath id="clip0_7180_480">
<rect width="33.525" height="35.6188" fill="white" transform="translate(3.125 2.5)"/>
</clipPath>
</defs>
</svg>
