<svg width="64" height="64" viewBox="0 0 64 64" fill="none" xmlns="http://www.w3.org/2000/svg">
<path d="M58.3401 31.71V40.13C58.3401 40.3933 58.2882 40.654 58.1874 40.8973C58.0867 41.1405 57.939 41.3616 57.7528 41.5478C57.5666 41.7339 57.3456 41.8816 57.1023 41.9824C56.8591 42.0832 56.5984 42.135 56.3351 42.135C56.0718 42.135 55.811 42.0832 55.5678 41.9824C55.3245 41.8816 55.1035 41.7339 54.9173 41.5478C54.7311 41.3616 54.5834 41.1405 54.4827 40.8973C54.3819 40.654 54.3301 40.3933 54.3301 40.13V31.78C54.3398 31.5603 54.2987 31.3413 54.2101 31.14C54.1282 30.9373 54.0057 30.7535 53.8501 30.6C53.6975 30.4433 53.5134 30.3206 53.3101 30.24C53.1127 30.1604 52.9028 30.1163 52.6901 30.11H42.0901C41.7832 30.116 41.4833 30.2022 41.2201 30.36C40.9527 30.5184 40.7373 30.7512 40.6001 31.03L38.9801 34.33C38.5088 35.2747 37.7855 36.0707 36.8901 36.63C36.0017 37.2009 34.966 37.4998 33.9101 37.49H11.3101C11.0899 37.4877 10.8718 37.532 10.6701 37.62C10.471 37.7032 10.2908 37.8257 10.1401 37.98C9.8295 38.2947 9.65374 38.7179 9.65005 39.16V52.5C9.65356 52.9451 9.82915 53.3715 10.1401 53.69C10.2971 53.8414 10.48 53.9633 10.6801 54.05C10.8804 54.1301 11.0943 54.1708 11.3101 54.17H52.6801C52.8991 54.1708 53.1162 54.1301 53.3201 54.05C53.5171 53.9632 53.6967 53.8412 53.8501 53.69C54.006 53.5329 54.1284 53.3458 54.2101 53.14C54.294 52.9373 54.3349 52.7194 54.3301 52.5V49.64C54.3323 49.1104 54.5445 48.6034 54.9201 48.23C55.1048 48.0411 55.3258 47.8914 55.5698 47.79C55.8138 47.6886 56.0758 47.6376 56.3401 47.64C56.87 47.6416 57.3778 47.8528 57.7525 48.2275C58.1272 48.6023 58.3385 49.1101 58.3401 49.64V52.5C58.3469 53.2474 58.2041 53.9887 57.9201 54.68C57.6352 55.3724 57.2166 56.0017 56.688 56.532C56.1595 57.0622 55.5315 57.483 54.8401 57.77C54.1583 58.0524 53.4279 58.1984 52.6901 58.2H11.3101C10.5666 58.2021 9.83015 58.0564 9.14348 57.7714C8.4568 57.4864 7.8336 57.0679 7.31005 56.54C6.78574 56.0095 6.37117 55.3809 6.09005 54.69C5.79905 53.9969 5.65272 53.2517 5.66005 52.5V39.09C5.65921 38.3626 5.80193 37.6422 6.08005 36.97C6.65526 35.5751 7.75887 34.4643 9.15005 33.88C9.31279 33.8096 9.47979 33.7495 9.65005 33.7C10.1871 33.5311 10.7471 33.4468 11.3101 33.45H33.9701C34.2579 33.4521 34.5398 33.3686 34.7801 33.21C35.0432 33.0422 35.2572 32.8075 35.4001 32.53L37.0201 29.23C37.4907 28.2907 38.2102 27.4986 39.1001 26.94C39.9913 26.3838 41.0195 26.086 42.0701 26.08H52.6801C53.2397 26.0775 53.7963 26.1619 54.3301 26.33C54.4084 26.3473 54.4853 26.3707 54.5601 26.4C54.7209 26.4563 54.8779 26.5231 55.0301 26.6C55.108 26.6265 55.1821 26.6635 55.2501 26.71C55.4042 26.7856 55.5544 26.8691 55.7001 26.96C55.8803 27.0685 56.0509 27.1923 56.2101 27.33C56.3759 27.4593 56.533 27.5996 56.6801 27.75C56.8001 27.87 56.9201 28 57.0401 28.14C57.0401 28.15 57.0501 28.16 57.0601 28.17C57.1812 28.3115 57.2915 28.462 57.3901 28.62C57.4547 28.7047 57.5116 28.7951 57.5601 28.89C57.6293 29.0034 57.6927 29.1202 57.7501 29.24C57.8101 29.36 57.8701 29.48 57.9201 29.6C57.9805 29.7429 58.0306 29.89 58.0701 30.04C58.1001 30.13 58.1301 30.23 58.1601 30.33C58.2801 30.7802 58.3406 31.2441 58.3401 31.71Z" fill="#413E43"/>
<path d="M58.34 18.88V31.71C58.3405 31.2441 58.28 30.7801 58.16 30.33C58.13 30.23 58.1 30.13 58.07 30.04C58.0305 29.8899 57.9804 29.7429 57.92 29.6C57.87 29.48 57.81 29.36 57.75 29.24C57.6926 29.1202 57.6292 29.0033 57.56 28.89C57.5115 28.7951 57.4546 28.7047 57.39 28.62C57.3693 28.5732 57.3424 28.5295 57.31 28.49C57.2322 28.3791 57.1488 28.2723 57.06 28.17C57.05 28.16 57.04 28.15 57.04 28.14C56.9305 28.0006 56.8102 27.8702 56.68 27.75C56.5329 27.5996 56.3759 27.4593 56.21 27.33C56.0509 27.1923 55.8802 27.0685 55.7 26.96C55.5568 26.8649 55.4063 26.7813 55.25 26.71C55.182 26.6635 55.108 26.6265 55.03 26.6C54.8778 26.5231 54.7208 26.4563 54.56 26.4C54.4852 26.3707 54.4083 26.3473 54.33 26.33V18.88C54.3397 18.6603 54.2986 18.4413 54.21 18.24C54.1281 18.0373 54.0056 17.8535 53.85 17.7C53.6974 17.5433 53.5133 17.4206 53.31 17.34C53.1155 17.2511 52.9037 17.2067 52.69 17.21H32.96C31.9082 17.2097 30.877 16.919 29.98 16.37C29.0887 15.8014 28.3668 15.0035 27.89 14.06L26.27 10.76C26.1301 10.4804 25.9155 10.245 25.65 10.08C25.3887 9.91772 25.0875 9.83117 24.78 9.82999H11.31C10.8688 9.83807 10.4482 10.0183 10.1381 10.3322C9.82793 10.6461 9.65276 11.0687 9.64996 11.51V33.7C9.4797 33.7495 9.31271 33.8096 9.14996 33.88C7.75879 34.4642 6.65517 35.575 6.07996 36.97C5.80185 37.6421 5.65912 38.3626 5.65996 39.09V11.51C5.64828 10.7621 5.79127 10.02 6.07996 9.32999C6.36248 8.63665 6.7791 8.00591 7.30592 7.47394C7.83275 6.94197 8.45941 6.51923 9.14996 6.22999C9.83489 5.94668 10.5688 5.80058 11.31 5.79999H24.79C25.8447 5.80812 26.8765 6.10933 27.77 6.66999C28.6651 7.22658 29.3859 8.02354 29.85 8.96999L31.47 12.26C31.6072 12.5388 31.8226 12.7716 32.09 12.93C32.3482 13.0909 32.6458 13.1774 32.95 13.18H52.68C53.4241 13.1792 54.161 13.3265 54.8477 13.6132C55.5344 13.8999 56.1573 14.3203 56.68 14.85C57.7453 15.9204 58.3424 17.3698 58.34 18.88Z" fill="#D31D16"/>
</svg>
