<svg width="40" height="40" viewBox="0 0 40 40" fill="none" xmlns="http://www.w3.org/2000/svg">
<g clip-path="url(#clip0_7180_459)">
<path d="M22.4425 35.3H12.3394C8.5455 35.3 5.45459 32.1125 5.45459 28.2V12.1C5.45459 8.1875 8.5455 5 12.3394 5H27.9455C31.7394 5 34.8303 8.1875 34.8303 12.1V18.075C34.8303 18.7312 34.3152 19.2562 33.6849 19.2562C33.0546 19.2562 32.5394 18.725 32.5394 18.075V12.1C32.5394 9.4875 30.4788 7.36875 27.9516 7.36875H12.3394C9.8061 7.36875 7.75156 9.49375 7.75156 12.1V28.1938C7.75156 30.8062 9.81217 32.925 12.3394 32.925H22.4364C23.0728 32.925 23.5819 33.4562 23.5819 34.1063C23.5819 34.7563 23.0728 35.3 22.4425 35.3Z" fill="#413E43"/>
<path d="M21.0183 15.4188L24.5758 11.75C25.0243 11.2875 25.0243 10.5375 24.5758 10.075C24.1274 9.61252 23.4001 9.61252 22.9516 10.075L19.394 13.75C19.1758 13.975 18.8849 14.0938 18.5819 14.0938C18.2728 14.0938 17.988 13.9688 17.7698 13.7438L14.2486 10.0813C13.8001 9.61877 13.0728 9.61252 12.6243 10.075C12.1758 10.5375 12.1698 11.2875 12.6183 11.75L16.1395 15.4125C16.788 16.0875 17.6546 16.4625 18.5758 16.4625H18.5819C19.5031 16.4625 20.3637 16.0938 21.0183 15.4188Z" fill="#413E43"/>
<path d="M12.0668 24.6499L14.5334 22.0749C15.8547 20.6937 15.8486 18.4562 14.5274 17.0812L12.0668 14.5249C11.6183 14.0624 10.891 14.0562 10.4425 14.5187C9.99405 14.9812 9.98799 15.7312 10.4365 16.1937L12.8971 18.7499C13.3395 19.2062 13.3395 19.9562 12.8971 20.4124L10.4304 22.9874C9.98799 23.4499 9.98799 24.1999 10.4425 24.6624C10.6668 24.8874 10.9577 24.9999 11.2486 24.9999C11.5456 24.9999 11.8425 24.8812 12.0668 24.6499Z" fill="#413E43"/>
<path d="M28.7334 20.3374C25.3455 20.3624 22.6183 23.2312 22.6425 26.7312C22.6546 28.3687 23.9334 30.8437 26.4425 34.0749C27.0304 34.8312 27.9092 35.2624 28.8486 35.2562C29.7879 35.2499 30.6607 34.8062 31.2364 34.0374C33.697 30.7687 34.9334 28.2749 34.9213 26.6374C34.891 23.1312 32.1152 20.3124 28.7334 20.3374ZM29.4183 32.5812C29.2243 32.8437 28.9637 32.8812 28.8243 32.8812C28.6849 32.8812 28.4304 32.8437 28.2304 32.5874C25.8122 29.4687 24.9395 27.5062 24.9334 26.7062C24.9152 24.5124 26.6304 22.7187 28.7455 22.6999C30.8667 22.6812 32.6061 24.4499 32.6183 26.6437C32.6304 27.4499 31.794 29.4249 29.4183 32.5812Z" fill="#D31D16"/>
<path d="M12.4546 30.65C12.1637 30.65 11.8667 30.5375 11.6425 30.3125C11.1879 29.8562 11.1879 29.1062 11.6304 28.6375L28.194 11.2812C28.6364 10.8125 29.3637 10.8125 29.8182 11.2687C30.2728 11.725 30.2728 12.475 29.8304 12.9437L13.2667 30.3C13.0425 30.5312 12.7516 30.65 12.4546 30.65Z" fill="#413E43"/>
<path d="M28.7818 28.0312C29.5751 28.0312 30.2182 27.368 30.2182 26.55C30.2182 25.7319 29.5751 25.0687 28.7818 25.0687C27.9885 25.0687 27.3455 25.7319 27.3455 26.55C27.3455 27.368 27.9885 28.0312 28.7818 28.0312Z" fill="#D31D16"/>
<g clip-path="url(#clip1_7180_459)">
<path d="M22.4425 35.3H12.3394C8.5455 35.3 5.45459 32.1125 5.45459 28.2V12.1C5.45459 8.1875 8.5455 5 12.3394 5H27.9455C31.7394 5 34.8303 8.1875 34.8303 12.1V18.075C34.8303 18.7312 34.3152 19.2562 33.6849 19.2562C33.0546 19.2562 32.5394 18.725 32.5394 18.075V12.1C32.5394 9.4875 30.4788 7.36875 27.9516 7.36875H12.3394C9.8061 7.36875 7.75156 9.49375 7.75156 12.1V28.1938C7.75156 30.8062 9.81217 32.925 12.3394 32.925H22.4364C23.0728 32.925 23.5819 33.4562 23.5819 34.1063C23.5819 34.7563 23.0728 35.3 22.4425 35.3Z" fill="#413E43"/>
<path d="M21.0183 15.4188L24.5758 11.75C25.0243 11.2875 25.0243 10.5375 24.5758 10.075C24.1274 9.61252 23.4001 9.61252 22.9516 10.075L19.394 13.75C19.1758 13.975 18.8849 14.0938 18.5819 14.0938C18.2728 14.0938 17.988 13.9688 17.7698 13.7438L14.2486 10.0813C13.8001 9.61877 13.0728 9.61252 12.6243 10.075C12.1758 10.5375 12.1698 11.2875 12.6183 11.75L16.1395 15.4125C16.788 16.0875 17.6546 16.4625 18.5758 16.4625H18.5819C19.5031 16.4625 20.3637 16.0938 21.0183 15.4188Z" fill="#413E43"/>
<path d="M12.0668 24.6499L14.5334 22.0749C15.8547 20.6937 15.8486 18.4562 14.5274 17.0812L12.0668 14.5249C11.6183 14.0624 10.891 14.0562 10.4425 14.5187C9.99405 14.9812 9.98799 15.7312 10.4365 16.1937L12.8971 18.7499C13.3395 19.2062 13.3395 19.9562 12.8971 20.4124L10.4304 22.9874C9.98799 23.4499 9.98799 24.1999 10.4425 24.6624C10.6668 24.8874 10.9577 24.9999 11.2486 24.9999C11.5456 24.9999 11.8425 24.8812 12.0668 24.6499Z" fill="#413E43"/>
<path d="M28.7334 20.3374C25.3455 20.3624 22.6183 23.2312 22.6425 26.7312C22.6546 28.3687 23.9334 30.8437 26.4425 34.0749C27.0304 34.8312 27.9092 35.2624 28.8486 35.2562C29.7879 35.2499 30.6607 34.8062 31.2364 34.0374C33.697 30.7687 34.9334 28.2749 34.9213 26.6374C34.891 23.1312 32.1152 20.3124 28.7334 20.3374ZM29.4183 32.5812C29.2243 32.8437 28.9637 32.8812 28.8243 32.8812C28.6849 32.8812 28.4304 32.8437 28.2304 32.5874C25.8122 29.4687 24.9395 27.5062 24.9334 26.7062C24.9152 24.5124 26.6304 22.7187 28.7455 22.6999C30.8667 22.6812 32.6061 24.4499 32.6183 26.6437C32.6304 27.4499 31.794 29.4249 29.4183 32.5812Z" fill="#D31D16"/>
<path d="M12.4546 30.65C12.1637 30.65 11.8667 30.5375 11.6425 30.3125C11.1879 29.8562 11.1879 29.1062 11.6304 28.6375L28.194 11.2812C28.6364 10.8125 29.3637 10.8125 29.8182 11.2687C30.2728 11.725 30.2728 12.475 29.8304 12.9437L13.2667 30.3C13.0425 30.5312 12.7516 30.65 12.4546 30.65Z" fill="#413E43"/>
<path d="M28.7818 28.0312C29.5751 28.0312 30.2182 27.368 30.2182 26.55C30.2182 25.7319 29.5751 25.0687 28.7818 25.0687C27.9885 25.0687 27.3455 25.7319 27.3455 26.55C27.3455 27.368 27.9885 28.0312 28.7818 28.0312Z" fill="#D31D16"/>
</g>
</g>
<defs>
<clipPath id="clip0_7180_459">
<rect width="29.4667" height="30.3" fill="white" transform="translate(5.45459 5)"/>
</clipPath>
<clipPath id="clip1_7180_459">
<rect width="29.4667" height="30.3" fill="white" transform="translate(5.45459 5)"/>
</clipPath>
</defs>
</svg>
