<svg width="40" height="40" viewBox="0 0 40 40" fill="none" xmlns="http://www.w3.org/2000/svg">
<g clip-path="url(#clip0_7180_1131)">
<path d="M17.1 26.2688H18.8875V28.0563C18.8875 29.0438 19.6875 29.8438 20.675 29.8438C21.6625 29.8438 22.4625 29.0438 22.4625 28.0563V26.2688H24.25C25.2375 26.2688 26.0375 25.4688 26.0375 24.4813C26.0375 23.4938 25.2375 22.6938 24.25 22.6938H22.4625V20.9063C22.4625 19.9188 21.6625 19.1188 20.675 19.1188C19.6875 19.1188 18.8875 19.9188 18.8875 20.9063V22.6938H17.1C16.1125 22.6938 15.3125 23.4938 15.3125 24.4813C15.3187 25.4688 16.1188 26.2688 17.1 26.2688Z" fill="#D31D16"/>
<path d="M36.1375 14.8875L34.25 13.6V3.7125C34.25 3.55625 34.2187 3.39375 34.1562 3.25C34.0937 3.1 34.0062 2.96875 33.8937 2.85625C33.7812 2.74375 33.65 2.65625 33.5 2.59375C33.3562 2.53125 33.1937 2.5 33.0375 2.5H28.1937C28.0375 2.5 27.875 2.53125 27.7312 2.59375C27.5812 2.65625 27.45 2.74375 27.3375 2.85625C27.225 2.96875 27.1375 3.1 27.075 3.25C27.0125 3.4 26.9812 3.55625 26.9812 3.7125V8.6625L21.9687 6.08125C21.375 5.68125 20.6687 5.46875 19.9562 5.46875C19.2375 5.46875 18.5375 5.68125 17.9437 6.08125L3.64372 14.8875C3.38122 15.0687 3.19997 15.35 3.14372 15.6625C3.08747 15.975 3.15622 16.3 3.33122 16.5625C3.51247 16.825 3.78747 17.0062 4.09997 17.0687C4.41247 17.1312 4.73747 17.0688 5.00622 16.8875L5.53747 16.525V33.2687C5.53747 34.5563 6.04997 35.7875 6.95622 36.6937C7.86247 37.6 9.09372 38.1125 10.3812 38.1188H29.4062C30.6937 38.1188 31.925 37.6063 32.8312 36.6937C33.7375 35.7875 34.25 34.55 34.25 33.2687V20.9375C34.25 20.6187 34.125 20.3062 33.8937 20.0812C33.6687 19.8562 33.3562 19.725 33.0375 19.725C32.7187 19.725 32.4062 19.85 32.1812 20.0812C31.9562 20.3062 31.825 20.6187 31.825 20.9375V33.2687C31.825 33.9125 31.5687 34.525 31.1187 34.9813C30.6625 35.4375 30.05 35.6937 29.4062 35.6937H10.3812C9.73746 35.6937 9.12497 35.4375 8.66872 34.9813C8.21247 34.525 7.95622 33.9125 7.95622 33.2687V14.8812L19.2875 8.09375C19.4875 7.9625 19.7187 7.89375 19.9562 7.89375C20.1937 7.89375 20.425 7.9625 20.625 8.09375L34.775 16.8938C35.0437 17.0688 35.3625 17.125 35.675 17.0625C35.9875 17 36.2625 16.8187 36.4375 16.5562C36.6125 16.2937 36.6812 15.975 36.625 15.6625C36.575 15.3438 36.3937 15.0687 36.1375 14.8875ZM29.4062 4.925H31.825V11.9563L29.4062 10.3062V4.925Z" fill="#413E43"/>
</g>
<defs>
<clipPath id="clip0_7180_1131">
<rect width="33.525" height="35.6188" fill="white" transform="translate(3.125 2.5)"/>
</clipPath>
</defs>
</svg>
