<svg width="75" height="73" viewBox="0 0 75 73" fill="none" xmlns="http://www.w3.org/2000/svg">
<path d="M30.4858 17.6442H45.3459C45.9522 17.6442 46.5337 17.4074 46.9624 16.986C47.3911 16.5645 47.632 15.9929 47.632 15.3969C47.632 14.8009 47.3911 14.2292 46.9624 13.8078C46.5337 13.3863 45.9522 13.1496 45.3459 13.1496H30.4858C29.8795 13.1496 29.298 13.3863 28.8693 13.8078C28.4405 14.2292 28.1997 14.8009 28.1997 15.3969C28.1997 15.9929 28.4405 16.5645 28.8693 16.986C29.298 17.4074 29.8795 17.6442 30.4858 17.6442Z" fill="white"/>
<path d="M48.6002 25.9132H27.2315C26.6251 25.9132 26.0437 26.1499 25.6149 26.5714C25.1862 26.9928 24.9453 27.5645 24.9453 28.1605C24.9453 28.7565 25.1862 29.3281 25.6149 29.7496C26.0437 30.171 26.6251 30.4078 27.2315 30.4078H48.6002C49.2065 30.4078 49.788 30.171 50.2168 29.7496C50.6455 29.3281 50.8864 28.7565 50.8864 28.1605C50.8864 27.5645 50.6455 26.9928 50.2168 26.5714C49.788 26.1499 49.2065 25.9132 48.6002 25.9132Z" fill="white"/>
<path d="M34.7919 57.8879C34.1856 57.8879 33.6041 57.6512 33.1754 57.2297C32.7466 56.8083 32.5058 56.2366 32.5058 55.6406C32.5058 55.0446 32.7466 54.473 33.1754 54.0515C33.6041 53.6301 34.1856 53.3933 34.7919 53.3933H41.0388C41.6452 53.3933 42.2267 53.6301 42.6554 54.0515C43.0841 54.473 43.325 55.0446 43.325 55.6406C43.325 56.2366 43.0841 56.8083 42.6554 57.2297C42.2267 57.6512 41.6452 57.8879 41.0388 57.8879H34.7919Z" fill="white"/>
<path d="M67.5434 48.4593C68.1265 48.4573 68.685 48.2285 69.097 47.823C69.5091 47.4176 69.7412 46.8683 69.7427 46.2952V35.371C69.7412 34.798 69.509 34.2488 69.097 33.8435C68.6849 33.4382 68.1264 33.2097 67.5434 33.208L63.2695 32.8709V15.4396C63.2351 13.9402 62.8997 12.4623 62.2825 11.0907C61.6654 9.71914 60.7786 8.48095 59.6732 7.44726C58.5678 6.41357 57.2656 5.60477 55.8412 5.0673C54.4169 4.52984 52.8985 4.27431 51.3734 4.3154H22.8399C19.7483 4.31748 16.7839 5.52568 14.5978 7.67463C12.4117 9.82359 11.1826 12.7376 11.1805 15.7767V33.2046H7.37401C6.79089 33.2061 6.23207 33.4344 5.81974 33.8398C5.40741 34.2451 5.17509 34.7944 5.17358 35.3676V56.6519C5.1757 59.691 6.40478 62.605 8.59089 64.754C10.777 66.9029 13.7414 68.1111 16.833 68.1132H58.0833C61.121 68.105 64.0378 66.9422 66.2232 64.8681C68.3994 62.6719 69.6558 59.7515 69.7427 56.6868C69.7412 56.1137 69.509 55.5646 69.097 55.1593C68.6849 54.754 68.1264 54.5255 67.5434 54.5237C66.9831 54.5377 66.4479 54.7554 66.0414 55.1348C65.635 55.5143 65.3861 56.0284 65.343 56.5778C65.3087 58.4953 64.5236 60.3261 63.1509 61.689C61.7783 63.0519 59.9238 63.8421 57.9736 63.895H16.833C14.8783 63.8944 13.0039 63.1307 11.6219 61.7718C10.2399 60.4129 9.46356 58.57 9.46356 56.6485V38.3993C9.46311 38.2713 9.4884 38.1446 9.53799 38.0263C9.58758 37.9081 9.66048 37.8006 9.75249 37.7102C9.8445 37.6197 9.95381 37.5481 10.0741 37.4993C10.1944 37.4506 10.3233 37.4257 10.4535 37.4262H21.5631C21.7887 37.4318 22.0066 37.5084 22.1848 37.6447C22.3629 37.781 22.492 37.9699 22.553 38.1835L23.8732 42.9422C24.0063 43.3838 24.2827 43.7705 24.6601 44.0433C25.0376 44.3162 25.4954 44.4602 25.9639 44.4535H48.9535C49.4184 44.4444 49.869 44.2939 50.2432 44.0226C50.6174 43.7513 50.8968 43.3727 51.0431 42.9388L52.3633 38.1801C52.4243 37.9665 52.5534 37.7777 52.7315 37.6414C52.9097 37.5051 53.1276 37.4285 53.3532 37.4228H64.4628C64.5929 37.4223 64.7219 37.4472 64.8422 37.496C64.9625 37.5447 65.0718 37.6164 65.1638 37.7068C65.2558 37.7973 65.3287 37.9047 65.3783 38.023C65.4279 38.1412 65.4532 38.268 65.4527 38.3959V46.2918C65.4486 46.8484 65.6642 47.3848 66.054 47.7884C66.4439 48.192 66.9778 48.4313 67.5434 48.456M50.9333 33.208C50.4685 33.2171 50.0179 33.3676 49.6437 33.6389C49.2695 33.9101 48.99 34.2888 48.8438 34.7227L47.5235 39.4813C47.4625 39.695 47.3335 39.8838 47.1553 40.0201C46.9772 40.1564 46.7593 40.233 46.5336 40.2387H28.3838C28.1581 40.233 27.9402 40.1564 27.7621 40.0201C27.5839 39.8838 27.4549 39.695 27.3939 39.4813L26.0736 34.7227C25.9413 34.2803 25.6653 33.8928 25.2878 33.6193C24.9102 33.3457 24.4519 33.2013 23.983 33.208H15.4704V15.7801C15.4701 13.8584 16.2464 12.0153 17.6284 10.6561C19.0104 9.29696 20.885 8.53308 22.8399 8.53248H51.3734C55.4428 8.53248 59.0892 11.4371 59.0892 15.4396V32.8675L50.9333 33.208Z" fill="white"/>
</svg>
