<svg width="38" height="38" viewBox="0 0 38 38" fill="none" xmlns="http://www.w3.org/2000/svg">
<path d="M17.7313 33.2892H11.9442C8.29049 33.2892 5.32471 30.3177 5.32471 26.6697V11.6731C5.32471 8.01937 8.29049 5.05359 11.9442 5.05359H16.523C18.4192 5.05359 20.223 5.8514 21.4775 7.2389C21.888 7.68984 21.8475 8.38937 21.3966 8.79406C20.9456 9.20453 20.2461 9.16406 19.8414 8.71312C19.0031 7.78812 17.7949 7.25625 16.523 7.25625H11.9442C9.51033 7.25625 7.53314 9.23343 7.53314 11.6673V26.6639C7.53314 29.0978 9.51033 31.075 11.9442 31.075H17.7371C19.1939 31.1328 19.1939 33.2314 17.7313 33.2892ZM10.9499 28.3809C10.3428 28.3809 9.84564 27.8895 9.84564 27.2767V16.1941C9.84564 13.1531 12.32 10.6787 15.361 10.6787H28.045C31.086 10.6787 33.5603 13.1531 33.5603 16.1941V17.518C33.5083 18.9806 31.4097 18.9806 31.3519 17.518V16.1941C31.3519 14.3672 29.8661 12.8872 28.045 12.8872H15.361C13.5341 12.8872 12.0541 14.373 12.0541 16.1941V27.2767C12.0541 27.8837 11.5569 28.3809 10.9499 28.3809Z" fill="#413E43"/>
<path d="M26.2824 33.2892C22.3858 33.3644 18.9633 29.9824 19.0038 26.08C18.9575 19.5761 26.8721 16.2692 31.4566 20.8769C32.8325 22.2644 33.5783 24.1086 33.561 26.0742V26.2014C33.5783 28.8608 30.3871 30.3177 28.4272 28.5255C26.3402 30.3524 22.9466 28.8088 22.9697 26.0106C23.1489 21.5475 29.5719 21.6689 29.5835 26.132C29.5546 26.6408 29.9708 27.1091 30.4796 27.1091C30.9536 27.1091 31.3525 26.6928 31.3525 26.2014V26.0685C31.3525 26.0627 31.3525 26.0627 31.3525 26.0569C31.4103 21.5186 25.8661 19.2119 22.6806 22.4436C19.5067 25.5828 21.8308 31.1097 26.2824 31.0808C27.0339 31.0808 27.7277 30.9536 28.2942 30.7166C28.855 30.4795 29.5025 30.7455 29.7396 31.3063C29.9766 31.867 29.7106 32.5145 29.1499 32.7516C28.3174 33.1042 27.3288 33.2835 26.2824 33.2892ZM26.2824 24.9064C25.6753 24.9064 25.1781 25.4036 25.1781 26.0106C25.236 27.4733 27.3288 27.4733 27.3866 26.0106C27.3808 25.3978 26.8894 24.9064 26.2824 24.9064Z" fill="#D31D16"/>
</svg>
