<svg width="13" height="25" viewBox="0 0 13 25" fill="none" xmlns="http://www.w3.org/2000/svg">
<path d="M12.0268 11.2187L11.7403 13.6465C11.7175 13.8423 11.6278 14.0227 11.488 14.1536C11.3482 14.2845 11.1679 14.357 10.981 14.3574H7.25645V24.5093C6.8633 24.5468 6.46554 24.5656 6.06317 24.5656C5.18095 24.566 4.30089 24.4736 3.436 24.2898V14.3574H0.571252C0.444494 14.3568 0.323123 14.3032 0.233653 14.2084C0.144183 14.1136 0.0938858 13.9853 0.09375 13.8514L0.09375 10.8133C0.0938629 10.6794 0.14415 10.5511 0.233622 10.4563C0.323095 10.3614 0.444479 10.3078 0.571252 10.3072H3.436V5.75036C3.43472 5.08684 3.55722 4.42955 3.79652 3.81603C4.03582 3.2025 4.38722 2.64475 4.83068 2.17462C5.27413 1.70449 5.80094 1.33118 6.38103 1.07602C6.96112 0.820862 7.58312 0.688842 8.21154 0.6875L11.5538 0.6875C11.6806 0.688127 11.802 0.741707 11.8914 0.836535C11.9809 0.931362 12.0312 1.05973 12.0314 1.19359V4.23198C12.0312 4.36585 11.9809 4.49421 11.8914 4.58904C11.802 4.68387 11.6806 4.73745 11.5538 4.73808H9.16585C8.65835 4.73938 8.17212 4.95344 7.81407 5.33318C7.45601 5.71291 7.25544 6.22725 7.25645 6.76309V10.3076H11.2674C11.3761 10.3079 11.4835 10.3325 11.5825 10.38C11.6815 10.4274 11.7698 10.4965 11.8416 10.5827C11.9134 10.6688 11.9671 10.7701 11.999 10.8799C12.0309 10.9896 12.0404 11.1052 12.0268 11.2191" fill="#D31D16"/>
</svg>
