<svg width="13" height="25" viewBox="0 0 13 25" fill="none" xmlns="http://www.w3.org/2000/svg">
<path d="M12.5268 10.7187L12.2403 13.1465C12.2175 13.3423 12.1278 13.5227 11.988 13.6536C11.8482 13.7845 11.6679 13.857 11.481 13.8574H7.75645V24.0093C7.3633 24.0468 6.96554 24.0656 6.56317 24.0656C5.68095 24.066 4.80089 23.9736 3.936 23.7898V13.8574H1.07125C0.944494 13.8568 0.823123 13.8032 0.733653 13.7084C0.644183 13.6136 0.593886 13.4853 0.59375 13.3514V10.3133C0.593863 10.1794 0.64415 10.0511 0.733622 9.95625C0.823095 9.86142 0.944479 9.80784 1.07125 9.80721H3.936V5.25036C3.93472 4.58684 4.05722 3.92955 4.29652 3.31603C4.53582 2.7025 4.88722 2.14475 5.33068 1.67462C5.77413 1.20449 6.30094 0.831183 6.88103 0.576023C7.46112 0.320862 8.08312 0.188842 8.71154 0.1875L12.0538 0.1875C12.1806 0.188127 12.302 0.241707 12.3914 0.336535C12.4809 0.431362 12.5312 0.559729 12.5314 0.693594V3.73198C12.5312 3.86585 12.4809 3.99421 12.3914 4.08904C12.302 4.18387 12.1806 4.23745 12.0538 4.23808H9.66585C9.15835 4.23938 8.67212 4.45344 8.31407 4.83318C7.95601 5.21291 7.75544 5.72725 7.75645 6.26309V9.80758H11.7674C11.8761 9.80786 11.9835 9.83254 12.0825 9.87996C12.1815 9.92739 12.2698 9.99648 12.3416 10.0827C12.4134 10.1688 12.4671 10.2701 12.499 10.3799C12.5309 10.4896 12.5404 10.6052 12.5268 10.7191" fill="white"/>
</svg>
