<svg width="64" height="64" viewBox="0 0 64 64" fill="none" xmlns="http://www.w3.org/2000/svg">
<g clip-path="url(#clip0_7005_2204)">
<path d="M35.71 25.38C34.65 25.38 33.8 24.52 33.8 23.47V21.23C36.03 20.44 37.63 18.31 37.63 15.82V12.74C37.63 9.57 35.05 7 31.89 7H16.57C13.4 7 10.83 9.58 10.83 12.74V15.8C10.83 18.3 12.43 20.42 14.66 21.21V23.45C14.66 24.51 13.8 25.36 12.75 25.36C9.58 25.38 7 27.95 7 31.12V50.26C7 53.43 9.58 56 12.74 56H32.08C33.14 56 33.99 55.14 33.99 54.09C33.99 53.04 33.13 52.18 32.08 52.18H12.74C11.68 52.18 10.83 51.32 10.83 50.27V31.12C10.83 30.06 11.69 29.21 12.74 29.21C15.91 29.21 18.48 26.63 18.48 23.47V21.56H29.97V23.47C29.97 26.64 32.55 29.21 35.71 29.21C36.77 29.21 37.62 30.07 37.62 31.12V37.39C37.62 38.45 38.48 39.3 39.53 39.3C40.59 39.3 41.44 38.44 41.44 37.39V31.12C41.46 27.95 38.88 25.38 35.71 25.38ZM14.66 12.74C14.66 11.68 15.52 10.83 16.57 10.83H31.88C32.94 10.83 33.79 11.69 33.79 12.74V15.8C33.79 16.86 32.93 17.71 31.88 17.71H16.57C15.51 17.71 14.66 16.85 14.66 15.8V12.74Z" fill="#413E43"/>
<path d="M24.23 44.52C25.29 44.52 26.14 43.66 26.14 42.61V40.7H28.05C29.11 40.7 29.96 39.84 29.96 38.79C29.96 37.73 29.1 36.88 28.05 36.88H26.14V34.97C26.14 33.91 25.28 33.06 24.23 33.06C23.17 33.06 22.32 33.92 22.32 34.97V36.88H20.4C19.34 36.88 18.49 37.74 18.49 38.79C18.49 39.85 19.35 40.7 20.4 40.7H22.31V42.61C22.31 43.66 23.17 44.52 24.23 44.52Z" fill="#413E43"/>
<path d="M54.33 38.08C52.09 35.84 48.45 35.84 46.21 38.08L38.09 46.2C35.85 48.44 35.85 52.08 38.09 54.32C40.33 56.56 43.97 56.56 46.21 54.32L54.33 46.2C56.57 43.97 56.57 40.32 54.33 38.08ZM43.5 51.62C42.76 52.36 41.53 52.36 40.79 51.62C40.04 50.87 40.04 49.66 40.79 48.91L43.5 46.2L46.21 48.91L43.5 51.62ZM51.62 43.5L48.91 46.21L46.2 43.5L48.91 40.79C49.65 40.05 50.87 40.05 51.62 40.79C52.37 41.54 52.37 42.75 51.62 43.5Z" fill="#D31D16"/>
</g>
<defs>
<clipPath id="clip0_7005_2204">
<rect width="49.01" height="49.01" fill="white" transform="translate(7 7)"/>
</clipPath>
</defs>
</svg>

