<svg width="50" height="50" viewBox="0 0 50 50" fill="none" xmlns="http://www.w3.org/2000/svg">
<path d="M24.8105 44.2928C30.0443 44.2928 34.9251 42.2438 38.5626 38.5294C42.1695 34.8382 44.1495 29.9113 44.1495 24.6545C44.1495 22.1527 42.1158 20.119 39.614 20.119H10.0069C7.5051 20.119 5.47144 22.1527 5.47144 24.6545C5.47144 29.9113 7.45906 34.8382 11.0583 38.5294C14.6958 42.2438 19.5766 44.2928 24.8105 44.2928ZM10.0069 23.1426H39.6217C40.4582 23.1426 41.1335 23.818 41.1335 24.6545C41.1335 33.971 33.9658 41.2768 24.8181 41.2768C15.6705 41.2768 8.50275 33.9786 8.50275 24.6545C8.49508 23.818 9.17041 23.1426 10.0069 23.1426Z" fill="#413E43"/>
<path d="M11.5187 14.678H13.0305C13.867 14.678 14.5424 14.0027 14.5424 13.1662V11.662C14.5347 8.32374 11.8257 5.61475 8.49508 5.61475H6.98326C6.14677 5.61475 5.47144 6.29008 5.47144 7.12657V8.63839C5.47144 11.969 8.18043 14.678 11.5187 14.678ZM11.5187 11.662C9.85341 11.662 8.49508 10.3037 8.49508 8.63839C10.1604 8.63839 11.5187 9.98905 11.5187 11.662Z" fill="#413E43"/>
<path d="M18.7708 17.7016H20.2827C23.6133 17.7016 26.3299 14.9926 26.3299 11.6544V10.1502C26.3299 9.31372 25.6546 8.63839 24.8181 8.63839H23.3063C19.9757 8.63839 17.259 11.3474 17.259 14.6857V16.1975C17.259 17.0263 17.9344 17.7016 18.7708 17.7016ZM23.2986 11.662C23.2986 13.3273 21.9403 14.6857 20.275 14.6857C20.275 13.0127 21.6333 11.662 23.2986 11.662Z" fill="#413E43"/>
<path d="M30.3666 17.2565L38.5473 9.07582C39.1382 8.4849 40.0975 8.4849 40.6807 9.07582C41.2716 9.66673 41.2716 10.626 40.6807 11.2092L36.7746 15.1154C36.1836 15.7063 36.1836 16.6656 36.7746 17.2489C37.3655 17.8398 38.3247 17.8398 38.908 17.2489L42.8142 13.3427C43.6737 12.4832 44.1418 11.3474 44.1418 10.1349C44.1418 8.92233 43.6737 7.78655 42.8142 6.92704C41.97 6.08287 40.8265 5.61475 39.6217 5.61475C38.4092 5.61475 37.2734 6.08287 36.4139 6.94238L28.2332 15.1231C27.6422 15.714 27.6422 16.6733 28.2332 17.2565C28.8241 17.8474 29.7833 17.8474 30.3666 17.2565Z" fill="#413E43"/>
<path d="M21.787 32.206H23.2988V33.7178C23.2988 34.5543 23.9741 35.2296 24.8106 35.2296C25.6471 35.2296 26.3224 34.5543 26.3224 33.7178V32.206H27.8342C28.6707 32.206 29.3461 31.5306 29.3461 30.6942C29.3461 29.8577 28.6707 29.1823 27.8342 29.1823H26.3224V27.6705C26.3224 26.834 25.6471 26.1587 24.8106 26.1587C23.9741 26.1587 23.2988 26.834 23.2988 27.6705V29.1823H21.787C20.9505 29.1823 20.2751 29.8577 20.2751 30.6942C20.2751 31.5306 20.9582 32.206 21.787 32.206Z" fill="#D31D16"/>
</svg>
