<svg width="50" height="50" viewBox="0 0 50 50" fill="none" xmlns="http://www.w3.org/2000/svg">
<g clip-path="url(#clip0_7180_1750)">
<path d="M27.6875 8.90536H26.2064V7.42424C26.2064 6.6031 25.5464 5.94312 24.7253 5.94312C23.9041 5.94312 23.2442 6.6031 23.2442 7.42424V8.90536H14.3651V7.42424C14.3651 6.6031 13.7051 5.94312 12.884 5.94312C12.0628 5.94312 11.4028 6.6031 11.4028 7.42424V8.90536H9.92939C7.48132 8.90536 5.48602 10.893 5.48602 13.3411V39.3873C5.48602 41.8354 7.48132 43.8307 9.92939 43.8307H27.6875C30.1356 43.8307 32.1309 41.8354 32.1309 39.3873V13.3411C32.1309 10.893 30.1356 8.90536 27.6875 8.90536ZM23.2442 11.8599V13.3411C23.2442 14.1545 22.5765 14.8222 21.763 14.8222H15.8462C15.0327 14.8222 14.3651 14.1545 14.3651 13.3411V11.8599H23.2442ZM29.1686 39.395C29.1686 40.2085 28.501 40.8761 27.6875 40.8761H9.92939C9.11593 40.8761 8.44827 40.2085 8.44827 39.395V13.3411C8.44827 12.5276 9.11593 11.8599 9.92939 11.8599H11.4105V13.3411C11.4105 15.7891 13.4058 17.7844 15.8539 17.7844H21.7707C24.2188 17.7844 26.2141 15.7891 26.2141 13.3411V11.8599H27.6952C28.5087 11.8599 29.1763 12.5276 29.1763 13.3411V39.395H29.1686Z" fill="#413E43"/>
<path d="M15.8462 26.3719H17.3273V27.853C17.3273 28.6741 17.9873 29.3341 18.8084 29.3341C19.6296 29.3341 20.2895 28.6741 20.2895 27.853V26.3719H21.7707C22.5918 26.3719 23.2518 25.7119 23.2518 24.8908C23.2518 24.0696 22.5918 23.4096 21.7707 23.4096H20.2895V21.9285C20.2895 21.1074 19.6296 20.4474 18.8084 20.4474C17.9873 20.4474 17.3273 21.1074 17.3273 21.9285V23.4096H15.8462C15.025 23.4096 14.3651 24.0696 14.3651 24.8908C14.3651 25.7119 15.0327 26.3719 15.8462 26.3719Z" fill="#D31D16"/>
<path d="M41.9002 20.4474H35.9834C35.1622 20.4474 34.5023 21.1074 34.5023 21.9285V32.2503C34.5023 35.1358 35.5459 37.8602 37.4645 39.9859V42.3573C37.4645 43.1784 38.1245 43.8384 38.9456 43.8384C39.7668 43.8384 40.4267 43.1784 40.4267 42.3573V39.9859C42.3376 37.8602 43.389 35.1358 43.389 32.2503V21.9285C43.3736 21.1074 42.7137 20.4474 41.9002 20.4474ZM40.4191 32.2503C40.4191 34 39.9049 35.673 38.938 37.0851C37.9787 35.6654 37.4568 34 37.4568 32.2503V23.4096H40.4191V32.2503Z" fill="#413E43"/>
<path d="M24.7253 32.2887H12.884C12.0629 32.2887 11.4029 32.9487 11.4029 33.7698C11.4029 34.591 12.0629 35.2509 12.884 35.2509H24.7253C25.5465 35.2509 26.2065 34.591 26.2065 33.7698C26.2065 32.9487 25.5465 32.2887 24.7253 32.2887Z" fill="#413E43"/>
<path d="M38.9379 8.6062C36.4899 8.6062 34.4946 10.6015 34.4946 13.0496V16.0118C34.4946 16.833 35.1546 17.4929 35.9757 17.4929C36.7968 17.4929 37.4568 16.833 37.4568 16.0118V13.0496C37.4568 12.2361 38.1245 11.5684 38.9379 11.5684C39.7514 11.5684 40.4191 12.2361 40.4191 13.0496V16.0118C40.4191 16.833 41.079 17.4929 41.9002 17.4929C42.7213 17.4929 43.3813 16.833 43.3813 16.0118V13.0496C43.3736 10.6015 41.386 8.6062 38.9379 8.6062Z" fill="#413E43"/>
</g>
<defs>
<clipPath id="clip0_7180_1750">
<rect width="37.8876" height="37.8876" fill="white" transform="translate(5.48602 5.94312)"/>
</clipPath>
</defs>
</svg>
