<svg width="50" height="50" viewBox="0 0 50 50" fill="none" xmlns="http://www.w3.org/2000/svg">
<g clip-path="url(#clip0_7180_367)">
<path d="M27.6873 8.90536H26.2062V7.42424C26.2062 6.6031 25.5462 5.94312 24.7251 5.94312C23.904 5.94312 23.244 6.6031 23.244 7.42424V8.90536H14.3649V7.42424C14.3649 6.6031 13.7049 5.94312 12.8838 5.94312C12.0626 5.94312 11.4027 6.6031 11.4027 7.42424V8.90536H9.92921C7.48114 8.90536 5.48584 10.893 5.48584 13.3411V39.3873C5.48584 41.8354 7.48114 43.8307 9.92921 43.8307H27.6873C30.1354 43.8307 32.1307 41.8354 32.1307 39.3873V13.3411C32.1307 10.893 30.1354 8.90536 27.6873 8.90536ZM23.244 11.8599V13.3411C23.244 14.1545 22.5763 14.8222 21.7628 14.8222H15.846C15.0326 14.8222 14.3649 14.1545 14.3649 13.3411V11.8599H23.244ZM29.1685 39.395C29.1685 40.2085 28.5008 40.8761 27.6873 40.8761H9.92921C9.11574 40.8761 8.44809 40.2085 8.44809 39.395V13.3411C8.44809 12.5276 9.11574 11.8599 9.92921 11.8599H11.4103V13.3411C11.4103 15.7891 13.4056 17.7844 15.8537 17.7844H21.7705C24.2186 17.7844 26.2139 15.7891 26.2139 13.3411V11.8599H27.695C28.5085 11.8599 29.1761 12.5276 29.1761 13.3411V39.395H29.1685Z" fill="#413E43"/>
<path d="M15.8459 26.3719H17.327V27.853C17.327 28.6741 17.987 29.3341 18.8081 29.3341C19.6293 29.3341 20.2892 28.6741 20.2892 27.853V26.3719H21.7704C22.5915 26.3719 23.2515 25.7119 23.2515 24.8908C23.2515 24.0696 22.5915 23.4096 21.7704 23.4096H20.2892V21.9285C20.2892 21.1074 19.6293 20.4474 18.8081 20.4474C17.987 20.4474 17.327 21.1074 17.327 21.9285V23.4096H15.8459C15.0247 23.4096 14.3647 24.0696 14.3647 24.8908C14.3647 25.7119 15.0324 26.3719 15.8459 26.3719Z" fill="#D31D16"/>
<path d="M41.8999 20.4474H35.9831C35.1619 20.4474 34.502 21.1074 34.502 21.9285V32.2503C34.502 35.1358 35.5456 37.8602 37.4642 39.9859V42.3573C37.4642 43.1784 38.1242 43.8384 38.9453 43.8384C39.7665 43.8384 40.4264 43.1784 40.4264 42.3573V39.9859C42.3373 37.8602 43.3887 35.1358 43.3887 32.2503V21.9285C43.3733 21.1074 42.7134 20.4474 41.8999 20.4474ZM40.4188 32.2503C40.4188 34 39.9046 35.673 38.9376 37.0851C37.9784 35.6654 37.4565 34 37.4565 32.2503V23.4096H40.4188V32.2503Z" fill="#413E43"/>
<path d="M24.7253 32.2887H12.884C12.0628 32.2887 11.4028 32.9487 11.4028 33.7698C11.4028 34.591 12.0628 35.2509 12.884 35.2509H24.7253C25.5464 35.2509 26.2064 34.591 26.2064 33.7698C26.2064 32.9487 25.5464 32.2887 24.7253 32.2887Z" fill="#413E43"/>
<path d="M38.938 8.6062C36.4899 8.6062 34.4946 10.6015 34.4946 13.0496V16.0118C34.4946 16.833 35.1546 17.4929 35.9758 17.4929C36.7969 17.4929 37.4569 16.833 37.4569 16.0118V13.0496C37.4569 12.2361 38.1245 11.5684 38.938 11.5684C39.7515 11.5684 40.4191 12.2361 40.4191 13.0496V16.0118C40.4191 16.833 41.0791 17.4929 41.9002 17.4929C42.7214 17.4929 43.3814 16.833 43.3814 16.0118V13.0496C43.3737 10.6015 41.3861 8.6062 38.938 8.6062Z" fill="#413E43"/>
</g>
<defs>
<clipPath id="clip0_7180_367">
<rect width="37.8876" height="37.8876" fill="white" transform="translate(5.48584 5.94312)"/>
</clipPath>
</defs>
</svg>
