<svg width="109" height="40" viewBox="0 0 109 40" fill="none" xmlns="http://www.w3.org/2000/svg">
<path d="M30.2594 34.8252C29.6596 34.8252 29.1759 34.3695 29.1759 33.8045V14.9899C29.1759 12.5338 28.344 9.95471 26.8929 7.91787C26.5591 7.44853 26.6946 6.81516 27.1879 6.5053C27.6861 6.19089 28.3584 6.31847 28.6874 6.78326C30.3948 9.18464 31.3331 12.1009 31.3331 14.9944V33.809C31.3428 34.365 30.8591 34.8252 30.2594 34.8252Z" fill="#413E43"/>
<path d="M23.3573 34.1735C21.4902 34.1735 19.9714 32.7427 19.9714 30.9838V20.5854C19.9714 20.0204 20.4551 19.5647 21.0549 19.5647C21.6547 19.5647 22.1384 20.0204 22.1384 20.5854V30.9838C22.1384 31.6172 22.6849 32.1321 23.3573 32.1321C24.0296 32.1321 24.5762 31.6172 24.5762 30.9838V26.3496C24.5762 25.7846 25.0599 25.3289 25.6597 25.3289C26.2594 25.3289 26.7431 25.7846 26.7431 26.3496V30.9838C26.7431 32.7472 25.2243 34.1735 23.3573 34.1735Z" fill="#413E43"/>
<path d="M25.1133 5.66686C24.8666 5.66686 24.62 5.58939 24.4217 5.4299C23.0625 4.35908 21.3212 3.49331 19.5219 2.99663C18.9463 2.83714 18.6174 2.27211 18.7867 1.72986C18.9559 1.18762 19.5557 0.877767 20.1313 1.03725C22.2112 1.6114 24.2282 2.61386 25.8147 3.8624C26.2742 4.22238 26.3323 4.86487 25.9502 5.29775C25.7325 5.54382 25.4229 5.66686 25.1133 5.66686Z" fill="#413E43"/>
<path d="M6.67456 5.88147C6.365 5.88147 6.05545 5.75843 5.84262 5.51693C5.46051 5.08404 5.51857 4.44155 5.97807 4.08157C8.87055 1.80778 12.5079 0.5 15.9518 0.5C16.5516 0.5 17.0353 0.955679 17.0353 1.52071C17.0353 2.08574 16.5516 2.54141 15.9518 2.54141C13.0013 2.54141 9.87178 3.67603 7.36142 5.64908C7.16311 5.80401 6.91641 5.88147 6.67456 5.88147Z" fill="#413E43"/>
<path d="M1.64938 16.4853C1.0496 16.4853 0.565918 16.0296 0.565918 15.4646V14.9907C0.565918 12.1108 1.46558 9.3267 3.16334 6.93899C3.49709 6.46965 4.16946 6.34663 4.66283 6.66104C5.16103 6.97545 5.29162 7.60883 4.95787 8.07362C3.49713 10.1241 2.72806 12.5164 2.72806 14.9861V15.46C2.7329 16.0296 2.24916 16.4853 1.64938 16.4853Z" fill="#413E43"/>
<path d="M1.64914 39.4999C1.04936 39.4999 0.565674 39.0442 0.565674 38.4792V24.7316C0.565674 24.1666 1.04936 23.7109 1.64914 23.7109C2.24892 23.7109 2.73266 24.1666 2.73266 24.7316V38.4792C2.73266 39.0442 2.24892 39.4999 1.64914 39.4999Z" fill="#FF8300"/>
<path d="M6.25387 37.7366C5.6541 37.7366 5.17041 37.281 5.17041 36.7159V27.9033C5.17041 27.3382 5.6541 26.8826 6.25387 26.8826C6.85365 26.8826 7.33734 27.3382 7.33734 27.9033V36.7159C7.33734 37.281 6.84881 37.7366 6.25387 37.7366Z" fill="#FF8300"/>
<path d="M25.6596 22.8552C25.0598 22.8552 24.5761 22.3995 24.5761 21.8345V14.9903C24.5761 10.5111 20.7114 6.87026 15.9568 6.87026C15.357 6.87026 14.8733 6.4146 14.8733 5.84957C14.8733 5.28454 15.357 4.82886 15.9568 4.82886C21.9013 4.82886 26.743 9.38556 26.743 14.9903V21.8345C26.7382 22.3995 26.2545 22.8552 25.6596 22.8552Z" fill="#413E43"/>
<path d="M6.25387 19.6692C5.6541 19.6692 5.17041 19.2136 5.17041 18.6485V14.9895C5.17041 10.9523 7.80656 7.15653 11.7341 5.54346C12.2807 5.32018 12.9192 5.55257 13.161 6.07204C13.398 6.58695 13.1513 7.18844 12.5999 7.41627C9.45107 8.71037 7.3325 11.7588 7.3325 14.9941V18.6531C7.33733 19.2136 6.84882 19.6692 6.25387 19.6692Z" fill="#413E43"/>
<path d="M10.854 21.3648C10.2542 21.3648 9.77051 20.9092 9.77051 20.3441V15.1586C9.77051 12.0099 12.3002 9.3807 15.5313 9.17565C17.2581 9.06629 18.9074 9.62222 20.1747 10.7341C21.4226 11.8322 22.1385 13.3815 22.1385 14.9854V16.152C22.1385 16.717 21.6548 17.1727 21.055 17.1727C20.4552 17.1727 19.9715 16.717 19.9715 16.152V14.9854C19.9715 13.9283 19.5169 12.9486 18.6947 12.2195C17.8724 11.495 16.7985 11.135 15.6764 11.2079C13.5771 11.3401 11.9326 13.0716 11.9326 15.154V20.3396C11.9374 20.9092 11.4537 21.3648 10.854 21.3648Z" fill="#413E43"/>
<path d="M10.854 35.4813C10.2542 35.4813 9.77051 35.0256 9.77051 34.4606V29.708C9.77051 29.1429 10.2542 28.6873 10.854 28.6873C11.4537 28.6873 11.9374 29.1429 11.9374 29.708V34.4606C11.9374 35.0256 11.4537 35.4813 10.854 35.4813Z" fill="#FF8300"/>
<path d="M9.15625 25.4255C9.15625 24.5415 9.91566 23.8215 10.8589 23.8215C11.7972 23.8215 12.5615 24.5369 12.5615 25.4255C12.5615 26.3095 11.8021 27.0294 10.8589 27.0294C9.91566 27.0294 9.15625 26.3095 9.15625 25.4255Z" fill="#FF8300"/>
<path d="M4.52222 23.6933C4.52222 22.8093 5.28162 22.0894 6.22482 22.0894C7.16802 22.0894 7.92742 22.8047 7.92742 23.6933C7.92742 24.5773 7.16802 25.2973 6.22482 25.2973C5.28162 25.2973 4.52222 24.5819 4.52222 23.6933Z" fill="#FF8300"/>
<path d="M0 20.4897C0 19.6057 0.759405 18.8857 1.7026 18.8857C2.64097 18.8857 3.40515 19.6012 3.40515 20.4897C3.40515 21.3737 2.6458 22.0936 1.7026 22.0936C0.759405 22.0936 0 21.3737 0 20.4897Z" fill="#FF8300"/>
<path d="M15.938 30.666C15.3382 30.666 14.8545 30.2103 14.8545 29.6452V16.1848C14.8545 15.6197 15.3382 15.1641 15.938 15.1641C16.5377 15.1641 17.0214 15.6197 17.0214 16.1848V29.6452C17.0214 30.2103 16.5329 30.666 15.938 30.666Z" fill="#413E43"/>
<path d="M44.1609 19.8559C42.5696 19.8559 41.3604 19.4412 40.5284 18.6073C39.6965 17.7735 39.2805 16.5933 39.2805 15.0577C39.2805 14.2967 39.4063 13.6132 39.6627 13.0163C39.919 12.4193 40.2624 11.9135 40.7074 11.4989C41.1475 11.0888 41.6748 10.7744 42.2891 10.5602C42.8985 10.346 43.566 10.2412 44.277 10.2412C44.693 10.2412 45.0655 10.2686 45.4041 10.3278C45.7427 10.387 46.0377 10.4508 46.294 10.5283C46.5504 10.6058 46.7584 10.6832 46.9277 10.7607C47.097 10.8427 47.2179 10.902 47.2953 10.9475L46.6617 12.6244C46.3618 12.474 46.0087 12.3464 45.612 12.2371C45.2106 12.1323 44.7559 12.0776 44.248 12.0776C43.9095 12.0776 43.5757 12.1323 43.2516 12.2371C42.9275 12.3419 42.6422 12.515 42.3907 12.7474C42.1392 12.9844 41.9409 13.2851 41.7909 13.6588C41.641 14.0324 41.5635 14.4835 41.5635 15.0167C41.5635 15.4404 41.6119 15.8369 41.7135 16.2059C41.8102 16.575 41.9699 16.8895 42.1924 17.1583C42.4148 17.4226 42.7002 17.6368 43.0582 17.7917C43.4161 17.9466 43.8466 18.0241 44.3544 18.0241C44.6737 18.0241 44.9591 18.0059 45.2154 17.9694C45.4718 17.933 45.6943 17.8919 45.8926 17.8418C46.0909 17.7917 46.265 17.737 46.415 17.6778C46.5649 17.614 46.7003 17.5593 46.8261 17.5046L47.4307 19.1678C47.1211 19.3455 46.681 19.505 46.1199 19.6463C45.5588 19.783 44.9058 19.8559 44.1609 19.8559Z" fill="#413E43"/>
<path d="M51.0049 10.6556C51.0049 11.0201 50.8792 11.3026 50.6325 11.5122C50.381 11.7218 50.0908 11.8266 49.7522 11.8266C49.4136 11.8266 49.1185 11.7218 48.8718 11.5122C48.6203 11.3026 48.4995 11.0201 48.4995 10.6556C48.4995 10.291 48.6252 10.0085 48.8718 9.79889C49.1234 9.58928 49.4136 9.48448 49.7522 9.48448C50.0908 9.48448 50.3858 9.58928 50.6325 9.79889C50.8792 10.0085 51.0049 10.2956 51.0049 10.6556ZM50.8066 19.6687H48.7026V12.6787H50.8066V19.6687Z" fill="#413E43"/>
<path d="M59.1164 19.432C58.7585 19.5277 58.299 19.6189 57.7331 19.7055C57.1672 19.7875 56.5771 19.833 55.9531 19.833C55.3243 19.833 54.7971 19.751 54.3811 19.5915C53.9603 19.4321 53.6314 19.2088 53.3847 18.9217C53.138 18.6346 52.9639 18.2883 52.8623 17.8919C52.7607 17.4909 52.7075 17.0534 52.7075 16.575V12.679H54.8116V16.3335C54.8116 16.9714 54.8987 17.4316 55.0776 17.7142C55.2566 17.9967 55.5903 18.1379 56.0789 18.1379C56.2288 18.1379 56.3884 18.1334 56.5577 18.1197C56.727 18.106 56.877 18.0924 57.0076 18.0741V12.679H59.1116V19.432H59.1164Z" fill="#413E43"/>
<path d="M67.6393 19.4457C67.4507 19.5004 67.2331 19.5505 66.9912 19.6006C66.7445 19.6508 66.4881 19.6918 66.2221 19.7282C65.9561 19.7647 65.6804 19.792 65.4047 19.8148C65.129 19.8376 64.8629 19.8467 64.6066 19.8467C63.9971 19.8467 63.4506 19.7647 62.9717 19.5961C62.4929 19.4275 62.0865 19.186 61.7576 18.8716C61.4287 18.5572 61.1772 18.1744 61.0031 17.7278C60.829 17.2813 60.7419 16.7755 60.7419 16.2196C60.7419 15.6545 60.8193 15.1396 60.9692 14.684C61.1192 14.2283 61.3369 13.841 61.6174 13.522C61.8979 13.203 62.2462 12.9615 62.6525 12.7929C63.0636 12.6243 63.528 12.5423 64.0552 12.5423C64.3454 12.5423 64.6066 12.5697 64.8388 12.6243C65.0709 12.679 65.3031 12.7519 65.5353 12.8522V9.68982L67.6393 9.37085V19.4457ZM62.8847 16.1193C62.8847 16.7299 63.0297 17.2221 63.32 17.5957C63.6102 17.9693 64.0455 18.1562 64.6163 18.1562C64.8049 18.1562 64.979 18.1516 65.1386 18.1379C65.2983 18.1243 65.4289 18.1106 65.5353 18.0924V14.488C65.4047 14.4106 65.2305 14.3422 65.0226 14.2875C64.8097 14.2329 64.5969 14.2101 64.3793 14.2101C63.3829 14.2055 62.8847 14.8434 62.8847 16.1193Z" fill="#413E43"/>
<path d="M72.2825 12.4922C72.9016 12.4922 73.4192 12.5605 73.8352 12.6927C74.2512 12.8248 74.5801 13.0162 74.8316 13.2623C75.0831 13.5083 75.2572 13.8136 75.3588 14.1645C75.4604 14.5199 75.5136 14.9118 75.5136 15.3492V19.4685C75.2137 19.5323 74.7929 19.6052 74.256 19.6872C73.7191 19.7692 73.071 19.8148 72.3067 19.8148C71.8279 19.8148 71.3925 19.7738 71.0007 19.6963C70.6089 19.6143 70.2752 19.4867 69.9898 19.3045C69.7093 19.1222 69.4916 18.8852 69.3417 18.5936C69.1918 18.302 69.1144 17.942 69.1144 17.5182C69.1144 17.1127 69.2014 16.7664 69.3755 16.4793C69.5497 16.1968 69.7819 15.9689 70.0721 15.8004C70.3623 15.6318 70.696 15.5087 71.0733 15.4358C71.4506 15.3583 71.8375 15.3219 72.2438 15.3219C72.5147 15.3219 72.7566 15.331 72.9694 15.3538C73.1822 15.3766 73.3515 15.4039 73.4821 15.4404V15.2535C73.4821 14.9163 73.3757 14.6475 73.158 14.4425C72.9404 14.2374 72.5679 14.1372 72.031 14.1372C71.6731 14.1372 71.32 14.1599 70.9717 14.2101C70.6235 14.2602 70.3236 14.3285 70.0672 14.4151L69.8012 12.8203C69.9221 12.7838 70.0769 12.7474 70.2607 12.7063C70.4445 12.6653 70.6428 12.6335 70.8605 12.6016C71.0782 12.5697 71.3054 12.5423 71.5425 12.5195C71.794 12.5013 72.0358 12.4922 72.2825 12.4922ZM72.4518 18.2883C72.6598 18.2883 72.8582 18.2837 73.0468 18.2746C73.2354 18.2655 73.3853 18.2519 73.4966 18.2336V16.7299C73.4144 16.7117 73.2837 16.6935 73.1145 16.6752C72.9452 16.657 72.7904 16.6479 72.6501 16.6479C72.4518 16.6479 72.268 16.657 72.0939 16.6798C71.9197 16.7026 71.765 16.7436 71.6344 16.8074C71.5038 16.8712 71.3974 16.9532 71.3248 17.058C71.2474 17.1628 71.2136 17.2995 71.2136 17.459C71.2136 17.7688 71.3248 17.983 71.5473 18.1015C71.7601 18.2291 72.0648 18.2883 72.4518 18.2883Z" fill="#413E43"/>
<path d="M83.9642 19.4457C83.7755 19.5004 83.5579 19.5505 83.316 19.6006C83.0694 19.6508 82.813 19.6918 82.5469 19.7282C82.2809 19.7647 82.0052 19.792 81.7295 19.8148C81.4538 19.8376 81.1878 19.8467 80.9314 19.8467C80.322 19.8467 79.7754 19.7647 79.2965 19.5961C78.8177 19.4275 78.4114 19.186 78.0825 18.8716C77.7536 18.5572 77.5021 18.1744 77.3279 17.7278C77.1538 17.2813 77.0667 16.7755 77.0667 16.2196C77.0667 15.6545 77.1441 15.1396 77.294 14.684C77.444 14.2283 77.6617 13.841 77.9422 13.522C78.2228 13.203 78.571 12.9615 78.9773 12.7929C79.3884 12.6243 79.8528 12.5423 80.38 12.5423C80.6702 12.5423 80.9314 12.5697 81.1636 12.6243C81.3957 12.679 81.6279 12.7519 81.8601 12.8522V9.68982L83.9642 9.37085V19.4457ZM79.2095 16.1193C79.2095 16.7299 79.3546 17.2221 79.6448 17.5957C79.935 17.9693 80.3703 18.1562 80.9411 18.1562C81.1297 18.1562 81.3038 18.1516 81.4635 18.1379C81.6231 18.1243 81.7537 18.1106 81.8601 18.0924V14.488C81.7295 14.4106 81.5554 14.3422 81.3474 14.2875C81.1346 14.2329 80.9218 14.2101 80.7041 14.2101C79.7077 14.2055 79.2095 14.8434 79.2095 16.1193Z" fill="#413E43"/>
<path d="M88.6071 12.4922C89.2262 12.4922 89.7438 12.5605 90.1598 12.6927C90.5758 12.8248 90.9046 13.0162 91.1562 13.2623C91.4077 13.5083 91.5818 13.8136 91.6834 14.1645C91.7849 14.5199 91.8382 14.9118 91.8382 15.3492V19.4685C91.5383 19.5323 91.1175 19.6052 90.5806 19.6872C90.0437 19.7692 89.3955 19.8148 88.6313 19.8148C88.1525 19.8148 87.7171 19.7738 87.3253 19.6963C86.9335 19.6143 86.5998 19.4867 86.3144 19.3045C86.0339 19.1222 85.8162 18.8852 85.6663 18.5936C85.5163 18.302 85.439 17.942 85.439 17.5182C85.439 17.1127 85.526 16.7664 85.7001 16.4793C85.8742 16.1968 86.1064 15.9689 86.3967 15.8004C86.6869 15.6318 87.0206 15.5087 87.3979 15.4358C87.7752 15.3583 88.1621 15.3219 88.5684 15.3219C88.8393 15.3219 89.0811 15.331 89.294 15.3538C89.5068 15.3766 89.676 15.4039 89.8066 15.4404V15.2535C89.8066 14.9163 89.7003 14.6475 89.4826 14.4425C89.265 14.2374 88.8876 14.1372 88.3556 14.1372C87.9976 14.1372 87.6446 14.1599 87.2963 14.2101C86.9481 14.2602 86.6482 14.3285 86.3918 14.4151L86.1258 12.8203C86.2467 12.7838 86.4015 12.7474 86.5853 12.7063C86.7691 12.6653 86.9674 12.6335 87.1851 12.6016C87.4027 12.5697 87.63 12.5423 87.867 12.5195C88.1234 12.5013 88.3653 12.4922 88.6071 12.4922ZM88.7764 18.2883C88.9844 18.2883 89.1827 18.2837 89.3714 18.2746C89.56 18.2655 89.7099 18.2519 89.8212 18.2336V16.7299C89.7389 16.7117 89.6083 16.6935 89.439 16.6752C89.2697 16.657 89.115 16.6479 88.9747 16.6479C88.7764 16.6479 88.5926 16.657 88.4185 16.6798C88.2443 16.7026 88.0896 16.7436 87.959 16.8074C87.8284 16.8712 87.722 16.9532 87.6494 17.058C87.572 17.1628 87.5382 17.2995 87.5382 17.459C87.5382 17.7688 87.6494 17.983 87.8719 18.1015C88.0895 18.2291 88.3894 18.2883 88.7764 18.2883Z" fill="#413E43"/>
<path d="M93.744 12.9161C94.1019 12.8204 94.5614 12.7293 95.1273 12.6427C95.6932 12.5607 96.2834 12.5151 96.9073 12.5151C97.5361 12.5151 98.0634 12.5925 98.4793 12.7475C98.9001 12.9024 99.229 13.1211 99.4757 13.4036C99.7224 13.6862 99.8966 14.0233 99.9981 14.4152C100.1 14.8071 100.153 15.24 100.153 15.7184V19.6646H98.0488V15.9554C98.0488 15.3175 97.9569 14.8663 97.7828 14.5975C97.6038 14.3332 97.2701 14.1965 96.7816 14.1965C96.6316 14.1965 96.472 14.2011 96.3027 14.2147C96.1334 14.2284 95.9835 14.2421 95.8529 14.2603V19.6554H93.7488V12.9161H93.744Z" fill="#413E43"/>
<path d="M109 16.1603C109 16.7117 108.913 17.2129 108.744 17.6686C108.574 18.1243 108.328 18.5161 108.008 18.8397C107.689 19.1632 107.307 19.4138 106.857 19.5915C106.412 19.7692 105.909 19.8558 105.353 19.8558C104.806 19.8558 104.313 19.7692 103.863 19.5915C103.418 19.4138 103.031 19.1632 102.712 18.8397C102.393 18.5161 102.141 18.1243 101.962 17.6686C101.783 17.2129 101.696 16.7071 101.696 16.1603C101.696 15.609 101.788 15.1123 101.972 14.6566C102.156 14.2055 102.407 13.8182 102.736 13.4992C103.06 13.1802 103.447 12.9342 103.892 12.7565C104.337 12.5788 104.826 12.4922 105.353 12.4922C105.89 12.4922 106.378 12.5788 106.828 12.7565C107.273 12.9342 107.66 13.1802 107.979 13.4992C108.299 13.8182 108.55 14.2055 108.729 14.6566C108.908 15.1123 109 15.609 109 16.1603ZM106.852 16.1603C106.852 15.5497 106.722 15.0667 106.465 14.7159C106.204 14.365 105.837 14.1918 105.358 14.1918C104.879 14.1918 104.506 14.365 104.245 14.7159C103.984 15.0667 103.849 15.5452 103.849 16.1603C103.849 16.7709 103.979 17.2585 104.245 17.6139C104.506 17.9739 104.879 18.1516 105.358 18.1516C105.837 18.1516 106.204 17.9739 106.465 17.6139C106.722 17.2585 106.852 16.7709 106.852 16.1603Z" fill="#413E43"/>
<path d="M45.0365 27.6714C45.0365 28.2547 44.9397 28.765 44.7414 29.1979C44.5479 29.6308 44.2722 29.9953 43.9191 30.2824C43.566 30.574 43.1452 30.7882 42.6567 30.934C42.1681 31.0798 41.6313 31.1527 41.046 31.1527C40.751 31.1527 40.4462 31.1391 40.127 31.1072C39.8077 31.0798 39.5224 31.0343 39.2805 30.975V24.386C39.5224 24.3222 39.8077 24.2721 40.127 24.2448C40.4462 24.2174 40.7558 24.1992 41.046 24.1992C41.6313 24.1992 42.1681 24.2721 42.6567 24.4179C43.1452 24.5637 43.566 24.7779 43.9191 25.0695C44.2722 25.3612 44.5479 25.7211 44.7414 26.154C44.9397 26.5869 45.0365 27.0927 45.0365 27.6714ZM39.9915 30.5011C40.0351 30.5057 40.1415 30.5194 40.3108 30.5421C40.4801 30.5604 40.7558 30.574 41.133 30.574C41.6554 30.574 42.115 30.5057 42.5068 30.3735C42.8986 30.2368 43.2274 30.0454 43.4886 29.7948C43.7546 29.5442 43.953 29.2389 44.0836 28.8835C44.2142 28.5235 44.2819 28.1225 44.2819 27.676C44.2819 27.2294 44.2142 26.8284 44.0836 26.473C43.953 26.1176 43.7498 25.8168 43.4886 25.5662C43.2226 25.3156 42.8937 25.1242 42.5068 24.9875C42.115 24.8508 41.6603 24.787 41.133 24.787C40.7558 24.787 40.4801 24.7961 40.3108 24.8144C40.1415 24.8326 40.0351 24.8463 39.9915 24.8554V30.5011Z" fill="#413E43"/>
<path d="M47.426 24.4543C47.426 24.6047 47.3776 24.7277 47.2809 24.8143C47.1842 24.9008 47.0633 24.9464 46.923 24.9464C46.7827 24.9464 46.6666 24.9008 46.5651 24.8143C46.4683 24.7277 46.4199 24.6047 46.4199 24.4543C46.4199 24.3039 46.4683 24.1809 46.5651 24.0943C46.6618 24.0077 46.7827 23.9622 46.923 23.9622C47.0633 23.9622 47.1793 24.0077 47.2809 24.0943C47.3728 24.1809 47.426 24.3039 47.426 24.4543ZM47.2664 31.0934H46.5844V25.9945H47.2664V31.0934Z" fill="#413E43"/>
<path d="M52.5968 30.5009C52.5533 30.5328 52.4904 30.5738 52.4082 30.6149C52.3259 30.6559 52.2195 30.7014 52.0986 30.747C51.9777 30.7926 51.8374 30.829 51.6778 30.8609C51.5182 30.8928 51.3441 30.9065 51.1506 30.9065C50.8362 30.9065 50.5314 30.8609 50.2412 30.7698C49.9462 30.6787 49.6898 30.5328 49.4721 30.3369C49.2545 30.141 49.0755 29.8858 48.9449 29.5714C48.8143 29.257 48.7466 28.8788 48.7466 28.4322C48.7466 28.0722 48.8047 27.735 48.9256 27.4252C49.0465 27.1153 49.2158 26.8465 49.4334 26.6232C49.6511 26.3953 49.922 26.2176 50.2412 26.0901C50.5605 25.9625 50.9184 25.8987 51.315 25.8987C51.8181 25.8987 52.2195 25.9306 52.5242 25.9944C52.829 26.0582 53.0757 26.1174 53.274 26.1766V30.8336C53.274 31.5946 53.066 32.1413 52.6452 32.4649C52.2244 32.7884 51.5955 32.9524 50.7491 32.9524C50.4008 32.9524 50.0864 32.9297 49.8011 32.8795C49.5205 32.8294 49.2738 32.7747 49.0755 32.7064L49.211 32.1231C49.3803 32.196 49.6076 32.2598 49.8978 32.31C50.188 32.3646 50.4782 32.3874 50.7733 32.3874C51.4166 32.3874 51.8809 32.2689 52.1712 32.0365C52.4614 31.8042 52.6065 31.4032 52.6065 30.8381V30.5009H52.5968ZM52.5871 26.6141C52.4662 26.5822 52.3163 26.5503 52.1276 26.5184C51.939 26.491 51.6681 26.4728 51.3199 26.4728C51.0248 26.4728 50.7685 26.5184 50.5411 26.6141C50.3138 26.7098 50.1203 26.8465 49.9607 27.0196C49.801 27.1928 49.6801 27.4024 49.593 27.6393C49.5108 27.8808 49.4673 28.1451 49.4673 28.4322C49.4673 28.7694 49.5157 29.0565 49.6124 29.2934C49.7091 29.5349 49.8398 29.7309 49.9945 29.8812C50.1493 30.0316 50.3331 30.141 50.5314 30.2139C50.7346 30.2822 50.9377 30.3187 51.1506 30.3187C51.4553 30.3187 51.7407 30.2777 51.9922 30.1911C52.2485 30.1045 52.442 30.0088 52.5823 29.8949V26.6141H52.5871Z" fill="#413E43"/>
<path d="M55.905 24.4543C55.905 24.6047 55.8566 24.7277 55.7599 24.8143C55.6631 24.9008 55.5422 24.9464 55.4019 24.9464C55.2617 24.9464 55.1456 24.9008 55.044 24.8143C54.9473 24.7277 54.8989 24.6047 54.8989 24.4543C54.8989 24.3039 54.9473 24.1809 55.044 24.0943C55.1407 24.0077 55.2617 23.9622 55.4019 23.9622C55.5422 23.9622 55.6583 24.0077 55.7599 24.0943C55.8566 24.1809 55.905 24.3039 55.905 24.4543ZM55.7454 31.0934H55.0634V25.9945H55.7454V31.0934Z" fill="#413E43"/>
<path d="M58.188 25.9944H60.3453V26.5366H58.188V29.2478C58.188 29.5394 58.2122 29.7718 58.2654 29.9541C58.3186 30.1364 58.3911 30.2731 58.4927 30.3733C58.5943 30.4736 58.7103 30.5374 58.8506 30.5693C58.9909 30.6012 59.1457 30.6194 59.3102 30.6194C59.5955 30.6194 59.8277 30.5875 60.0018 30.5237C60.1759 30.4599 60.3114 30.4052 60.4081 30.3506L60.5774 30.8837C60.4807 30.9429 60.3065 31.0113 60.0647 31.0842C59.818 31.1616 59.5568 31.1981 59.2714 31.1981C58.9377 31.1981 58.6571 31.1571 58.4298 31.0751C58.2025 30.993 58.0235 30.87 57.8832 30.7014C57.743 30.5328 57.6511 30.3232 57.5979 30.0771C57.5398 29.8265 57.5156 29.5303 57.5156 29.1886V24.4952L58.1976 24.3767V25.9944H58.188Z" fill="#413E43"/>
<path d="M63.2429 25.8757C63.6008 25.8757 63.9007 25.9213 64.1474 26.017C64.3941 26.1127 64.5972 26.2448 64.7472 26.4134C64.9019 26.582 65.0132 26.778 65.0809 27.0103C65.1486 27.2427 65.1873 27.4888 65.1873 27.7622V30.9792C65.1196 30.9974 65.018 31.0202 64.8826 31.043C64.752 31.0658 64.5972 31.0886 64.4231 31.1159C64.2489 31.1433 64.0555 31.1615 63.8427 31.1797C63.6298 31.1979 63.4122 31.2025 63.1897 31.2025C62.9043 31.2025 62.6383 31.1752 62.4013 31.1159C62.1594 31.0567 61.9514 30.961 61.7724 30.8334C61.5935 30.7058 61.4532 30.5418 61.3516 30.3413C61.2501 30.1408 61.2017 29.8947 61.2017 29.6077C61.2017 29.3297 61.2598 29.0928 61.371 28.8968C61.4822 28.7009 61.6419 28.5368 61.8402 28.4093C62.0385 28.2817 62.2852 28.186 62.5609 28.1267C62.8414 28.0675 63.1413 28.0402 63.4702 28.0402C63.5669 28.0402 63.6685 28.0447 63.7798 28.0538C63.8862 28.0629 63.9926 28.0766 64.0942 28.0948C64.1958 28.1131 64.2828 28.1267 64.3553 28.145C64.4279 28.1632 64.4811 28.1768 64.5053 28.1905V27.8761C64.5053 27.6984 64.4908 27.5253 64.4618 27.3567C64.4328 27.1881 64.3747 27.0377 64.278 26.901C64.1861 26.7643 64.0506 26.6595 63.8813 26.5775C63.712 26.4954 63.4847 26.4544 63.2041 26.4544C62.8075 26.4544 62.5077 26.4818 62.3142 26.5319C62.1207 26.5866 61.9756 26.6276 61.8837 26.6595L61.7918 26.099C61.9127 26.0443 62.0917 25.9988 62.3432 25.9532C62.5947 25.8985 62.8946 25.8757 63.2429 25.8757ZM63.3058 30.6284C63.5718 30.6284 63.8039 30.6193 64.0023 30.6056C64.2006 30.5874 64.3699 30.5691 64.5102 30.5418V28.7464C64.4328 28.7146 64.3118 28.6781 64.1425 28.6417C63.9733 28.6052 63.7459 28.5869 63.4508 28.5869C63.2815 28.5869 63.1074 28.6006 62.9285 28.6234C62.7447 28.6462 62.5802 28.6963 62.4254 28.7692C62.2706 28.8467 62.1449 28.9469 62.0481 29.0791C61.9514 29.2112 61.903 29.3844 61.903 29.6031C61.903 29.7945 61.9369 29.954 62.0046 30.0861C62.0723 30.2183 62.1643 30.3231 62.2852 30.4005C62.4061 30.478 62.556 30.5372 62.7253 30.5737C62.8946 30.6101 63.0881 30.6284 63.3058 30.6284Z" fill="#413E43"/>
<path d="M68.2972 31.1798C68.065 31.1753 67.8667 31.1434 67.6974 31.0978C67.5281 31.0477 67.383 30.9748 67.2669 30.87C67.1509 30.7697 67.0638 30.6376 67.0057 30.4735C66.9477 30.314 66.9187 30.109 66.9187 29.8675V23.5565L67.6007 23.438V29.8493C67.6007 30.0088 67.6152 30.1318 67.6491 30.2275C67.6781 30.3232 67.7265 30.4006 67.7894 30.4553C67.8522 30.51 67.9344 30.551 68.036 30.5784C68.1376 30.6057 68.2585 30.6285 68.3988 30.6467L68.2972 31.1798Z" fill="#413E43"/>
<path d="M76.278 26.0535C76.278 26.3041 76.2249 26.5457 76.1233 26.7735C76.0169 27.0059 75.8814 27.2246 75.7169 27.4388C75.5476 27.6529 75.359 27.858 75.1511 28.0539C74.9431 28.2499 74.7351 28.4367 74.5319 28.6144C74.4255 28.7055 74.3143 28.8104 74.1934 28.9243C74.0724 29.0382 73.9563 29.1566 73.8451 29.2751C73.7338 29.3936 73.6322 29.503 73.5452 29.6078C73.4581 29.708 73.4049 29.7946 73.3807 29.8584H76.5005V31.0932H71.6636C71.6491 31.0203 71.6443 30.9292 71.6443 30.8153C71.6443 30.7014 71.6443 30.6239 71.6443 30.5784C71.6443 30.2639 71.6975 29.9723 71.8087 29.7126C71.9151 29.4483 72.0603 29.2068 72.2344 28.9789C72.4085 28.7511 72.6068 28.5415 72.8245 28.341C73.0421 28.1451 73.2646 27.9446 73.4774 27.7486C73.6467 27.5983 73.8016 27.4524 73.9467 27.3203C74.0918 27.1836 74.2223 27.056 74.3336 26.9239C74.4448 26.7963 74.5319 26.6687 74.5948 26.5411C74.6577 26.4135 74.6915 26.2814 74.6915 26.1538C74.6915 25.8667 74.6045 25.6617 74.4304 25.5432C74.2562 25.4247 74.0385 25.3655 73.7822 25.3655C73.5935 25.3655 73.4194 25.3928 73.255 25.4475C73.0905 25.5022 72.9406 25.5705 72.8052 25.6434C72.6697 25.7209 72.5536 25.7938 72.4569 25.8713C72.3601 25.9487 72.2876 26.008 72.2392 26.0535L71.4653 25.0283C71.7701 24.7594 72.128 24.5362 72.5391 24.363C72.9454 24.1899 73.3856 24.1033 73.8547 24.1033C74.2804 24.1033 74.648 24.1488 74.9527 24.24C75.2575 24.3311 75.5138 24.4633 75.7121 24.6273C75.9104 24.7959 76.0555 25.0009 76.1523 25.2379C76.2297 25.4794 76.278 25.7482 76.278 26.0535Z" fill="#FF8300"/>
<path d="M79.2912 30.3145C79.2912 30.6107 79.1897 30.8339 78.9913 30.9889C78.793 31.1438 78.5657 31.2213 78.3142 31.2213C78.0626 31.2213 77.8402 31.1438 77.637 30.9889C77.4387 30.8339 77.3372 30.6107 77.3372 30.3145C77.3372 30.0183 77.4387 29.795 77.637 29.6401C77.8354 29.4852 78.0626 29.4077 78.3142 29.4077C78.5657 29.4077 78.7882 29.4852 78.9913 29.6401C79.1897 29.7905 79.2912 30.0183 79.2912 30.3145Z" fill="#FF8300"/>
<path d="M85.1974 27.6581C85.1974 28.8109 84.9652 29.6904 84.5009 30.3055C84.0366 30.9207 83.3981 31.226 82.5807 31.226C81.7632 31.226 81.1248 30.9207 80.6604 30.3055C80.1961 29.6904 79.9639 28.8064 79.9639 27.6581C79.9639 27.0839 80.0267 26.5781 80.1477 26.1407C80.2686 25.6987 80.4475 25.3296 80.6749 25.0243C80.9071 24.7236 81.1828 24.4912 81.502 24.3317C81.8213 24.1722 82.184 24.0947 82.5807 24.0947C83.3981 24.0947 84.0366 24.4 84.5009 25.0152C84.9652 25.6349 85.1974 26.5143 85.1974 27.6581ZM83.6061 27.6581C83.6061 27.3163 83.5867 27.0065 83.5529 26.724C83.519 26.446 83.461 26.2045 83.3836 25.9994C83.3062 25.7944 83.1998 25.6395 83.0692 25.5255C82.9386 25.4116 82.7741 25.3569 82.5758 25.3569C82.3823 25.3569 82.2179 25.4116 82.0873 25.5255C81.9567 25.6395 81.8551 25.7944 81.7729 25.9994C81.6906 26.2045 81.6326 26.446 81.5987 26.724C81.5649 27.0019 81.5455 27.3163 81.5455 27.6581C81.5455 27.9998 81.5649 28.3142 81.5987 28.5967C81.6326 28.8793 81.6906 29.1208 81.7729 29.3258C81.8551 29.5309 81.9567 29.6858 82.0873 29.7997C82.2179 29.9136 82.3775 29.9683 82.5758 29.9683C82.7693 29.9683 82.9338 29.9136 83.0692 29.7997C83.1998 29.6858 83.3062 29.5309 83.3836 29.3258C83.461 29.1208 83.5142 28.8793 83.5529 28.5967C83.5867 28.3142 83.6061 27.9998 83.6061 27.6581Z" fill="#FF8300"/>
</svg>
