<svg width="1812" height="41" viewBox="0 0 1812 41" fill="none" xmlns="http://www.w3.org/2000/svg">
<g clip-path="url(#clip0_7159_4991)">
<path d="M0 20.4756C0 18.982 0.579825 17.5807 1.6311 16.5271L16.4898 1.63479C17.5411 0.581137 18.9391 0 20.4293 0C23.5019 0 26 2.50378 26 5.58326C26 7.07683 25.4202 8.47808 24.3689 9.53173L13.4498 20.4756L24.331 31.4194C25.7778 32.8695 26.3143 34.7813 25.8103 36.6659C25.2793 38.6592 23.6536 40.2885 21.6811 40.8208C19.8116 41.3204 17.9041 40.7719 16.4519 39.3163L1.6311 24.4186C0.579825 23.365 0 21.9637 0 20.4756Z" fill="#3F3F3F"/>
</g>
<g clip-path="url(#clip1_7159_4991)">
<path d="M1812 20.5244C1812 22.018 1811.42 23.4193 1810.37 24.4729L1795.51 39.3652C1794.46 40.4189 1793.06 41 1791.57 41C1788.5 41 1786 38.4962 1786 35.4167C1786 33.9232 1786.58 32.5219 1787.63 31.4683L1798.55 20.5244L1787.67 9.5806C1786.22 8.13048 1785.69 6.2187 1786.19 4.33408C1786.72 2.34083 1788.35 0.711477 1790.32 0.17922C1792.19 -0.320448 1794.1 0.228102 1795.55 1.68366L1810.37 16.5814C1811.42 17.635 1812 19.0363 1812 20.5244Z" fill="#3F3F3F"/>
</g>
<defs>
<clipPath id="clip0_7159_4991">
<rect width="26" height="41" fill="white"/>
</clipPath>
<clipPath id="clip1_7159_4991">
<rect width="26" height="41" fill="white" transform="translate(1812 41) rotate(-180)"/>
</clipPath>
</defs>
</svg>
