<svg width="77" height="30" viewBox="0 0 77 30" fill="none" xmlns="http://www.w3.org/2000/svg">
<path d="M5.0982 11.5389C5.50194 11.5389 5.83646 11.504 6.10177 11.4342C6.36708 11.3644 6.58048 11.2714 6.7362 11.155C6.8977 11.0387 7.00728 10.8991 7.07072 10.7363C7.13417 10.5734 7.16301 10.3931 7.16301 10.1954C7.16301 9.77658 6.96691 9.42178 6.57471 9.1426C6.18251 8.86342 5.5077 8.56097 4.55028 8.24107C4.13501 8.08985 3.71397 7.92117 3.29871 7.72923C2.88344 7.53729 2.50855 7.29301 2.17402 7.00219C1.8395 6.71138 1.57419 6.35658 1.36079 5.94362C1.15315 5.53066 1.04934 5.02464 1.04934 4.43138C1.04934 3.83811 1.15892 3.30301 1.38386 2.82607C1.60303 2.34913 1.92025 1.94199 2.32398 1.61046C2.72771 1.27311 3.21796 1.01719 3.80049 0.836888C4.37725 0.656581 5.02899 0.569336 5.75571 0.569336C6.61509 0.569336 7.35911 0.662398 7.98778 0.84852C8.61645 1.03464 9.12976 1.23821 9.5335 1.45923L8.70296 3.74505C8.34537 3.55893 7.9474 3.39607 7.51483 3.25066C7.07649 3.11107 6.55164 3.03546 5.94027 3.03546C5.25393 3.03546 4.75791 3.13434 4.458 3.32627C4.15808 3.51821 4.00813 3.81485 4.00813 4.21036C4.00813 4.44301 4.0658 4.64658 4.17539 4.80362C4.28497 4.96066 4.4407 5.11189 4.64256 5.23985C4.84443 5.36781 5.0809 5.48995 5.34044 5.59464C5.60575 5.69934 5.89413 5.80985 6.21712 5.92036C6.88039 6.17046 7.45715 6.41474 7.9474 6.65321C8.43765 6.8975 8.84716 7.17668 9.17014 7.49658C9.49313 7.81648 9.73536 8.19454 9.89686 8.63076C10.0584 9.06699 10.1391 9.59046 10.1391 10.2128C10.1391 11.4168 9.72383 12.3474 8.88753 13.0105C8.05122 13.6735 6.79388 14.005 5.10974 14.005C4.54451 14.005 4.03696 13.9702 3.58132 13.9004C3.12568 13.8306 2.72195 13.7491 2.37589 13.6503C2.02406 13.5514 1.72415 13.4467 1.47037 13.3362C1.2166 13.2257 1.00897 13.121 0.835938 13.0221L1.64917 10.7188C2.02983 10.9282 2.49701 11.1202 3.05647 11.283C3.61593 11.4517 4.30227 11.5331 5.10974 11.5331L5.0982 11.5389Z" fill="white"/>
<path d="M15.8601 3.71582C16.6733 3.71582 17.3481 3.80888 17.8845 3.995C18.4267 4.18113 18.8592 4.44868 19.1822 4.79184C19.5052 5.14082 19.7359 5.5596 19.8743 6.05398C20.007 6.54837 20.0762 7.10092 20.0762 7.70582V13.464C19.684 13.5512 19.1361 13.6501 18.4382 13.7722C17.7403 13.8944 16.8925 13.9467 15.8947 13.9467C15.266 13.9467 14.7008 13.8886 14.1875 13.7781C13.6799 13.6676 13.2416 13.4814 12.8725 13.2313C12.5033 12.9754 12.2207 12.6439 12.0246 12.2367C11.8285 11.8296 11.7305 11.3236 11.7305 10.7303C11.7305 10.137 11.8458 9.67756 12.0708 9.28205C12.2957 8.88654 12.6014 8.57245 12.982 8.33398C13.3627 8.10133 13.801 7.92684 14.2913 7.82215C14.7815 7.71745 15.2949 7.66511 15.8197 7.66511C16.1773 7.66511 16.4945 7.68256 16.7656 7.71164C17.0424 7.74072 17.2674 7.78143 17.4404 7.83378V7.57204C17.4404 7.10092 17.2962 6.72286 17.0136 6.43786C16.731 6.15286 16.2407 6.01327 15.5371 6.01327C15.0699 6.01327 14.6085 6.04817 14.1529 6.11796C13.6972 6.18776 13.305 6.28082 12.9763 6.40878L12.6245 4.18113C12.7859 4.1346 12.982 4.07643 13.2243 4.02409C13.4665 3.96592 13.7261 3.91939 14.0087 3.87286C14.2913 3.83215 14.5912 3.79143 14.9027 3.76235C15.2141 3.73327 15.5313 3.71582 15.8543 3.71582H15.8601ZM16.0793 11.818C16.3503 11.818 16.6099 11.8121 16.8521 11.8005C17.1001 11.7889 17.2962 11.7714 17.4404 11.7424V9.64266C17.3308 9.61939 17.1636 9.59613 16.9444 9.56704C16.7252 9.54378 16.5234 9.53215 16.3388 9.53215C16.0793 9.53215 15.837 9.5496 15.6121 9.57868C15.3871 9.60776 15.1853 9.66592 15.0122 9.75317C14.8392 9.84041 14.7066 9.95674 14.6085 10.108C14.5105 10.2592 14.4643 10.4453 14.4643 10.6663C14.4643 11.1026 14.6085 11.3992 14.8969 11.5679C15.1853 11.7365 15.5832 11.818 16.085 11.818H16.0793Z" fill="white"/>
<path d="M22.5683 4.30923C23.0354 4.17546 23.6353 4.0475 24.3735 3.93117C25.1118 3.81485 25.8847 3.75668 26.6979 3.75668C27.5111 3.75668 28.2032 3.86719 28.7512 4.0824C29.2991 4.2976 29.7316 4.60587 30.0489 5.00138C30.3661 5.39689 30.5968 5.86801 30.7294 6.41474C30.8621 6.96148 30.9313 7.56638 30.9313 8.23525V13.7549H28.1859V8.5726C28.1859 7.6827 28.0706 7.04872 27.8341 6.67648C27.6034 6.30423 27.1651 6.11811 26.5249 6.11811C26.3288 6.11811 26.1211 6.12974 25.8962 6.14719C25.677 6.16464 25.4809 6.18791 25.3079 6.21117V13.7549H22.5625V4.31505L22.5683 4.30923Z" fill="white"/>
<path d="M45.0109 9.42162C45.0109 10.0556 44.9417 10.6489 44.7975 11.2072C44.6533 11.7656 44.4111 12.2484 44.0592 12.6671C43.7074 13.0801 43.2345 13.4116 42.6404 13.6501C42.0464 13.8944 41.2908 14.0107 40.3853 14.0107C39.549 14.0107 38.828 13.906 38.2282 13.7024C37.6284 13.4989 37.1266 13.2604 36.7344 12.987L37.6918 10.7361C38.0494 10.9455 38.4301 11.1316 38.8338 11.2945C39.2375 11.4573 39.6816 11.5388 40.1603 11.5388C40.8582 11.5388 41.3658 11.3643 41.6715 11.0211C41.9771 10.6721 42.1329 10.0905 42.1329 9.27622V0.877441H45.0051V9.42744L45.0109 9.42162Z" fill="white"/>
<path d="M55.8591 13.4176C55.392 13.5514 54.7921 13.6793 54.0539 13.8015C53.3156 13.9178 52.5428 13.976 51.7295 13.976C50.9163 13.976 50.2184 13.8655 49.6763 13.6386C49.1283 13.4176 48.6958 13.1035 48.3785 12.7022C48.0613 12.3009 47.8306 11.8181 47.698 11.2597C47.5653 10.7014 47.4961 10.0907 47.4961 9.42178V3.9777H50.2415V9.09025C50.2415 9.98015 50.3568 10.6258 50.5933 11.0213C50.824 11.4168 51.2623 11.6145 51.9026 11.6145C52.0986 11.6145 52.3063 11.6029 52.5312 11.5855C52.7504 11.568 52.9465 11.5447 53.1195 11.5215V3.9777H55.8649V13.4176H55.8591Z" fill="white"/>
<path d="M61.9226 3.71582C62.7358 3.71582 63.4106 3.80888 63.947 3.995C64.4892 4.18113 64.9217 4.44868 65.2447 4.79184C65.5677 5.14082 65.7984 5.5596 65.9368 6.05398C66.0695 6.54837 66.1387 7.10092 66.1387 7.70582V13.464C65.7465 13.5512 65.1986 13.6501 64.5007 13.7722C63.8028 13.8944 62.955 13.9467 61.9572 13.9467C61.3285 13.9467 60.7633 13.8886 60.25 13.7781C59.7424 13.6676 59.3041 13.4814 58.935 13.2313C58.5658 12.9754 58.2832 12.6439 58.0871 12.2367C57.891 11.8296 57.793 11.3236 57.793 10.7303C57.793 10.137 57.9083 9.67756 58.1333 9.28205C58.3582 8.88654 58.6639 8.57245 59.0445 8.33398C59.4252 8.10133 59.8635 7.92684 60.3538 7.82215C60.844 7.71745 61.3574 7.66511 61.8822 7.66511C62.2398 7.66511 62.557 7.68256 62.8281 7.71164C63.1049 7.74072 63.3299 7.78143 63.5029 7.83378V7.57204C63.5029 7.10092 63.3587 6.72286 63.0761 6.43786C62.7935 6.15286 62.3032 6.01327 61.5996 6.01327C61.1324 6.01327 60.671 6.04817 60.2154 6.11796C59.7597 6.18776 59.3675 6.28082 59.0388 6.40878L58.687 4.18113C58.8484 4.1346 59.0445 4.07643 59.2868 4.02409C59.529 3.96592 59.7886 3.91939 60.0712 3.87286C60.3538 3.83215 60.6537 3.79143 60.9652 3.76235C61.2766 3.73327 61.5938 3.71582 61.9168 3.71582H61.9226ZM62.1418 11.818C62.4128 11.818 62.6724 11.8121 62.9146 11.8005C63.1626 11.7889 63.3587 11.7714 63.5029 11.7424V9.64266C63.3933 9.61939 63.2261 9.59613 63.0069 9.56704C62.7877 9.54378 62.5859 9.53215 62.4013 9.53215C62.1418 9.53215 61.8995 9.5496 61.6746 9.57868C61.4496 9.60776 61.2478 9.66592 61.0747 9.75317C60.9017 9.84041 60.7691 9.95674 60.671 10.108C60.573 10.2592 60.5268 10.4453 60.5268 10.6663C60.5268 11.1026 60.671 11.3992 60.9594 11.5679C61.2478 11.7365 61.6457 11.818 62.1475 11.818H62.1418Z" fill="white"/>
<path d="M68.6308 4.30939C69.0979 4.17561 69.6978 4.04765 70.436 3.93133C71.1743 3.815 71.9472 3.75684 72.7604 3.75684C73.5736 3.75684 74.2657 3.86735 74.8137 4.08255C75.3616 4.29775 75.7941 4.60602 76.1114 5.00153C76.4286 5.39704 76.6593 5.86816 76.7919 6.4149C76.9246 6.96163 76.9938 7.56653 76.9938 8.23541V13.7551H74.2484V8.57275C74.2484 7.68286 74.1331 7.04888 73.8966 6.67663C73.6659 6.30439 73.2276 6.11826 72.5874 6.11826C72.3913 6.11826 72.1836 6.1299 71.9587 6.14735C71.7395 6.1648 71.5434 6.18806 71.3704 6.21132V13.7551H68.625V4.3152L68.6308 4.30939Z" fill="white"/>
<path d="M7.15368 24.8232H8.06496V29.0051C7.8977 29.0749 7.56318 29.168 7.06716 29.2843C6.57115 29.3948 5.95978 29.453 5.23306 29.453C4.62746 29.453 4.06223 29.3425 3.54315 29.1273C3.02406 28.9121 2.57419 28.598 2.19353 28.185C1.81287 27.7721 1.51295 27.266 1.29955 26.6553C1.08615 26.0446 0.976562 25.3467 0.976562 24.5615C0.976562 23.7762 1.09192 23.0783 1.32839 22.4676C1.55909 21.8569 1.87631 21.3508 2.27428 20.9379C2.67224 20.5249 3.13365 20.2108 3.66427 19.9956C4.19489 19.7804 4.75435 19.6699 5.35418 19.6699C6.04629 19.6699 6.61152 19.7455 7.0614 19.8909C7.51127 20.0422 7.83426 20.1818 8.04189 20.3155L7.73044 21.1007C7.48243 20.9204 7.14214 20.775 6.70957 20.6587C6.277 20.5482 5.81559 20.49 5.31381 20.49C4.84663 20.49 4.40829 20.5773 3.99879 20.7459C3.58929 20.9146 3.2317 21.1764 2.92601 21.5195C2.62033 21.8627 2.38386 22.2873 2.20506 22.7933C2.02627 23.2993 1.94552 23.8868 1.94552 24.5556C1.94552 25.178 2.01473 25.7422 2.15893 26.2424C2.30312 26.7426 2.51652 27.173 2.81066 27.5278C3.09904 27.8826 3.46241 28.1559 3.88921 28.3479C4.32178 28.5398 4.81779 28.6329 5.37725 28.6329C5.83289 28.6329 6.21933 28.6096 6.52501 28.5573C6.83069 28.5049 7.04409 28.4584 7.14791 28.4177V24.8174L7.15368 24.8232Z" fill="white"/>
<path d="M16.0516 25.7717C16.0516 26.3243 15.9708 26.8245 15.8151 27.2723C15.6594 27.7202 15.4402 28.1099 15.1576 28.424C14.875 28.738 14.5405 28.9881 14.1598 29.1626C13.7734 29.3371 13.3523 29.4244 12.8852 29.4244C12.418 29.4244 11.997 29.3371 11.6105 29.1626C11.2241 28.9881 10.8896 28.738 10.6127 28.424C10.3301 28.1099 10.1109 27.726 9.95522 27.2723C9.79949 26.8186 9.71875 26.3184 9.71875 25.7717C9.71875 25.225 9.79949 24.719 9.95522 24.2711C10.1109 23.8174 10.3301 23.4335 10.6127 23.1136C10.8953 22.7937 11.2299 22.5436 11.6105 22.3692C11.997 22.1947 12.418 22.1074 12.8852 22.1074C13.3523 22.1074 13.7734 22.1947 14.1598 22.3692C14.5462 22.5436 14.8808 22.7937 15.1576 23.1136C15.4402 23.4335 15.6594 23.8174 15.8151 24.2711C15.9708 24.7248 16.0516 25.225 16.0516 25.7717ZM15.123 25.7717C15.123 24.8934 14.9211 24.2013 14.5174 23.6778C14.1137 23.1602 13.5657 22.8984 12.8794 22.8984C12.1931 22.8984 11.6451 23.1602 11.2414 23.6778C10.8377 24.1955 10.6358 24.8934 10.6358 25.7717C10.6358 26.65 10.8377 27.3421 11.2414 27.854C11.6451 28.3658 12.1873 28.6275 12.8794 28.6275C13.5715 28.6275 14.1137 28.3716 14.5174 27.854C14.9211 27.3421 15.123 26.6442 15.123 25.7717Z" fill="white"/>
<path d="M18.8183 22.6829C18.9682 22.5666 19.2162 22.4386 19.5508 22.3107C19.8853 22.1827 20.2832 22.1129 20.7389 22.1129C21.2407 22.1129 21.6848 22.206 22.077 22.3863C22.4634 22.5666 22.7979 22.8225 23.0632 23.1424C23.3285 23.4623 23.5362 23.852 23.6746 24.2998C23.813 24.7477 23.8822 25.2363 23.8822 25.7714C23.8822 26.3414 23.8015 26.8474 23.6342 27.3011C23.467 27.7547 23.2363 28.1386 22.9363 28.4527C22.6364 28.7668 22.2788 29.0111 21.8636 29.1797C21.4483 29.3484 20.9811 29.4298 20.4736 29.4298C19.8564 29.4298 19.3431 29.3891 18.9452 29.3077C18.5472 29.2263 18.2127 29.139 17.9531 29.0518V18.9256L18.824 18.7627V22.6887L18.8183 22.6829ZM18.8183 28.4352C18.9509 28.4818 19.1528 28.5225 19.4181 28.5632C19.6834 28.6039 20.0295 28.6214 20.4563 28.6214C21.2061 28.6214 21.8117 28.3771 22.2673 27.8827C22.7229 27.3883 22.9536 26.6845 22.9536 25.7656C22.9536 25.3759 22.9133 25.0094 22.8325 24.6605C22.7518 24.3115 22.6191 24.009 22.4461 23.7531C22.2673 23.4972 22.0308 23.2936 21.7424 23.1366C21.4541 22.9853 21.0907 22.9039 20.6639 22.9039C20.4563 22.9039 20.2602 22.9272 20.0756 22.9621C19.8853 23.0028 19.7122 23.0551 19.5508 23.1191C19.3893 23.1831 19.2508 23.2529 19.1297 23.3227C19.0086 23.3925 18.9106 23.4623 18.8298 23.5263V28.4294L18.8183 28.4352Z" fill="white"/>
<path d="M26.8466 20.1527C26.8466 20.3621 26.7832 20.525 26.6563 20.6471C26.5294 20.7693 26.3795 20.8274 26.2007 20.8274C26.0219 20.8274 25.8719 20.7693 25.745 20.6471C25.6181 20.525 25.5547 20.3621 25.5547 20.1527C25.5547 19.9433 25.6181 19.7805 25.745 19.6583C25.8719 19.5362 26.0219 19.478 26.2007 19.478C26.3795 19.478 26.5294 19.5362 26.6563 19.6583C26.7832 19.7805 26.8466 19.9433 26.8466 20.1527ZM26.6448 29.2669H25.7739V22.264H26.6448V29.2669Z" fill="white"/>
<path d="M28.5391 25.76C28.5391 25.1435 28.6256 24.6142 28.7986 24.1547C28.9716 23.6952 29.2023 23.3172 29.485 23.0089C29.7676 22.7006 30.0906 22.4738 30.4539 22.3226C30.8173 22.1714 31.1922 22.1016 31.5728 22.1016C32.4207 22.1016 33.1012 22.3807 33.6088 22.9391C34.1163 23.4975 34.3701 24.3583 34.3701 25.5274C34.3701 25.5972 34.3701 25.6728 34.3644 25.7426C34.3644 25.8124 34.3528 25.8822 34.3413 25.9462H29.4676C29.4965 26.8012 29.7041 27.4642 30.0963 27.9237C30.4885 28.3832 31.1172 28.6158 31.9766 28.6158C32.4495 28.6158 32.8244 28.5693 33.107 28.4821C33.3839 28.389 33.5857 28.3134 33.7126 28.2494L33.8741 29.0055C33.7472 29.0753 33.5165 29.1626 33.1705 29.2615C32.8244 29.3603 32.4207 29.4127 31.9535 29.4127C31.3421 29.4127 30.823 29.3196 30.3962 29.1393C29.9637 28.959 29.6118 28.7031 29.335 28.3832C29.0582 28.0575 28.8563 27.6736 28.7294 27.2257C28.6025 26.7779 28.5391 26.2893 28.5391 25.7542V25.76ZM33.4646 25.2075C33.4473 24.4746 33.2743 23.9104 32.9571 23.5033C32.6341 23.0962 32.1784 22.8926 31.5844 22.8926C31.2729 22.8926 30.9903 22.9566 30.7423 23.0845C30.4943 23.2125 30.2809 23.3812 30.0963 23.5905C29.9118 23.7999 29.7676 24.05 29.6638 24.3292C29.5599 24.6084 29.5023 24.905 29.485 25.2075H33.4588H33.4646Z" fill="white"/>
<path d="M38.6715 22.1305C38.9598 22.1305 39.2309 22.1537 39.4847 22.2003C39.7385 22.2468 39.9173 22.2933 40.0153 22.334L39.8423 23.0901C39.7731 23.0553 39.6231 23.0145 39.4039 22.9738C39.1848 22.9331 38.8964 22.9157 38.5388 22.9157C38.1812 22.9157 37.8582 22.9447 37.6333 22.9971C37.4026 23.0494 37.2526 23.096 37.1834 23.1309V29.2671H36.3125V22.5899C36.5374 22.4911 36.8431 22.3864 37.2411 22.2875C37.6333 22.1828 38.112 22.1305 38.6772 22.1305H38.6715Z" fill="white"/>
<path d="M41.3281 22.5084C41.5877 22.4386 41.9395 22.3572 42.3778 22.2641C42.8162 22.1769 43.3526 22.1304 43.987 22.1304C44.5176 22.1304 44.956 22.206 45.3078 22.363C45.6596 22.5142 45.9422 22.7353 46.1556 23.0203C46.3632 23.3053 46.5132 23.6426 46.6055 24.0439C46.6978 24.4395 46.7381 24.8815 46.7381 25.3584V29.2728H45.8672V25.6434C45.8672 25.149 45.8326 24.7303 45.7692 24.3813C45.7 24.0381 45.5904 23.7589 45.4347 23.5437C45.2789 23.3285 45.0713 23.1715 44.8175 23.0784C44.5638 22.9854 44.2408 22.9388 43.8601 22.9388C43.4506 22.9388 43.093 22.9621 42.7931 23.0086C42.4932 23.0552 42.2971 23.0959 42.2106 23.1308V29.2786H41.3397V22.5201L41.3281 22.5084Z" fill="white"/>
<path d="M54.8953 25.7717C54.8953 26.3243 54.8146 26.8245 54.6589 27.2723C54.5031 27.7202 54.284 28.1099 54.0014 28.424C53.7188 28.738 53.3842 28.9881 53.0036 29.1626C52.6171 29.3371 52.1961 29.4244 51.7289 29.4244C51.2617 29.4244 50.8407 29.3371 50.4543 29.1626C50.0678 28.9881 49.7333 28.738 49.4565 28.424C49.1739 28.1099 48.9547 27.726 48.799 27.2723C48.6432 26.8186 48.5625 26.3184 48.5625 25.7717C48.5625 25.225 48.6432 24.719 48.799 24.2711C48.9547 23.8174 49.1739 23.4335 49.4565 23.1136C49.7391 22.7937 50.0736 22.5436 50.4543 22.3692C50.8407 22.1947 51.2617 22.1074 51.7289 22.1074C52.1961 22.1074 52.6171 22.1947 53.0036 22.3692C53.39 22.5436 53.7245 22.7937 54.0014 23.1136C54.284 23.4335 54.5031 23.8174 54.6589 24.2711C54.8146 24.7248 54.8953 25.225 54.8953 25.7717ZM53.9668 25.7717C53.9668 24.8934 53.7649 24.2013 53.3612 23.6778C52.9574 23.1602 52.4095 22.8984 51.7232 22.8984C51.0368 22.8984 50.4889 23.1602 50.0851 23.6778C49.6814 24.1955 49.4796 24.8934 49.4796 25.7717C49.4796 26.65 49.6814 27.3421 50.0851 27.854C50.4889 28.3658 51.031 28.6275 51.7232 28.6275C52.4153 28.6275 52.9574 28.3716 53.3612 27.854C53.7649 27.3421 53.9668 26.6442 53.9668 25.7717Z" fill="white"/>
</svg>
