<svg width="57" height="58" viewBox="0 0 57 58" fill="none" xmlns="http://www.w3.org/2000/svg">
<path d="M55.4144 17.6637C56.6717 20.7173 56.8447 24.0384 55.9508 27.1734C54.3416 24.2071 51.8615 21.8631 48.8047 20.4265C49.964 17.2275 50.0736 13.8017 49.1334 10.562C51.8673 12.0917 54.1282 14.5287 55.4144 17.6637Z" fill="white"/>
<path d="M47.369 48.2871C44.2314 49.5202 40.667 49.654 37.293 48.4267C38.4696 45.1696 38.5503 41.674 37.5467 38.3819C39.0521 38.8472 40.6036 39.0857 42.1551 39.0857C43.9661 39.0857 45.7714 38.7658 47.5132 38.1318C48.7301 41.5344 48.5917 45.1289 47.369 48.293V48.2871Z" fill="white"/>
<path d="M28.2445 56.2726C25.0377 54.8593 22.4999 52.3641 21.0234 49.1825C24.2245 47.6761 26.6988 45.1983 28.2503 42.2437C29.8017 45.1983 32.2761 47.6761 35.4713 49.1883C33.989 52.3699 31.4513 54.8593 28.2445 56.2726Z" fill="white"/>
<path d="M9.1247 48.2812C7.85006 44.995 7.80392 41.4238 8.98628 38.1201C10.7454 38.7657 12.5507 39.0682 14.3271 39.0682C15.9074 39.0682 17.4704 38.8239 18.9585 38.3644C17.9838 41.5576 17.9953 45.0764 19.195 48.4266C15.9189 49.619 12.3776 49.5666 9.11893 48.2812H9.1247Z" fill="white"/>
<path d="M9.13761 9.7133C10.8275 9.05024 12.5866 8.71289 14.3515 8.71289C15.9895 8.71289 17.6333 9.00371 19.2136 9.57371C18.037 12.8309 17.9563 16.3265 18.9599 19.6185C15.6954 18.6065 12.229 18.6879 8.99919 19.8744C7.81683 16.5707 7.86873 12.9995 9.14338 9.7133H9.13761Z" fill="white"/>
<path d="M28.2677 1.73287C31.4688 3.14623 34.0065 5.64144 35.483 8.81715C32.3685 10.2829 29.8538 12.6966 28.2562 15.7386C26.6586 12.6908 24.1497 10.2829 21.0352 8.81134C22.5636 5.53674 25.1821 3.08807 28.2677 1.72705V1.73287Z" fill="white"/>
<path d="M47.3787 9.73035C48.6475 13.0166 48.6994 16.582 47.5113 19.8857C44.2815 18.6991 40.8151 18.6177 37.5507 19.6297C38.5542 16.3377 38.4735 12.8421 37.2969 9.57912C38.8887 9.0033 40.521 8.72412 42.1301 8.72412C43.9354 8.72412 45.7176 9.0731 47.3729 9.72453L47.3787 9.73035Z" fill="white"/>
<path d="M8.24184 21.7121C9.69528 24.8588 12.0888 27.3889 15.1168 29.0058C12.1927 30.5704 9.73565 33.0656 8.24184 36.2879C4.99468 34.7465 2.57228 32.1117 1.22266 29C2.57228 25.8883 5.00044 23.2535 8.24761 21.718L8.24184 21.7121Z" fill="white"/>
<path d="M48.2695 36.2935C46.7757 33.0713 44.3187 30.5761 41.3945 29.0115C44.4168 27.4004 46.8161 24.8644 48.2695 21.7236C51.4244 23.2184 53.893 25.7776 55.2945 29.0115C53.893 32.2454 51.4186 34.8046 48.2638 36.2935H48.2695Z" fill="white"/>
<path d="M34.0349 0.511631C35.8632 0.511631 37.7204 0.866427 39.5084 1.61673C42.5421 2.88469 44.9991 5.11235 46.5621 7.96816C43.4419 7.04918 40.0217 7.0899 36.7687 8.28224C35.3499 5.19377 33.0256 2.69857 30.0898 1.07581C31.3645 0.70357 32.691 0.511631 34.0349 0.511631Z" fill="white"/>
<path d="M17.009 1.61092C18.7796 0.872245 20.6368 0.5 22.4997 0.5C23.8263 0.5 25.1528 0.691939 26.4505 1.07C23.6013 2.64622 21.2078 5.11235 19.7486 8.27643C16.5764 7.10735 13.1793 6.99684 9.96094 7.9449C11.524 5.0949 13.981 2.87306 17.009 1.61092Z" fill="white"/>
<path d="M1.09533 17.6466C2.35267 14.593 4.55589 12.1211 7.38202 10.5391C6.4419 13.7788 6.54572 17.2104 7.70501 20.4094C4.56743 21.8809 2.12196 24.2889 0.558937 27.1563C-0.306205 24.1202 -0.19662 20.7816 1.09533 17.6466Z" fill="white"/>
<path d="M1.09 40.336C-0.196178 37.1952 -0.305762 33.8566 0.55938 30.8263C2.1224 33.6996 4.5621 36.1075 7.69969 37.5791C6.5404 40.7781 6.43081 44.2039 7.37093 47.4494C4.5448 45.8732 2.34157 43.3954 1.09 40.3418V40.336Z" fill="white"/>
<path d="M16.9972 56.3891C13.9692 55.1211 11.518 52.8993 9.94922 50.0493C11.3911 50.4739 12.8676 50.6891 14.3499 50.6891C16.1667 50.6891 17.9893 50.3634 19.7369 49.7236C21.1615 52.812 23.4858 55.3131 26.4273 56.9358C23.3185 57.8373 20.0252 57.657 16.9972 56.3891Z" fill="white"/>
<path d="M39.4965 56.3949C36.4685 57.6629 33.1751 57.8373 30.0664 56.9358C33.0079 55.3131 35.3322 52.812 36.7568 49.7294C38.5217 50.3808 40.3385 50.6891 42.1323 50.6891C43.6376 50.6891 45.1199 50.4681 46.5445 50.0493C45.0276 52.812 42.6052 55.092 39.4965 56.3949Z" fill="white"/>
<path d="M55.4066 40.3534C54.1146 43.4884 51.8537 45.9255 49.1141 47.461C50.0254 44.3144 49.985 40.8711 48.7969 37.5907C51.8595 36.1541 54.3396 33.8101 55.9487 30.8438C56.8427 33.9788 56.6639 37.2999 55.4066 40.3534Z" fill="white"/>
<path d="M35.8329 20.2754C35.8329 20.2754 35.8445 20.2696 35.856 20.2637C37.1364 16.9833 37.1883 13.4179 36.0175 10.1143C32.8742 11.6091 30.4114 14.1682 29.0156 17.3963C29.0156 17.4079 29.0214 17.4196 29.0272 17.4254C31.6284 17.5999 33.9931 18.641 35.8387 20.2696L35.8329 20.2754Z" fill="white"/>
<path d="M20.6878 20.2753C22.5334 18.6468 24.8924 17.6056 27.4936 17.4312C27.4936 17.4195 27.4994 17.4079 27.5051 17.3963C26.1094 14.1682 23.6466 11.609 20.5032 10.1084C19.3267 13.4121 19.3843 16.9775 20.659 20.2579C20.6705 20.2579 20.6763 20.2695 20.6878 20.2695V20.2753Z" fill="white"/>
<path d="M16.783 28.2325C16.956 25.6093 17.9884 23.2246 19.6034 21.3634C19.6034 21.3518 19.5918 21.3459 19.5918 21.3343C17.8962 20.6596 16.1255 20.3223 14.3491 20.3223C12.7226 20.3223 11.0961 20.6073 9.52734 21.1714C11.0154 24.3472 13.5531 26.8307 16.7599 28.2383C16.7657 28.2383 16.7772 28.2383 16.783 28.2325Z" fill="white"/>
<path d="M16.783 29.7734C16.783 29.7734 16.7657 29.7675 16.7599 29.7617C13.68 31.1169 11.0615 33.554 9.52734 36.8169C12.9014 38.0325 16.4658 37.8929 19.5976 36.6541C19.5976 36.6541 19.5976 36.6482 19.6034 36.6424C17.9884 34.7812 16.956 32.3965 16.783 29.7734Z" fill="white"/>
<path d="M20.6699 37.7187C20.6699 37.7187 20.6641 37.7187 20.6584 37.7187C19.4241 40.877 19.2857 44.4715 20.4911 47.874C23.7325 46.3269 26.1549 43.6863 27.4987 40.5745C27.4987 40.5745 27.4987 40.5745 27.4987 40.5687C24.8918 40.3942 22.5213 39.3473 20.6757 37.7129L20.6699 37.7187Z" fill="white"/>
<path d="M35.8367 37.7305C33.9853 39.3649 31.6148 40.4118 29.0078 40.5805C29.0078 40.5805 29.0078 40.5805 29.0078 40.5863C30.3517 43.698 32.7683 46.3386 36.0097 47.8858C37.1863 44.5821 37.1286 41.0167 35.854 37.7363C35.854 37.7363 35.8424 37.7363 35.8424 37.7305H35.8367Z" fill="white"/>
<path d="M39.7497 29.7676C39.7497 29.7676 39.7381 29.7676 39.7324 29.7734C39.5594 32.4024 38.5269 34.7871 36.9063 36.6541C36.9063 36.6541 36.9062 36.6657 36.912 36.6657C40.165 37.957 43.7005 38.0093 46.9765 36.8286C45.4481 33.5656 42.8296 31.1228 39.7497 29.7676Z" fill="white"/>
<path d="M42.1548 20.3335C40.3841 20.3335 38.6135 20.6708 36.9178 21.3455C36.9178 21.3514 36.912 21.3572 36.9062 21.363C38.5269 23.2242 39.5651 25.6147 39.7324 28.2437C39.7324 28.2437 39.7381 28.2437 39.7439 28.2437C42.9507 26.8362 45.4942 24.3526 46.9823 21.1827C45.4135 20.6127 43.7812 20.3335 42.1548 20.3335Z" fill="white"/>
<path d="M28.2598 39.1554C33.8183 39.1554 38.3243 34.6113 38.3243 29.0059C38.3243 23.4005 33.8183 18.8564 28.2598 18.8564C22.7013 18.8564 18.1953 23.4005 18.1953 29.0059C18.1953 34.6113 22.7013 39.1554 28.2598 39.1554Z" fill="white"/>
</svg>
