<svg width="64" height="64" viewBox="0 0 64 64" fill="none" xmlns="http://www.w3.org/2000/svg">
<g clip-path="url(#clip0_2495_5122)">
<path d="M31.53 21.87C31.8203 21.8038 32.1216 21.8017 32.4128 21.8639C32.704 21.926 32.9782 22.0509 33.2162 22.2299C33.4542 22.4089 33.6503 22.6376 33.7908 22.9001C33.9314 23.1627 34.013 23.4527 34.0299 23.75C34.0499 25.96 34.03 28.17 34.04 30.38C34.0438 30.6431 34.1007 30.9027 34.2072 31.1432C34.3137 31.3838 34.4677 31.6004 34.66 31.78L39.1899 36.31C39.463 36.5533 39.7019 36.8325 39.9 37.14C40.1328 37.5703 40.2032 38.07 40.0984 38.5479C39.9936 39.0258 39.7205 39.4501 39.329 39.7435C38.9374 40.0368 38.4535 40.1797 37.9654 40.146C37.4773 40.1124 37.0175 39.9044 36.6699 39.56C35.0199 37.91 33.3699 36.27 31.7199 34.61C30.6005 33.481 29.9655 31.9599 29.95 30.37V23.84C29.9513 23.3816 30.1069 22.937 30.3917 22.5778C30.6765 22.2186 31.0739 21.9658 31.52 21.86L31.53 21.87Z" fill="#D31D16"/>
<path d="M55.37 20.25C53.0209 15.4829 49.2464 11.5651 44.57 9.04C40.9281 7.09946 36.8852 6.03139 32.76 5.92H31.23C27.1584 6.03402 23.1668 7.07726 19.56 8.97C16.2255 10.7486 13.3244 13.241 11.0635 16.2693C8.80263 19.2977 7.23762 22.7875 6.48004 26.49C6.1533 28.084 5.96592 29.7035 5.92004 31.33V32.77C5.98552 34.8501 6.28406 36.9164 6.81004 38.93C7.71088 42.322 9.29603 45.4938 11.468 48.2506C13.64 51.0073 16.353 53.2905 19.44 54.96C23.057 56.8819 27.0663 57.9492 31.16 58.08H32.67C34.4333 58.0288 36.1877 57.8111 37.91 57.43C41.5879 56.6155 45.0424 55.0043 48.03 52.71C49.664 51.4543 51.1383 50.0036 52.42 48.39C52.5991 48.1594 52.7265 47.893 52.7936 47.6088C52.8608 47.3247 52.8661 47.0295 52.8092 46.7431C52.7523 46.4567 52.6345 46.1859 52.4639 45.949C52.2932 45.7121 52.0736 45.5147 51.82 45.37C51.396 45.125 50.898 45.0407 50.417 45.1325C49.936 45.2243 49.504 45.4861 49.2 45.87C48.1373 47.2044 46.9148 48.4034 45.56 49.44C42.152 52.068 38.0432 53.6301 33.75 53.93C28.9924 54.3158 24.2363 53.1662 20.18 50.65C17.1551 48.7632 14.6493 46.1508 12.89 43.05C11.165 39.9742 10.1826 36.5379 10.0212 33.0152C9.8597 29.4924 10.5236 25.9807 11.96 22.76C13.2592 19.8717 15.1819 17.3069 17.59 15.25C21.0908 12.2693 25.438 10.4612 30.02 10.08C33.4648 9.7803 36.9325 10.2693 40.16 11.51C43.7544 12.8994 46.9106 15.2268 49.3 18.25C51.0168 20.4309 52.303 22.9184 53.09 25.58C54.2745 29.6515 54.3057 33.9718 53.18 38.06C53.0612 38.493 53.0901 38.9533 53.2622 39.368C53.4342 39.7827 53.7396 40.1283 54.13 40.35C54.3965 40.5065 54.6951 40.6001 55.0032 40.6239C55.3112 40.6476 55.6207 40.6009 55.908 40.4871C56.1952 40.3734 56.4528 40.1956 56.6611 39.9674C56.8694 39.7392 57.0229 39.4665 57.11 39.17C57.6973 37.0476 58.023 34.8614 58.08 32.66V31.23C57.9725 27.4151 57.0484 23.6676 55.37 20.24V20.25Z" fill="#413E43"/>
<path d="M31.44 13.74C31.8631 13.619 32.3139 13.6384 32.725 13.7954C33.136 13.9523 33.4851 14.2383 33.7198 14.6105C33.9545 14.9826 34.0622 15.4209 34.0268 15.8594C33.9914 16.298 33.8147 16.7132 33.5232 17.0428C33.2318 17.3725 32.8413 17.5987 32.4104 17.6876C31.9795 17.7765 31.5314 17.7233 31.1333 17.5359C30.7352 17.3486 30.4086 17.0372 30.2024 16.6485C29.9963 16.2597 29.9218 15.8147 29.99 15.38C30.0498 14.9967 30.2181 14.6385 30.475 14.3478C30.732 14.0571 31.0669 13.8462 31.44 13.74Z" fill="#413E43"/>
<path d="M19.92 18.51C20.2476 18.4188 20.5926 18.4104 20.9243 18.4854C21.2559 18.5605 21.5637 18.7167 21.82 18.94C22.0717 19.16 22.2652 19.4388 22.3833 19.7515C22.5013 20.0643 22.5403 20.4013 22.4968 20.7328C22.4533 21.0642 22.3285 21.3798 22.1337 21.6515C21.9389 21.9231 21.68 22.1425 21.38 22.29C21.0237 22.465 20.6241 22.5327 20.2299 22.4848C19.8358 22.4368 19.4641 22.2754 19.16 22.02C18.8776 21.7811 18.6654 21.4699 18.5462 21.1197C18.427 20.7695 18.4053 20.3935 18.4834 20.0318C18.5614 19.6702 18.7364 19.3367 18.9894 19.0668C19.2425 18.797 19.5642 18.6011 19.92 18.5V18.51Z" fill="#413E43"/>
<path d="M43.12 18.48C43.4259 18.4161 43.7424 18.4244 44.0444 18.5043C44.3465 18.5841 44.6258 18.7333 44.86 18.94C45.2096 19.2405 45.4472 19.6503 45.5342 20.103C45.6213 20.5556 45.5526 21.0244 45.3394 21.4331C45.1262 21.8417 44.781 22.1662 44.36 22.3538C43.939 22.5414 43.4669 22.581 43.0204 22.4662C42.574 22.3514 42.1796 22.089 41.9013 21.7216C41.6229 21.3541 41.4771 20.9034 41.4875 20.4426C41.4979 19.9817 41.6639 19.538 41.9585 19.1835C42.253 18.829 42.6589 18.5846 43.11 18.49L43.12 18.48Z" fill="#413E43"/>
<path d="M15.55 30.04C15.9731 29.919 16.4239 29.9384 16.835 30.0954C17.246 30.2523 17.5951 30.5383 17.8298 30.9105C18.0645 31.2826 18.1722 31.7209 18.1368 32.1594C18.1014 32.598 17.9247 33.0132 17.6332 33.3428C17.3418 33.6725 16.9513 33.8987 16.5204 33.9876C16.0895 34.0765 15.6414 34.0233 15.2433 33.8359C14.8452 33.6486 14.5186 33.3372 14.3124 32.9485C14.1063 32.5597 14.0318 32.1147 14.1 31.68C14.1598 31.2967 14.3281 30.9385 14.585 30.6478C14.842 30.3571 15.1769 30.1462 15.55 30.04Z" fill="#413E43"/>
<path d="M47.33 30.04C47.7531 29.919 48.2039 29.9384 48.615 30.0954C49.026 30.2523 49.3751 30.5383 49.6098 30.9105C49.8445 31.2826 49.9522 31.7209 49.9168 32.1594C49.8814 32.598 49.7047 33.0132 49.4132 33.3428C49.1218 33.6725 48.7313 33.8987 48.3004 33.9876C47.8695 34.0765 47.4214 34.0233 47.0233 33.8359C46.6252 33.6486 46.2986 33.3372 46.0924 32.9485C45.8863 32.5597 45.8118 32.1147 45.88 31.68C45.9392 31.2964 46.1073 30.9379 46.3643 30.6472C46.6214 30.3564 46.9566 30.1457 47.33 30.04Z" fill="#413E43"/>
<path d="M20.02 41.54C20.3679 41.4612 20.7304 41.4752 21.0712 41.5804C21.412 41.6856 21.7193 41.8784 21.9622 42.1396C22.2051 42.4008 22.3753 42.7211 22.4556 43.0686C22.536 43.4162 22.5237 43.7787 22.42 44.12C22.2673 44.6116 21.9338 45.0269 21.4868 45.2823C21.0398 45.5377 20.5126 45.6141 20.0116 45.4962C19.5105 45.3782 19.0728 45.0746 18.7867 44.6466C18.5006 44.2186 18.3875 43.6981 18.47 43.19C18.5371 42.7902 18.7211 42.4192 18.9987 42.1238C19.2763 41.8284 19.6352 41.6218 20.03 41.53L20.02 41.54Z" fill="#413E43"/>
<path d="M43.05 41.54C43.3612 41.466 43.6854 41.4663 43.9964 41.541C44.3074 41.6157 44.5965 41.7627 44.84 41.97C45.0519 42.1475 45.2254 42.3662 45.3501 42.6128C45.4747 42.8595 45.5479 43.1289 45.5651 43.4047C45.5823 43.6805 45.5432 43.9569 45.4502 44.2172C45.3571 44.4774 45.2122 44.716 45.024 44.9184C44.8359 45.1208 44.6085 45.2828 44.3557 45.3946C44.103 45.5063 43.8301 45.5655 43.5538 45.5684C43.2775 45.5714 43.0034 45.5181 42.7483 45.4118C42.4933 45.3054 42.2625 45.1483 42.07 44.95C41.8088 44.6837 41.6259 44.3506 41.5412 43.9873C41.4565 43.624 41.4734 43.2444 41.59 42.89C41.7003 42.5604 41.8918 42.2639 42.147 42.0279C42.4022 41.7919 42.7128 41.6241 43.05 41.54Z" fill="#413E43"/>
<path d="M31.44 46.34C31.8604 46.218 32.3088 46.2343 32.7191 46.3865C33.1295 46.5388 33.48 46.8189 33.719 47.1856C33.958 47.5523 34.0728 47.986 34.0464 48.4229C34.0201 48.8598 33.854 49.2767 33.5727 49.612C33.2913 49.9473 32.9097 50.1832 32.484 50.285C32.0583 50.3869 31.6112 50.3492 31.2086 50.1775C30.806 50.0058 30.4692 49.7092 30.248 49.3316C30.0268 48.9539 29.9329 48.5151 29.98 48.08C30.0222 47.6775 30.1838 47.2967 30.4439 46.9867C30.7041 46.6766 31.051 46.4514 31.44 46.34Z" fill="#413E43"/>
</g>
<defs>
<clipPath id="clip0_2495_5122">
<rect width="64" height="64" fill="white"/>
</clipPath>
</defs>
</svg>
