<svg width="25" height="25" viewBox="0 0 25 25" fill="none" xmlns="http://www.w3.org/2000/svg">
<path d="M18.3019 0.6875H5.95101C4.42249 0.687804 2.95665 1.29517 1.87584 2.37604C0.795036 3.45692 0.187743 4.9228 0.1875 6.45135V18.8029C0.188047 20.3313 0.795474 21.7969 1.87625 22.8775C2.95703 23.9581 4.42269 24.5653 5.95101 24.5656H18.3019C19.8304 24.5653 21.2963 23.958 22.3771 22.8772C23.458 21.7963 24.0653 20.3304 24.0656 18.8019V6.45135C24.0653 4.92278 23.458 3.4569 22.3771 2.37603C21.2963 1.29516 19.8304 0.687804 18.3019 0.6875ZM22.0072 18.3905C22.0068 19.4823 21.5729 20.5292 20.8009 21.3013C20.0289 22.0733 18.9819 22.5072 17.8901 22.5075H6.36288C5.27109 22.5072 4.22413 22.0733 3.45211 21.3013C2.6801 20.5292 2.24619 19.4823 2.24577 18.3905V6.86299C2.24619 5.7712 2.6801 4.72425 3.45212 3.95225C4.22414 3.18026 5.2711 2.7464 6.36288 2.74604H17.8901C18.9819 2.7464 20.0289 3.18026 20.8009 3.95225C21.5729 4.72425 22.0068 5.7712 22.0072 6.86299V18.3905Z" fill="#D31D16"/>
<path d="M12.135 6.45139C10.9137 6.45139 9.71986 6.81356 8.70438 7.49209C7.68891 8.17063 6.89744 9.13505 6.43006 10.2634C5.96269 11.3918 5.8404 12.6334 6.07867 13.8313C6.31693 15.0291 6.90505 16.1294 7.76864 16.993C8.63223 17.8566 9.73252 18.4448 10.9304 18.683C12.1282 18.9213 13.3698 18.799 14.4981 18.3316C15.6265 17.8643 16.5909 17.0728 17.2694 16.0573C17.9479 15.0418 18.3101 13.8479 18.3101 12.6265C18.3094 10.989 17.6586 9.41874 16.5007 8.26082C15.3428 7.10291 13.7725 6.45209 12.135 6.45139ZM12.135 16.744C11.3208 16.744 10.5248 16.5025 9.84776 16.0501C9.17073 15.5977 8.64305 14.9547 8.33144 14.2024C8.01984 13.4501 7.9383 12.6223 8.09716 11.8237C8.25601 11.0251 8.64812 10.2915 9.22389 9.71568C9.79966 9.13989 10.5332 8.74778 11.3319 8.58892C12.1305 8.43007 12.9583 8.5116 13.7106 8.82321C14.4628 9.13482 15.1058 9.66251 15.5582 10.3396C16.0106 11.0166 16.252 11.8126 16.252 12.6269C16.2503 13.7183 15.8159 14.7644 15.0442 15.5361C14.2725 16.3078 13.2264 16.7422 12.135 16.744Z" fill="#D31D16"/>
<path d="M18.7216 7.27479C18.4773 7.27477 18.2386 7.20232 18.0355 7.0666C17.8324 6.93088 17.6741 6.738 17.5807 6.51233C17.4872 6.28666 17.4628 6.03835 17.5104 5.79879C17.5581 5.55923 17.6757 5.33917 17.8484 5.16646C18.0211 4.99374 18.2412 4.87612 18.4807 4.82846C18.7203 4.78081 18.9686 4.80525 19.1943 4.89872C19.4199 4.99218 19.6128 5.15046 19.7485 5.35354C19.8842 5.55662 19.9567 5.79539 19.9567 6.03964C19.9563 6.36711 19.8261 6.68107 19.5945 6.91262C19.363 7.14418 19.049 7.27442 18.7216 7.27479Z" fill="#D31D16"/>
</svg>
