<svg width="45" height="46" viewBox="0 0 45 46" fill="none" xmlns="http://www.w3.org/2000/svg">
<g clip-path="url(#clip0_7180_106)">
<path d="M24.1109 9.85156C24.0054 10.393 23.5625 10.843 23.0211 10.9414C22.1211 11.1102 21.3547 10.4281 21.3547 9.57734C21.3547 8.80391 21.9734 8.18516 22.7468 8.18516C23.6047 8.18516 24.2797 8.95859 24.1109 9.85156Z" fill="white"/>
<path d="M37.9484 8.48047C37.9484 8.48047 36.5773 7.925 34.707 7.15859C33.9898 6.86328 33.1742 7.20781 32.8859 7.925C32.5976 8.63516 32.9422 9.44375 33.6523 9.73203L36.9148 11.0609C37.6039 11.3352 37.9765 12.1016 37.7023 12.875C37.5054 13.4164 36.957 13.7469 36.3734 13.7469C32.45 13.7469 13.0297 13.7469 9.12731 13.7469C8.55075 13.7469 8.00231 13.4164 7.80544 12.875C7.52419 12.1016 7.90387 11.3352 8.58591 11.0609C8.59294 11.0609 22.2406 5.48516 22.2406 5.48516C22.564 5.35859 22.9437 5.35859 23.2672 5.48516L27.5562 7.23594C28.2664 7.52422 29.082 7.17969 29.3703 6.46953C29.6586 5.75938 29.314 4.95078 28.6039 4.6625C26.2132 3.68516 24.3007 2.90469 24.3007 2.90469C23.8086 2.70781 23.2882 2.60938 22.7539 2.60938C22.2195 2.60938 21.6922 2.70781 21.2 2.90469L7.54528 8.48047C5.73825 9.20469 4.65544 11.068 4.97887 13.0578C5.30231 15.0477 7.29216 16.5383 9.24684 16.5383H36.3945C38.6937 16.5383 40.5711 14.668 40.5711 12.3617C40.5711 10.6461 39.5445 9.12031 37.9484 8.48047Z" fill="white"/>
<path d="M36.2679 34.3836H9.09919C6.48356 34.3836 4.42341 36.8023 5.02809 39.5094C5.457 41.4359 7.26403 42.7437 9.23981 42.7437H36.3945C38.9961 42.7437 41.0632 40.3391 40.4726 37.625C40.0508 35.6984 38.2437 34.3836 36.2679 34.3836ZM36.3945 39.9594H9.09919C8.19215 39.9594 7.47497 39.0734 7.77731 38.1102C7.96012 37.5266 8.54372 37.168 9.14841 37.168C13.1422 37.168 32.3515 37.168 36.3453 37.168C36.957 37.168 37.5406 37.5266 37.7164 38.1102C38.0187 39.0734 37.3015 39.9594 36.3945 39.9594Z" fill="white"/>
<path d="M33.6104 31.7328C34.3838 31.7328 35.0166 31.107 35.0166 30.3406V20.5813C35.0166 19.8148 34.3838 19.1891 33.6104 19.1891C32.8369 19.1891 32.2041 19.8148 32.2041 20.5813V30.3406C32.2041 31.107 32.8369 31.7328 33.6104 31.7328Z" fill="white"/>
<path d="M28.0346 31.7328C28.808 31.7328 29.4408 31.107 29.4408 30.3406V20.5813C29.4408 19.8148 28.808 19.1891 28.0346 19.1891C27.2611 19.1891 26.6283 19.8148 26.6283 20.5813V30.3406C26.6283 31.107 27.2611 31.7328 28.0346 31.7328Z" fill="white"/>
<path d="M11.8838 31.7328C12.6572 31.7328 13.29 31.107 13.29 30.3406V20.5813C13.29 19.8148 12.6572 19.1891 11.8838 19.1891C11.1104 19.1891 10.4775 19.8148 10.4775 20.5813V30.3406C10.4775 31.107 11.1104 31.7328 11.8838 31.7328Z" fill="white"/>
<path d="M17.4525 31.7328C18.226 31.7328 18.8588 31.107 18.8588 30.3406V20.5813C18.8588 19.8148 18.226 19.1891 17.4525 19.1891C16.6791 19.1891 16.0463 19.8148 16.0463 20.5813V30.3406C16.0463 31.107 16.6791 31.7328 17.4525 31.7328Z" fill="white"/>
</g>
<defs>
<clipPath id="clip0_7180_106">
<rect width="45" height="45" fill="white" transform="translate(0 0.5)"/>
</clipPath>
</defs>
</svg>
