<svg width="25" height="25" viewBox="0 0 25 25" fill="none" xmlns="http://www.w3.org/2000/svg">
<path d="M18.8019 0.1875H6.45101C4.92249 0.187804 3.45665 0.79517 2.37584 1.87604C1.29504 2.95692 0.687743 4.4228 0.6875 5.95135V18.3029C0.688047 19.8313 1.29547 21.2969 2.37625 22.3775C3.45703 23.4581 4.92269 24.0653 6.45101 24.0656H18.8019C20.3304 24.0653 21.7963 23.458 22.8771 22.3772C23.958 21.2963 24.5653 19.8304 24.5656 18.3019V5.95135C24.5653 4.42278 23.958 2.9569 22.8771 1.87603C21.7963 0.795163 20.3304 0.187804 18.8019 0.1875ZM22.5072 17.8905C22.5068 18.9823 22.0729 20.0292 21.3009 20.8013C20.5289 21.5733 19.4819 22.0072 18.3901 22.0075H6.86288C5.77109 22.0072 4.72413 21.5733 3.95211 20.8013C3.1801 20.0292 2.74619 18.9823 2.74577 17.8905V6.36299C2.74619 5.2712 3.1801 4.22425 3.95212 3.45225C4.72414 2.68026 5.7711 2.2464 6.86288 2.24604H18.3901C19.4819 2.2464 20.5289 2.68026 21.3009 3.45225C22.0729 4.22425 22.5068 5.2712 22.5072 6.36299V17.8905Z" fill="white"/>
<path d="M12.635 5.95139C11.4137 5.95139 10.2199 6.31356 9.20438 6.99209C8.18891 7.67063 7.39744 8.63505 6.93006 9.76342C6.46269 10.8918 6.3404 12.1334 6.57867 13.3313C6.81693 14.5291 7.40505 15.6294 8.26864 16.493C9.13223 17.3566 10.2325 17.9448 11.4304 18.183C12.6282 18.4213 13.8698 18.299 14.9981 17.8316C16.1265 17.3643 17.0909 16.5728 17.7694 15.5573C18.4479 14.5418 18.8101 13.3479 18.8101 12.1265C18.8094 10.489 18.1586 8.91874 17.0007 7.76082C15.8428 6.60291 14.2725 5.95209 12.635 5.95139ZM12.635 16.244C11.8208 16.244 11.0248 16.0025 10.3478 15.5501C9.67073 15.0977 9.14305 14.4547 8.83144 13.7024C8.51984 12.9501 8.4383 12.1223 8.59716 11.3237C8.75601 10.5251 9.14812 9.79146 9.72389 9.21568C10.2997 8.63989 11.0332 8.24778 11.8319 8.08892C12.6305 7.93007 13.4583 8.0116 14.2106 8.32321C14.9628 8.63482 15.6058 9.16251 16.0582 9.83956C16.5106 10.5166 16.752 11.3126 16.752 12.1269C16.7503 13.2183 16.3159 14.2644 15.5442 15.0361C14.7725 15.8078 13.7264 16.2422 12.635 16.244Z" fill="white"/>
<path d="M19.2216 6.77479C18.9773 6.77477 18.7386 6.70232 18.5355 6.5666C18.3324 6.43088 18.1741 6.238 18.0807 6.01233C17.9872 5.78666 17.9628 5.53835 18.0104 5.29879C18.0581 5.05923 18.1757 4.83917 18.3484 4.66646C18.5211 4.49374 18.7412 4.37612 18.9807 4.32846C19.2203 4.28081 19.4686 4.30525 19.6943 4.39872C19.9199 4.49218 20.1128 4.65046 20.2485 4.85354C20.3842 5.05662 20.4567 5.29539 20.4567 5.53964C20.4563 5.86711 20.3261 6.18107 20.0945 6.41262C19.863 6.64418 19.549 6.77442 19.2216 6.77479Z" fill="white"/>
</svg>
