<svg width="64" height="64" viewBox="0 0 64 64" fill="none" xmlns="http://www.w3.org/2000/svg">
<g clip-path="url(#clip0_5063_1856)">
<path d="M15.9771 29.8481V33.0115H12.9055V50.8338H9.74219V31.4413C9.74219 31.2464 9.74219 31.0401 9.74219 30.8453C9.74219 30.6504 9.93703 30.5473 10.1433 30.3524C10.3382 30.1576 10.4413 29.9513 10.6362 29.9513C10.831 29.9513 11.0373 29.9513 11.2322 29.9513H15.8855L15.9771 29.8481Z" fill="#D31D16"/>
<path d="M54.8538 31.4413V50.8338H50.7965V33.5158H47.6332V29.4585H52.7793C53.2721 29.4585 53.8681 29.7564 54.1661 30.0544C54.659 30.3524 54.7621 30.9484 54.7621 31.4413H54.8538Z" fill="#D31D16"/>
<path d="M31.8165 26.8453C30.5329 26.8453 29.4441 25.7564 29.4441 24.4728C29.4441 23.1891 30.5329 22.1003 31.8165 22.1003C33.1002 22.1003 34.189 23.1891 34.189 24.4728C34.189 25.7564 33.1002 26.8453 31.8165 26.8453ZM31.8165 19.2235C28.9512 19.2235 26.5673 21.596 26.5673 24.4728C26.5673 27.3381 28.9398 29.7221 31.8165 29.7221C34.6819 29.7221 37.0658 27.3496 37.0658 24.4728C37.0658 21.6074 34.6933 19.2235 31.8165 19.2235Z" fill="#413E43"/>
<path d="M58.0286 50.8338H48.0344V44.702C48.0344 44.2092 47.8395 43.6132 47.4384 43.3152C46.6476 42.5244 45.3639 42.5244 44.5731 43.3152C44.1719 43.7163 43.9771 44.2092 43.9771 44.702V50.8338H37.5473V37.9284C37.5473 37.6304 37.5473 37.4355 37.3524 37.1375C37.3524 36.8395 37.0544 36.7364 36.9513 36.4499C36.7564 36.255 36.4585 36.1519 36.2636 36.0487C35.9656 36.0487 35.7708 35.8539 35.4728 35.8539H28.5501C28.2521 35.8539 28.0573 35.8539 27.7593 36.0487C27.4613 36.0487 27.3582 36.3467 27.0716 36.4499C26.8768 36.6447 26.7736 36.9427 26.6705 37.1375C26.6705 37.4355 26.4756 37.6304 26.4756 37.9284V50.8338H20.0458V19.0287L31.9198 13.0917L43.7937 19.0287V35.1777C43.7937 35.6705 43.9885 36.2665 44.3897 36.5645C45.1805 37.3553 46.4642 37.3553 47.255 36.5645C47.6562 36.1633 47.851 35.6705 47.851 35.1777V17.6418C47.851 17.3438 47.851 16.851 47.553 16.553C47.3582 16.255 47.0602 15.957 46.7622 15.7622L32.1834 9L17.1576 15.8653C16.8596 16.0602 16.5616 16.3582 16.3668 16.6562C16.1719 17.0573 16.0688 17.3438 16.0688 17.745V50.8338H5.98281C4.89398 50.8338 4 51.7163 4 52.8052C4 53.894 4.89398 54.788 5.98281 54.788H58.0286C59.1175 54.788 60.0115 53.894 60.0115 52.8052C60 51.7163 59.1175 50.8338 58.0286 50.8338ZM33.3868 50.8338H30.5215V40.0143H33.3868V50.8338Z" fill="#413E43"/>
</g>
<defs>
<clipPath id="clip0_5063_1856">
<rect width="56" height="45.788" fill="white" transform="translate(4 9)"/>
</clipPath>
</defs>
</svg>
