<svg width="41" height="41" viewBox="0 0 41 41" fill="none" xmlns="http://www.w3.org/2000/svg">
<path d="M40.1706 18.5559C40.7012 16.4445 40.5332 14.2179 39.6917 12.2101C38.8671 10.1974 37.4132 8.5056 35.5474 7.3877C36.1158 9.58724 36.0131 11.9065 35.2524 14.0472C37.3058 15.0262 39.0185 16.5982 40.1695 18.5603" fill="#FFD325"/>
<path d="M33.9063 33.9461C34.7643 31.7146 34.8103 29.2524 34.0362 26.9905C31.8216 27.7631 29.4232 27.8369 27.1653 27.2018C27.8042 29.4594 27.7293 31.8594 26.9507 34.0727C29.2123 34.8479 31.6744 34.8031 33.9063 33.9461Z" fill="#FF6A00"/>
<path d="M20.2298 30.0605C19.0859 32.112 17.3358 33.7598 15.2192 34.7783C16.2688 36.9275 18.0421 38.638 20.2276 39.6095C22.4135 38.6393 24.1873 36.9294 25.2371 34.7805C23.1213 33.7611 21.3724 32.1125 20.2298 30.0605Z" fill="#FF6A00"/>
<path d="M13.304 27.1888C11.0441 27.8252 8.6433 27.7534 6.42546 26.9829C5.64802 29.2447 5.69167 31.7079 6.54874 33.9407C8.7812 34.8003 11.2452 34.8455 13.5077 34.0684C12.7313 31.8512 12.6602 29.448 13.304 27.1888Z" fill="#FF6A00"/>
<path d="M13.5141 6.45697C11.253 5.67524 8.78806 5.7193 6.5563 6.58135C5.69732 8.81354 5.65212 11.277 6.42861 13.5392C8.64167 12.7608 11.0414 12.6866 13.2984 13.3267C12.6608 11.069 12.7377 8.66924 13.5185 6.45697" fill="#FF6A00"/>
<path d="M20.2474 0.919922C18.0592 1.89026 16.2822 3.59979 15.228 5.7489C17.343 6.76387 19.092 8.40837 20.2353 10.4568C21.3794 8.40778 23.1297 6.76319 25.2459 5.7489C24.1984 3.6023 22.4289 1.89279 20.2474 0.919922Z" fill="#FF6A00"/>
<path d="M34.0397 13.5466C34.8171 11.286 34.7735 8.82377 33.9164 6.59211C31.6854 5.73417 29.2237 5.6878 26.9619 6.46112C27.7403 8.67418 27.8145 11.0739 27.1744 13.3309C29.4322 12.6938 31.8317 12.7707 34.0441 13.551" fill="#FF6A00"/>
<path d="M5.71728 15.251C3.56897 16.3013 1.85899 18.0744 0.887207 20.2594C1.8591 22.4445 3.56901 24.218 5.71728 25.2689C6.73611 23.1553 8.38257 21.4077 10.4318 20.2649C8.38012 19.1206 6.73318 17.3691 5.71728 15.251Z" fill="#FF6A00"/>
<path d="M34.7487 15.2585C33.7326 17.3757 32.0856 19.1261 30.0342 20.2691C32.083 21.4133 33.7287 23.162 34.7465 25.2764C36.8956 24.227 38.6064 22.4542 39.5788 20.2691C38.6075 18.0833 36.8974 16.3093 34.7487 15.2585Z" fill="#FF6A00"/>
<path d="M28.2959 0.809359C26.288 -0.0242057 24.0657 -0.191652 21.9556 0.331635C23.913 1.48371 25.4806 3.1955 26.4565 5.24647C28.6017 4.489 30.9245 4.39086 33.1259 4.96468C32.0084 3.09303 30.3134 1.63481 28.2959 0.809359Z" fill="#FFD325"/>
<path d="M7.35107 4.95057C9.55168 4.37959 11.8729 4.48158 14.015 5.24337C14.9962 3.19143 16.5687 1.47982 18.5303 0.328538C16.4174 -0.19437 14.1927 -0.0277469 12.1814 0.80405C10.17 1.63585 8.47743 3.0881 7.35107 4.95057Z" fill="#FFD325"/>
<path d="M4.92388 7.37501C3.06157 8.49986 1.60815 10.1912 0.77628 12.2016C-0.0555877 14.2119 -0.222226 16.4357 0.300747 18.5476C1.45182 16.5868 3.16306 15.0151 5.21448 14.0345C4.45505 11.8919 4.35422 9.57102 4.92498 7.37061" fill="#FFD325"/>
<path d="M5.21096 26.4816C3.16013 25.501 1.4496 23.9293 0.299432 21.9685C-0.224233 24.0807 -0.057937 26.3051 0.773972 28.3159C1.60588 30.3267 3.0597 32.0184 4.92257 33.1433C4.35178 30.9427 4.45377 28.6215 5.21537 26.4794" fill="#FFD325"/>
<path d="M7.34326 35.5721C8.46806 37.4342 10.1588 38.8878 12.1684 39.7208C14.1781 40.5537 16.4014 40.7222 18.5136 40.2018C16.554 39.0496 14.9847 37.3365 14.0083 35.2837C11.8648 36.0406 9.54432 36.1402 7.34326 35.5721Z" fill="#FFD325"/>
<path d="M21.9404 40.2019C24.0531 40.7244 26.2776 40.5567 28.2881 39.7234C30.2985 38.8901 31.9894 37.4349 33.113 35.5711C30.9125 36.1389 28.5928 36.0393 26.4491 35.2849C25.4701 37.3382 23.8981 39.051 21.936 40.2019" fill="#FFD325"/>
<path d="M39.6876 28.3292C40.53 26.3217 40.6992 24.0952 40.1697 21.9834C39.0168 23.9431 37.3035 25.5127 35.2505 26.4899C36.007 28.6329 36.1055 30.9532 35.5334 33.1527C37.4033 32.0364 38.8609 30.3439 39.6876 28.3292Z" fill="#FFD325"/>
<path d="M25.7512 6.95898C23.6524 7.99473 21.975 9.72237 21.0015 11.8507C22.709 12.0017 24.3288 12.6742 25.6411 13.777C26.4614 11.5847 26.5003 9.17659 25.7512 6.95898Z" fill="#DB2422"/>
<path d="M14.7257 6.95898C13.9742 9.17565 14.01 11.5836 14.827 13.777C16.1425 12.674 17.7661 12.0033 19.4765 11.8562C18.5035 9.72584 16.8255 7.9962 14.7257 6.95898Z" fill="#DB2422"/>
<path d="M11.8252 19.5027C11.9748 17.7926 12.6478 16.1702 13.7526 14.8564C11.5608 14.0334 9.15175 13.9945 6.93457 14.7463C7.97039 16.8457 9.69846 18.5236 11.8274 19.4972" fill="#DB2422"/>
<path d="M6.92822 25.7708C9.14345 26.521 11.5494 26.486 13.7418 25.6718C12.6413 24.3577 11.9722 22.7366 11.8254 21.0288C9.69693 22.0002 7.96766 23.6747 6.92822 25.7708Z" fill="#DB2422"/>
<path d="M14.7195 33.5643C16.8145 32.5279 18.4895 30.8028 19.4637 28.6781C17.756 28.5286 16.1359 27.8563 14.824 26.7529C14.0083 28.9441 13.9713 31.3492 14.7195 33.5643Z" fill="#DB2422"/>
<path d="M20.9971 28.6791C21.97 30.8041 23.6444 32.5298 25.7391 33.5664C26.4892 31.3532 26.455 28.9493 25.6422 26.7583C24.3279 27.8605 22.706 28.5311 20.9971 28.6791Z" fill="#DB2422"/>
<path d="M28.6472 21.0332C28.4985 22.7422 27.8266 24.3638 26.7231 25.6773C28.9137 26.4911 31.3177 26.5265 33.5313 25.7774C32.4957 23.6826 30.7713 22.0075 28.6472 21.0332Z" fill="#DB2422"/>
<path d="M26.7217 14.8558C27.8248 16.1704 28.4969 17.7925 28.6469 19.502C30.7728 18.5288 32.4987 16.853 33.5342 14.7567C31.3199 14.0029 28.9131 14.0379 26.7217 14.8558Z" fill="#DB2422"/>
<path d="M20.2363 13.156C18.8299 13.156 17.4551 13.573 16.2858 14.3544C15.1164 15.1357 14.205 16.2463 13.6668 17.5456C13.1286 18.845 12.9878 20.2747 13.2621 21.6541C13.5365 23.0334 14.2137 24.3005 15.2082 25.2949C16.2027 26.2894 17.4697 26.9666 18.8491 27.241C20.2284 27.5154 21.6582 27.3746 22.9575 26.8364C24.2568 26.2982 25.3674 25.3868 26.1487 24.2174C26.9301 23.048 27.3471 21.6732 27.3471 20.2668C27.3451 18.3815 26.5953 16.5741 25.2622 15.241C23.9291 13.9079 22.1216 13.158 20.2363 13.156Z" fill="#DB2422"/>
</svg>
