<svg width="109" height="40" viewBox="0 0 109 40" fill="none" xmlns="http://www.w3.org/2000/svg">
<path d="M30.2594 34.8253C29.6596 34.8253 29.1759 34.3696 29.1759 33.8046V14.99C29.1759 12.5339 28.344 9.95484 26.8929 7.91799C26.5591 7.44865 26.6946 6.81528 27.1879 6.50543C27.6861 6.19101 28.3584 6.31859 28.6874 6.78338C30.3948 9.18476 31.3331 12.1011 31.3331 14.9946V33.8092C31.3428 34.3651 30.8591 34.8253 30.2594 34.8253Z" fill="#413E43"/>
<path d="M23.3575 34.1736C21.4905 34.1736 19.9717 32.7428 19.9717 30.9839V20.5855C19.9717 20.0205 20.4554 19.5648 21.0551 19.5648C21.6549 19.5648 22.1387 20.0205 22.1387 20.5855V30.9839C22.1387 31.6173 22.6852 32.1322 23.3575 32.1322C24.0299 32.1322 24.5764 31.6173 24.5764 30.9839V26.3497C24.5764 25.7847 25.0601 25.329 25.6599 25.329C26.2597 25.329 26.7434 25.7847 26.7434 26.3497V30.9839C26.7434 32.7473 25.2246 34.1736 23.3575 34.1736Z" fill="#413E43"/>
<path d="M25.1133 5.66686C24.8666 5.66686 24.62 5.58939 24.4217 5.4299C23.0625 4.35908 21.3212 3.49331 19.5219 2.99663C18.9463 2.83714 18.6174 2.27211 18.7867 1.72986C18.9559 1.18762 19.5557 0.877767 20.1313 1.03725C22.2112 1.6114 24.2282 2.61386 25.8147 3.8624C26.2742 4.22238 26.3323 4.86487 25.9502 5.29775C25.7325 5.54382 25.4229 5.66686 25.1133 5.66686Z" fill="#413E43"/>
<path d="M6.6748 5.88147C6.36524 5.88147 6.05569 5.75843 5.84287 5.51693C5.46075 5.08404 5.51881 4.44155 5.97832 4.08157C8.87079 1.80778 12.5082 0.5 15.952 0.5C16.5518 0.5 17.0355 0.955679 17.0355 1.52071C17.0355 2.08574 16.5518 2.54141 15.952 2.54141C13.0015 2.54141 9.87203 3.67603 7.36167 5.64908C7.16335 5.80401 6.91665 5.88147 6.6748 5.88147Z" fill="#413E43"/>
<path d="M1.64938 16.4853C1.0496 16.4853 0.565918 16.0296 0.565918 15.4646V14.9907C0.565918 12.1108 1.46558 9.3267 3.16334 6.93899C3.49709 6.46965 4.16946 6.34663 4.66283 6.66104C5.16103 6.97545 5.29162 7.60883 4.95787 8.07362C3.49713 10.1241 2.72806 12.5164 2.72806 14.9861V15.46C2.7329 16.0296 2.24916 16.4853 1.64938 16.4853Z" fill="#413E43"/>
<path d="M1.64889 39.5C1.04912 39.5 0.56543 39.0443 0.56543 38.4793V24.7318C0.56543 24.1667 1.04912 23.7111 1.64889 23.7111C2.24867 23.7111 2.73242 24.1667 2.73242 24.7318V38.4793C2.73242 39.0443 2.24867 39.5 1.64889 39.5Z" fill="#FF8300"/>
<path d="M6.25387 37.7368C5.6541 37.7368 5.17041 37.2811 5.17041 36.7161V27.9034C5.17041 27.3384 5.6541 26.8827 6.25387 26.8827C6.85365 26.8827 7.33734 27.3384 7.33734 27.9034V36.7161C7.33734 37.2811 6.84881 37.7368 6.25387 37.7368Z" fill="#FF8300"/>
<path d="M25.6593 22.8553C25.0596 22.8553 24.5759 22.3996 24.5759 21.8346V14.9904C24.5759 10.5112 20.7112 6.87039 15.9565 6.87039C15.3567 6.87039 14.873 6.41472 14.873 5.84969C14.873 5.28466 15.3567 4.82898 15.9565 4.82898C21.9011 4.82898 26.7428 9.38569 26.7428 14.9904V21.8346C26.738 22.3996 26.2543 22.8553 25.6593 22.8553Z" fill="#413E43"/>
<path d="M6.25387 19.6691C5.6541 19.6691 5.17041 19.2134 5.17041 18.6484V14.9894C5.17041 10.9521 7.80656 7.15641 11.7341 5.54334C12.2807 5.32006 12.9192 5.55245 13.161 6.07192C13.398 6.58682 13.1513 7.18831 12.5999 7.41615C9.45107 8.71025 7.3325 11.7587 7.3325 14.9939V18.653C7.33733 19.2134 6.84882 19.6691 6.25387 19.6691Z" fill="#413E43"/>
<path d="M10.854 21.3647C10.2542 21.3647 9.77051 20.909 9.77051 20.344V15.1585C9.77051 12.0098 12.3002 9.38058 15.5313 9.17553C17.2581 9.06617 18.9074 9.62209 20.1747 10.7339C21.4226 11.8321 22.1385 13.3814 22.1385 14.9853V16.1518C22.1385 16.7169 21.6548 17.1725 21.055 17.1725C20.4552 17.1725 19.9715 16.7169 19.9715 16.1518V14.9853C19.9715 13.9282 19.5169 12.9485 18.6947 12.2194C17.8724 11.4949 16.7985 11.1349 15.6764 11.2078C13.5771 11.34 11.9326 13.0715 11.9326 15.1539V20.3394C11.9374 20.909 11.4537 21.3647 10.854 21.3647Z" fill="#413E43"/>
<path d="M10.854 35.4812C10.2542 35.4812 9.77051 35.0255 9.77051 34.4605V29.7078C9.77051 29.1428 10.2542 28.6871 10.854 28.6871C11.4537 28.6871 11.9374 29.1428 11.9374 29.7078V34.4605C11.9374 35.0255 11.4537 35.4812 10.854 35.4812Z" fill="#FF8300"/>
<path d="M9.15625 25.4255C9.15625 24.5415 9.91566 23.8215 10.8589 23.8215C11.7972 23.8215 12.5615 24.5369 12.5615 25.4255C12.5615 26.3095 11.8021 27.0294 10.8589 27.0294C9.91566 27.0294 9.15625 26.3095 9.15625 25.4255Z" fill="#FF8300"/>
<path d="M4.52246 23.6932C4.52246 22.8092 5.28187 22.0892 6.22506 22.0892C7.16826 22.0892 7.92767 22.8046 7.92767 23.6932C7.92767 24.5772 7.16826 25.2971 6.22506 25.2971C5.28187 25.2971 4.52246 24.5817 4.52246 23.6932Z" fill="#FF8300"/>
<path d="M0 20.4897C0 19.6057 0.759405 18.8857 1.7026 18.8857C2.64097 18.8857 3.40515 19.6012 3.40515 20.4897C3.40515 21.3737 2.6458 22.0936 1.7026 22.0936C0.759405 22.0936 0 21.3737 0 20.4897Z" fill="#FF8300"/>
<path d="M15.938 30.6658C15.3382 30.6658 14.8545 30.2101 14.8545 29.6451V16.1846C14.8545 15.6196 15.3382 15.1639 15.938 15.1639C16.5377 15.1639 17.0214 15.6196 17.0214 16.1846V29.6451C17.0214 30.2101 16.5329 30.6658 15.938 30.6658Z" fill="#413E43"/>
<path d="M44.1607 19.8559C42.5694 19.8559 41.3601 19.4412 40.5282 18.6073C39.6962 17.7735 39.2803 16.5933 39.2803 15.0577C39.2803 14.2967 39.4061 13.6132 39.6624 13.0163C39.9188 12.4193 40.2621 11.9135 40.7071 11.4989C41.1473 11.0888 41.6745 10.7744 42.2888 10.5602C42.8983 10.346 43.5658 10.2412 44.2768 10.2412C44.6928 10.2412 45.0652 10.2686 45.4038 10.3278C45.7424 10.387 46.0374 10.4508 46.2938 10.5283C46.5502 10.6058 46.7582 10.6832 46.9275 10.7607C47.0968 10.8427 47.2176 10.902 47.295 10.9475L46.6614 12.6244C46.3615 12.474 46.0084 12.3464 45.6118 12.2371C45.2103 12.1323 44.7557 12.0776 44.2478 12.0776C43.9092 12.0776 43.5754 12.1323 43.2514 12.2371C42.9273 12.3419 42.642 12.515 42.3904 12.7474C42.1389 12.9844 41.9406 13.2851 41.7907 13.6588C41.6407 14.0324 41.5633 14.4835 41.5633 15.0167C41.5633 15.4404 41.6117 15.8369 41.7133 16.2059C41.81 16.575 41.9696 16.8895 42.1921 17.1583C42.4146 17.4226 42.7 17.6368 43.0579 17.7917C43.4159 17.9466 43.8463 18.0241 44.3542 18.0241C44.6734 18.0241 44.9588 18.0059 45.2152 17.9694C45.4715 17.933 45.694 17.8919 45.8924 17.8418C46.0907 17.7917 46.2648 17.737 46.4147 17.6778C46.5647 17.614 46.7001 17.5593 46.8259 17.5046L47.4305 19.1678C47.1209 19.3455 46.6808 19.505 46.1197 19.6463C45.5586 19.783 44.9056 19.8559 44.1607 19.8559Z" fill="#413E43"/>
<path d="M51.0047 10.6556C51.0047 11.0201 50.8789 11.3026 50.6322 11.5122C50.3807 11.7218 50.0905 11.8266 49.752 11.8266C49.4134 11.8266 49.1183 11.7218 48.8716 11.5122C48.6201 11.3026 48.4992 11.0201 48.4992 10.6556C48.4992 10.291 48.6249 10.0085 48.8716 9.79889C49.1231 9.58928 49.4134 9.48448 49.752 9.48448C50.0905 9.48448 50.3856 9.58928 50.6322 9.79889C50.8789 10.0085 51.0047 10.2956 51.0047 10.6556ZM50.8064 19.6687H48.7023V12.6787H50.8064V19.6687Z" fill="#413E43"/>
<path d="M59.1162 19.432C58.7583 19.5277 58.2988 19.6189 57.7329 19.7055C57.1669 19.7875 56.5768 19.833 55.9528 19.833C55.324 19.833 54.7968 19.751 54.3808 19.5915C53.96 19.4321 53.6312 19.2088 53.3845 18.9217C53.1378 18.6346 52.9636 18.2883 52.862 17.8919C52.7605 17.4909 52.7073 17.0534 52.7073 16.575V12.679H54.8113V16.3335C54.8113 16.9714 54.8984 17.4316 55.0774 17.7142C55.2564 17.9967 55.5901 18.1379 56.0786 18.1379C56.2286 18.1379 56.3882 18.1334 56.5575 18.1197C56.7268 18.106 56.8767 18.0924 57.0073 18.0741V12.679H59.1114V19.432H59.1162Z" fill="#413E43"/>
<path d="M67.6391 19.4457C67.4505 19.5004 67.2328 19.5505 66.991 19.6006C66.7443 19.6508 66.4879 19.6918 66.2219 19.7282C65.9558 19.7647 65.6802 19.792 65.4044 19.8148C65.1287 19.8376 64.8627 19.8467 64.6063 19.8467C63.9969 19.8467 63.4503 19.7647 62.9715 19.5961C62.4926 19.4275 62.0863 19.186 61.7574 18.8716C61.4285 18.5572 61.177 18.1744 61.0029 17.7278C60.8287 17.2813 60.7417 16.7755 60.7417 16.2196C60.7417 15.6545 60.819 15.1396 60.969 14.684C61.1189 14.2283 61.3366 13.841 61.6172 13.522C61.8977 13.203 62.2459 12.9615 62.6522 12.7929C63.0633 12.6243 63.5277 12.5423 64.0549 12.5423C64.3451 12.5423 64.6063 12.5697 64.8385 12.6243C65.0707 12.679 65.3029 12.7519 65.5351 12.8522V9.68982L67.6391 9.37085V19.4457ZM62.8844 16.1193C62.8844 16.7299 63.0295 17.2221 63.3197 17.5957C63.6099 17.9693 64.0453 18.1562 64.616 18.1562C64.8047 18.1562 64.9788 18.1516 65.1384 18.1379C65.298 18.1243 65.4286 18.1106 65.5351 18.0924V14.488C65.4045 14.4106 65.2303 14.3422 65.0223 14.2875C64.8095 14.2329 64.5967 14.2101 64.379 14.2101C63.3826 14.2055 62.8844 14.8434 62.8844 16.1193Z" fill="#413E43"/>
<path d="M72.2823 12.4922C72.9014 12.4922 73.419 12.5605 73.835 12.6927C74.2509 12.8248 74.5798 13.0162 74.8313 13.2623C75.0829 13.5083 75.257 13.8136 75.3585 14.1645C75.4601 14.5199 75.5134 14.9118 75.5134 15.3492V19.4685C75.2135 19.5323 74.7927 19.6052 74.2558 19.6872C73.7189 19.7692 73.0707 19.8148 72.3065 19.8148C71.8276 19.8148 71.3923 19.7738 71.0005 19.6963C70.6087 19.6143 70.275 19.4867 69.9896 19.3045C69.709 19.1222 69.4914 18.8852 69.3415 18.5936C69.1915 18.302 69.1141 17.942 69.1141 17.5182C69.1141 17.1127 69.2012 16.7664 69.3753 16.4793C69.5494 16.1968 69.7816 15.9689 70.0718 15.8004C70.362 15.6318 70.6958 15.5087 71.073 15.4358C71.4503 15.3583 71.8373 15.3219 72.2436 15.3219C72.5145 15.3219 72.7563 15.331 72.9691 15.3538C73.182 15.3766 73.3512 15.4039 73.4818 15.4404V15.2535C73.4818 14.9163 73.3754 14.6475 73.1578 14.4425C72.9401 14.2374 72.5676 14.1372 72.0307 14.1372C71.6728 14.1372 71.3197 14.1599 70.9715 14.2101C70.6232 14.2602 70.3233 14.3285 70.067 14.4151L69.8009 12.8203C69.9219 12.7838 70.0767 12.7474 70.2605 12.7063C70.4443 12.6653 70.6426 12.6335 70.8603 12.6016C71.0779 12.5697 71.3052 12.5423 71.5422 12.5195C71.7937 12.5013 72.0356 12.4922 72.2823 12.4922ZM72.4516 18.2883C72.6595 18.2883 72.8579 18.2837 73.0465 18.2746C73.2352 18.2655 73.3851 18.2519 73.4963 18.2336V16.7299C73.4141 16.7117 73.2835 16.6935 73.1142 16.6752C72.9449 16.657 72.7902 16.6479 72.6499 16.6479C72.4516 16.6479 72.2678 16.657 72.0936 16.6798C71.9195 16.7026 71.7647 16.7436 71.6341 16.8074C71.5035 16.8712 71.3971 16.9532 71.3246 17.058C71.2472 17.1628 71.2133 17.2995 71.2133 17.459C71.2133 17.7688 71.3246 17.983 71.5471 18.1015C71.7599 18.2291 72.0646 18.2883 72.4516 18.2883Z" fill="#413E43"/>
<path d="M83.9639 19.4457C83.7753 19.5004 83.5576 19.5505 83.3158 19.6006C83.0691 19.6508 82.8127 19.6918 82.5467 19.7282C82.2807 19.7647 82.005 19.792 81.7293 19.8148C81.4536 19.8376 81.1875 19.8467 80.9312 19.8467C80.3217 19.8467 79.7751 19.7647 79.2963 19.5961C78.8174 19.4275 78.4111 19.186 78.0822 18.8716C77.7533 18.5572 77.5018 18.1744 77.3277 17.7278C77.1536 17.2813 77.0665 16.7755 77.0665 16.2196C77.0665 15.6545 77.1439 15.1396 77.2938 14.684C77.4437 14.2283 77.6614 13.841 77.942 13.522C78.2225 13.203 78.5707 12.9615 78.977 12.7929C79.3882 12.6243 79.8525 12.5423 80.3797 12.5423C80.67 12.5423 80.9312 12.5697 81.1633 12.6243C81.3955 12.679 81.6277 12.7519 81.8599 12.8522V9.68982L83.9639 9.37085V19.4457ZM79.2093 16.1193C79.2093 16.7299 79.3543 17.2221 79.6445 17.5957C79.9347 17.9693 80.3701 18.1562 80.9408 18.1562C81.1295 18.1562 81.3036 18.1516 81.4632 18.1379C81.6228 18.1243 81.7535 18.1106 81.8599 18.0924V14.488C81.7293 14.4106 81.5551 14.3422 81.3471 14.2875C81.1343 14.2329 80.9215 14.2101 80.7038 14.2101C79.7074 14.2055 79.2093 14.8434 79.2093 16.1193Z" fill="#413E43"/>
<path d="M88.6069 12.4922C89.226 12.4922 89.7436 12.5605 90.1595 12.6927C90.5755 12.8248 90.9044 13.0162 91.1559 13.2623C91.4074 13.5083 91.5816 13.8136 91.6831 14.1645C91.7847 14.5199 91.8379 14.9118 91.8379 15.3492V19.4685C91.5381 19.5323 91.1173 19.6052 90.5804 19.6872C90.0435 19.7692 89.3953 19.8148 88.6311 19.8148C88.1522 19.8148 87.7169 19.7738 87.3251 19.6963C86.9333 19.6143 86.5995 19.4867 86.3142 19.3045C86.0336 19.1222 85.816 18.8852 85.666 18.5936C85.5161 18.302 85.4387 17.942 85.4387 17.5182C85.4387 17.1127 85.5257 16.7664 85.6999 16.4793C85.874 16.1968 86.1062 15.9689 86.3964 15.8004C86.6866 15.6318 87.0203 15.5087 87.3976 15.4358C87.7749 15.3583 88.1619 15.3219 88.5682 15.3219C88.8391 15.3219 89.0809 15.331 89.2937 15.3538C89.5065 15.3766 89.6758 15.4039 89.8064 15.4404V15.2535C89.8064 14.9163 89.7 14.6475 89.4824 14.4425C89.2647 14.2374 88.8874 14.1372 88.3553 14.1372C87.9974 14.1372 87.6443 14.1599 87.2961 14.2101C86.9478 14.2602 86.6479 14.3285 86.3916 14.4151L86.1255 12.8203C86.2464 12.7838 86.4013 12.7474 86.5851 12.7063C86.7689 12.6653 86.9672 12.6335 87.1848 12.6016C87.4025 12.5697 87.6298 12.5423 87.8668 12.5195C88.1231 12.5013 88.365 12.4922 88.6069 12.4922ZM88.7761 18.2883C88.9841 18.2883 89.1825 18.2837 89.3711 18.2746C89.5598 18.2655 89.7097 18.2519 89.8209 18.2336V16.7299C89.7387 16.7117 89.6081 16.6935 89.4388 16.6752C89.2695 16.657 89.1147 16.6479 88.9745 16.6479C88.7762 16.6479 88.5923 16.657 88.4182 16.6798C88.2441 16.7026 88.0893 16.7436 87.9587 16.8074C87.8281 16.8712 87.7217 16.9532 87.6492 17.058C87.5718 17.1628 87.5379 17.2995 87.5379 17.459C87.5379 17.7688 87.6491 17.983 87.8716 18.1015C88.0893 18.2291 88.3892 18.2883 88.7761 18.2883Z" fill="#413E43"/>
<path d="M93.7437 12.9161C94.1017 12.8204 94.5612 12.7293 95.1271 12.6427C95.693 12.5607 96.2831 12.5151 96.9071 12.5151C97.5359 12.5151 98.0631 12.5925 98.4791 12.7475C98.8999 12.9024 99.2288 13.1211 99.4755 13.4036C99.7221 13.6862 99.8963 14.0233 99.9979 14.4152C100.099 14.8071 100.153 15.24 100.153 15.7184V19.6646H98.0486V15.9554C98.0486 15.3175 97.9567 14.8663 97.7825 14.5975C97.6036 14.3332 97.2698 14.1965 96.7813 14.1965C96.6314 14.1965 96.4718 14.2011 96.3025 14.2147C96.1332 14.2284 95.9832 14.2421 95.8526 14.2603V19.6554H93.7486V12.9161H93.7437Z" fill="#413E43"/>
<path d="M109 16.1603C109 16.7117 108.913 17.2129 108.743 17.6686C108.574 18.1243 108.327 18.5161 108.008 18.8397C107.689 19.1632 107.307 19.4138 106.857 19.5915C106.412 19.7692 105.909 19.8558 105.353 19.8558C104.806 19.8558 104.313 19.7692 103.863 19.5915C103.418 19.4138 103.031 19.1632 102.712 18.8397C102.392 18.5161 102.141 18.1243 101.962 17.6686C101.783 17.2129 101.696 16.7071 101.696 16.1603C101.696 15.609 101.788 15.1123 101.972 14.6566C102.155 14.2055 102.407 13.8182 102.736 13.4992C103.06 13.1802 103.447 12.9342 103.892 12.7565C104.337 12.5788 104.825 12.4922 105.353 12.4922C105.89 12.4922 106.378 12.5788 106.828 12.7565C107.273 12.9342 107.66 13.1802 107.979 13.4992C108.298 13.8182 108.55 14.2055 108.729 14.6566C108.908 15.1123 109 15.609 109 16.1603ZM106.852 16.1603C106.852 15.5497 106.722 15.0667 106.465 14.7159C106.204 14.365 105.836 14.1918 105.357 14.1918C104.879 14.1918 104.506 14.365 104.245 14.7159C103.984 15.0667 103.848 15.5452 103.848 16.1603C103.848 16.7709 103.979 17.2585 104.245 17.6139C104.506 17.9739 104.879 18.1516 105.357 18.1516C105.836 18.1516 106.204 17.9739 106.465 17.6139C106.722 17.2585 106.852 16.7709 106.852 16.1603Z" fill="#413E43"/>
<path d="M45.0362 27.6714C45.0362 28.2547 44.9395 28.765 44.7412 29.1979C44.5477 29.6308 44.272 29.9953 43.9189 30.2824C43.5658 30.574 43.145 30.7882 42.6564 30.934C42.1679 31.0798 41.631 31.1527 41.0458 31.1527C40.7507 31.1527 40.446 31.1391 40.1267 31.1072C39.8075 31.0798 39.5221 31.0343 39.2803 30.975V24.386C39.5221 24.3222 39.8075 24.2721 40.1267 24.2448C40.446 24.2174 40.7555 24.1992 41.0458 24.1992C41.631 24.1992 42.1679 24.2721 42.6564 24.4179C43.145 24.5637 43.5658 24.7779 43.9189 25.0695C44.272 25.3612 44.5477 25.7211 44.7412 26.154C44.9395 26.5869 45.0362 27.0927 45.0362 27.6714ZM39.9913 30.5011C40.0348 30.5057 40.1412 30.5194 40.3105 30.5421C40.4798 30.5604 40.7555 30.574 41.1328 30.574C41.6552 30.574 42.1147 30.5057 42.5065 30.3735C42.8983 30.2368 43.2272 30.0454 43.4884 29.7948C43.7544 29.5442 43.9528 29.2389 44.0834 28.8835C44.214 28.5235 44.2816 28.1225 44.2816 27.676C44.2816 27.2294 44.214 26.8284 44.0834 26.473C43.9528 26.1176 43.7496 25.8168 43.4884 25.5662C43.2223 25.3156 42.8935 25.1242 42.5065 24.9875C42.1147 24.8508 41.66 24.787 41.1328 24.787C40.7555 24.787 40.4798 24.7961 40.3105 24.8144C40.1412 24.8326 40.0348 24.8463 39.9913 24.8554V30.5011Z" fill="#413E43"/>
<path d="M47.4255 24.4543C47.4255 24.6047 47.3772 24.7277 47.2804 24.8143C47.1837 24.9008 47.0628 24.9464 46.9225 24.9464C46.7822 24.9464 46.6661 24.9008 46.5646 24.8143C46.4678 24.7277 46.4194 24.6047 46.4194 24.4543C46.4194 24.3039 46.4678 24.1809 46.5646 24.0943C46.6613 24.0077 46.7822 23.9622 46.9225 23.9622C47.0628 23.9622 47.1788 24.0077 47.2804 24.0943C47.3723 24.1809 47.4255 24.3039 47.4255 24.4543ZM47.2659 31.0934H46.5839V25.9945H47.2659V31.0934Z" fill="#413E43"/>
<path d="M52.5963 30.5009C52.5528 30.5328 52.4899 30.5738 52.4077 30.6149C52.3254 30.6559 52.219 30.7014 52.0981 30.747C51.9772 30.7926 51.8369 30.829 51.6773 30.8609C51.5177 30.8928 51.3436 30.9065 51.1501 30.9065C50.8357 30.9065 50.531 30.8609 50.2407 30.7698C49.9457 30.6787 49.6893 30.5328 49.4716 30.3369C49.254 30.141 49.075 29.8858 48.9444 29.5714C48.8138 29.257 48.7461 28.8788 48.7461 28.4322C48.7461 28.0722 48.8042 27.735 48.9251 27.4252C49.046 27.1153 49.2153 26.8465 49.433 26.6232C49.6506 26.3953 49.9215 26.2176 50.2407 26.0901C50.56 25.9625 50.9179 25.8987 51.3145 25.8987C51.8176 25.8987 52.219 25.9306 52.5238 25.9944C52.8285 26.0582 53.0752 26.1174 53.2735 26.1766V30.8336C53.2735 31.5946 53.0655 32.1413 52.6447 32.4649C52.2239 32.7884 51.595 32.9524 50.7486 32.9524C50.4003 32.9524 50.0859 32.9297 49.8006 32.8795C49.52 32.8294 49.2733 32.7747 49.075 32.7064L49.2105 32.1231C49.3798 32.196 49.6071 32.2598 49.8973 32.31C50.1875 32.3646 50.4777 32.3874 50.7728 32.3874C51.4161 32.3874 51.8805 32.2689 52.1707 32.0365C52.4609 31.8042 52.606 31.4032 52.606 30.8381V30.5009H52.5963ZM52.5866 26.6141C52.4657 26.5822 52.3158 26.5503 52.1272 26.5184C51.9385 26.491 51.6676 26.4728 51.3194 26.4728C51.0243 26.4728 50.768 26.5184 50.5406 26.6141C50.3133 26.7098 50.1198 26.8465 49.9602 27.0196C49.8005 27.1928 49.6796 27.4024 49.5926 27.6393C49.5103 27.8808 49.4668 28.1451 49.4668 28.4322C49.4668 28.7694 49.5152 29.0565 49.6119 29.2934C49.7087 29.5349 49.8393 29.7309 49.9941 29.8812C50.1488 30.0316 50.3326 30.141 50.5309 30.2139C50.7341 30.2822 50.9373 30.3187 51.1501 30.3187C51.4548 30.3187 51.7402 30.2777 51.9917 30.1911C52.2481 30.1045 52.4415 30.0088 52.5818 29.8949V26.6141H52.5866Z" fill="#413E43"/>
<path d="M55.9045 24.4543C55.9045 24.6047 55.8561 24.7277 55.7594 24.8143C55.6626 24.9008 55.5417 24.9464 55.4014 24.9464C55.2612 24.9464 55.1451 24.9008 55.0435 24.8143C54.9468 24.7277 54.8984 24.6047 54.8984 24.4543C54.8984 24.3039 54.9468 24.1809 55.0435 24.0943C55.1402 24.0077 55.2612 23.9622 55.4014 23.9622C55.5417 23.9622 55.6578 24.0077 55.7594 24.0943C55.8561 24.1809 55.9045 24.3039 55.9045 24.4543ZM55.7449 31.0934H55.0629V25.9945H55.7449V31.0934Z" fill="#413E43"/>
<path d="M58.188 25.9944H60.3453V26.5366H58.188V29.2478C58.188 29.5394 58.2122 29.7718 58.2654 29.9541C58.3186 30.1364 58.3911 30.2731 58.4927 30.3733C58.5943 30.4736 58.7103 30.5374 58.8506 30.5693C58.9909 30.6012 59.1457 30.6194 59.3102 30.6194C59.5955 30.6194 59.8277 30.5875 60.0018 30.5237C60.1759 30.4599 60.3114 30.4052 60.4081 30.3506L60.5774 30.8837C60.4807 30.9429 60.3065 31.0113 60.0647 31.0842C59.818 31.1616 59.5568 31.1981 59.2714 31.1981C58.9377 31.1981 58.6571 31.1571 58.4298 31.0751C58.2025 30.993 58.0235 30.87 57.8832 30.7014C57.743 30.5328 57.6511 30.3232 57.5979 30.0771C57.5398 29.8265 57.5156 29.5303 57.5156 29.1886V24.4952L58.1976 24.3767V25.9944H58.188Z" fill="#413E43"/>
<path d="M63.2424 25.8759C63.6003 25.8759 63.9002 25.9214 64.1469 26.0171C64.3936 26.1128 64.5967 26.2449 64.7467 26.4135C64.9014 26.5821 65.0127 26.7781 65.0804 27.0105C65.1481 27.2429 65.1868 27.4889 65.1868 27.7623V30.9793C65.1191 30.9976 65.0175 31.0204 64.8821 31.0431C64.7515 31.0659 64.5967 31.0887 64.4226 31.1161C64.2484 31.1434 64.055 31.1616 63.8422 31.1798C63.6293 31.1981 63.4117 31.2026 63.1892 31.2026C62.9038 31.2026 62.6378 31.1753 62.4008 31.1161C62.1589 31.0568 61.9509 30.9611 61.772 30.8335C61.593 30.706 61.4527 30.5419 61.3511 30.3414C61.2496 30.1409 61.2012 29.8949 61.2012 29.6078C61.2012 29.3298 61.2593 29.0929 61.3705 28.8969C61.4818 28.701 61.6414 28.537 61.8397 28.4094C62.038 28.2818 62.2847 28.1861 62.5604 28.1269C62.8409 28.0676 63.1408 28.0403 63.4697 28.0403C63.5665 28.0403 63.668 28.0448 63.7793 28.0539C63.8857 28.0631 63.9921 28.0767 64.0937 28.095C64.1953 28.1132 64.2823 28.1269 64.3549 28.1451C64.4274 28.1633 64.4806 28.177 64.5048 28.1906V27.8762C64.5048 27.6985 64.4903 27.5254 64.4613 27.3568C64.4323 27.1882 64.3742 27.0378 64.2775 26.9011C64.1856 26.7644 64.0501 26.6596 63.8808 26.5776C63.7115 26.4956 63.4842 26.4545 63.2037 26.4545C62.807 26.4545 62.5072 26.4819 62.3137 26.532C62.1202 26.5867 61.9751 26.6277 61.8832 26.6596L61.7913 26.0991C61.9122 26.0444 62.0912 25.9989 62.3427 25.9533C62.5943 25.8986 62.8941 25.8759 63.2424 25.8759ZM63.3053 30.6285C63.5713 30.6285 63.8035 30.6194 64.0018 30.6057C64.2001 30.5875 64.3694 30.5693 64.5097 30.5419V28.7466C64.4323 28.7147 64.3113 28.6782 64.1421 28.6418C63.9728 28.6053 63.7454 28.5871 63.4503 28.5871C63.2811 28.5871 63.1069 28.6007 62.928 28.6235C62.7442 28.6463 62.5797 28.6964 62.4249 28.7693C62.2701 28.8468 62.1444 28.9471 62.0476 29.0792C61.9509 29.2113 61.9026 29.3845 61.9026 29.6032C61.9026 29.7946 61.9364 29.9541 62.0041 30.0862C62.0718 30.2184 62.1638 30.3232 62.2847 30.4007C62.4056 30.4781 62.5555 30.5374 62.7248 30.5738C62.8941 30.6103 63.0876 30.6285 63.3053 30.6285Z" fill="#413E43"/>
<path d="M68.297 31.1798C68.0648 31.1753 67.8665 31.1434 67.6972 31.0978C67.5279 31.0477 67.3828 30.9748 67.2667 30.87C67.1506 30.7697 67.0635 30.6376 67.0055 30.4735C66.9474 30.314 66.9185 30.109 66.9185 29.8675V23.5565L67.6005 23.438V29.8493C67.6005 30.0088 67.615 30.1318 67.6488 30.2275C67.6779 30.3232 67.7262 30.4006 67.7891 30.4553C67.852 30.51 67.9342 30.551 68.0358 30.5784C68.1373 30.6057 68.2583 30.6285 68.3985 30.6467L68.297 31.1798Z" fill="#413E43"/>
<path d="M76.2776 26.0534C76.2776 26.304 76.2244 26.5455 76.1228 26.7734C76.0164 27.0058 75.8809 27.2245 75.7165 27.4387C75.5472 27.6528 75.3586 27.8579 75.1506 28.0538C74.9426 28.2497 74.7346 28.4366 74.5314 28.6143C74.425 28.7054 74.3138 28.8102 74.1929 28.9241C74.0719 29.0381 73.9558 29.1565 73.8446 29.275C73.7333 29.3935 73.6317 29.5028 73.5447 29.6077C73.4576 29.7079 73.4044 29.7945 73.3802 29.8583H76.5V31.0931H71.6631C71.6486 31.0202 71.6438 30.9291 71.6438 30.8152C71.6438 30.7012 71.6438 30.6238 71.6438 30.5782C71.6438 30.2638 71.697 29.9722 71.8082 29.7124C71.9147 29.4482 72.0598 29.2067 72.2339 28.9788C72.408 28.751 72.6063 28.5414 72.824 28.3409C73.0416 28.1449 73.2641 27.9444 73.477 27.7485C73.6463 27.5981 73.8011 27.4523 73.9462 27.3202C74.0913 27.1835 74.2219 27.0559 74.3331 26.9237C74.4444 26.7962 74.5314 26.6686 74.5943 26.541C74.6572 26.4134 74.691 26.2813 74.691 26.1537C74.691 25.8666 74.604 25.6615 74.4299 25.5431C74.2557 25.4246 74.038 25.3654 73.7817 25.3654C73.593 25.3654 73.4189 25.3927 73.2545 25.4474C73.09 25.5021 72.9401 25.5704 72.8047 25.6433C72.6692 25.7208 72.5531 25.7937 72.4564 25.8712C72.3596 25.9486 72.2871 26.0078 72.2387 26.0534L71.4648 25.0281C71.7696 24.7593 72.1275 24.536 72.5386 24.3629C72.9449 24.1897 73.3851 24.1031 73.8543 24.1031C74.2799 24.1031 74.6475 24.1487 74.9522 24.2398C75.257 24.331 75.5133 24.4631 75.7116 24.6272C75.9099 24.7958 76.055 25.0008 76.1518 25.2378C76.2292 25.4793 76.2776 25.7481 76.2776 26.0534Z" fill="#FF8300"/>
<path d="M79.291 30.3144C79.291 30.6106 79.1894 30.8338 78.9911 30.9888C78.7928 31.1437 78.5654 31.2212 78.3139 31.2212C78.0624 31.2212 77.84 31.1437 77.6368 30.9888C77.4385 30.8338 77.3369 30.6106 77.3369 30.3144C77.3369 30.0182 77.4385 29.7949 77.6368 29.64C77.8351 29.4851 78.0624 29.4076 78.3139 29.4076C78.5654 29.4076 78.788 29.4851 78.9911 29.64C79.1894 29.7904 79.291 30.0182 79.291 30.3144Z" fill="#FF8300"/>
<path d="M85.1974 27.6579C85.1974 28.8108 84.9652 29.6902 84.5009 30.3054C84.0366 30.9205 83.3981 31.2259 82.5807 31.2259C81.7632 31.2259 81.1248 30.9205 80.6604 30.3054C80.1961 29.6902 79.9639 28.8062 79.9639 27.6579C79.9639 27.0838 80.0267 26.578 80.1477 26.1406C80.2686 25.6986 80.4475 25.3295 80.6749 25.0242C80.9071 24.7234 81.1828 24.491 81.502 24.3316C81.8213 24.1721 82.184 24.0946 82.5807 24.0946C83.3981 24.0946 84.0366 24.3999 84.5009 25.0151C84.9652 25.6348 85.1974 26.5142 85.1974 27.6579ZM83.6061 27.6579C83.6061 27.3162 83.5867 27.0063 83.5529 26.7238C83.519 26.4459 83.461 26.2044 83.3836 25.9993C83.3062 25.7943 83.1998 25.6393 83.0692 25.5254C82.9386 25.4115 82.7741 25.3568 82.5758 25.3568C82.3823 25.3568 82.2179 25.4115 82.0873 25.5254C81.9567 25.6393 81.8551 25.7943 81.7729 25.9993C81.6906 26.2044 81.6326 26.4459 81.5987 26.7238C81.5649 27.0018 81.5455 27.3162 81.5455 27.6579C81.5455 27.9997 81.5649 28.3141 81.5987 28.5966C81.6326 28.8791 81.6906 29.1207 81.7729 29.3257C81.8551 29.5308 81.9567 29.6857 82.0873 29.7996C82.2179 29.9135 82.3775 29.9682 82.5758 29.9682C82.7693 29.9682 82.9338 29.9135 83.0692 29.7996C83.1998 29.6857 83.3062 29.5308 83.3836 29.3257C83.461 29.1207 83.5142 28.8791 83.5529 28.5966C83.5867 28.3141 83.6061 27.9997 83.6061 27.6579Z" fill="#FF8300"/>
</svg>
