<svg width="111" height="36" viewBox="0 0 111 36" fill="none" xmlns="http://www.w3.org/2000/svg">
<path d="M35.6328 16.4951C36.1004 14.6247 35.9549 12.6924 35.2067 10.8944C34.4585 9.10674 33.1907 7.63941 31.528 6.63707C32.0268 8.57974 31.9436 10.6051 31.2682 12.5064C33.1075 13.3951 34.604 14.7591 35.6328 16.4951Z" fill="#FED422"/>
<path d="M30.0729 30.0628C30.8315 28.0892 30.8731 25.9192 30.1872 23.9248C28.2231 24.6068 26.0928 24.6688 24.0975 24.1108C24.6691 26.1155 24.5963 28.2028 23.9105 30.1662C25.9057 30.8585 28.088 30.8275 30.0729 30.0628Z" fill="#FF8300"/>
<path d="M17.9455 26.6425C16.9166 28.4612 15.389 29.8975 13.4977 30.8068C14.4226 32.6978 15.9918 34.2065 17.9351 35.0642C19.8784 34.2065 21.4476 32.6978 22.3828 30.8068C20.5019 29.8975 18.9743 28.4612 17.9455 26.6425Z" fill="#FF8300"/>
<path d="M11.8038 24.1108C9.79813 24.6688 7.66777 24.6068 5.70368 23.9248C5.01781 25.9192 5.04899 28.0892 5.81799 30.0628C7.80286 30.8172 9.98518 30.8585 11.9908 30.1765C11.2946 28.2028 11.2322 26.1155 11.8038 24.1108Z" fill="#FF8300"/>
<path d="M11.9908 5.82083C9.98518 5.1285 7.81326 5.16983 5.81799 5.9345C5.05938 7.90816 5.01781 10.0782 5.70368 12.0725C7.68855 11.3905 9.78774 11.3182 11.7934 11.8865C11.2322 9.88183 11.2946 7.7945 11.9908 5.82083Z" fill="#FF8300"/>
<path d="M17.9558 0.943497C16.0125 1.80116 14.4433 3.30983 13.5081 5.20083C15.3994 6.11016 16.927 7.53616 17.9454 9.35483C18.9639 7.5465 20.5019 6.11016 22.3932 5.20083C21.4683 3.30983 19.8991 1.80116 17.9558 0.943497Z" fill="#FF8300"/>
<path d="M30.1976 12.0725C30.8835 10.0782 30.8523 7.90816 30.0937 5.9345C28.1088 5.18016 25.9161 5.13883 23.9208 5.82083C24.6067 7.7945 24.6795 9.88183 24.1079 11.8762C25.012 11.6282 25.9369 11.4938 26.8514 11.4938C27.9737 11.5042 29.1064 11.7005 30.1976 12.0725Z" fill="#FF8300"/>
<path d="M5.08046 13.581C3.17872 14.5007 1.66149 16.0714 0.798956 17.9934C1.66149 19.9257 3.17872 21.486 5.08046 22.416C5.99495 20.5457 7.42905 19.0164 9.25804 18.0037C7.42905 16.9807 5.99495 15.4617 5.08046 13.581Z" fill="#FF8300"/>
<path d="M30.8211 13.5915C29.9066 15.4722 28.4621 16.9912 26.6435 18.0142C28.4725 19.0372 29.9066 20.5562 30.8211 22.4265C32.7229 21.5068 34.2401 19.9465 35.1026 18.0142C34.2401 16.0715 32.7229 14.5112 30.8211 13.5915Z" fill="#FF8300"/>
<path d="M25.1055 0.840161C23.3285 0.106495 21.3644 -0.0485062 19.4835 0.416494C21.2189 1.43949 22.6011 2.92749 23.474 4.7565C25.3861 4.08483 27.4229 4.00216 29.387 4.5085C28.3894 2.85516 26.9137 1.59449 25.1055 0.840161Z" fill="#FED422"/>
<path d="M6.52465 4.49816C7.35601 4.28116 8.20815 4.17783 9.0499 4.17783C10.193 4.17783 11.3257 4.37416 12.4273 4.75649C13.3106 2.93783 14.6824 1.44983 16.4282 0.426827C14.5473 -0.0381728 12.5832 0.106494 10.7958 0.850494C8.99794 1.58416 7.52228 2.84483 6.52465 4.49816Z" fill="#FED422"/>
<path d="M4.37351 6.63716C2.71079 7.62916 1.44297 9.0965 0.694742 10.8945C-0.0534813 12.6925 -0.198969 14.6145 0.26867 16.4952C1.29748 14.7592 2.79392 13.3952 4.62292 12.5168C3.95783 10.6052 3.8643 8.57983 4.37351 6.63716Z" fill="#FED422"/>
<path d="M4.62291 23.4805C2.79392 22.6125 1.29748 21.2382 0.26867 19.5022C-0.19897 21.3725 -0.0534819 23.3048 0.68435 25.1028C1.43257 26.9008 2.7004 28.3682 4.36311 29.3602C3.8643 27.4175 3.94743 25.3922 4.62291 23.4805Z" fill="#FED422"/>
<path d="M6.51426 31.4992C7.51189 33.1525 8.98755 34.4132 10.7958 35.1572C12.604 35.9012 14.5473 36.0458 16.4282 35.5808C14.6824 34.5578 13.3106 33.0698 12.4273 31.2408C10.5256 31.9125 8.46795 32.0055 6.51426 31.4992Z" fill="#FED422"/>
<path d="M19.4627 35.5808C21.3436 36.0458 23.2869 35.9012 25.0951 35.1572C26.9033 34.4132 28.379 33.1525 29.3766 31.4992C27.4229 31.9952 25.3653 31.9125 23.4636 31.2512C22.5803 33.0698 21.2085 34.5682 19.4627 35.5808Z" fill="#FED422"/>
<path d="M35.2067 25.1132C35.9549 23.3152 36.1004 21.3829 35.6328 19.5126C34.604 21.2486 33.1075 22.6126 31.2682 23.4909C31.9436 25.3922 32.0268 27.4176 31.5176 29.3706C33.1907 28.3682 34.4585 26.9112 35.2067 25.1132Z" fill="#FED422"/>
<path d="M22.8401 6.27549C20.9799 7.18483 19.4939 8.71416 18.6313 10.5948C20.1589 10.7292 21.5723 11.3078 22.7569 12.2895C23.474 10.3468 23.5052 8.21816 22.8401 6.27549Z" fill="#E43D30"/>
<path d="M13.0614 6.26519C12.3963 8.21819 12.4275 10.3365 13.1549 12.2792C14.3292 11.2975 15.7529 10.7189 17.2806 10.5845C16.4076 8.70386 14.9216 7.18486 13.0614 6.26519Z" fill="#E43D30"/>
<path d="M10.4941 17.3323C10.6292 15.8133 11.2216 14.408 12.1984 13.23C10.2447 12.5067 8.11438 12.4757 6.15029 13.137C7.06479 14.9867 8.6028 16.4643 10.4941 17.3323Z" fill="#E43D30"/>
<path d="M6.15029 22.8606C8.11438 23.5219 10.2447 23.4909 12.188 22.7676C11.2112 21.5999 10.6189 20.1946 10.4838 18.6756C8.6028 19.5332 7.06479 21.0109 6.15029 22.8606Z" fill="#E43D30"/>
<path d="M13.0614 29.7322C14.9112 28.8228 16.3972 27.3038 17.2702 25.4232C15.7426 25.2888 14.3292 24.6998 13.1549 23.7285C12.4275 25.6608 12.3963 27.7792 13.0614 29.7322Z" fill="#E43D30"/>
<path d="M18.6313 25.4232C19.4939 27.3038 20.9799 28.8228 22.8401 29.7322C23.5052 27.7792 23.474 25.6608 22.7569 23.7285C21.5723 24.6998 20.1486 25.2888 18.6313 25.4232Z" fill="#E43D30"/>
<path d="M25.417 18.6756C25.2819 20.1946 24.6896 21.5999 23.7128 22.7676C25.6561 23.4806 27.7864 23.5219 29.7505 22.8606C28.8256 21.0213 27.298 19.5436 25.417 18.6756Z" fill="#E43D30"/>
<path d="M23.7024 13.2297C24.6896 14.3973 25.2715 15.813 25.4066 17.332C27.298 16.4743 28.8256 14.9967 29.7401 13.147C27.7864 12.4857 25.6664 12.5063 23.7024 13.2297Z" fill="#E43D30"/>
<path d="M17.9558 11.7315C14.4745 11.7315 11.6479 14.5422 11.6479 18.0038C11.6479 21.4655 14.4745 24.2762 17.9558 24.2762C21.4372 24.2762 24.2638 21.4655 24.2638 18.0038C24.2638 14.5422 21.4268 11.7315 17.9558 11.7315Z" fill="#E43D30"/>
<path d="M46.694 15.489C47.0577 15.489 47.3487 15.458 47.5877 15.396C47.8267 15.334 48.0137 15.2513 48.1488 15.148C48.2943 15.0447 48.3879 14.9207 48.4398 14.7863C48.4918 14.6417 48.5229 14.4867 48.5229 14.311C48.5229 13.939 48.3463 13.6393 48.0033 13.3913C47.65 13.1433 47.0577 12.885 46.2055 12.606C45.8314 12.4717 45.4677 12.327 45.0936 12.1617C44.7195 11.9963 44.3869 11.7793 44.096 11.5313C43.805 11.273 43.566 10.963 43.3789 10.6013C43.1919 10.2397 43.0983 9.79533 43.0983 9.27866C43.0983 8.76199 43.1919 8.28666 43.3893 7.87332C43.5868 7.45999 43.8673 7.09832 44.2207 6.80899C44.5844 6.51966 45.0208 6.29232 45.5301 6.13732C46.0393 5.98232 46.6212 5.89966 47.2655 5.89966C48.0241 5.89966 48.6892 5.98232 49.24 6.14766C49.7908 6.31299 50.2584 6.48866 50.6117 6.68499L49.8739 8.68966C49.5621 8.52432 49.2088 8.37966 48.8139 8.25566C48.4294 8.13166 47.9618 8.06966 47.4214 8.06966C46.8083 8.06966 46.3718 8.15233 46.1016 8.31766C45.8314 8.48299 45.6963 8.74133 45.6963 9.09266C45.6963 9.29933 45.7483 9.47499 45.8418 9.60933C45.9353 9.75399 46.0808 9.87799 46.2575 9.99166C46.4342 10.1053 46.642 10.2087 46.881 10.3017C47.12 10.3947 47.3694 10.4877 47.6604 10.591C48.2528 10.808 48.762 11.025 49.1984 11.2317C49.6349 11.4383 49.9986 11.6863 50.2896 11.9757C50.5806 12.2547 50.7884 12.5853 50.9339 12.9677C51.0794 13.35 51.1417 13.8047 51.1417 14.3523C51.1417 15.4063 50.7676 16.2227 50.0298 16.8013C49.292 17.38 48.1696 17.6693 46.6836 17.6693C46.1848 17.6693 45.7275 17.6383 45.3222 17.5763C44.9377 17.504 44.574 17.4317 44.2622 17.3387C43.9505 17.256 43.6803 17.163 43.462 17.0597C43.2438 16.9667 43.0464 16.8737 42.9009 16.7807L43.6179 14.7657C43.9505 14.9517 44.3765 15.117 44.865 15.2617C45.3638 15.4167 45.9769 15.489 46.694 15.489Z" fill="#413E43"/>
<path d="M56.2442 8.64832C56.9612 8.64832 57.564 8.73099 58.042 8.89632C58.52 9.06166 58.9045 9.28899 59.1955 9.59899C59.4865 9.89866 59.6839 10.2707 59.8087 10.7047C59.9334 11.1387 59.9853 11.6243 59.9853 12.1513V17.194C59.632 17.2663 59.154 17.3593 58.5304 17.4627C57.9069 17.566 57.1587 17.6177 56.2754 17.6177C55.7142 17.6177 55.2154 17.566 54.7581 17.473C54.3009 17.38 53.9164 17.2147 53.5942 16.9977C53.2617 16.7807 53.0123 16.481 52.846 16.1297C52.6694 15.7473 52.5758 15.3133 52.5758 14.7863C52.5758 14.2903 52.6797 13.8667 52.8772 13.5153C53.0746 13.164 53.3448 12.8953 53.6878 12.6887C54.0203 12.482 54.4152 12.3373 54.8517 12.2443C55.2881 12.1513 55.735 12.11 56.213 12.11C56.5248 12.11 56.8054 12.1203 57.0548 12.1513C57.3042 12.1823 57.5016 12.2133 57.6471 12.2547V12.0273C57.6471 11.614 57.5224 11.2833 57.273 11.0353C57.0236 10.7873 56.5871 10.6633 55.9636 10.6633C55.5479 10.6633 55.1427 10.6943 54.7374 10.7563C54.3321 10.8183 53.9891 10.901 53.6878 11.0043L53.376 9.05132C53.5215 9.00999 53.6982 8.95832 53.906 8.91699C54.1138 8.86532 54.3529 8.82399 54.6023 8.78266C54.8517 8.74132 55.1115 8.71032 55.3921 8.68966C55.683 8.65866 55.9636 8.64832 56.2442 8.64832ZM56.4416 15.737C56.6807 15.737 56.9093 15.7267 57.1275 15.7163C57.3458 15.706 57.5224 15.6853 57.6471 15.6647V13.8253C57.5536 13.8047 57.3977 13.784 57.2107 13.7633C57.0132 13.7427 56.8365 13.7323 56.6703 13.7323C56.4416 13.7323 56.2234 13.7427 56.026 13.7737C55.8285 13.8047 55.6519 13.8563 55.496 13.9287C55.3401 14.001 55.2258 14.1043 55.1323 14.2387C55.0491 14.373 54.9972 14.528 54.9972 14.7243C54.9972 15.1067 55.1219 15.365 55.3817 15.5097C55.6415 15.6647 55.9948 15.737 56.4416 15.737Z" fill="#413E43"/>
<path d="M62.1882 9.16498C62.6038 9.04098 63.1338 8.93764 63.7885 8.83431C64.4432 8.73098 65.1291 8.67931 65.8461 8.67931C66.5736 8.67931 67.1867 8.77231 67.6647 8.96864C68.1532 9.15464 68.5377 9.42331 68.8182 9.77464C69.0988 10.126 69.3067 10.529 69.421 11.0146C69.5457 11.49 69.5976 12.0273 69.5976 12.606V17.4316H67.1659V12.8953C67.1659 12.11 67.062 11.5623 66.8542 11.242C66.6463 10.9216 66.2618 10.7563 65.6903 10.7563C65.5136 10.7563 65.3265 10.7666 65.1291 10.777C64.9316 10.7976 64.755 10.808 64.6095 10.839V17.442H62.1778V9.16498H62.1882Z" fill="#413E43"/>
<path d="M82.1099 13.6393C82.1099 14.1973 82.0475 14.714 81.9228 15.1997C81.7981 15.6853 81.5799 16.109 81.2681 16.481C80.9564 16.8427 80.5407 17.132 80.0107 17.3387C79.4807 17.5453 78.8156 17.659 78.005 17.659C77.2672 17.659 76.6229 17.566 76.0929 17.3903C75.5629 17.2147 75.1161 17.008 74.7731 16.76L75.6253 14.7967C75.937 14.9827 76.28 15.148 76.6437 15.2823C77.0074 15.427 77.3919 15.489 77.818 15.489C78.4415 15.489 78.8884 15.334 79.1585 15.0343C79.4287 14.7347 79.5638 14.218 79.5638 13.505V6.15799H82.1099V13.6393Z" fill="#413E43"/>
<path d="M91.7326 17.1321C91.3169 17.2561 90.7869 17.3594 90.1322 17.4627C89.4775 17.5661 88.7917 17.6177 88.0746 17.6177C87.3472 17.6177 86.7341 17.5247 86.256 17.3284C85.7676 17.1321 85.3831 16.8634 85.1025 16.5121C84.8219 16.1607 84.6141 15.7371 84.4998 15.2514C84.3751 14.7657 84.3231 14.2284 84.3231 13.6394V8.87574H86.7548V13.3501C86.7548 14.1251 86.8588 14.6934 87.0666 15.0447C87.2744 15.3961 87.6589 15.5614 88.2305 15.5614C88.4072 15.5614 88.5942 15.5511 88.7917 15.5407C88.9891 15.5201 89.1658 15.5097 89.3113 15.4787V8.87574H91.743V17.1321H91.7326Z" fill="#413E43"/>
<path d="M97.1157 8.64835C97.8327 8.64835 98.4355 8.73102 98.9135 8.89635C99.3915 9.06168 99.776 9.28902 100.067 9.59902C100.358 9.89868 100.555 10.2707 100.68 10.7047C100.805 11.1387 100.857 11.6243 100.857 12.1513V17.194C100.503 17.2663 100.025 17.3593 99.4019 17.4627C98.7784 17.566 98.0302 17.6177 97.1469 17.6177C96.5857 17.6177 96.0869 17.566 95.6296 17.473C95.1724 17.38 94.7879 17.2147 94.4657 16.9977C94.1436 16.7807 93.8838 16.481 93.7175 16.1297C93.5408 15.768 93.4577 15.334 93.4577 14.8173C93.4577 14.3213 93.5616 13.8977 93.7591 13.5463C93.9565 13.195 94.2267 12.9264 94.5697 12.7197C94.9022 12.513 95.2971 12.3683 95.7336 12.2753C96.17 12.1823 96.6169 12.141 97.0949 12.141C97.4067 12.141 97.6873 12.1513 97.9367 12.1823C98.1861 12.2133 98.3835 12.2444 98.529 12.2857V12.0274C98.529 11.614 98.4043 11.2833 98.1549 11.0353C97.9055 10.7873 97.469 10.6633 96.8455 10.6633C96.4298 10.6633 96.0245 10.6943 95.6192 10.7563C95.214 10.8183 94.871 10.901 94.5697 11.0043L94.2579 9.05135C94.4034 9.01002 94.5801 8.95835 94.7879 8.91702C94.9957 8.86535 95.2347 8.82402 95.4842 8.78268C95.7336 8.74135 96.0038 8.71035 96.2739 8.68968C96.5545 8.65868 96.8351 8.64835 97.1157 8.64835ZM97.3131 15.737C97.5522 15.737 97.7808 15.7267 97.999 15.7163C98.2172 15.706 98.3939 15.6853 98.5186 15.6647V13.8253C98.4251 13.8047 98.2692 13.784 98.0822 13.7633C97.8847 13.7427 97.708 13.7323 97.5418 13.7323C97.3131 13.7323 97.0949 13.7427 96.8975 13.7737C96.7 13.8047 96.5234 13.8564 96.3675 13.9287C96.2116 14.001 96.0973 14.1043 96.0038 14.2387C95.9206 14.373 95.8687 14.528 95.8687 14.7243C95.8687 15.1067 95.9934 15.365 96.2532 15.5097C96.513 15.6647 96.8663 15.737 97.3131 15.737Z" fill="#413E43"/>
<path d="M103.06 9.16498C103.476 9.04098 104.006 8.93764 104.661 8.83431C105.315 8.73098 106.001 8.67931 106.718 8.67931C107.446 8.67931 108.059 8.77231 108.537 8.96864C109.025 9.15464 109.41 9.42331 109.691 9.77464C109.971 10.126 110.179 10.529 110.293 11.0146C110.418 11.49 110.47 12.0273 110.47 12.606V17.4316H108.038V12.8953C108.038 12.11 107.934 11.5623 107.726 11.242C107.519 10.9216 107.134 10.7563 106.563 10.7563C106.386 10.7563 106.199 10.7666 106.001 10.777C105.804 10.7976 105.627 10.808 105.482 10.839V17.442H103.05V9.16498H103.06Z" fill="#413E43"/>
<path d="M48.5853 25.967H49.4063V29.6973C49.2504 29.7593 48.949 29.842 48.5022 29.9453C48.0553 30.0487 47.5045 30.1003 46.8498 30.1003C46.2991 30.1003 45.7899 30.0073 45.3222 29.811C44.8546 29.6147 44.4493 29.3357 44.1064 28.974C43.7634 28.6123 43.4932 28.1577 43.2958 27.61C43.0983 27.0623 43.0048 26.4423 43.0048 25.75C43.0048 25.0473 43.1087 24.4273 43.3166 23.89C43.5244 23.3423 43.8154 22.8877 44.1687 22.526C44.5324 22.1643 44.9481 21.875 45.4261 21.689C45.9042 21.4927 46.4134 21.3997 46.9538 21.3997C47.5773 21.3997 48.0865 21.4617 48.4918 21.596C48.8971 21.7303 49.188 21.8543 49.3751 21.9783L49.1049 22.6707C48.8763 22.5053 48.5749 22.3813 48.18 22.278C47.7955 22.1747 47.3694 22.123 46.9226 22.123C46.4965 22.123 46.1016 22.1953 45.7275 22.3503C45.3534 22.5053 45.0312 22.7327 44.761 23.0427C44.4805 23.3527 44.2726 23.7247 44.1064 24.1793C43.9505 24.634 43.8673 25.1507 43.8673 25.75C43.8673 26.308 43.9297 26.804 44.0648 27.2483C44.1999 27.6927 44.3869 28.075 44.6571 28.3953C44.9169 28.7157 45.2495 28.9533 45.634 29.129C46.0185 29.2943 46.4757 29.3873 46.9849 29.3873C47.4006 29.3873 47.7435 29.3667 48.0241 29.3253C48.3047 29.284 48.4918 29.2427 48.5853 29.2013V25.967Z" fill="#413E43"/>
<path d="M56.6289 26.8144C56.6289 27.3104 56.5562 27.7548 56.4211 28.1578C56.2756 28.5608 56.0781 28.9017 55.8287 29.1807C55.5793 29.4597 55.2676 29.6767 54.9246 29.8421C54.5713 29.9971 54.1972 30.0797 53.7711 30.0797C53.345 30.0797 52.9605 29.9971 52.6176 29.8421C52.2643 29.6871 51.9733 29.4701 51.7135 29.1807C51.4641 28.9017 51.2563 28.5608 51.1212 28.1578C50.9757 27.7548 50.9133 27.3104 50.9133 26.8144C50.9133 26.3287 50.9861 25.8741 51.1212 25.4711C51.2666 25.0681 51.4641 24.7271 51.7135 24.4377C51.9733 24.1484 52.2643 23.9314 52.6176 23.7764C52.9605 23.6214 53.345 23.5387 53.7711 23.5387C54.1868 23.5387 54.5713 23.6214 54.9246 23.7764C55.2676 23.9314 55.5793 24.1587 55.8287 24.4377C56.0885 24.7271 56.286 25.0681 56.4211 25.4711C56.5562 25.8844 56.6289 26.3287 56.6289 26.8144ZM55.7872 26.8144C55.7872 26.0291 55.6001 25.4091 55.2364 24.9544C54.8727 24.4894 54.3739 24.2621 53.7607 24.2621C53.1372 24.2621 52.6488 24.4894 52.2851 24.9544C51.9213 25.4194 51.7343 26.0394 51.7343 26.8144C51.7343 27.5997 51.911 28.2094 52.2851 28.6744C52.6488 29.1291 53.1476 29.3667 53.7607 29.3667C54.3842 29.3667 54.8727 29.1394 55.2364 28.6744C55.6105 28.2198 55.7872 27.5997 55.7872 26.8144Z" fill="#413E43"/>
<path d="M59.1226 24.0657C59.2577 23.9623 59.4759 23.8487 59.7877 23.735C60.089 23.6213 60.4528 23.5593 60.858 23.5593C61.3153 23.5593 61.7102 23.642 62.0635 23.797C62.4168 23.9623 62.7182 24.1793 62.9572 24.4687C63.1962 24.758 63.3833 25.099 63.508 25.502C63.6327 25.905 63.6951 26.339 63.6951 26.8143C63.6951 27.3207 63.6223 27.7753 63.4664 28.1783C63.3209 28.5813 63.1027 28.9223 62.8325 29.2013C62.5623 29.4803 62.2402 29.6973 61.8661 29.8523C61.492 29.997 61.0659 30.0797 60.6086 30.0797C60.0475 30.0797 59.5902 30.0383 59.2265 29.966C58.8628 29.8937 58.5614 29.8213 58.3328 29.7387V20.7073L59.1226 20.5627V24.0657ZM59.1226 29.191C59.2473 29.2323 59.4239 29.2737 59.663 29.3047C59.902 29.3357 60.2137 29.3563 60.5982 29.3563C61.2737 29.3563 61.8245 29.1393 62.2402 28.695C62.6559 28.261 62.8637 27.6307 62.8637 26.804C62.8637 26.4527 62.8221 26.1323 62.7494 25.8223C62.6766 25.5123 62.5623 25.2437 62.3961 25.0163C62.2298 24.789 62.0219 24.603 61.7621 24.4687C61.5023 24.3343 61.1698 24.262 60.7853 24.262C60.5982 24.262 60.4216 24.2827 60.2553 24.3137C60.089 24.355 59.9228 24.3963 59.7773 24.448C59.6318 24.4997 59.5071 24.5617 59.3928 24.634C59.2785 24.696 59.1953 24.758 59.1226 24.82V29.191Z" fill="#413E43"/>
<path d="M66.387 21.8129C66.387 21.9989 66.335 22.1436 66.2207 22.2572C66.1064 22.3709 65.9713 22.4226 65.805 22.4226C65.6388 22.4226 65.5037 22.3709 65.3894 22.2572C65.2751 22.1539 65.2231 21.9989 65.2231 21.8129C65.2231 21.6269 65.2854 21.4822 65.3894 21.3686C65.5037 21.2549 65.6388 21.2032 65.805 21.2032C65.9713 21.2032 66.1064 21.2549 66.2207 21.3686C66.3246 21.4719 66.387 21.6269 66.387 21.8129ZM66.1999 29.9349H65.4101V23.6936H66.1999V29.9349Z" fill="#413E43"/>
<path d="M67.9147 26.8041C67.9147 26.2564 67.9978 25.7811 68.1537 25.3781C68.3096 24.9751 68.5174 24.6341 68.7772 24.3551C69.037 24.0864 69.328 23.8797 69.6502 23.7454C69.9827 23.6111 70.3153 23.5491 70.6686 23.5491C71.4376 23.5491 72.0507 23.7971 72.508 24.2931C72.9652 24.7891 73.1938 25.5641 73.1938 26.5974C73.1938 26.6594 73.1938 26.7214 73.1835 26.7937C73.1835 26.8557 73.1731 26.9177 73.1627 26.9797H68.7565C68.7772 27.7444 68.9747 28.3334 69.328 28.7364C69.6814 29.1497 70.2529 29.3564 71.0219 29.3564C71.448 29.3564 71.7909 29.3151 72.0403 29.2324C72.2897 29.1497 72.4768 29.0877 72.5911 29.0257L72.7366 29.6974C72.6223 29.7594 72.4144 29.8421 72.1027 29.9247C71.7909 30.0177 71.4272 30.0591 71.0011 30.0591C70.4504 30.0591 69.9827 29.9764 69.5982 29.8214C69.2137 29.6561 68.8916 29.4391 68.6421 29.1497C68.3927 28.8604 68.2057 28.5194 68.0914 28.1164C67.9667 27.7134 67.9147 27.2794 67.9147 26.8041ZM72.3625 26.3081C72.3417 25.6571 72.1962 25.1507 71.9052 24.7891C71.6143 24.4274 71.1986 24.2414 70.6686 24.2414C70.388 24.2414 70.1282 24.3034 69.91 24.4067C69.6917 24.5204 69.4943 24.6651 69.328 24.8614C69.1618 25.0474 69.037 25.2644 68.9435 25.5227C68.85 25.7707 68.798 26.0291 68.7772 26.3081H72.3625Z" fill="#413E43"/>
<path d="M77.0697 23.5697C77.3295 23.5697 77.5686 23.5903 77.8076 23.6317C78.0362 23.673 78.2025 23.7143 78.2856 23.7557L78.1297 24.4273C78.0674 24.3963 77.9323 24.3653 77.7348 24.324C77.5374 24.293 77.2776 24.2723 76.9554 24.2723C76.6125 24.2723 76.3423 24.293 76.1345 24.3447C75.9266 24.3963 75.7915 24.4377 75.7292 24.4687V29.935H74.9394V23.983C75.1368 23.89 75.4174 23.8073 75.7811 23.7143C76.1345 23.6213 76.5605 23.5697 77.0697 23.5697Z" fill="#413E43"/>
<path d="M79.4807 23.9107C79.7197 23.8487 80.0315 23.7763 80.4264 23.6937C80.8213 23.611 81.3097 23.5697 81.8812 23.5697C82.3593 23.5697 82.7542 23.642 83.0763 23.7763C83.3985 23.9107 83.6479 24.107 83.8453 24.3653C84.0324 24.6133 84.1675 24.9233 84.2506 25.2747C84.3338 25.626 84.3753 26.0187 84.3753 26.4423V29.935H83.5855V26.7007C83.5855 26.2563 83.5544 25.8843 83.492 25.5743C83.4297 25.2643 83.3257 25.0163 83.1906 24.8303C83.0451 24.634 82.8581 24.4997 82.6295 24.417C82.4008 24.3343 82.1099 24.293 81.7565 24.293C81.3824 24.293 81.0603 24.3137 80.7901 24.355C80.5199 24.3963 80.3432 24.4273 80.2601 24.4583V29.935H79.4703V23.9107H79.4807Z" fill="#413E43"/>
<path d="M91.733 26.8144C91.733 27.3104 91.6603 27.7548 91.5252 28.1578C91.3797 28.5608 91.1823 28.9017 90.9328 29.1807C90.673 29.4597 90.3717 29.6767 90.0287 29.8421C89.6858 29.9971 89.3013 30.0797 88.8752 30.0797C88.4492 30.0797 88.075 29.9971 87.7217 29.8421C87.3788 29.6871 87.0774 29.4701 86.8176 29.1807C86.5578 28.9017 86.3604 28.5608 86.2253 28.1578C86.0798 27.7548 86.0174 27.3104 86.0174 26.8144C86.0174 26.3287 86.0902 25.8741 86.2253 25.4711C86.3708 25.0681 86.5682 24.7271 86.8176 24.4377C87.0774 24.1484 87.3684 23.9314 87.7217 23.7764C88.075 23.6214 88.4492 23.5387 88.8752 23.5387C89.2909 23.5387 89.6754 23.6214 90.0287 23.7764C90.3821 23.9314 90.6834 24.1587 90.9328 24.4377C91.1926 24.7271 91.3901 25.0681 91.5252 25.4711C91.6603 25.8844 91.733 26.3287 91.733 26.8144ZM90.9017 26.8144C90.9017 26.0291 90.7146 25.4091 90.3509 24.9544C89.9872 24.4894 89.4884 24.2621 88.8752 24.2621C88.2517 24.2621 87.7633 24.4894 87.3996 24.9544C87.0359 25.4194 86.8488 26.0394 86.8488 26.8144C86.8488 27.5997 87.0255 28.2094 87.3996 28.6744C87.7633 29.1291 88.2517 29.3667 88.8752 29.3667C89.4988 29.3667 89.9872 29.1394 90.3509 28.6744C90.7146 28.2198 90.9017 27.5997 90.9017 26.8144Z" fill="#413E43"/>
</svg>
