<svg width="37" height="36" viewBox="0 0 37 36" fill="none" xmlns="http://www.w3.org/2000/svg">
<g clip-path="url(#clip0_7001_2176)">
<path d="M21.2713 9.56259C20.2254 7.9973 18.6605 6.8515 16.8524 6.32719C15.0443 5.80287 13.1092 5.93371 11.3881 6.69662C9.66709 7.45954 8.27063 8.80556 7.44493 10.4974C6.61924 12.1892 6.41733 14.1182 6.8748 15.9444C7.33227 17.7705 8.41974 19.3765 9.94551 20.4793C11.4713 21.582 13.3374 22.1107 15.2148 21.9722C17.0923 21.8336 18.8606 21.0367 20.2079 19.7219C21.5553 18.4072 22.3952 16.6589 22.5797 14.7854C22.7609 12.9455 22.2985 11.0997 21.2713 9.56259ZM19.5664 17.3026C18.7885 18.467 17.6244 19.3194 16.2794 19.7095C14.9345 20.0995 13.495 20.0022 12.2148 19.4346C10.9346 18.867 9.89588 17.8657 9.28183 16.6071C8.66778 15.3485 8.51782 13.9136 8.85839 12.5552C9.19896 11.1969 10.0082 10.0024 11.1434 9.1824C12.2786 8.36241 13.6668 7.96955 15.0634 8.0731C16.4599 8.17665 17.7751 8.76996 18.7769 9.74841C19.7788 10.7269 20.403 12.0276 20.5395 13.4213C20.6733 14.7887 20.3295 16.1601 19.5664 17.3026Z" fill="#D31D16"/>
<path d="M34.5391 30.2658C34.4211 29.6617 34.1276 29.1059 33.6953 28.6677L33.6993 28.661L28.0231 22.996C27.6485 22.6232 27.1414 22.4139 26.6129 22.4139C26.0844 22.4139 25.5773 22.6232 25.2027 22.996L25.1088 23.09L23.7588 21.74C25.4005 19.8002 26.3835 17.389 26.5658 14.8543C26.7482 12.3196 26.1205 9.79255 24.7733 7.63776C23.4262 5.48297 21.4293 3.81192 19.0708 2.86575C16.7122 1.91957 14.1141 1.74722 11.6512 2.37356C9.1884 2.9999 6.98824 4.39253 5.36828 6.35049C3.74831 8.30845 2.79233 10.7305 2.63827 13.267C2.48422 15.8036 3.14006 18.3235 4.51116 20.4631C5.88227 22.6028 7.89771 24.2514 10.2667 25.1712C10.3909 25.2302 10.5262 25.2624 10.6638 25.2657C10.9046 25.2713 11.1392 25.1897 11.3247 25.036C11.5101 24.8823 11.6338 24.6668 11.673 24.4292C11.7122 24.1916 11.6643 23.9478 11.5381 23.7426C11.4119 23.5375 11.2159 23.3848 10.9861 23.3127C8.96196 22.5254 7.24952 21.0999 6.10811 19.2522C4.96671 17.4044 4.45852 15.235 4.66051 13.0726C4.86249 10.9101 5.76365 8.8724 7.2275 7.26799C8.69136 5.66359 10.6382 4.5799 12.7731 4.18106C14.908 3.78222 17.1148 4.08994 19.0591 5.05763C21.0035 6.02532 22.5796 7.60026 23.5487 9.54394C24.5177 11.4876 24.8271 13.6941 24.4297 15.8294C24.0324 17.9646 22.9501 19.9122 21.3468 21.3772C19.5097 23.0562 17.9285 23.9888 15.4405 23.9928C15.3073 23.9896 15.1748 24.0131 15.0508 24.0619C14.9268 24.1107 14.8138 24.1838 14.7185 24.2769C14.6231 24.37 14.5474 24.4813 14.4956 24.6041C14.4439 24.7269 14.4173 24.8588 14.4173 24.9921C14.4173 25.1253 14.4439 25.2572 14.4956 25.38C14.5474 25.5029 14.6231 25.6141 14.7185 25.7072C14.8138 25.8003 14.9268 25.8734 15.0508 25.9222C15.1748 25.971 15.3073 25.9945 15.4405 25.9913C18.275 25.9947 20.2015 24.985 22.3593 23.1434L23.7093 24.4934L23.6153 24.5873C23.2421 24.9618 23.0325 25.4689 23.0325 25.9975C23.0325 26.5262 23.2421 27.0333 23.6153 27.4077L29.278 33.0839C29.5675 33.3748 29.9122 33.605 30.2918 33.7611C30.6713 33.9172 31.0782 33.996 31.4887 33.9929C31.9489 33.9906 32.4029 33.8868 32.8183 33.6888C33.2338 33.4908 33.6004 33.2036 33.892 32.8476C34.1837 32.4916 34.3931 32.0756 34.5055 31.6293C34.6178 31.183 34.6302 30.7174 34.5419 30.2658M32.522 31.2968C32.4529 31.4673 32.3426 31.6179 32.2009 31.7351C32.0592 31.8523 31.8906 31.9324 31.7103 31.9683C31.5299 32.0042 31.3435 31.9946 31.1677 31.9406C30.992 31.8865 30.8324 31.7896 30.7034 31.6585L25.0261 25.9942L26.614 24.4051L32.279 30.0802C32.4347 30.2366 32.5405 30.4356 32.5833 30.6521C32.626 30.8687 32.6037 31.093 32.5191 31.2968" fill="#413E43"/>
</g>
<defs>
<clipPath id="clip0_7001_2176">
<rect width="36" height="36" fill="white" transform="translate(0.607422)"/>
</clipPath>
</defs>
</svg>
