<svg width="64" height="64" viewBox="0 0 64 64" fill="none" xmlns="http://www.w3.org/2000/svg">
<g clip-path="url(#clip0_962_4045)">
<path d="M58.65 15.33L40.06 31.49L58.65 48.61V49.12C58.6504 49.3708 58.6011 49.6193 58.505 49.851C58.4089 50.0827 58.2678 50.2931 58.09 50.47C57.7275 50.8215 57.2448 51.0217 56.74 51.03H55.61L37.17 33.98L35.78 35.18C34.7441 36.0765 33.4199 36.5699 32.05 36.5699C30.68 36.5699 29.3559 36.0765 28.32 35.18L26.93 33.98L8.45998 51.03H7.25998C7.00945 51.032 6.761 50.9843 6.52903 50.8896C6.29706 50.795 6.08616 50.6552 5.90853 50.4785C5.7309 50.3018 5.59008 50.0917 5.49421 49.8602C5.39833 49.6287 5.34931 49.3805 5.34998 49.13V48.7L24.08 31.45L5.34998 15.23V14.87C5.34931 14.6195 5.39833 14.3713 5.49421 14.1398C5.59008 13.9083 5.7309 13.6982 5.90853 13.5215C6.08616 13.3448 6.29706 13.205 6.52903 13.1104C6.761 13.0157 7.00945 12.968 7.25998 12.97H8.50998L30.81 32.29C31.1584 32.5796 31.5969 32.7387 32.05 32.74C32.5034 32.7405 32.9424 32.5811 33.29 32.29L55.52 12.97H56.74C56.9905 12.968 57.239 13.0157 57.4709 13.1104C57.7029 13.205 57.9138 13.3448 58.0914 13.5215C58.2691 13.6982 58.4099 13.9083 58.5058 14.1398C58.6016 14.3713 58.6507 14.6195 58.65 14.87V15.33Z" fill="#D31D16"/>
<path d="M62.4501 14.87V49.13C62.4497 50.4462 61.9939 51.7217 61.16 52.74C61.0412 52.8869 60.9143 53.0271 60.78 53.16C60.5795 53.3655 60.3583 53.5498 60.12 53.71C59.1452 54.4411 57.9586 54.8343 56.7401 54.83H25.99C25.7354 54.8382 25.4818 54.7946 25.2446 54.7018C25.0073 54.609 24.7915 54.4689 24.6101 54.29C24.4239 54.1165 24.2773 53.9051 24.18 53.67C24.0806 53.436 24.0296 53.1843 24.0301 52.93C24.0286 52.6756 24.0796 52.4237 24.18 52.19C24.2771 51.9519 24.4237 51.7371 24.6101 51.56C24.7902 51.38 25.0061 51.2399 25.2438 51.1486C25.4815 51.0573 25.7357 51.0169 25.99 51.03H56.7401C57.2449 51.0217 57.7276 50.8215 58.09 50.47C58.2679 50.2931 58.4089 50.0827 58.5051 49.851C58.6012 49.6193 58.6504 49.3708 58.6501 49.12V14.87C58.6507 14.6195 58.6017 14.3713 58.5058 14.1398C58.41 13.9083 58.2691 13.6982 58.0915 13.5215C57.9139 13.3448 57.703 13.205 57.471 13.1104C57.239 13.0157 56.9906 12.968 56.7401 12.97H7.26005C7.00951 12.968 6.76107 13.0157 6.5291 13.1104C6.29712 13.205 6.08622 13.3448 5.9086 13.5215C5.73097 13.6982 5.59015 13.9083 5.49427 14.1398C5.3984 14.3713 5.34938 14.6195 5.35005 14.87V49.13C5.34938 49.3805 5.3984 49.6287 5.49427 49.8602C5.59015 50.0917 5.73097 50.3018 5.9086 50.4785C6.08622 50.6552 6.29712 50.795 6.5291 50.8896C6.76107 50.9843 7.00951 51.032 7.26005 51.03H16.77C17.2639 51.0527 17.7313 51.2596 18.08 51.61C18.4237 51.9678 18.617 52.4439 18.6201 52.94C18.617 53.4344 18.4226 53.9084 18.0777 54.2626C17.7328 54.6168 17.2642 54.8237 16.77 54.84H7.26005C5.90871 54.8428 4.60055 54.3642 3.57005 53.49C3.45005 53.39 3.34005 53.29 3.23005 53.18L3.22005 53.17C2.15072 52.0974 1.55019 50.6446 1.55005 49.13V14.87C1.54988 13.5835 1.98715 12.3352 2.79005 11.33C2.80068 11.3 2.81774 11.2727 2.84005 11.25C2.95889 11.1031 3.08575 10.9629 3.22005 10.83C3.43141 10.6155 3.66242 10.4213 3.91005 10.25C4.88091 9.53677 6.05538 9.15462 7.26005 9.16H56.7401C57.4903 9.15868 58.2334 9.30548 58.9267 9.59196C59.6201 9.87845 60.2501 10.299 60.7806 10.8295C61.3111 11.36 61.7316 11.99 62.0181 12.6833C62.3046 13.3767 62.4514 14.1198 62.4501 14.87Z" fill="#413E43"/>
</g>
<defs>
<clipPath id="clip0_962_4045">
<rect width="64" height="64" fill="white"/>
</clipPath>
</defs>
</svg>
