<svg width="64" height="64" viewBox="0 0 64 64" fill="none" xmlns="http://www.w3.org/2000/svg">
<g clip-path="url(#clip0_2995_9350)">
<path d="M51.9066 55.2369C54.7271 53.7506 55.8194 50.2496 54.3331 47.4292L42.532 24.9552C40.6607 21.3916 37.5089 18.7592 33.6588 17.5683C33.1484 17.4071 32.6291 17.4698 32.1904 17.7026C31.7516 17.9354 31.4025 18.3294 31.2502 18.8397C30.0504 22.6899 30.4265 26.7728 32.2978 30.3364L44.0989 52.8104C45.5853 55.6309 49.0862 56.7232 51.9066 55.2369ZM50.1159 51.8255C49.1757 52.318 48.0117 51.9598 47.5103 51.0197L46.6149 49.3095L50.0263 47.5187L50.9217 49.2289C51.4231 50.1691 51.056 51.3331 50.1159 51.8255ZM34.4915 22.0721C36.4613 23.1197 38.0641 24.7313 39.1296 26.7549L48.2445 44.1073L44.8331 45.8981L35.7092 28.5456C34.6527 26.531 34.2408 24.2926 34.4915 22.0721Z" fill="#D31D16"/>
<path d="M45.2181 6H43.4811H39.1295H34.778H30.4264H26.0749H21.7233H19.9863C16.3958 6 13.4679 8.92789 13.4679 12.5273V20.1649H13.3515H11.1758C9.97596 20.1559 9 21.1319 9 22.3317C9 23.5315 9.97596 24.5075 11.1758 24.5075H13.3515V28.859H11.1758C9.97596 28.859 9 29.835 9 31.0348C9 32.2346 9.97596 33.2106 11.1758 33.2106H13.3515V37.5621H11.1758C9.97596 37.5621 9 38.5291 9 39.7379C9 40.9377 9.97596 41.9137 11.1758 41.9137H13.3515H13.4679V50.8048C13.4679 54.4042 16.3958 57.3321 19.9953 57.3321H31.4919C31.4919 57.341 31.5009 57.341 31.5009 57.35H38.7714C39.9712 57.35 40.9471 56.374 40.9471 55.1742C40.9471 53.9744 39.9712 52.9985 38.7714 52.9985H35.9778C35.9778 52.9895 35.9778 52.9895 35.9778 52.9805H19.9863C18.7865 52.9805 17.8105 52.0046 17.8105 50.8048V41.9047H19.8699C21.0697 41.9047 22.0457 40.9287 22.0457 39.7289C22.0457 38.5291 21.0697 37.5532 19.8699 37.5532H17.8105V33.2016H19.8699C21.0697 33.2016 22.0457 32.2257 22.0457 31.0259C22.0457 29.826 21.0697 28.8501 19.8699 28.8501H17.8105V24.4985H19.8699C21.0697 24.4985 22.0457 23.5226 22.0457 22.3228C22.0457 21.123 21.0697 20.147 19.8699 20.147H17.8105V12.5273C17.8105 11.3275 18.7865 10.3515 19.9863 10.3515H21.7233H26.0749H30.4264H34.778H39.1295H43.4811H45.2181C46.4179 10.3515 47.3939 11.3275 47.3939 12.5273V26.4146C47.3939 27.6145 48.3698 28.5904 49.5696 28.5904C50.7694 28.5904 51.7454 27.6145 51.7454 26.4146V12.5273C51.7454 8.92789 48.8175 6 45.2181 6Z" fill="#413E43"/>
</g>
<defs>
<clipPath id="clip0_2995_9350">
<rect width="64" height="64" fill="white"/>
</clipPath>
</defs>
</svg>

