<svg width="50" height="50" viewBox="0 0 50 50" fill="none" xmlns="http://www.w3.org/2000/svg">
<g clip-path="url(#clip0_7180_1649)">
<path d="M28.1752 19.7199C27.3618 19.7199 26.7095 19.06 26.7095 18.2542V16.5352C28.4208 15.9289 29.6487 14.2943 29.6487 12.3834V10.0197C29.6487 7.58702 27.6687 5.61475 25.2437 5.61475H13.4868C11.0541 5.61475 9.0818 7.59469 9.0818 10.0197V12.3681C9.0818 14.2866 10.3097 15.9135 12.021 16.5198V18.2388C12.021 19.0523 11.361 19.7046 10.5553 19.7046C8.12253 19.7199 6.14258 21.6922 6.14258 24.1249V38.8134C6.14258 41.2461 8.12252 43.2184 10.5476 43.2184H25.3895C26.203 43.2184 26.8553 42.5584 26.8553 41.7526C26.8553 40.9468 26.1953 40.2868 25.3895 40.2868H10.5476C9.73411 40.2868 9.0818 39.6269 9.0818 38.8211V24.1249C9.0818 23.3115 9.74178 22.6592 10.5476 22.6592C12.9803 22.6592 14.9526 20.6792 14.9526 18.2542V16.7884H23.7702V18.2542C23.7702 20.6869 25.7502 22.6592 28.1752 22.6592C28.9887 22.6592 29.641 23.3192 29.641 24.1249V28.9367C29.641 29.7501 30.301 30.4025 31.1068 30.4025C31.9203 30.4025 32.5726 29.7425 32.5726 28.9367V24.1249C32.5879 21.6922 30.608 19.7199 28.1752 19.7199ZM12.021 10.0197C12.021 9.20628 12.681 8.55397 13.4868 8.55397H25.236C26.0495 8.55397 26.7018 9.21395 26.7018 10.0197V12.3681C26.7018 13.1815 26.0418 13.8338 25.236 13.8338H13.4868C12.6733 13.8338 12.021 13.1738 12.021 12.3681V10.0197Z" fill="#413E43"/>
<path d="M19.3654 34.4082C20.1789 34.4082 20.8312 33.7482 20.8312 32.9424V31.4766H22.297C23.1105 31.4766 23.7628 30.8166 23.7628 30.0109C23.7628 29.1974 23.1028 28.5451 22.297 28.5451H20.8312V27.0793C20.8312 26.2658 20.1712 25.6135 19.3654 25.6135C18.552 25.6135 17.8997 26.2735 17.8997 27.0793V28.5451H16.4262C15.6128 28.5451 14.9604 29.2051 14.9604 30.0109C14.9604 30.8243 15.6204 31.4766 16.4262 31.4766H17.892V32.9424C17.892 33.7482 18.552 34.4082 19.3654 34.4082Z" fill="#413E43"/>
<path d="M42.4646 29.466C40.7456 27.747 37.9522 27.747 36.2331 29.466L30.0017 35.6975C28.2826 37.4165 28.2826 40.2099 30.0017 41.9289C31.7207 43.648 34.5141 43.648 36.2331 41.9289L42.4646 35.6975C44.1836 33.9861 44.1836 31.185 42.4646 29.466ZM34.1534 39.8569C33.5855 40.4248 32.6416 40.4248 32.0737 39.8569C31.4981 39.2813 31.4981 38.3528 32.0737 37.7772L34.1534 35.6975L36.2331 37.7772L34.1534 39.8569ZM40.3849 33.6254L38.3052 35.7052L36.2255 33.6254L38.3052 31.5457C38.8731 30.9778 39.8093 30.9778 40.3849 31.5457C40.9604 32.1213 40.9604 33.0499 40.3849 33.6254Z" fill="#D31D16"/>
</g>
<defs>
<clipPath id="clip0_7180_1649">
<rect width="37.6113" height="37.6113" fill="white" transform="translate(6.14258 5.61475)"/>
</clipPath>
</defs>
</svg>
