<svg width="50" height="50" viewBox="0 0 50 50" fill="none" xmlns="http://www.w3.org/2000/svg">
<path d="M26.3561 12.3589C25.4736 11.4917 24.2764 11.0159 22.9795 11.0159C21.8667 11.0159 20.8998 11.4226 20.1937 11.8447C19.48 11.4226 18.5131 11.0159 17.408 11.0159C16.1111 11.0159 14.9139 11.4917 14.0313 12.3589C13.1335 13.2414 12.6423 14.4616 12.65 15.7969C12.6577 17.1169 13.0491 18.268 13.8395 19.235C15.4664 21.2456 18.9121 23.3867 19.2959 23.6246C19.5721 23.7934 19.8944 23.8855 20.2091 23.8855C20.5237 23.8855 20.8461 23.8011 21.1223 23.6246C21.506 23.3867 24.9287 21.2456 26.5633 19.235C27.3461 18.268 27.7452 17.1092 27.7528 15.7969C27.7452 14.4616 27.254 13.2414 26.3561 12.3589ZM23.862 17.1399C23.0486 18.1452 21.3602 19.3884 20.1937 20.1866C19.0196 19.3961 17.3313 18.1529 16.5101 17.1399C16.2032 16.7639 16.0727 16.3494 16.0727 15.7892C16.0727 15.3441 16.2108 14.9834 16.4641 14.7379C16.6943 14.5076 17.0243 14.3848 17.408 14.3848C18.045 14.3848 18.774 14.9374 18.9812 15.1446C19.3035 15.4746 19.7333 15.6588 20.2014 15.6588C20.6695 15.6588 21.107 15.4669 21.4293 15.1369C21.6211 14.9451 22.3272 14.3925 22.9795 14.3925C23.3632 14.3925 23.6932 14.5153 23.9234 14.7455C24.1767 14.9911 24.3071 15.3595 24.3071 15.8046C24.3071 16.3494 24.169 16.7715 23.862 17.1399Z" fill="#D31D16"/>
<path d="M39.2257 35.3968C38.8343 32.4576 36.2788 30.1783 33.2091 30.1783C29.8632 30.1783 27.1388 32.8797 27.1388 36.1949V39.4718C27.1388 40.9529 25.9186 42.1655 24.4222 42.1655C22.9257 42.1655 21.7055 40.9606 21.7055 39.4718V30.3088H23.2173C27.4458 30.3088 31.1985 27.4924 32.3343 23.4634C32.5568 22.6653 32.0887 21.8365 31.2829 21.6139C30.4771 21.3914 29.6406 21.8595 29.4181 22.6576C28.643 25.3973 26.0951 27.3082 23.2173 27.3082H17.17C13.6169 27.3082 10.7314 24.4457 10.7314 20.9309V9.71888H13.1641C14.0006 9.71888 14.6836 9.04355 14.6836 8.21474C14.6836 7.38592 13.9929 6.71826 13.1564 6.71826H9.21188C8.37539 6.71826 7.69238 7.38592 7.69238 8.21474V20.9232C7.69238 26.0957 11.9439 30.3088 17.1624 30.3088H18.6742V39.4718C18.6742 42.6106 21.2527 45.1661 24.4222 45.1661C27.5916 45.1661 30.1702 42.6106 30.1702 39.4718V36.1949C30.1702 34.5373 31.5362 33.1866 33.2091 33.1866C34.6289 33.1866 35.8184 34.1536 36.156 35.4505C34.1607 36.1182 32.7257 37.9907 32.7257 40.1778C32.7257 42.9329 34.9819 45.1661 37.76 45.1661C40.538 45.1661 42.7942 42.9252 42.7942 40.1778C42.8019 37.9216 41.2901 36.0184 39.2257 35.3968ZM37.76 42.1655C36.6549 42.1655 35.757 41.2752 35.757 40.1778C35.757 39.0804 36.6549 38.1902 37.76 38.1902C38.865 38.1902 39.7629 39.0804 39.7629 40.1778C39.7629 41.2676 38.865 42.1655 37.76 42.1655Z" fill="#413E43"/>
<path d="M27.4765 7.7773H30.2239V14.3081C30.2239 15.2366 30.9913 15.9887 31.9429 15.9887C32.8868 15.9887 33.6619 15.2366 33.6619 14.3081V6.08898C33.6619 5.1604 32.8945 4.40833 31.9429 4.40833H27.4765C26.5326 4.40833 25.7575 5.1604 25.7575 6.08898C25.7575 7.01756 26.5326 7.7773 27.4765 7.7773Z" fill="#413E43"/>
</svg>
