<svg width="40" height="41" viewBox="0 0 40 41" fill="none" xmlns="http://www.w3.org/2000/svg">
<g clip-path="url(#clip0_7314_3027)">
<path fill-rule="evenodd" clip-rule="evenodd" d="M33.1681 15.8675C32.8195 15.8659 32.4833 15.9968 32.2275 16.2337C32.0037 16.4702 31.8788 16.7832 31.8781 17.1087V34.6143C31.8795 34.9404 31.754 35.2542 31.5281 35.4893C31.42 35.603 31.2903 35.6939 31.1466 35.7566C31.0029 35.8194 30.8481 35.8529 30.6912 35.855H9.32124C9.16405 35.8552 9.00854 35.8228 8.8645 35.7598C8.72046 35.6969 8.59103 35.6048 8.48436 35.4893C8.26073 35.2528 8.13578 34.9399 8.13499 34.6143V6.37497C8.13578 6.04946 8.26073 5.73651 8.48436 5.49997C8.59307 5.3879 8.72314 5.29875 8.86687 5.23777C9.01061 5.1768 9.16511 5.14525 9.32124 5.14497H24.8406V11.3243C24.8395 11.6502 24.9647 11.9639 25.19 12.1993C25.2975 12.3139 25.4272 12.4054 25.5712 12.4683C25.7151 12.5311 25.8704 12.564 26.0275 12.565C33.6762 12.565 33.5387 12.7156 34.0275 12.1668C34.2416 11.9314 34.3588 11.6238 34.3556 11.3056C34.3569 10.9877 34.24 10.6808 34.0275 10.4443L27.0769 3.22497C26.9066 3.04781 26.7019 2.90735 26.4753 2.81223C26.2487 2.71711 26.0051 2.66934 25.7594 2.67185C23.9006 2.69247 20.2062 2.68185 9.19686 2.68185C8.72485 2.68283 8.25797 2.77973 7.82456 2.96668C7.39115 3.15362 7.00025 3.4267 6.67561 3.76935C6.00364 4.46986 5.63046 5.40427 5.63499 6.37497V34.6143C5.63605 35.1008 5.72936 35.5827 5.90999 36.0343C6.08796 36.4824 6.35068 36.892 6.68374 37.2406C7.01166 37.5831 7.40395 37.8575 7.83811 38.0481C8.27042 38.232 8.73519 38.3274 9.20499 38.3287H30.7944C31.2665 38.3276 31.7335 38.2306 32.167 38.0436C32.6005 37.8565 32.9915 37.5833 33.3162 37.2406C33.9887 36.5357 34.3643 35.5992 34.365 34.625V17.1162C34.3659 16.7904 34.2407 16.4768 34.0156 16.2412C33.9088 16.1225 33.778 16.0277 33.632 15.9631C33.4859 15.8984 33.3278 15.8654 33.1681 15.8662M27.2244 10.0768V6.8806L30.3075 10.0781L27.2244 10.0768Z" fill="#413E43"/>
<path d="M9.65749 26.8268C9.65894 26.5335 9.77227 26.2517 9.97437 26.0391C10.1765 25.8264 10.4521 25.6989 10.745 25.6825C11.5312 25.6762 12.3187 25.6825 13.1056 25.6825C13.7848 25.6826 14.4419 25.9234 14.9604 26.3622C15.4788 26.8009 15.825 27.4092 15.9374 28.079C16.0498 28.7488 15.9212 29.4368 15.5744 30.0208C15.2276 30.6047 14.685 31.0469 14.0431 31.2687C13.3608 31.4311 12.6571 31.4846 11.9581 31.4275C11.9581 32.195 11.9581 32.9625 11.9581 33.7293C11.9511 34.0293 11.827 34.3146 11.6124 34.5243C11.3978 34.7339 11.1097 34.8513 10.8097 34.8513C10.5096 34.8513 10.2215 34.7339 10.0069 34.5243C9.7923 34.3146 9.66824 34.0293 9.66124 33.7293C9.66124 31.4293 9.66124 29.1293 9.66124 26.8293M11.9594 27.9812V29.125C12.3437 29.125 12.7281 29.125 13.1125 29.125C13.261 29.1206 13.402 29.0586 13.5057 28.9522C13.6093 28.8457 13.6676 28.7032 13.668 28.5546C13.6685 28.406 13.6112 28.2631 13.5083 28.156C13.4053 28.0489 13.2647 27.986 13.1162 27.9806C12.7306 27.975 12.345 27.9812 11.9594 27.9812Z" fill="#413E43"/>
<path d="M17.9581 25.7243C18.1008 25.6873 18.2483 25.6721 18.3956 25.6793C18.9312 25.6793 19.4669 25.6793 20.0019 25.6793C20.9157 25.682 21.7913 26.0463 22.4374 26.6927C23.0834 27.339 23.4472 28.2149 23.4494 29.1287C23.4494 29.8941 23.4494 30.6604 23.4494 31.4275C23.4471 32.3414 23.0828 33.2172 22.4364 33.8633C21.79 34.5094 20.9139 34.8732 20 34.875C19.405 34.875 18.8125 34.8793 18.215 34.8718C17.9214 34.8558 17.6451 34.7281 17.4425 34.5151C17.2399 34.302 17.1263 34.0196 17.125 33.7256C17.125 31.4252 17.125 29.125 17.125 26.825C17.1264 26.5765 17.208 26.3352 17.3577 26.1368C17.5073 25.9385 17.7171 25.7938 17.9556 25.7243M19.4231 27.9781V32.575C19.7763 32.6124 20.1335 32.5771 20.4725 32.4712C20.6722 32.3798 20.8417 32.2332 20.9609 32.0488C21.0802 31.8643 21.1442 31.6496 21.1456 31.43C21.1456 30.6616 21.1456 29.8939 21.1456 29.1268C21.1451 28.9062 21.0811 28.6904 20.9615 28.505C20.8418 28.3197 20.6714 28.1726 20.4706 28.0812C20.1321 27.9759 19.7757 27.9408 19.4231 27.9781Z" fill="#413E43"/>
<path d="M24.5981 26.8237C24.5998 26.5305 24.7136 26.249 24.9161 26.0369C25.1187 25.8248 25.3946 25.6982 25.6875 25.6831C26.8187 25.6743 27.9494 25.6831 29.0794 25.6787C29.3115 25.6639 29.5432 25.7137 29.7487 25.8225C29.9095 25.9135 30.047 26.0407 30.1502 26.194C30.2535 26.3472 30.3197 26.5224 30.3437 26.7056V26.9131C30.3209 27.1916 30.1982 27.4525 29.9982 27.6477C29.7983 27.8429 29.5346 27.9594 29.2556 27.9756C28.4687 27.985 27.6825 27.9756 26.8962 27.98C26.8962 28.3625 26.8962 28.7452 26.8962 29.1281C27.28 29.1281 27.6644 29.1281 28.0494 29.1281C28.3539 29.1281 28.6459 29.2491 28.8612 29.4644C29.0765 29.6797 29.1975 29.9717 29.1975 30.2762C29.1975 30.5807 29.0765 30.8728 28.8612 31.0881C28.6459 31.3034 28.3539 31.4243 28.0494 31.4243C27.6656 31.4281 27.2812 31.4243 26.8969 31.4243C26.8969 32.1906 26.8969 32.9568 26.8969 33.7237C26.8969 34.0282 26.7759 34.3203 26.5606 34.5356C26.3453 34.7509 26.0532 34.8718 25.7487 34.8718C25.4442 34.8718 25.1522 34.7509 24.9369 34.5356C24.7216 34.3203 24.6006 34.0282 24.6006 33.7237C24.6006 31.4237 24.6006 29.1233 24.6006 26.8225" fill="#413E43"/>
<path d="M25.1638 15.25C24.9293 15.0157 24.6115 14.884 24.28 14.884C23.9486 14.884 23.6307 15.0157 23.3963 15.25L21.2413 17.405V11.0625C21.2413 10.731 21.1096 10.413 20.8751 10.1786C20.6407 9.9442 20.3228 9.8125 19.9913 9.8125C19.6597 9.8125 19.3418 9.9442 19.1074 10.1786C18.873 10.413 18.7413 10.731 18.7413 11.0625V17.4062L16.6044 15.2694C16.3686 15.0417 16.0529 14.9157 15.7251 14.9185C15.3974 14.9214 15.0839 15.0528 14.8521 15.2846C14.6203 15.5164 14.4889 15.8299 14.486 16.1576C14.4832 16.4854 14.6092 16.8011 14.8369 17.0369L19.1063 21.3069C19.1648 21.365 19.2289 21.4173 19.2975 21.4631C19.3288 21.4837 19.36 21.4981 19.3944 21.5156C19.4329 21.5384 19.4725 21.5593 19.5131 21.5781C19.5541 21.5934 19.5958 21.6065 19.6381 21.6175C19.6732 21.6298 19.7089 21.6402 19.745 21.6488C19.9064 21.6821 20.073 21.6821 20.2344 21.6488C20.2705 21.6402 20.3062 21.6298 20.3413 21.6175C20.3836 21.6065 20.4253 21.5934 20.4663 21.5781C20.5075 21.5606 20.545 21.5369 20.5844 21.5156C20.6238 21.4944 20.6469 21.4837 20.6813 21.4631C20.7499 21.4173 20.8139 21.365 20.8725 21.3069L25.1606 17.0181C25.395 16.7837 25.5266 16.4658 25.5266 16.1344C25.5266 15.8029 25.395 15.485 25.1606 15.2506" fill="#D31D16"/>
</g>
<defs>
<clipPath id="clip0_7314_3027">
<rect width="40" height="40" fill="white" transform="translate(0 0.5)"/>
</clipPath>
</defs>
</svg>
