<svg width="64" height="64" viewBox="0 0 64 64" fill="none" xmlns="http://www.w3.org/2000/svg">
<g clip-path="url(#clip0_7365_5402)">
<path d="M39.93 33.66C36.69 33.66 34.05 31.02 34.05 27.78V14.84C34.05 10.52 37.57 7 41.89 7C45.21 7 48.18 9.1 49.28 12.23C49.64 13.25 49.11 14.37 48.08 14.73C47.06 15.09 45.94 14.56 45.58 13.53C45.03 11.97 43.54 10.92 41.88 10.92C39.72 10.92 37.96 12.68 37.96 14.84V27.78C37.96 28.86 38.84 29.74 39.92 29.74C41 29.74 41.88 28.86 41.88 27.78V20.72C41.88 19.64 42.76 18.76 43.84 18.76C44.92 18.76 45.8 19.64 45.8 20.72V27.78C45.81 31.02 43.18 33.66 39.93 33.66Z" fill="#D31E16"/>
<path d="M53.26 57.18H10.92C8.76 57.18 7 55.43 7 53.26V18.76C7 16.6 8.76 14.84 10.92 14.84H28.17C29.25 14.84 30.13 15.72 30.13 16.8C30.13 17.88 29.25 18.76 28.17 18.76H10.92V53.26H53.26V18.76C52.18 18.76 51.3 17.88 51.3 16.8C51.3 15.72 52.18 14.84 53.26 14.84C55.42 14.84 57.18 16.6 57.18 18.76V53.26C57.18 55.43 55.43 57.18 53.26 57.18Z" fill="#413E43"/>
<path d="M16.41 41.5C17.4925 41.5 18.37 40.6225 18.37 39.54C18.37 38.4575 17.4925 37.58 16.41 37.58C15.3275 37.58 14.45 38.4575 14.45 39.54C14.45 40.6225 15.3275 41.5 16.41 41.5Z" fill="#413E43"/>
<path d="M16.41 49.34C17.4925 49.34 18.37 48.4625 18.37 47.38C18.37 46.2975 17.4925 45.42 16.41 45.42C15.3275 45.42 14.45 46.2975 14.45 47.38C14.45 48.4625 15.3275 49.34 16.41 49.34Z" fill="#413E43"/>
<path d="M24.25 33.66H20.33C17.09 33.66 14.45 31.02 14.45 27.78C14.45 24.54 17.09 21.9 20.33 21.9H24.25C27.49 21.9 30.13 24.54 30.13 27.78C30.13 31.02 27.49 33.66 24.25 33.66ZM20.33 25.82C19.25 25.82 18.37 26.7 18.37 27.78C18.37 28.86 19.25 29.74 20.33 29.74H24.25C25.33 29.74 26.21 28.86 26.21 27.78C26.21 26.7 25.33 25.82 24.25 25.82H20.33Z" fill="#413E43"/>
<path d="M47.78 41.5H24.25C23.17 41.5 22.29 40.62 22.29 39.54C22.29 38.46 23.17 37.58 24.25 37.58H47.77C48.85 37.58 49.73 38.46 49.73 39.54C49.74 40.62 48.86 41.5 47.78 41.5Z" fill="#413E43"/>
<path d="M47.78 49.34H24.25C23.17 49.34 22.29 48.46 22.29 47.38C22.29 46.3 23.17 45.42 24.25 45.42H47.77C48.85 45.42 49.73 46.3 49.73 47.38C49.74 48.47 48.86 49.34 47.78 49.34Z" fill="#413E43"/>
</g>
<defs>
<clipPath id="clip0_7365_5402">
<rect width="50.18" height="50.18" fill="white" transform="translate(7 7)"/>
</clipPath>
</defs>
</svg>
