<svg width="74" height="73" viewBox="0 0 74 73" fill="none" xmlns="http://www.w3.org/2000/svg">
<g clip-path="url(#clip0_7180_1319)">
<path d="M52.8192 27.7785V15.0811C52.8192 11.3281 49.7101 8.27179 45.8922 8.27179H27.4315C23.6136 8.27179 20.5044 11.3281 20.5044 15.0811V27.7897C20.5044 36.543 27.7515 43.667 36.6561 43.667C45.5607 43.667 52.8192 36.543 52.8192 27.7785ZM27.4315 12.8114H45.8922C47.161 12.8114 48.2012 13.8339 48.2012 15.0811V20.9803H43.1831C42.2343 18.3397 39.6624 16.4408 36.6561 16.4408C33.6498 16.4408 31.0779 18.3397 30.1291 20.9803H25.111V15.0811C25.1224 13.8226 26.1512 12.8114 27.4315 12.8114ZM38.9651 23.2501C38.9651 24.4974 37.9249 25.5199 36.6561 25.5199C35.3873 25.5199 34.3471 24.4974 34.3471 23.2501C34.3471 22.0029 35.3873 20.9803 36.6561 20.9803C37.9249 20.9803 38.9651 21.9916 38.9651 23.2501ZM36.6561 39.1274C30.2892 39.1274 25.111 34.0372 25.111 27.7785V25.5087H30.1291C31.0779 28.1493 33.6498 30.0482 36.6561 30.0482C39.6624 30.0482 42.2343 28.1493 43.1831 25.5087H48.2012V27.7785C48.2012 34.0372 43.0231 39.1274 36.6561 39.1274Z" fill="white"/>
<path d="M60.3295 63.0613C60.3295 64.3759 59.2435 65.4434 57.9061 65.4434C56.5687 65.4434 55.4828 64.3759 55.4828 63.0613C55.4828 56.971 52.3622 51.4764 47.2755 48.4537C46.704 50.5437 45.0236 52.6225 42.2574 54.6563C40.3256 56.0721 38.4052 57.0722 37.7879 57.3756C37.4221 57.5891 36.9992 57.7127 36.542 57.7127H36.5305C36.0733 57.7127 35.6389 57.5891 35.2732 57.3643C34.6559 57.0497 32.7698 56.0609 30.8723 54.6451C28.1518 52.6225 26.4943 50.5437 25.9228 48.465C21.922 50.8808 18.8814 54.9035 17.8641 59.2184C17.7498 59.7128 17.9555 60.0611 18.0927 60.2297C18.2298 60.3982 18.527 60.6791 19.0414 60.6791H36.5877C37.9251 60.6791 39.011 61.7466 39.011 63.0613C39.011 64.3759 37.9251 65.4434 36.5877 65.4434H19.0529C17.2011 65.4434 15.4636 64.6231 14.3091 63.1961C13.1546 61.7691 12.7316 59.9263 13.1546 58.1397C13.8747 55.1058 15.3493 52.1506 17.4411 49.5999C19.4644 47.1166 22.0134 45.0491 24.814 43.622C24.8254 43.622 24.8254 43.6108 24.8368 43.6108C26.2543 42.9029 27.7174 42.8916 28.8491 43.5771C29.9235 44.2288 30.5408 45.3974 30.5522 46.802C30.5522 46.8132 30.5522 46.8132 30.5522 46.8244C30.5522 48.5324 33.7643 51.0831 36.5534 52.6337C39.3882 51.0831 42.6575 48.5212 42.6575 46.8244C42.6575 46.8132 42.6575 46.8132 42.6575 46.802C42.6689 45.3974 43.2861 44.2288 44.3606 43.5771C45.4923 42.8916 46.9669 42.9029 48.3728 43.6108C51.9393 45.3862 54.9341 48.1279 57.0488 51.5326C59.1864 54.9934 60.3295 58.9712 60.3295 63.0613Z" fill="white"/>
<path d="M48.83 60.6903H45.435C44.0976 60.6903 43.0117 61.7578 43.0117 63.0725C43.0117 64.3872 44.0976 65.4546 45.435 65.4546H48.83C50.1674 65.4546 51.2533 64.3872 51.2533 63.0725C51.2419 61.7466 50.1674 60.6903 48.83 60.6903Z" fill="white"/>
</g>
<defs>
<clipPath id="clip0_7180_1319">
<rect width="47.3349" height="57.1716" fill="white" transform="translate(12.9946 8.27179)"/>
</clipPath>
</defs>
</svg>
