<svg width="21" height="21" viewBox="0 0 21 21" fill="none" xmlns="http://www.w3.org/2000/svg">
<path d="M10.1094 9.395C9.1144 9.39246 8.15587 9.02007 7.42009 8.35022C6.68432 7.68036 6.22387 6.76088 6.12823 5.77047C6.03258 4.78006 6.30857 3.78946 6.90256 2.99118C7.49656 2.19291 8.36612 1.64399 9.34226 1.45109C10.3184 1.25819 11.3314 1.43509 12.1844 1.94743C13.0374 2.45976 13.6694 3.27092 13.9577 4.22326C14.246 5.17561 14.1699 6.20112 13.7442 7.10049C13.3185 7.99986 12.5737 8.70886 11.6544 9.08968C11.1645 9.29197 10.6395 9.39572 10.1094 9.395ZM10.146 2.5675C9.46621 2.56913 8.81133 2.82343 8.30862 3.281C7.80591 3.73856 7.49128 4.36669 7.42587 5.04331C7.36047 5.71992 7.54898 6.39668 7.95474 6.94206C8.36051 7.48744 8.95456 7.86247 9.62143 7.99426C10.2883 8.12605 10.9804 8.0052 11.5631 7.65517C12.1458 7.30515 12.5776 6.75098 12.7745 6.10035C12.9714 5.44972 12.9193 4.74913 12.6285 4.13473C12.3376 3.52033 11.8287 3.03602 11.2007 2.77593C10.8662 2.63787 10.5078 2.56704 10.146 2.5675Z" fill="white"/>
<path d="M17.7053 15.3681L17.6885 15.375C17.542 15.4356 17.4242 15.5498 17.359 15.6942C17.2938 15.8387 17.2861 16.0026 17.3375 16.1525C17.4492 16.4605 17.5187 16.7821 17.5441 17.1087C17.5535 17.2058 17.5414 17.3037 17.5087 17.3956C17.476 17.4874 17.4235 17.571 17.3549 17.6402C17.2863 17.7095 17.2033 17.7629 17.1118 17.7965C17.0203 17.8301 16.9225 17.8431 16.8253 17.8347H3.36533C3.26762 17.8438 3.16909 17.8314 3.0767 17.7983C2.98431 17.7652 2.90032 17.7122 2.83064 17.6431C2.76096 17.574 2.7073 17.4904 2.67345 17.3983C2.63959 17.3062 2.62637 17.2078 2.63471 17.11C2.63471 17.0647 2.83846 12.3478 10.0925 12.3478C13.245 12.3478 15.0638 13.2356 16.1085 14.2459C16.1952 14.3281 16.304 14.3831 16.4216 14.4043C16.5392 14.4256 16.6604 14.412 16.7703 14.3653C16.8669 14.3254 16.9521 14.262 17.0179 14.1809C17.0838 14.0998 17.1284 14.0034 17.1476 13.9007C17.1668 13.798 17.16 13.692 17.1278 13.5926C17.0957 13.4931 17.0392 13.4033 16.9635 13.3312C15.6644 12.1047 13.5235 11.1019 10.0925 11.1019C2.95189 11.1019 1.39471 15.4394 1.39471 17.11C1.38655 17.3705 1.43175 17.6299 1.52754 17.8723C1.62333 18.1148 1.76768 18.335 1.95172 18.5196C2.13576 18.7041 2.3556 18.8491 2.59773 18.9456C2.83986 19.0421 3.09917 19.088 3.35971 19.0806H16.8253C17.0857 19.0876 17.3449 19.0413 17.5868 18.9447C17.8287 18.848 18.0484 18.703 18.2323 18.5186C18.4162 18.3341 18.5606 18.114 18.6566 17.8718C18.7525 17.6296 18.798 17.3704 18.7903 17.11C18.7794 16.6394 18.6925 16.1736 18.5331 15.7306C18.5043 15.6512 18.4596 15.5785 18.4018 15.5169C18.344 15.4553 18.2742 15.4061 18.1968 15.3723C18.1194 15.3385 18.0359 15.3208 17.9514 15.3203C17.8669 15.3198 17.7832 15.3365 17.7053 15.3694" fill="white"/>
<path fill-rule="evenodd" clip-rule="evenodd" d="M19.0457 8.76992H18.1019V7.82617C18.1019 7.66041 18.0361 7.50144 17.9189 7.38423C17.8017 7.26702 17.6427 7.20117 17.4769 7.20117C17.3112 7.20117 17.1522 7.26702 17.035 7.38423C16.9178 7.50144 16.8519 7.66041 16.8519 7.82617V8.76992H15.9072C15.7415 8.76992 15.5825 8.83577 15.4653 8.95298C15.3481 9.07019 15.2822 9.22916 15.2822 9.39492C15.2822 9.56068 15.3481 9.71965 15.4653 9.83686C15.5825 9.95407 15.7415 10.0199 15.9072 10.0199H16.851V10.9637C16.851 11.1294 16.9168 11.2884 17.034 11.4056C17.1513 11.5228 17.3102 11.5887 17.476 11.5887C17.6418 11.5887 17.8007 11.5228 17.9179 11.4056C18.0351 11.2884 18.101 11.1294 18.101 10.9637V10.0199H19.0447C19.2105 10.0199 19.3695 9.95407 19.4867 9.83686C19.6039 9.71965 19.6697 9.56068 19.6697 9.39492C19.6697 9.22916 19.6039 9.07019 19.4867 8.95298C19.3695 8.83577 19.2105 8.76992 19.0447 8.76992" fill="white"/>
</svg>
