<svg width="21" height="21" viewBox="0 0 21 21" fill="none" xmlns="http://www.w3.org/2000/svg">
<path d="M10.2715 9.77C9.27653 9.76746 8.318 9.39507 7.58223 8.72522C6.84646 8.05536 6.38601 7.13588 6.29036 6.14547C6.19471 5.15506 6.4707 4.16446 7.0647 3.36618C7.65869 2.56791 8.52825 2.01899 9.50439 1.82609C10.4805 1.63319 11.4935 1.81009 12.3465 2.32243C13.1995 2.83476 13.8315 3.64592 14.1198 4.59826C14.4081 5.55061 14.332 6.57612 13.9063 7.47549C13.4806 8.37486 12.7358 9.08386 11.8165 9.46468C11.3266 9.66697 10.8016 9.77072 10.2715 9.77ZM10.3081 2.9425C9.62835 2.94413 8.97347 3.19843 8.47075 3.656C7.96804 4.11356 7.65341 4.74169 7.58801 5.41831C7.5226 6.09492 7.71111 6.77168 8.11688 7.31706C8.52265 7.86244 9.11669 8.23747 9.78356 8.36926C10.4504 8.50105 11.1425 8.3802 11.7252 8.03017C12.3079 7.68015 12.7397 7.12598 12.9366 6.47535C13.1335 5.82472 13.0815 5.12413 12.7906 4.50973C12.4998 3.89533 11.9908 3.41102 11.3628 3.15093C11.0283 3.01287 10.67 2.94204 10.3081 2.9425Z" fill="white"/>
<path d="M17.8675 15.7431L17.8506 15.75C17.7041 15.8106 17.5863 15.9248 17.5211 16.0692C17.4559 16.2137 17.4482 16.3776 17.4996 16.5275C17.6113 16.8355 17.6808 17.1571 17.7062 17.4837C17.7156 17.5808 17.7035 17.6787 17.6708 17.7706C17.6382 17.8624 17.5856 17.946 17.517 18.0152C17.4484 18.0845 17.3654 18.1379 17.2739 18.1715C17.1824 18.2051 17.0846 18.2181 16.9875 18.2097H3.52746C3.42975 18.2188 3.33122 18.2064 3.23883 18.1733C3.14645 18.1402 3.06245 18.0872 2.99277 18.0181C2.9231 17.949 2.86944 17.8654 2.83558 17.7733C2.80173 17.6812 2.7885 17.5828 2.79684 17.485C2.79684 17.4397 3.00059 12.7228 10.2547 12.7228C13.4072 12.7228 15.2259 13.6106 16.2706 14.6209C16.3573 14.7031 16.4661 14.7581 16.5837 14.7793C16.7013 14.8006 16.8225 14.787 16.9325 14.7403C17.0291 14.7004 17.1142 14.637 17.1801 14.5559C17.246 14.4748 17.2905 14.3784 17.3097 14.2757C17.3289 14.173 17.3221 14.067 17.29 13.9676C17.2578 13.8681 17.2013 13.7783 17.1256 13.7062C15.8265 12.4797 13.6856 11.4769 10.2547 11.4769C3.11402 11.4769 1.55684 15.8144 1.55684 17.485C1.54868 17.7455 1.59388 18.0049 1.68967 18.2473C1.78546 18.4898 1.92981 18.71 2.11385 18.8946C2.29789 19.0791 2.51773 19.2241 2.75986 19.3206C3.00199 19.4171 3.2613 19.463 3.52184 19.4556H16.9875C17.2479 19.4626 17.507 19.4163 17.7489 19.3197C17.9908 19.223 18.2105 19.078 18.3944 18.8936C18.5784 18.7091 18.7227 18.489 18.8187 18.2468C18.9146 18.0046 18.9602 17.7454 18.9525 17.485C18.9415 17.0144 18.8547 16.5486 18.6953 16.1056C18.6665 16.0262 18.6218 15.9535 18.5639 15.8919C18.5061 15.8303 18.4364 15.7811 18.3589 15.7473C18.2815 15.7135 18.198 15.6958 18.1135 15.6953C18.029 15.6948 17.9453 15.7115 17.8675 15.7444" fill="white"/>
<path fill-rule="evenodd" clip-rule="evenodd" d="M19.2078 9.14492H18.2641V8.20117C18.2641 8.03541 18.1982 7.87644 18.081 7.75923C17.9638 7.64202 17.8048 7.57617 17.6391 7.57617C17.4733 7.57617 17.3143 7.64202 17.1971 7.75923C17.0799 7.87644 17.0141 8.03541 17.0141 8.20117V9.14492H16.0694C15.9036 9.14492 15.7446 9.21077 15.6274 9.32798C15.5102 9.44519 15.4444 9.60416 15.4444 9.76992C15.4444 9.93568 15.5102 10.0947 15.6274 10.2119C15.7446 10.3291 15.9036 10.3949 16.0694 10.3949H17.0131V11.3387C17.0131 11.5044 17.079 11.6634 17.1962 11.7806C17.3134 11.8978 17.4724 11.9637 17.6381 11.9637C17.8039 11.9637 17.9629 11.8978 18.0801 11.7806C18.1973 11.6634 18.2631 11.5044 18.2631 11.3387V10.3949H19.2069C19.3726 10.3949 19.5316 10.3291 19.6488 10.2119C19.766 10.0947 19.8319 9.93568 19.8319 9.76992C19.8319 9.60416 19.766 9.44519 19.6488 9.32798C19.5316 9.21077 19.3726 9.14492 19.2069 9.14492" fill="white"/>
</svg>
