<svg width="50" height="50" viewBox="0 0 50 50" fill="none" xmlns="http://www.w3.org/2000/svg">
<g clip-path="url(#clip0_7180_6)">
<path d="M39.3411 28.8831C37.9444 28.8831 36.8086 29.4126 35.9874 30.0342C35.1663 29.4126 34.0305 28.8831 32.6338 28.8831C29.9171 28.8831 27.7837 31.2851 27.7837 34.3548C27.7837 36.3424 28.7583 40.1948 35.2967 43.6329C35.5116 43.748 35.7495 43.8017 35.9874 43.8017C36.2253 43.8017 36.4632 43.748 36.6781 43.6329C43.2089 40.1948 44.1912 36.3501 44.1912 34.3548C44.1912 31.2851 42.0654 28.8831 39.3411 28.8831ZM35.9874 40.6093C32.6568 38.706 30.769 36.4498 30.769 34.3548C30.769 33.1499 31.4213 31.8683 32.6338 31.8683C33.9307 31.8683 34.6521 32.8583 34.7289 32.9657C34.9975 33.4108 35.4656 33.6871 35.9874 33.6871C36.5093 33.6871 36.9774 33.4108 37.246 32.9657C37.3227 32.8506 38.0441 31.8683 39.3411 31.8683C40.5536 31.8683 41.2059 33.1499 41.2059 34.3548C41.2059 36.4498 39.318 38.706 35.9874 40.6093Z" fill="#D31D16"/>
<path d="M10.6313 43.794H25.8262C26.6474 43.794 27.315 43.1263 27.315 42.3052C27.315 41.484 26.6474 40.8164 25.8262 40.8164H10.6313C9.81015 40.8164 9.1425 40.1487 9.1425 39.3276V10.0888C9.1425 9.26767 9.81015 8.60002 10.6313 8.60002H33.0016C33.8228 8.60002 34.4904 9.26767 34.4904 10.0888V24.4319C34.4904 25.2531 35.1581 25.9207 35.9792 25.9207C36.8004 25.9207 37.468 25.2531 37.468 24.4319V10.0888C37.4757 7.62539 35.4727 5.61475 33.0016 5.61475H10.6313C8.16787 5.61475 6.15723 7.62539 6.15723 10.0888V39.3199C6.15723 41.791 8.16787 43.794 10.6313 43.794Z" fill="#413E43"/>
<path d="M13.6172 14.2637C14.4395 14.2637 15.106 13.5972 15.106 12.7749C15.106 11.9527 14.4395 11.2861 13.6172 11.2861C12.795 11.2861 12.1284 11.9527 12.1284 12.7749C12.1284 13.5972 12.795 14.2637 13.6172 14.2637Z" fill="#413E43"/>
<path d="M30.0239 11.2861H19.5869C18.7658 11.2861 18.0981 11.9538 18.0981 12.7749C18.0981 13.5961 18.7658 14.2637 19.5869 14.2637H30.0239C30.845 14.2637 31.5127 13.5961 31.5127 12.7749C31.5127 11.9538 30.845 11.2861 30.0239 11.2861Z" fill="#413E43"/>
<path d="M13.6172 20.2261C14.4395 20.2261 15.106 19.5596 15.106 18.7373C15.106 17.9151 14.4395 17.2485 13.6172 17.2485C12.795 17.2485 12.1284 17.9151 12.1284 18.7373C12.1284 19.5596 12.795 20.2261 13.6172 20.2261Z" fill="#413E43"/>
<path d="M30.0239 17.2485H19.5869C18.7658 17.2485 18.0981 17.9162 18.0981 18.7373C18.0981 19.5585 18.7658 20.2261 19.5869 20.2261H30.0239C30.845 20.2261 31.5127 19.5585 31.5127 18.7373C31.5127 17.9162 30.845 17.2485 30.0239 17.2485Z" fill="#413E43"/>
<path d="M13.6172 26.1971C14.4395 26.1971 15.106 25.5305 15.106 24.7083C15.106 23.886 14.4395 23.2195 13.6172 23.2195C12.795 23.2195 12.1284 23.886 12.1284 24.7083C12.1284 25.5305 12.795 26.1971 13.6172 26.1971Z" fill="#413E43"/>
<path d="M31.5127 24.7083C31.5127 23.8871 30.845 23.2195 30.0239 23.2195H19.5869C18.7658 23.2195 18.0981 23.8871 18.0981 24.7083C18.0981 25.5294 18.7658 26.1971 19.5869 26.1971H30.0239C30.845 26.1971 31.5127 25.5294 31.5127 24.7083Z" fill="#413E43"/>
<path d="M13.6172 32.1597C14.4395 32.1597 15.106 31.4932 15.106 30.6709C15.106 29.8487 14.4395 29.1821 13.6172 29.1821C12.795 29.1821 12.1284 29.8487 12.1284 30.6709C12.1284 31.4932 12.795 32.1597 13.6172 32.1597Z" fill="#413E43"/>
<path d="M25.5502 30.6709C25.5502 29.8498 24.8825 29.1821 24.0614 29.1821H19.5796C18.7585 29.1821 18.0908 29.8498 18.0908 30.6709C18.0908 31.4921 18.7585 32.1597 19.5796 32.1597H24.0614C24.8825 32.1674 25.5502 31.4997 25.5502 30.6709Z" fill="#413E43"/>
<path d="M13.6172 38.1304C14.4395 38.1304 15.106 37.4639 15.106 36.6416C15.106 35.8194 14.4395 35.1528 13.6172 35.1528C12.795 35.1528 12.1284 35.8194 12.1284 36.6416C12.1284 37.4639 12.795 38.1304 13.6172 38.1304Z" fill="#413E43"/>
<path d="M19.5796 35.145C18.7585 35.145 18.0908 35.8127 18.0908 36.6338C18.0908 37.455 18.7585 38.1226 19.5796 38.1226H23.4935C24.3146 38.1226 24.9823 37.455 24.9823 36.6338C24.9823 35.8127 24.3146 35.145 23.4935 35.145H19.5796Z" fill="#413E43"/>
</g>
<defs>
<clipPath id="clip0_7180_6">
<rect width="38.0334" height="38.1792" fill="white" transform="translate(6.15723 5.61475)"/>
</clipPath>
</defs>
</svg>
