<svg width="64" height="64" viewBox="0 0 64 64" fill="none" xmlns="http://www.w3.org/2000/svg">
<g clip-path="url(#clip0_7034_3211)">
<path d="M32.88 58.13L32.9 58.12C35.88 57 37.4 53.67 36.28 50.69L33.58 43.48C32.46 40.5 29.13 38.98 26.15 40.1C25.16 40.47 24.04 39.97 23.67 38.97L21.24 32.48C20.87 31.49 21.37 30.37 22.37 30C25.35 28.88 26.87 25.55 25.75 22.57L23.05 15.36C21.93 12.38 18.6 10.86 15.62 11.98L15.56 12C8.52995 14.64 5.14995 22.53 8.01995 30.19L15.23 49.39C18.07 56.95 25.74 60.8 32.88 58.13ZM11.63 28.83C9.51995 23.21 11.79 17.52 16.92 15.6L16.94 15.59C17.93 15.22 19.05 15.72 19.42 16.72L22.12 23.93C22.49 24.92 21.99 26.04 20.99 26.41C18.01 27.53 16.49 30.86 17.61 33.84L20.04 40.33C21.16 43.31 24.49 44.83 27.47 43.71C28.46 43.34 29.58 43.84 29.95 44.84L32.65 52.05C33.02 53.04 32.52 54.16 31.52 54.53L31.5 54.54C26.38 56.46 20.92 53.67 18.81 48.05L11.63 28.83Z" fill="#413E43"/>
<path d="M43.68 5C36.25 5.05 30.24 11.13 30.29 18.56L30.36 30.11C30.37 31.17 29.51 32.04 28.45 32.05C27.39 32.06 26.53 32.92 26.54 33.99C26.55 35.05 27.41 35.91 28.48 35.9L43.88 35.81C51.31 35.76 57.32 29.68 57.27 22.25L57.25 18.4C57.19 10.96 51.11 4.95 43.68 5ZM53.41 22.26C53.44 27.57 49.15 31.91 43.85 31.94L33.9 32C34.11 31.4 34.22 30.75 34.22 30.07L34.15 18.52C34.12 13.21 38.41 8.87 43.71 8.84C49.01 8.81 53.36 13.1 53.39 18.4L53.41 22.26Z" fill="#D31D16"/>
</g>
<defs>
<clipPath id="clip0_7034_3211">
<rect width="50.26" height="53.98" fill="white" transform="translate(7 5)"/>
</clipPath>
</defs>
</svg>
