<svg width="2" height="37" viewBox="0 0 2 37" fill="none" xmlns="http://www.w3.org/2000/svg">
<path d="M0.969028 36.1511C0.778978 36.1511 0.596711 36.0756 0.462325 35.9412C0.327939 35.8068 0.252441 35.6245 0.252441 35.4345V1.09558C0.262591 0.912688 0.342394 0.740623 0.475459 0.614736C0.608525 0.48885 0.784743 0.418701 0.96792 0.418701C1.1511 0.418701 1.32733 0.48885 1.4604 0.614736C1.59346 0.740623 1.67327 0.912688 1.68342 1.09558V35.4389C1.68342 35.533 1.66487 35.6262 1.62886 35.7131C1.59285 35.8 1.54007 35.879 1.47353 35.9456C1.40699 36.0121 1.328 36.0649 1.24106 36.1009C1.15412 36.1369 1.06093 36.1555 0.966828 36.1555" fill="#FF6A00"/>
</svg>
