<svg width="64" height="64" viewBox="0 0 64 64" fill="none" xmlns="http://www.w3.org/2000/svg">
<g clip-path="url(#clip0_962_3839)">
<path fill-rule="evenodd" clip-rule="evenodd" d="M40.8844 41.9488H22.2004C21.67 41.9488 21.1613 42.1595 20.7862 42.5346C20.4112 42.9096 20.2004 43.4184 20.2004 43.9488C20.2004 44.4792 20.4112 44.9879 20.7862 45.363C21.1613 45.7381 21.67 45.9488 22.2004 45.9488H40.8844C41.4149 45.9488 41.9236 45.7381 42.2987 45.363C42.6737 44.9879 42.8844 44.4792 42.8844 43.9488C42.8844 43.4184 42.6737 42.9096 42.2987 42.5346C41.9236 42.1595 41.4149 41.9488 40.8844 41.9488Z" fill="#D31D16"/>
<path fill-rule="evenodd" clip-rule="evenodd" d="M37.3194 49.0348H25.7654C25.2349 49.0348 24.7262 49.2455 24.3512 49.6206C23.9761 49.9957 23.7654 50.5044 23.7654 51.0348C23.7654 51.5652 23.9761 52.0739 24.3512 52.449C24.7262 52.8241 25.2349 53.0348 25.7654 53.0348H37.3194C37.8498 53.0348 38.3585 52.8241 38.7336 52.449C39.1087 52.0739 39.3194 51.5652 39.3194 51.0348C39.3194 50.5044 39.1087 49.9957 38.7336 49.6206C38.3585 49.2455 37.8498 49.0348 37.3194 49.0348Z" fill="#D31D16"/>
<path fill-rule="evenodd" clip-rule="evenodd" d="M26.2583 31.4018V33.2938C26.3009 33.6301 26.4568 33.9419 26.7003 34.1778C26.941 34.4046 27.2541 34.5388 27.5843 34.5568H29.3503L30.6753 35.9138C30.9307 36.1287 31.2567 36.2413 31.5903 36.2298C31.9205 36.2118 32.2336 36.0776 32.4743 35.8508L33.7353 34.5938H35.5963C35.9257 34.5586 36.2298 34.4008 36.4483 34.1518C36.6724 33.8998 36.796 33.5741 36.7953 33.2368V31.4018L38.0583 30.1398L38.1583 30.0398C38.368 29.7815 38.4796 29.4574 38.4733 29.1248C38.4499 28.7804 38.3045 28.4557 38.0633 28.2088L36.8013 26.9468V25.0258C36.7707 24.693 36.6258 24.381 36.3913 24.1428C36.1431 23.9278 35.8342 23.7954 35.5073 23.7638H33.7353L32.4733 22.5008L32.3733 22.4378C32.118 22.2227 31.7919 22.1101 31.4583 22.1218C31.1283 22.1393 30.8153 22.2737 30.5753 22.5008L29.3493 23.7638H27.4883C27.1499 23.7984 26.8358 23.9556 26.6053 24.2058C26.408 24.4709 26.2976 24.7905 26.2893 25.1208V26.9208L25.0583 28.1828L24.9633 28.3088C24.7482 28.5641 24.6356 28.8902 24.6473 29.2238C24.6583 29.565 24.793 29.8906 25.0263 30.1398L26.2583 31.4018ZM28.5303 29.0348C28.5526 28.9515 28.596 28.8754 28.6563 28.8138C28.7161 28.7441 28.792 28.6898 28.8773 28.6558C28.9672 28.6208 29.062 28.5999 29.1583 28.5938C29.2453 28.5999 29.3306 28.6212 29.4103 28.6568C29.4957 28.6908 29.5715 28.7451 29.6313 28.8148L30.7673 29.9828L33.5753 27.1418C33.6369 27.0814 33.713 27.038 33.7963 27.0158C33.8776 26.9895 33.963 26.9786 34.0483 26.9838C34.1309 26.9844 34.2126 27.0015 34.2885 27.0342C34.3644 27.0668 34.433 27.1143 34.4903 27.1738C34.5533 27.2048 34.5843 27.2678 34.6483 27.3628C34.6837 27.4429 34.7051 27.5285 34.7113 27.6158C34.6902 27.7931 34.6128 27.9589 34.4903 28.0888L31.2723 31.3718C31.2125 31.4415 31.1367 31.4957 31.0513 31.5298C30.9657 31.5803 30.8663 31.6024 30.7673 31.5928C30.682 31.6002 30.5961 31.5893 30.5153 31.5608C30.4254 31.5056 30.3407 31.4424 30.2623 31.3718L28.6853 29.7618C28.6249 29.6997 28.5812 29.6233 28.5583 29.5398C28.523 29.46 28.5017 29.3748 28.4953 29.2878C28.488 29.2021 28.4989 29.1159 28.5273 29.0348" fill="#D31D16"/>
<path fill-rule="evenodd" clip-rule="evenodd" d="M52.1582 27.0468C51.6494 27.0532 51.1629 27.2568 50.8012 27.6148C50.4473 27.992 50.245 28.4866 50.2332 29.0038V54.8538C50.2378 55.1117 50.1898 55.3679 50.0922 55.6067C49.9945 55.8455 49.8492 56.062 49.6652 56.2428C49.489 56.4237 49.2781 56.5673 49.0451 56.6649C48.8121 56.7625 48.5618 56.8121 48.3092 56.8108H14.7732C14.2647 56.8041 13.7786 56.6005 13.4172 56.2428C13.0633 55.8655 12.861 55.3709 12.8492 54.8538V9.90679C12.8613 9.38998 13.0635 8.89577 13.4172 8.51879C13.5918 8.33565 13.8024 8.19064 14.0358 8.09288C14.2692 7.99513 14.5202 7.94675 14.7732 7.95079H38.6882V17.7988C38.684 18.3134 38.8843 18.8087 39.245 19.1756C39.6058 19.5426 40.0976 19.7513 40.6122 19.7558C52.9802 19.7558 52.7592 19.9758 53.5482 19.1238C53.8921 18.7555 54.0836 18.2706 54.0842 17.7668C54.0895 17.2618 53.8971 16.7749 53.5482 16.4098L42.0012 4.60479C41.1492 3.78379 35.2492 4.03679 14.7422 4.03679C13.9824 4.0407 13.2311 4.19627 12.5322 4.49437C11.8333 4.79247 11.2009 5.2271 10.6722 5.77279C10.1354 6.31808 9.71142 6.9639 9.42451 7.67327C9.13761 8.38264 8.99343 9.14162 9.00023 9.90679V54.8868C9.00343 55.6648 9.15339 56.4353 9.44223 57.1578C9.73383 57.8757 10.1621 58.5302 10.7032 59.0848C11.2421 59.6233 11.8726 60.0615 12.5652 60.3788C13.2722 60.6414 14.0191 60.7801 14.7732 60.7888H48.3422C49.102 60.7848 49.8533 60.6291 50.5522 60.3311C51.2511 60.033 51.8834 59.5984 52.4122 59.0528C53.4944 57.935 54.1034 56.4426 54.1122 54.8868V29.0348C54.1163 28.7771 54.068 28.5212 53.9704 28.2826C53.8728 28.044 53.7278 27.8277 53.5442 27.6468C53.1785 27.272 52.6798 27.0565 52.1562 27.0468M42.5372 15.8098V10.7278L47.5222 15.8098H42.5372Z" fill="#413E43"/>
</g>
<defs>
<clipPath id="clip0_962_3839">
<rect width="64" height="64" fill="white"/>
</clipPath>
</defs>
</svg>
