<svg width="64" height="64" viewBox="0 0 64 64" fill="none" xmlns="http://www.w3.org/2000/svg">
<g clip-path="url(#clip0_7362_5303)">
<path d="M50.44 46.15C49.66 45.41 48.44 45.44 47.69 46.21C43.75 50.34 38.44 52.68 32.73 52.81C20.96 53.08 11.16 43.72 10.89 31.94C10.82 29.06 11.32 26.25 12.38 23.59C12.78 22.59 12.29 21.46 11.29 21.07C10.29 20.67 9.15997 21.16 8.76997 22.16C7.51997 25.3 6.92997 28.62 7.00997 32.03C7.32997 45.98 18.88 57.01 32.83 56.69C39.57 56.54 45.85 53.77 50.51 48.89C51.24 48.12 51.21 46.89 50.44 46.15Z" fill="#D31E16"/>
<path d="M13.3 17.55C14.08 18.29 15.3 18.26 16.05 17.49C19.98 13.36 25.3 11.02 31 10.89C42.78 10.62 52.58 19.98 52.84 31.76C52.91 34.64 52.41 37.45 51.35 40.11C50.95 41.11 51.44 42.24 52.44 42.63C53.44 43.03 54.57 42.54 54.96 41.54C56.21 38.4 56.8 35.08 56.72 31.67C56.41 17.72 44.86 6.69 30.91 7.01C24.17 7.16 17.89 9.93 13.23 14.81C12.49 15.58 12.52 16.81 13.3 17.55Z" fill="#413E43"/>
<path d="M49.16 29.44C49.17 29.44 49.17 29.44 49.16 29.44C49.09 28.63 48.96 27.83 48.74 27.03C48.46 25.98 47.38 25.37 46.33 25.65C45.28 25.93 44.67 27.01 44.95 28.06C44.99 28.2 45.02 28.37 45.05 28.54C45.04 28.54 45.03 28.54 45.02 28.54C45.07 28.71 45.09 28.89 45.13 29.07C45.17 29.34 45.2 29.61 45.22 29.9H39.57C39.41 26.25 38.79 22.85 37.78 20.17C37.69 19.93 37.6 19.7 37.51 19.49C38.35 19.94 39.29 20.51 39.85 20.99C40.67 21.7 41.91 21.61 42.62 20.79C43.33 19.97 43.24 18.73 42.42 18.02C42.15 17.79 41.85 17.57 41.54 17.36H41.55C41.5 17.33 41.45 17.3 41.4 17.27C41.18 17.13 40.96 16.99 40.74 16.86C40.63 16.79 40.52 16.72 40.4 16.66C40.37 16.64 40.34 16.62 40.31 16.61C40.31 16.61 40.31 16.61 40.31 16.62C37.8 15.21 34.93 14.38 31.85 14.38C22.23 14.38 14.37 22.2 14.37 31.86C14.37 41.5 22.21 49.34 31.85 49.34C41.47 49.34 49.33 41.52 49.33 31.86C49.35 31.03 49.28 30.23 49.16 29.44ZM18.41 33.79H24.14C24.3 37.44 24.92 40.84 25.93 43.52C26.02 43.76 26.11 43.99 26.2 44.21C22.09 42.31 19.08 38.43 18.41 33.79ZM25.93 20.18C24.93 22.86 24.31 26.26 24.14 29.91H18.41C19.08 25.28 22.09 21.39 26.2 19.5C26.11 19.71 26.02 19.94 25.93 20.18ZM34.17 42.15C33.16 44.84 32.15 45.44 31.87 45.44C31.59 45.44 30.58 44.84 29.57 42.15C28.72 39.88 28.19 36.97 28.04 33.79H35.71C35.55 36.97 35.02 39.89 34.17 42.15ZM28.03 29.91C28.18 26.73 28.71 23.81 29.56 21.55C30.57 18.86 31.58 18.26 31.86 18.26C32.14 18.26 33.15 18.86 34.16 21.55C35.01 23.82 35.54 26.73 35.69 29.91H28.03ZM37.53 44.21C37.62 43.99 37.71 43.76 37.8 43.52C38.8 40.84 39.42 37.44 39.59 33.79H45.32C44.66 38.43 41.64 42.31 37.53 44.21Z" fill="#413E43"/>
</g>
<defs>
<clipPath id="clip0_7362_5303">
<rect width="49.73" height="49.7" fill="white" transform="translate(7 7)"/>
</clipPath>
</defs>
</svg>
