<svg width="25" height="19" viewBox="0 0 25 19" fill="none" xmlns="http://www.w3.org/2000/svg">
<path d="M21.42 0.140625H3.83396C2.99959 0.140625 2.19938 0.487569 1.60933 1.10515C1.01927 1.72274 0.687691 2.56039 0.6875 3.43389V14.9486C0.687527 15.3812 0.768926 15.8094 0.92707 16.209C1.08521 16.6086 1.31701 16.9717 1.60919 17.2775C1.90137 17.5833 2.24822 17.8258 2.62995 17.9913C3.01168 18.1568 3.4208 18.2419 3.83396 18.2418H21.42C22.2542 18.2418 23.0543 17.8948 23.6443 17.2772C24.2342 16.6596 24.5656 15.822 24.5656 14.9486V3.43389C24.5655 2.56053 24.234 1.72299 23.6441 1.10543C23.0542 0.487859 22.2542 0.140825 21.42 0.140625ZM15.4515 9.986L10.5614 12.5448C10.4321 12.6127 10.2883 12.6448 10.1438 12.6381C9.99932 12.6314 9.85884 12.5861 9.73574 12.5066C9.61264 12.4271 9.511 12.3159 9.44048 12.1837C9.36996 12.0515 9.33291 11.9026 9.33283 11.7512V6.63329C9.33294 6.48185 9.37 6.33295 9.44051 6.20072C9.51101 6.06848 9.61262 5.9573 9.73569 5.87771C9.85876 5.79812 9.9992 5.75277 10.1437 5.74595C10.2882 5.73913 10.432 5.77108 10.5614 5.83876L15.4515 8.39759C15.5923 8.47139 15.7107 8.58476 15.7934 8.72501C15.8762 8.86525 15.92 9.02684 15.92 9.19169C15.92 9.35653 15.8762 9.51812 15.7934 9.65837C15.7107 9.79862 15.5923 9.91199 15.4515 9.98579" fill="white"/>
</svg>
