<svg width="25" height="19" viewBox="0 0 25 19" fill="none" xmlns="http://www.w3.org/2000/svg">
<path d="M20.92 0.640625H3.33396C2.49959 0.640625 1.69938 0.987569 1.10933 1.60515C0.51927 2.22274 0.187691 3.06039 0.1875 3.93389V15.4486C0.187527 15.8812 0.268926 16.3094 0.42707 16.709C0.585215 17.1086 0.817006 17.4717 1.10919 17.7775C1.40137 18.0833 1.74822 18.3258 2.12995 18.4913C2.51168 18.6568 2.9208 18.7419 3.33396 18.7418H20.92C21.7542 18.7418 22.5543 18.3948 23.1443 17.7772C23.7342 17.1596 24.0656 16.322 24.0656 15.4486V3.93389C24.0655 3.06053 23.734 2.22299 23.1441 1.60543C22.5542 0.987859 21.7542 0.640825 20.92 0.640625ZM14.9515 10.486L10.0614 13.0448C9.93207 13.1127 9.78833 13.1448 9.64382 13.1381C9.49932 13.1314 9.35884 13.0861 9.23574 13.0066C9.11264 12.9271 9.011 12.8159 8.94048 12.6837C8.86996 12.5515 8.83291 12.4026 8.83283 12.2512V7.13329C8.83294 6.98185 8.87 6.83295 8.94051 6.70072C9.01101 6.56848 9.11262 6.4573 9.23569 6.37771C9.35876 6.29812 9.4992 6.25277 9.64371 6.24595C9.78822 6.23913 9.93199 6.27108 10.0614 6.33876L14.9515 8.89759C15.0923 8.97139 15.2107 9.08476 15.2934 9.22501C15.3762 9.36525 15.42 9.52684 15.42 9.69169C15.42 9.85653 15.3762 10.0181 15.2934 10.1584C15.2107 10.2986 15.0923 10.412 14.9515 10.4858" fill="#D31D16"/>
</svg>
